<?xml version="1.0" encoding="utf-8"?>
<!-- Generator: Adobe Illustrator 27.7.0, SVG Export Plug-In . SVG Version: 6.00 Build 0)  -->
<svg version="1.1" id="Layer_1" xmlns="http://www.w3.org/2000/svg" xmlns:xlink="http://www.w3.org/1999/xlink" x="0px" y="0px"
	 viewBox="0 0 180 265.994" enable-background="new 0 0 180 265.994" xml:space="preserve">
<g>
	<g>
		<g>
			<path d="M138.045,25.577c-0.148,0.068-3.695,1.687-9.009,4.601c-2.775,1.521-5.527,3.12-8.181,4.753
				c-1.976,1.215-3.92,2.463-5.779,3.71c-1.114,0.747-1.412,2.256-0.664,3.371c0.469,0.699,1.237,1.076,2.02,1.076
				c0.465,0,0.936-0.133,1.351-0.412c1.806-1.212,3.696-2.425,5.618-3.607c2.586-1.59,5.268-3.148,7.972-4.631
				c5.141-2.819,8.651-4.423,8.686-4.439c1.221-0.556,1.76-1.996,1.204-3.217C140.706,25.561,139.266,25.021,138.045,25.577z"/>
			<path d="M104.513,107.735c0.508,0,1.021-0.159,1.458-0.488l14.006-10.535c1.072-0.806,1.288-2.329,0.481-3.402
				c-0.806-1.072-2.329-1.288-3.402-0.481l-14.006,10.535c-1.072,0.806-1.288,2.329-0.481,3.402
				C103.047,107.401,103.776,107.735,104.513,107.735z"/>
			<path d="M23.687,46.255c4.387,0.161,8.303,0.708,11.639,1.625c6.432,1.767,11.609,4.186,15.828,7.396
				c0.439,0.334,0.956,0.496,1.469,0.496c0.733,0,1.457-0.33,1.935-0.959c0.812-1.068,0.605-2.592-0.463-3.404
				c-4.722-3.592-10.441-6.279-17.482-8.214c-3.698-1.016-7.987-1.62-12.748-1.795c-0.03-0.001-0.061-0.002-0.091-0.002
				c-1.3,0-2.378,1.03-2.426,2.34C21.299,45.079,22.346,46.205,23.687,46.255z"/>
			<path d="M4.215,59.601c1.311-0.284,2.144-1.578,1.86-2.889C5.22,52.768,4.96,49.5,4.886,47.563c1.615-0.269,4.13-0.64,7.15-0.925
				c1.336-0.126,2.316-1.311,2.19-2.647c-0.126-1.336-1.313-2.316-2.647-2.19c-5.601,0.529-9.47,1.325-9.632,1.358
				c-1.086,0.226-1.882,1.159-1.933,2.267c-0.01,0.211-0.22,5.251,1.312,12.316c0.246,1.138,1.253,1.915,2.372,1.915
				C3.869,59.657,4.042,59.639,4.215,59.601z"/>
			<path d="M128.007,10.014c0.384,0,0.774-0.091,1.137-0.284c3.112-1.653,7.166-2.906,12.051-3.727
				c1.323-0.222,2.216-1.475,1.993-2.798c-0.222-1.323-1.476-2.216-2.798-1.993c-5.401,0.907-9.951,2.33-13.525,4.228
				c-1.185,0.629-1.635,2.1-1.006,3.285C126.296,9.546,127.137,10.014,128.007,10.014z"/>
			<path d="M176.128,3.405c-0.012-1.207-0.909-2.221-2.104-2.382c-0.281-0.038-6.981-0.929-15.767-1.023c-0.009,0-0.018,0-0.026,0
				c-1.329,0-2.414,1.071-2.429,2.403c-0.014,1.342,1.062,2.441,2.403,2.455c5.584,0.059,10.37,0.463,13.002,0.733
				c-0.121,2.36-0.472,6.445-1.494,11.08c-1.431,6.488-3.678,11.914-6.678,16.127c-0.778,1.093-0.523,2.61,0.57,3.388
				c0.427,0.304,0.92,0.451,1.407,0.451c0.759,0,1.507-0.355,1.981-1.02c3.382-4.749,5.893-10.771,7.465-17.899
				C176.175,9.931,176.131,3.668,176.128,3.405z"/>
			<path d="M157.78,38.978c-3.738,3.658-7.899,6.399-12.72,8.379c-1.241,0.51-1.834,1.929-1.324,3.17
				c0.386,0.939,1.292,1.507,2.248,1.507c0.307,0,0.62-0.059,0.922-0.183c5.335-2.192,10.136-5.354,14.271-9.4
				c0.959-0.938,0.976-2.476,0.037-3.435C160.277,38.057,158.739,38.04,157.78,38.978z"/>
			<path d="M142.119,76.135c-0.165-0.043-4.108-1.06-9.743-1.482c-5.719-0.428-11.035-0.096-15.804,0.987
				c-5.549,1.26-10.27,3.534-14.034,6.76c-1.019,0.873-1.137,2.407-0.264,3.425c0.873,1.019,2.407,1.137,3.425,0.264
				c3.158-2.707,7.178-4.628,11.948-5.711c4.296-0.975,9.129-1.271,14.365-0.879c3.314,0.248,6.015,0.725,7.535,1.037
				c0.191,0.995,0.387,2.663,0.263,5.05c-0.098,1.877-0.377,3.922-0.83,6.08c-0.276,1.313,0.565,2.601,1.878,2.877
				c0.168,0.035,0.336,0.052,0.502,0.052c1.125,0,2.135-0.786,2.375-1.931c0.504-2.402,0.816-4.699,0.927-6.826
				c0.278-5.359-0.805-8.03-0.929-8.317C143.438,76.834,142.842,76.324,142.119,76.135z"/>
			<path d="M139.435,98.123c-1.151-0.69-2.643-0.315-3.332,0.835c-1.55,2.587-3.63,5.004-6.184,7.182
				c-1.021,0.871-1.142,2.404-0.272,3.425c0.481,0.563,1.163,0.853,1.849,0.853c0.558,0,1.118-0.191,1.576-0.581
				c2.955-2.521,5.377-5.341,7.198-8.381C140.96,100.304,140.586,98.812,139.435,98.123z"/>
			<path d="M118.567,113.005c-3.592,1.545-7.935,2.328-12.912,2.328c-0.046,0-0.093,0-0.139,0c-3.469-0.01-6.693-0.405-9.186-0.835
				l2.542-1.912c1.072-0.806,1.288-2.329,0.481-3.402c-0.806-1.072-2.329-1.288-3.402-0.481l-2.484,1.868
				c0.389-2.885,1.168-6.707,2.726-10.698c0.488-1.25-0.13-2.658-1.38-3.146c-1.25-0.488-2.658,0.13-3.146,1.38
				c-2.795,7.161-3.328,13.708-3.424,16.395l-5.379,4.046c0.064-2.041,0.137-4.024,0.221-5.94
				c0.508-11.573,1.393-21.089,2.63-28.285c0.686-3.991,1.487-7.303,2.381-9.846c0.623-1.772,1.456-3.589,2.474-5.401
				c1.486-2.644,3.412-5.356,5.726-8.063c1.62-1.895,3.448-3.807,5.466-5.722c2.389,0.151,8.471,0.503,15.027,0.611
				c1.35,0.022,2.645,0.034,3.885,0.034c5.822,0,10.43-0.246,13.73-0.736c1.327-0.197,2.244-1.432,2.047-2.759
				c-0.197-1.327-1.431-2.244-2.759-2.047c-3.741,0.555-9.401,0.773-16.822,0.65c-3.65-0.061-7.15-0.197-9.927-0.332
				c0.725-0.6,1.466-1.199,2.227-1.797c1.055-0.829,1.237-2.357,0.408-3.411c-0.829-1.055-2.357-1.237-3.411-0.408
				c-0.559,0.44-1.108,0.881-1.65,1.322l0.954-5.16c1.218-6.588,3.117-13.586,8.719-20.131c0.872-1.019,0.754-2.553-0.266-3.425
				c-1.019-0.873-2.553-0.754-3.425,0.266c-6.366,7.436-8.53,15.5-9.806,22.407l-2.069,11.196c-2.223,2.098-4.236,4.198-6.02,6.285
				c-2.519,2.947-4.628,5.921-6.269,8.839c-1.156,2.057-2.105,4.132-2.822,6.17c-0.984,2.799-1.854,6.377-2.586,10.635
				c-0.723,4.208-1.328,9.169-1.811,14.832l-7.237-5.56c-0.119-2.063-0.449-6.642-1.252-11.784
				c-1.299-8.319-3.249-14.37-5.795-17.984c-0.773-1.097-2.288-1.359-3.385-0.587c-1.097,0.773-1.359,2.288-0.587,3.385
				c2.083,2.956,3.8,8.466,4.967,15.935c0.402,2.572,0.681,5.023,0.872,7.055L36.398,65.513c-1.064-0.818-2.589-0.618-3.406,0.446
				c-0.817,1.064-0.617,2.589,0.446,3.406l30.425,23.374c-4.634,0.828-11.904,1.733-19.298,1.088
				c-6.06-0.529-11.185-2.003-15.233-4.379c-3.718-2.183-7.085-4.782-10.006-7.724c-2.498-2.515-4.722-5.333-6.612-8.376
				c-0.708-1.14-2.206-1.49-3.345-0.782c-1.14,0.708-1.49,2.206-0.782,3.345c2.083,3.354,4.536,6.461,7.292,9.236
				c3.216,3.239,6.915,6.095,10.994,8.49c4.675,2.745,10.486,4.437,17.27,5.03c1.936,0.169,3.852,0.241,5.718,0.241
				c8.703,0,16.256-1.575,19.101-2.253l9.72,7.468c-0.173,2.631-0.323,5.388-0.449,8.27c-0.456,10.385-0.614,22.228-0.473,35.326
				c-0.931-1.063-1.956-2.194-3.015-3.299c-0.198-2.005-0.817-7.033-2.42-12.27c-1.866-6.099-4.465-10.508-7.725-13.107
				c-1.049-0.836-2.577-0.664-3.414,0.385c-0.836,1.049-0.664,2.577,0.385,3.414c2.444,1.948,4.556,5.658,6.108,10.73
				c0.604,1.975,1.058,3.937,1.395,5.689c-5.847-4.582-15.99-11.306-16.481-11.632c-1.119-0.74-2.626-0.434-3.367,0.685
				c-0.741,1.119-0.434,2.626,0.684,3.367c0.133,0.088,13.108,8.69,17.97,12.875c-2.347,0.659-5.741,1.296-9.689,1.079c0,0,0,0,0,0
				c-2.125-0.116-4.236-0.47-6.273-1.052c-2.265-0.646-4.488-1.588-6.608-2.799c-1.165-0.666-2.649-0.261-3.315,0.904
				c-0.666,1.165-0.261,2.649,0.904,3.315c2.459,1.405,5.044,2.5,7.685,3.253c2.385,0.68,4.854,1.095,7.34,1.231c0,0,0,0,0,0
				c0.634,0.035,1.255,0.051,1.862,0.051c5.447,0,9.769-1.3,12.017-2.153c2.73,2.909,5.186,5.944,6.07,7.056
				c0.029,1.512,0.061,3.038,0.097,4.58c0.239,10.245,0.587,18.422,0.764,22.218c-4.429,0.76-8.437,3.189-11.149,6.784
				c-2.162-0.77-4.435-1.16-6.784-1.16c-3.491,0-6.935,0.9-9.96,2.603c-1.169,0.658-1.583,2.14-0.925,3.309
				c0.446,0.792,1.27,1.238,2.119,1.238c0.404,0,0.813-0.101,1.19-0.313c2.299-1.294,4.919-1.979,7.576-1.979
				c2.338,0,4.574,0.505,6.645,1.501c0.339,0.163,0.697,0.24,1.051,0.24c0.843,0,1.659-0.44,2.106-1.216
				c2.278-3.951,6.535-6.405,11.108-6.405c1.81,0,3.557,0.366,5.194,1.089c1.582,0.698,2.988,1.694,4.179,2.959
				c0,0,0.001,0.001,0.001,0.001c0.87,0.925,1.596,1.968,2.159,3.102c0.478,0.963,0.833,1.985,1.055,3.036
				c0.166,0.784,0.707,1.435,1.447,1.742c0.299,0.124,0.615,0.185,0.929,0.185c0.464,0,0.926-0.133,1.326-0.394
				c0.978-0.637,2.037-1.135,3.15-1.481c1.23-0.383,2.516-0.577,3.822-0.577c1.342,0,2.429-1.088,2.429-2.429
				c0-1.342-1.088-2.429-2.429-2.429c-1.796,0-3.568,0.268-5.266,0.796c-0.535,0.167-1.062,0.359-1.578,0.575
				c-0.163-0.401-0.341-0.796-0.534-1.184c-0.775-1.561-1.774-2.998-2.972-4.271c-0.001-0.001-0.001-0.001-0.002-0.002
				c-1.639-1.742-3.575-3.113-5.755-4.075c-1.685-0.744-3.454-1.214-5.277-1.404c-0.175-3.733-0.524-11.906-0.764-22.174
				c-0.294-12.615-0.333-24.547-0.121-35.16l8.461-6.364c2.363,0.595,7.905,1.791,14.335,1.81c0.051,0,0.102,0,0.153,0
				c5.64,0,10.63-0.916,14.832-2.724c1.232-0.53,1.802-1.959,1.272-3.192C121.228,113.045,119.799,112.475,118.567,113.005z"/>
			<path d="M36.021,129.741c-0.44-1.268-1.824-1.939-3.091-1.499c-1.268,0.44-1.939,1.824-1.499,3.091
				c0.787,2.27,1.865,5.379,3.748,7.787c0.479,0.613,1.194,0.933,1.916,0.933c0.523,0,1.05-0.168,1.494-0.516
				c1.057-0.826,1.244-2.353,0.418-3.41C37.621,134.356,36.734,131.797,36.021,129.741z"/>
			<path d="M32.855,127.359c1.337-0.112,2.331-1.286,2.219-2.623c-0.188-2.252-0.08-4.182,0.046-5.419
				c1.642-0.392,4.525-0.97,7.936-1.177c3.534-0.214,6.818,0.012,9.76,0.671c1.309,0.293,2.608-0.53,2.902-1.839
				c0.294-1.309-0.53-2.608-1.839-2.902c-3.387-0.76-7.128-1.022-11.117-0.78c-5.941,0.36-10.36,1.714-10.546,1.771
				c-0.849,0.263-1.487,0.97-1.662,1.841c-0.029,0.145-0.709,3.601-0.322,8.237c0.106,1.268,1.168,2.227,2.418,2.227
				C32.718,127.367,32.786,127.364,32.855,127.359z"/>
			<path d="M84.917,210.957H64.449c-1.342,0-2.429,1.088-2.429,2.429s1.088,2.429,2.429,2.429h20.468
				c1.342,0,2.429-1.088,2.429-2.429S86.259,210.957,84.917,210.957z"/>
			<path d="M56.261,210.957H45.586c-0.165-0.902-0.248-1.83-0.248-2.773c0-1.805,0.307-3.573,0.914-5.253
				c0.49-1.358,1.17-2.641,2.021-3.815c0.788-1.086,0.546-2.605-0.541-3.393c-1.086-0.788-2.605-0.545-3.393,0.541
				c-1.119,1.543-2.013,3.231-2.658,5.017c-0.798,2.211-1.202,4.533-1.202,6.902c0,2.04,0.298,4.033,0.886,5.924
				c0.316,1.016,1.256,1.708,2.32,1.708h12.577c1.342,0,2.429-1.088,2.429-2.429S57.603,210.957,56.261,210.957z"/>
			<path d="M8.897,67.01l-1.613-4.032c-0.498-1.246-1.912-1.852-3.158-1.353c-1.246,0.498-1.852,1.912-1.353,3.158l1.613,4.032
				c0.38,0.95,1.292,1.528,2.256,1.528c0.3,0,0.606-0.056,0.902-0.174C8.789,69.669,9.395,68.256,8.897,67.01z"/>
			<path d="M55.165,59.079l1.732,1.966c0.48,0.545,1.15,0.824,1.824,0.824c0.57,0,1.143-0.2,1.605-0.606
				c1.007-0.887,1.104-2.422,0.217-3.429l-1.732-1.966c-0.887-1.007-2.422-1.104-3.429-0.217
				C54.375,56.537,54.278,58.072,55.165,59.079z"/>
			<path d="M116.758,17.186c0.552,0,1.107-0.187,1.562-0.57l3.639-3.06c1.027-0.863,1.159-2.396,0.296-3.423
				c-0.864-1.027-2.396-1.159-3.423-0.296l-3.639,3.06c-1.027,0.863-1.159,2.396-0.296,3.423
				C115.378,16.892,116.065,17.186,116.758,17.186z"/>
			<path d="M147.748,4.859h2.543c1.342,0,2.429-1.088,2.429-2.429S151.633,0,150.291,0h-2.543c-1.342,0-2.429,1.088-2.429,2.429
				S146.406,4.859,147.748,4.859z"/>
			<path d="M58.16,120.494c0.178,0.039,0.355,0.058,0.529,0.058c1.114,0,2.117-0.77,2.369-1.903c0.291-1.31-0.535-2.607-1.844-2.899
				l-0.193-0.043c-1.31-0.291-2.607,0.535-2.899,1.844c-0.291,1.31,0.535,2.607,1.844,2.899L58.16,120.494z"/>
			<path d="M97.999,86.295c-1.7,1.7-3.797,6.032-4.199,6.883c-0.574,1.212-0.057,2.66,1.156,3.235
				c0.336,0.159,0.69,0.234,1.038,0.234c0.91,0,1.782-0.513,2.197-1.39c0.854-1.802,2.425-4.708,3.244-5.527
				c0.949-0.949,0.949-2.487,0-3.436C100.486,85.346,98.947,85.346,97.999,86.295z"/>
			<path d="M125.432,109.464l-2.357,1.595c-1.111,0.752-1.403,2.262-0.651,3.373c0.47,0.694,1.235,1.068,2.014,1.068
				c0.468,0,0.942-0.135,1.359-0.418l2.357-1.595c1.111-0.752,1.403-2.262,0.651-3.373
				C128.054,109.003,126.543,108.712,125.432,109.464z"/>
			<path d="M91.181,210.957H90.53c-1.342,0-2.429,1.088-2.429,2.429s1.088,2.429,2.429,2.429h0.651c1.342,0,2.429-1.088,2.429-2.429
				S92.523,210.957,91.181,210.957z"/>
		</g>
	</g>
	<g>
		<g>
			<path fill="#74B574" d="M127.173,265.994h-3.948c-2.308,0-4.185-1.878-4.185-4.185v-0.628c-1.899-0.515-3.716-1.268-5.432-2.253
				l-0.444,0.444c-1.637,1.625-4.29,1.625-5.921,0.006l-2.794-2.799c-0.789-0.784-1.228-1.837-1.228-2.959
				c0-1.122,0.439-2.176,1.236-2.967l0.438-0.438c-0.981-1.713-1.734-3.53-2.251-5.432h-0.629c-2.311,0-4.191-1.88-4.191-4.191
				v-3.948c0-2.308,1.88-4.185,4.191-4.185h0.629c0.517-1.902,1.27-3.719,2.251-5.432l-0.444-0.444
				c-0.793-0.793-1.23-1.845-1.23-2.963c0-1.118,0.437-2.17,1.23-2.964l2.786-2.786c0.793-0.793,1.845-1.23,2.963-1.23
				s2.17,0.437,2.963,1.23l0.444,0.444c1.716-0.984,3.533-1.738,5.432-2.253v-0.628c0-2.311,1.878-4.191,4.185-4.191h3.948
				c2.311,0,4.191,1.88,4.191,4.191v0.63c1.902,0.517,3.719,1.27,5.432,2.251l0.444-0.444c0.786-0.791,1.839-1.23,2.961-1.23
				c0,0,0,0,0,0c1.122,0,2.175,0.439,2.967,1.236l2.784,2.779c1.626,1.638,1.626,4.291,0.008,5.922l-0.451,0.45
				c0.981,1.713,1.734,3.53,2.251,5.432h0.63c2.308,0,4.185,1.878,4.185,4.185v3.948c0,2.311-1.878,4.191-4.185,4.191h-0.63
				c-0.517,1.902-1.27,3.719-2.251,5.432l0.444,0.444c1.632,1.633,1.632,4.289,0,5.921l-2.792,2.792
				c-1.633,1.632-4.289,1.632-5.921,0l-0.444-0.444c-1.713,0.981-3.53,1.734-5.432,2.251v0.63
				C131.363,264.117,129.484,265.994,127.173,265.994z M123.733,261.301h2.937v-1.993c0-1.133,0.809-2.104,1.923-2.308
				c2.6-0.477,5.024-1.482,7.206-2.986c0.932-0.643,2.19-0.528,2.991,0.273l1.41,1.41l2.076-2.076l-1.41-1.41
				c-0.801-0.801-0.915-2.059-0.273-2.991c1.504-2.182,2.509-4.606,2.986-7.206c0.204-1.114,1.175-1.923,2.308-1.923h1.993v-2.937
				h-1.993c-1.133,0-2.104-0.809-2.308-1.923c-0.477-2.6-1.482-5.024-2.986-7.206c-0.643-0.932-0.528-2.191,0.273-2.991l1.412-1.412
				l-2.078-2.074l-1.41,1.41c-0.801,0.801-2.059,0.915-2.991,0.273c-2.182-1.504-4.607-2.509-7.206-2.986
				c-1.114-0.204-1.923-1.175-1.923-2.308v-1.999h-2.937v1.999c0,1.134-0.811,2.106-1.927,2.309
				c-2.588,0.471-5.012,1.475-7.202,2.985c-0.932,0.643-2.19,0.528-2.991-0.273l-1.413-1.412l-2.076,2.076l1.412,1.412
				c0.801,0.801,0.915,2.059,0.273,2.991c-1.504,2.182-2.509,4.607-2.986,7.206c-0.204,1.114-1.175,1.923-2.308,1.923h-1.998v2.937
				h1.998c1.133,0,2.104,0.809,2.308,1.923c0.477,2.6,1.482,5.024,2.986,7.206c0.643,0.932,0.528,2.19-0.273,2.991l-1.41,1.41
				l2.074,2.078l1.412-1.412c0.801-0.801,2.059-0.915,2.991-0.273c2.191,1.51,4.614,2.515,7.202,2.985
				c1.116,0.203,1.927,1.175,1.927,2.309V261.301z M107.772,253.976l-0.002,0.002C107.77,253.977,107.771,253.977,107.772,253.976z
				 M107.763,253.257l0.003,0.003C107.765,253.259,107.764,253.258,107.763,253.257z M148.389,237.153h0.001H148.389z
				 M139.844,221.191c0.001,0.001,0.002,0.002,0.003,0.003L139.844,221.191z M140.564,221.183l-0.002,0.002
				C140.562,221.185,140.563,221.184,140.564,221.183z"/>
		</g>
		<g>
			<path fill="#74B574" d="M117.634,244.784c-0.847,0-1.665-0.46-2.083-1.264c-0.248-0.476-0.459-0.987-0.629-1.518
				c-0.36-1.082-0.543-2.219-0.543-3.381c0-1.161,0.183-2.299,0.543-3.381c0.169-0.531,0.381-1.042,0.629-1.518
				c0.598-1.15,2.015-1.597,3.165-0.998c1.15,0.598,1.597,2.015,0.998,3.165c-0.128,0.245-0.233,0.503-0.323,0.786
				c-0.004,0.013-0.008,0.025-0.012,0.038c-0.203,0.606-0.306,1.248-0.306,1.908c0,0.66,0.103,1.302,0.306,1.908
				c0.004,0.013,0.008,0.025,0.012,0.038c0.09,0.284,0.195,0.541,0.323,0.786c0.598,1.15,0.152,2.567-0.998,3.165
				C118.369,244.699,117.999,244.784,117.634,244.784z"/>
		</g>
		<g>
			<path fill="#74B574" d="M122.548,249.017c-0.235,0-0.473-0.035-0.708-0.11c-0.504-0.16-1.014-0.369-1.515-0.623
				c-1.156-0.586-1.618-1.998-1.032-3.154c0.586-1.156,1.998-1.618,3.154-1.032c0.274,0.139,0.546,0.252,0.808,0.335
				c1.236,0.391,1.92,1.71,1.529,2.945C124.469,248.378,123.544,249.017,122.548,249.017z"/>
		</g>
		<g>
			<path fill="#74B574" d="M127.855,249.017c-0.996,0-1.92-0.639-2.237-1.639c-0.391-1.236,0.294-2.554,1.529-2.945
				c0.261-0.083,0.533-0.195,0.808-0.335c1.168-0.587,2.132-1.552,2.72-2.719c0.004-0.009,0.009-0.017,0.013-0.026
				c0.128-0.245,0.233-0.502,0.323-0.786c0.004-0.013,0.008-0.025,0.012-0.038c0.203-0.606,0.306-1.248,0.306-1.908
				c0-0.66-0.103-1.302-0.306-1.908c-0.004-0.013-0.008-0.025-0.012-0.038c-0.09-0.283-0.195-0.541-0.323-0.786
				c-0.598-1.15-0.151-2.567,0.998-3.165c1.15-0.598,2.567-0.151,3.165,0.998c0.248,0.476,0.459,0.987,0.628,1.518
				c0.36,1.082,0.543,2.219,0.543,3.381c0,1.161-0.183,2.299-0.543,3.381c-0.168,0.526-0.377,1.032-0.622,1.505
				c-1.039,2.052-2.739,3.749-4.788,4.78c-0.495,0.251-1.004,0.461-1.508,0.62C128.328,248.982,128.089,249.017,127.855,249.017z"/>
		</g>
		<g>
			<path fill="#74B574" d="M129.015,233.399c-0.357,0-0.719-0.082-1.059-0.254c-0.275-0.139-0.547-0.252-0.808-0.335
				c-0.013-0.004-0.025-0.008-0.038-0.012c-0.606-0.203-1.248-0.306-1.908-0.306c-0.66,0-1.302,0.103-1.908,0.306
				c-1.229,0.412-2.559-0.25-2.971-1.478c-0.412-1.229,0.25-2.559,1.478-2.971c1.087-0.365,2.231-0.55,3.4-0.55
				c1.162,0,2.299,0.183,3.381,0.543c0.497,0.159,1,0.366,1.495,0.617c1.156,0.586,1.618,1.998,1.032,3.154
				C130.696,232.929,129.871,233.399,129.015,233.399z"/>
		</g>
		<g>
			<path fill="#74B574" d="M159.077,245.852c-1.523,0-3.031-0.679-4.032-1.974l-1.702-2.202c-0.793-1.025-0.604-2.499,0.421-3.292
				c1.025-0.793,2.499-0.604,3.292,0.421l1.702,2.202c0.134,0.173,0.383,0.205,0.556,0.071l4.654-3.598
				c0.173-0.134,0.205-0.383,0.071-0.556l-2.279-2.947c-0.693-0.896-0.647-2.159,0.109-3.002c0.517-0.577,1.017-1.181,1.486-1.798
				c0.546-0.717,1.064-1.469,1.54-2.233c0.685-1.1,2.132-1.437,3.232-0.752s1.437,2.132,0.752,3.232
				c-0.553,0.889-1.155,1.762-1.79,2.596c-0.15,0.197-0.302,0.392-0.457,0.586l1.119,1.447c1.716,2.22,1.307,5.423-0.913,7.139
				l-4.654,3.599C161.26,245.506,160.165,245.852,159.077,245.852z M152.996,227.521c-0.633,0-1.264-0.255-1.727-0.757
				c-0.878-0.953-0.816-2.438,0.137-3.316c0.739-0.68,1.418-1.435,2.017-2.244c0.688-0.928,1.275-1.931,1.746-2.983
				c0.004-0.009,0.008-0.018,0.012-0.026c0.313-0.676,0.574-1.404,0.776-2.166c0.333-1.253,1.619-1.998,2.871-1.665
				c1.253,0.333,1.998,1.618,1.665,2.871c-0.271,1.019-0.623,2-1.046,2.918c-0.608,1.356-1.366,2.65-2.253,3.846
				c-0.775,1.045-1.653,2.022-2.608,2.902C154.134,227.316,153.564,227.521,152.996,227.521z M169.132,226.199
				c-0.317,0-0.639-0.065-0.948-0.201c-1.185-0.524-1.721-1.91-1.197-3.095c0.399-0.903,0.563-1.384,0.898-2.433
				c0.344-1.079,1.41-1.759,2.533-1.615l3.697,0.473c0.131,0.017,0.229-0.034,0.288-0.08c0.06-0.047,0.136-0.131,0.153-0.268
				l0.746-5.835c0.027-0.212-0.129-0.413-0.341-0.441l-3.697-0.473c-1.123-0.144-1.984-1.069-2.045-2.2
				c-0.037-0.676-0.098-1.359-0.182-2.03c-0.109-0.865-0.17-1.296-0.34-2.088c-0.273-1.267,0.533-2.515,1.799-2.788
				c1.267-0.273,2.515,0.533,2.788,1.799c0.208,0.966,0.288,1.527,0.409,2.493c0.017,0.133,0.033,0.266,0.048,0.4l1.816,0.232
				c2.782,0.356,4.756,2.909,4.4,5.691l-0.746,5.835c-0.173,1.349-0.859,2.55-1.934,3.383c-1.076,0.833-2.41,1.198-3.758,1.025
				l-1.803-0.231c-0.125,0.322-0.265,0.657-0.438,1.049C170.891,225.678,170.032,226.199,169.132,226.199z M109.016,216.569
				c-0.819,0-1.558-0.427-1.979-1.089l-2.067-0.264c-2.786-0.356-4.763-2.913-4.407-5.7l0.746-5.836
				c0.172-1.348,0.861-2.548,1.938-3.379c1.076-0.831,2.412-1.193,3.761-1.02l3.697,0.473c1.286,0.164,2.194,1.34,2.03,2.625
				c-0.164,1.285-1.34,2.195-2.625,2.03l-3.697-0.473c-0.137-0.017-0.238,0.034-0.298,0.081c-0.059,0.046-0.133,0.127-0.15,0.259
				l-0.746,5.836c-0.028,0.22,0.128,0.421,0.347,0.449l3.697,0.473c1.123,0.144,1.984,1.069,2.045,2.2
				c0.015,0.267,0.016,0.383,0.018,0.465l0,0.021c0.004,0.048,0.011,0.118,0.026,0.25c0.14,1.288-0.791,2.446-2.08,2.586
				C109.186,216.565,109.1,216.569,109.016,216.569z M158.877,213.222c-1.246,0-2.284-0.98-2.342-2.237
				c-0.08-1.715-0.427-3.374-1.031-4.932c-0.005-0.012-0.009-0.025-0.014-0.037c-0.272-0.738-0.599-1.439-0.972-2.081
				c-0.004-0.007-0.008-0.014-0.012-0.021c-0.002-0.004-0.004-0.007-0.006-0.01c-0.87-1.54-1.984-2.918-3.312-4.095
				c-1.218-1.08-2.584-1.961-4.059-2.62c-0.746-0.335-1.482-0.6-2.195-0.79c-1.252-0.333-1.998-1.618-1.665-2.871
				c0.333-1.252,1.618-1.998,2.871-1.665c0.958,0.255,1.937,0.605,2.908,1.042c1.908,0.851,3.678,1.993,5.255,3.392
				c1.714,1.52,3.153,3.299,4.279,5.288c0.504,0.868,0.943,1.806,1.306,2.789c0.783,2.026,1.233,4.176,1.337,6.391
				c0.06,1.295-0.94,2.393-2.235,2.453C158.951,213.222,158.914,213.222,158.877,213.222z M123.037,209.168
				c-0.2,0-0.402-0.026-0.604-0.079c-1.252-0.333-1.998-1.618-1.665-2.871c0.271-1.018,0.623-2,1.046-2.917
				c0.885-1.973,2.071-3.79,3.525-5.399c0.869-0.962,2.353-1.037,3.314-0.168c0.962,0.869,1.037,2.353,0.168,3.314
				c-1.127,1.247-2.045,2.654-2.729,4.182c-0.004,0.009-0.008,0.018-0.012,0.026c-0.312,0.676-0.574,1.404-0.776,2.166
				C125.024,208.474,124.075,209.168,123.037,209.168z M169.524,202.728c-0.942,0-1.831-0.572-2.19-1.504
				c-0.376-0.977-0.811-1.944-1.292-2.876c-0.519-1.006-0.246-2.24,0.65-2.932l2.947-2.279c0.174-0.136,0.206-0.388,0.067-0.57
				l-3.593-4.638c-0.088-0.115-0.192-0.148-0.264-0.157c-0.072-0.009-0.181-0.003-0.287,0.08l-2.953,2.284
				c-0.896,0.692-2.158,0.647-3.002-0.109c-1.218-1.091-1.984-1.72-3.304-2.558c-1.094-0.695-1.418-2.145-0.723-3.239
				c0.695-1.094,2.145-1.418,3.239-0.723c0.96,0.61,1.699,1.145,2.435,1.744l1.431-1.107c1.07-0.833,2.408-1.2,3.76-1.027
				c1.352,0.173,2.554,0.864,3.385,1.947l3.593,4.638c1.708,2.225,1.298,5.426-0.906,7.143l-1.454,1.124
				c0.23,0.518,0.448,1.042,0.65,1.568c0.466,1.209-0.137,2.567-1.346,3.033C170.09,202.678,169.805,202.728,169.524,202.728z
				 M112.43,199.541c-0.343,0-0.691-0.075-1.02-0.235c-1.167-0.564-1.655-1.968-1.09-3.134c0.831-1.718,1.39-2.528,2.476-4.055
				c0.352-0.494,0.719-0.982,1.099-1.46l-1.119-1.447c-0.834-1.079-1.199-2.415-1.027-3.763c0.172-1.348,0.862-2.55,1.941-3.384
				l4.645-3.592c1.079-0.834,2.415-1.199,3.763-1.027c1.348,0.172,2.549,0.862,3.384,1.941l2.279,2.947
				c0.793,1.025,0.604,2.499-0.421,3.292c-1.025,0.793-2.499,0.604-3.292-0.421l-2.279-2.947c-0.087-0.112-0.193-0.147-0.266-0.156
				s-0.185-0.003-0.297,0.084l-4.645,3.592c-0.112,0.087-0.147,0.193-0.156,0.266c-0.009,0.074-0.002,0.185,0.084,0.297l2.279,2.947
				c0.693,0.896,0.647,2.158-0.109,3.001c-0.725,0.809-1.411,1.667-2.039,2.549c-0.947,1.331-1.379,1.939-2.076,3.378
				C114.139,199.053,113.302,199.541,112.43,199.541z M134.109,197.012c-0.94,0-1.827-0.569-2.188-1.498
				c-0.469-1.208,0.13-2.568,1.338-3.037c2.031-0.788,4.188-1.241,6.411-1.344c1.298-0.061,2.393,0.94,2.453,2.235
				c0.06,1.295-0.94,2.393-2.235,2.453c-1.715,0.08-3.374,0.427-4.931,1.031C134.679,196.961,134.391,197.012,134.109,197.012z
				 M152.742,185.221c-0.33,0-0.665-0.07-0.984-0.218c-1.013-0.469-1.408-0.595-2.581-0.969l-0.075-0.024
				c-1.079-0.344-1.758-1.41-1.615-2.533l0.473-3.697c0.017-0.137-0.034-0.237-0.08-0.297c-0.046-0.06-0.13-0.135-0.267-0.152
				l-5.835-0.746c-0.131-0.016-0.229,0.034-0.288,0.08c-0.06,0.047-0.136,0.131-0.153,0.268l-0.473,3.697
				c-0.144,1.125-1.072,1.986-2.204,2.046c-1.22,0.064-2.448,0.209-3.65,0.43c-1.092,0.201-2.186,0.469-3.252,0.797
				c-1.238,0.381-2.552-0.314-2.933-1.552c-0.381-1.239,0.314-2.552,1.552-2.933c1.24-0.382,2.513-0.693,3.784-0.927
				c0.756-0.139,1.52-0.252,2.288-0.338l0.232-1.814c0.173-1.349,0.86-2.55,1.934-3.383c1.076-0.833,2.41-1.198,3.758-1.025
				l5.835,0.746c1.35,0.173,2.552,0.861,3.384,1.937c0.832,1.076,1.196,2.413,1.023,3.763l-0.229,1.793
				c0.394,0.152,0.812,0.33,1.343,0.576c1.176,0.544,1.688,1.939,1.143,3.115C154.476,184.717,153.628,185.221,152.742,185.221z"/>
		</g>
	</g>
</g>
</svg>
