<?xml version="1.0" encoding="utf-8"?>
<!-- Generator: Adobe Illustrator 27.7.0, SVG Export Plug-In . SVG Version: 6.00 Build 0)  -->
<svg version="1.1" id="Layer_1" xmlns="http://www.w3.org/2000/svg" xmlns:xlink="http://www.w3.org/1999/xlink" x="0px" y="0px"
	 viewBox="0 0 180 163.715" enable-background="new 0 0 180 163.715" xml:space="preserve">
<g>
	<g>
		<path d="M28.83,39.28c0.474,0,0.948-0.179,1.312-0.539l14.26-14.075c0.734-0.725,0.742-1.908,0.017-2.642
			c-0.725-0.734-1.908-0.742-2.642-0.017l-14.26,14.075c-0.734,0.725-0.742,1.908-0.017,2.642
			C27.866,39.095,28.348,39.28,28.83,39.28z"/>
		<path d="M29.777,137.68h-5.295c-1.032,0-1.868,0.837-1.868,1.868s0.837,1.868,1.868,1.868h5.295c1.032,0,1.868-0.837,1.868-1.868
			S30.809,137.68,29.777,137.68z"/>
		<path d="M132.127,0H67.684c-2.328,0-4.523,0.901-6.18,2.536l-7.411,7.315c-0.734,0.725-0.742,1.908-0.017,2.642
			c0.725,0.734,1.908,0.742,2.642,0.017l7.411-7.315c0.953-0.941,2.215-1.459,3.555-1.459h64.184l-16.305,16.838
			c-0.718,0.741-0.699,1.924,0.042,2.642c0.363,0.351,0.831,0.526,1.3,0.526c0.488,0,0.976-0.19,1.342-0.569l15.896-16.416v12.413
			c0,0.418-0.172,0.825-0.471,1.117l-55.228,53.87V64.082c0.345-0.24,0.672-0.51,0.976-0.812c0.008-0.008,0.016-0.016,0.024-0.024
			l25.703-26.543c0.718-0.741,0.699-1.924-0.042-2.642c-0.741-0.718-1.924-0.699-2.642,0.042L76.774,60.632
			c-0.635,0.626-1.474,0.975-2.366,0.982L6.411,62.165l18.447-18.207c0.734-0.725,0.742-1.908,0.017-2.642
			c-0.725-0.734-1.908-0.742-2.642-0.017L2.061,61.208c-0.579,0.571-1.048,1.242-1.392,1.97c-0.042,0.077-0.077,0.157-0.107,0.24
			C0.196,64.273,0,65.2,0,66.138v9.349c0,2.995,2.342,5.488,5.331,5.674l14.296,0.893c3.37,0.21,6.497,2.025,8.364,4.853l0.07,0.106
			c1.117,1.693,1.708,3.659,1.708,5.687v1.885L1.628,125.701c-0.156,0.172-0.271,0.366-0.351,0.569
			C0.451,127.256,0,128.488,0,129.787v6.112c0,3.043,2.475,5.518,5.518,5.518h10.376c1.032,0,1.868-0.837,1.868-1.868
			s-0.837-1.868-1.868-1.868H5.518c-0.982,0-1.781-0.799-1.781-1.781v-6.112c0-0.946,0.77-1.731,1.716-1.75l11.486-0.225
			c4.904-0.096,9.517-2.313,12.655-6.083c2.523-3.03,3.912-6.87,3.912-10.812V92.701c0-2.762-0.804-5.44-2.326-7.746l-0.07-0.106
			c-1.239-1.878-2.92-3.465-4.861-4.591c-1.94-1.125-4.149-1.794-6.388-1.933L5.564,77.432c-1.025-0.064-1.827-0.918-1.827-1.945
			v-9.349c0-0.072,0.003-0.143,0.008-0.215l70.693-0.573c0.09-0.001,0.18-0.005,0.27-0.009v11.177
			c-0.011,0.001-0.023,0.002-0.034,0.002l-15.208,0.545c-2.906,0.104-5.712,1.027-8.113,2.668
			c-4.189,2.863-6.691,7.601-6.692,12.674l-0.003,15.704c-0.001,4.906,1.394,9.686,4.035,13.822l0.058,0.09
			c1.155,1.809,2.77,3.273,4.671,4.233c0.002,0.001,0.003,0.002,0.005,0.002c1.643,0.829,3.483,1.27,5.324,1.275l14.509,0.445
			c1.261,0.039,2.276,1.097,2.262,2.358l-0.059,5.488c-0.005,0.448-0.169,0.86-0.438,1.18l-0.232,0.231
			c-0.327,0.275-0.747,0.442-1.204,0.442H40.081c-1.032,0-1.868,0.837-1.868,1.868s0.837,1.868,1.868,1.868h33.508
			c1.328,0,2.553-0.469,3.518-1.25c0.085-0.06,0.166-0.126,0.242-0.201l0.112-0.112c0.054-0.051,0.106-0.104,0.157-0.157
			l16.29-16.231c0.731-0.728,0.733-1.911,0.005-2.642c-0.728-0.731-1.911-0.733-2.642-0.005l-12.038,11.995l0.026-2.436
			c0.017-1.599-0.583-3.115-1.69-4.268c-0.085-0.088-0.173-0.173-0.262-0.256l15.87-15.936c0.728-0.731,0.726-1.914-0.005-2.642
			c-0.731-0.728-1.914-0.726-2.642,0.006l-16.907,16.977c-0.082-0.006-0.165-0.011-0.248-0.014l-14.537-0.446
			c-0.019-0.001-0.038-0.001-0.057-0.001c-1.268,0-2.536-0.302-3.668-0.873c-0.001-0.001-0.002-0.001-0.003-0.002
			c-1.304-0.658-2.414-1.664-3.209-2.91l-0.058-0.09c-2.256-3.534-3.448-7.617-3.447-11.81l0.003-15.704
			c0.001-3.839,1.893-7.424,5.063-9.59c1.817-1.242,3.939-1.939,6.138-2.018l15.208-0.545c1.833-0.066,3.566-0.807,4.879-2.088
			l25.865-25.229c0.162,0.429,0.364,0.901,0.615,1.402c0.977,1.949,2.345,3.65,4.067,5.059c0.347,0.284,0.766,0.422,1.182,0.422
			c0.541,0,1.078-0.234,1.448-0.686c0.653-0.799,0.535-1.976-0.264-2.629c-1.312-1.073-2.352-2.365-3.092-3.84
			c-0.717-1.431-0.881-2.523-0.883-2.534l0.002,0.013l-0.244,0.032l27.899-27.213c1.016-0.991,1.599-2.373,1.599-3.792V5.754
			C137.881,2.581,135.3,0,132.127,0z M26.722,119.338c-2.444,2.936-6.037,4.663-9.856,4.738l-8.887,0.174l21.79-24.093v10.76
			C29.769,113.988,28.687,116.978,26.722,119.338z"/>
		<path d="M129.376,60.162c-1.418-0.021-2.998-0.038-4.697-0.052c-2.884-0.023-5.459-0.422-7.654-1.186
			c-0.975-0.339-2.04,0.177-2.378,1.151c-0.339,0.975,0.176,2.04,1.151,2.378c2.581,0.897,5.559,1.366,8.851,1.393
			c1.691,0.014,3.263,0.031,4.673,0.052c0.009,0,0.019,0,0.028,0c1.019,0,1.853-0.819,1.868-1.841
			C131.232,61.026,130.408,60.177,129.376,60.162z"/>
		<path d="M47.189,21.102c0.47,0,0.941-0.177,1.305-0.531l3.912-3.816c0.739-0.721,0.753-1.904,0.033-2.642
			c-0.721-0.739-1.904-0.753-2.642-0.033l-3.912,3.816c-0.739,0.721-0.753,1.904-0.033,2.642
			C46.218,20.914,46.704,21.102,47.189,21.102z"/>
		<path d="M109.857,32.555l3.077-3.292c0.705-0.754,0.665-1.936-0.089-2.641c-0.754-0.705-1.936-0.665-2.641,0.089l-3.077,3.292
			c-0.705,0.754-0.665,1.936,0.089,2.641c0.36,0.337,0.818,0.504,1.276,0.504C108.991,33.148,109.489,32.949,109.857,32.555z"/>
	</g>
	<g>
		<path fill="#74B574" d="M114.046,132.315c0.109-0.346,0.244-0.674,0.401-0.975c0.461-0.886,0.117-1.977-0.769-2.438
			c-0.886-0.461-1.977-0.117-2.438,0.769c-0.251,0.482-0.465,1-0.637,1.539c-0.368,1.103-0.555,2.264-0.555,3.45
			c0,1.186,0.187,2.346,0.555,3.45c0.171,0.539,0.386,1.057,0.637,1.539c0.322,0.619,0.952,0.973,1.605,0.973
			c0.281,0,0.567-0.066,0.833-0.205c0.886-0.461,1.23-1.553,0.769-2.438c-0.157-0.302-0.292-0.63-0.401-0.975
			c-0.003-0.01-0.006-0.02-0.009-0.029c-0.247-0.736-0.372-1.515-0.372-2.315c0-0.8,0.125-1.579,0.372-2.315
			C114.039,132.335,114.042,132.325,114.046,132.315z"/>
		<g>
			<path fill="#74B574" d="M146.33,128.698h-1.264c-0.592-2.395-1.533-4.666-2.81-6.781l0.897-0.897
				c1.474-1.485,1.474-3.902-0.006-5.393l-3.034-3.028c-0.72-0.725-1.679-1.125-2.7-1.125s-1.98,0.399-2.695,1.12l-0.892,0.892
				c-2.115-1.277-4.386-2.218-6.781-2.81v-1.263c0-2.104-1.712-3.816-3.816-3.816h-4.298c-2.101,0-3.81,1.712-3.81,3.816v1.262
				c-2.389,0.588-4.66,1.53-6.781,2.811l-0.892-0.892c-1.488-1.488-3.909-1.488-5.396,0l-3.033,3.033
				c-0.723,0.722-1.121,1.681-1.121,2.698c0,1.018,0.398,1.976,1.12,2.698l0.892,0.893c-1.277,2.115-2.218,4.386-2.81,6.781h-1.263
				c-2.104,0-3.816,1.709-3.816,3.81v4.298c0,2.104,1.712,3.815,3.816,3.815h1.263c0.592,2.395,1.533,4.666,2.81,6.781l-0.888,0.888
				c-0.726,0.72-1.125,1.679-1.125,2.7c0,1.021,0.399,1.98,1.119,2.694l3.039,3.045c1.485,1.475,3.902,1.475,5.392-0.004
				l0.892-0.892c2.12,1.281,4.391,2.223,6.781,2.811v1.262c0,2.101,1.709,3.81,3.81,3.81h4.298c2.104,0,3.816-1.709,3.816-3.81
				v-1.264c2.395-0.592,4.665-1.533,6.781-2.81l0.892,0.893c1.486,1.486,3.905,1.486,5.391,0l3.039-3.039
				c1.486-1.486,1.486-3.904,0-5.391l-0.893-0.892c1.277-2.115,2.218-4.386,2.81-6.781h1.264c2.101,0,3.81-1.712,3.81-3.815v-4.298
				C150.14,130.407,148.431,128.698,146.33,128.698z M146.525,136.806c0,0.11-0.087,0.2-0.194,0.2h-2.723
				c-0.873,0-1.621,0.623-1.778,1.482c-0.539,2.935-1.673,5.672-3.371,8.135c-0.495,0.718-0.407,1.688,0.21,2.304l1.924,1.924
				c0.077,0.077,0.076,0.201,0,0.277l-3.039,3.039c-0.077,0.077-0.201,0.077-0.278,0l-1.924-1.924
				c-0.617-0.617-1.586-0.705-2.304-0.21c-2.463,1.698-5.2,2.832-8.135,3.371c-0.858,0.157-1.481,0.906-1.481,1.778v2.723
				c0,0.107-0.09,0.194-0.2,0.194h-4.298c-0.105,0-0.194-0.089-0.194-0.194v-2.723c0-0.874-0.625-1.622-1.484-1.779
				c-2.923-0.531-5.659-1.665-8.132-3.37c-0.311-0.214-0.669-0.319-1.026-0.319c-0.466,0-0.929,0.18-1.279,0.529l-1.92,1.92
				c-0.083,0.083-0.209,0.083-0.286,0.006l-3.039-3.045c-0.038-0.037-0.057-0.082-0.057-0.134c0-0.052,0.019-0.097,0.061-0.139
				l1.924-1.924c0.617-0.617,0.705-1.586,0.21-2.304c-1.698-2.463-2.832-5.2-3.371-8.135c-0.158-0.858-0.906-1.481-1.778-1.481
				h-2.723c-0.11,0-0.2-0.09-0.2-0.2v-4.298c0-0.107,0.09-0.194,0.2-0.194h2.723c0.873,0,1.621-0.623,1.778-1.481
				c0.539-2.935,1.673-5.672,3.371-8.135c0.495-0.718,0.407-1.687-0.21-2.304l-1.925-1.925c-0.041-0.041-0.061-0.088-0.061-0.141
				c0-0.053,0.021-0.101,0.061-0.142l3.033-3.034c0.081-0.081,0.202-0.081,0.283,0l1.925,1.924c0.617,0.617,1.586,0.705,2.304,0.21
				c2.473-1.705,5.209-2.839,8.132-3.37c0.86-0.156,1.484-0.905,1.484-1.779v-2.723c0-0.11,0.087-0.2,0.194-0.2h4.298
				c0.11,0,0.2,0.09,0.2,0.2v2.723c0,0.873,0.623,1.621,1.481,1.778c2.935,0.539,5.672,1.673,8.135,3.371
				c0.718,0.495,1.688,0.407,2.304-0.21l1.929-1.929c0.037-0.038,0.083-0.057,0.134-0.057c0.052,0,0.097,0.019,0.14,0.062
				l3.033,3.028c0.081,0.082,0.081,0.21,0.005,0.287l-1.925,1.925c-0.617,0.617-0.705,1.586-0.21,2.305
				c1.698,2.463,2.832,5.2,3.371,8.135c0.157,0.858,0.906,1.482,1.778,1.482h2.723c0.105,0,0.194,0.089,0.194,0.194V136.806z"/>
			<path fill="#74B574" d="M118.741,141.699c-0.324-0.102-0.658-0.241-0.993-0.41c-0.891-0.452-1.978-0.096-2.43,0.795
				c-0.451,0.891-0.096,1.978,0.795,2.43c0.509,0.258,1.026,0.471,1.537,0.632c0.182,0.057,0.365,0.085,0.546,0.085
				c0.767,0,1.479-0.492,1.723-1.263C120.22,143.016,119.693,142,118.741,141.699z"/>
			<path fill="#74B574" d="M130.93,129.671c-0.461-0.886-1.553-1.23-2.438-0.769c-0.886,0.461-1.23,1.553-0.769,2.438
				c0.157,0.302,0.292,0.63,0.401,0.976c0.003,0.01,0.006,0.019,0.009,0.029c0.247,0.736,0.372,1.515,0.372,2.315
				c0,0.8-0.125,1.578-0.372,2.315c-0.003,0.01-0.006,0.019-0.009,0.029c-0.109,0.346-0.244,0.674-0.401,0.976
				c-0.003,0.007-0.007,0.013-0.01,0.02c-0.713,1.412-1.88,2.58-3.291,3.29c-0.335,0.17-0.669,0.308-0.993,0.41
				c-0.952,0.301-1.479,1.317-1.178,2.269c0.244,0.77,0.956,1.263,1.723,1.263c0.181,0,0.365-0.027,0.546-0.085
				c0.51-0.161,1.027-0.374,1.531-0.63c2.09-1.051,3.824-2.784,4.884-4.878c0.249-0.479,0.461-0.994,0.631-1.529
				c0.368-1.103,0.555-2.264,0.555-3.449c0-1.186-0.187-2.346-0.555-3.449C131.395,130.671,131.181,130.153,130.93,129.671z"/>
			<path fill="#74B574" d="M123.429,127.62c0.323,0.102,0.657,0.24,0.993,0.41c0.262,0.133,0.541,0.196,0.816,0.196
				c0.66,0,1.296-0.362,1.614-0.991c0.451-0.891,0.095-1.978-0.795-2.43c-0.505-0.256-1.017-0.467-1.521-0.628
				c-1.103-0.368-2.264-0.555-3.45-0.555c-1.191,0-2.357,0.188-3.464,0.56c-0.947,0.318-1.457,1.342-1.139,2.289
				c0.318,0.947,1.343,1.457,2.289,1.139c0.736-0.247,1.515-0.372,2.315-0.372c0.8,0,1.578,0.125,2.315,0.372
				C123.409,127.614,123.419,127.617,123.429,127.62z"/>
			<path fill="#74B574" d="M155.291,110.254c-0.232,0.871-0.531,1.706-0.889,2.48c-0.003,0.007-0.006,0.014-0.009,0.02
				c-0.534,1.193-1.201,2.333-1.982,3.387c-0.68,0.918-1.451,1.775-2.29,2.548c-0.735,0.676-0.782,1.82-0.106,2.555
				c0.356,0.387,0.843,0.583,1.33,0.583c0.438,0,0.877-0.158,1.224-0.478c1.007-0.927,1.93-1.954,2.746-3.055
				c0.935-1.261,1.733-2.624,2.373-4.053c0.444-0.961,0.813-1.99,1.097-3.059c0.257-0.965-0.318-1.955-1.283-2.212
				C156.538,108.715,155.548,109.289,155.291,110.254z"/>
			<path fill="#74B574" d="M128.003,74.369c1.187-0.366,2.407-0.664,3.625-0.888c1.34-0.246,2.71-0.408,4.069-0.479
				c0.873-0.046,1.587-0.709,1.698-1.576l0.515-4.025c0.04-0.314,0.2-0.594,0.45-0.788c0.249-0.193,0.556-0.277,0.866-0.237
				l6.353,0.813c0.648,0.083,1.107,0.677,1.024,1.325l-0.515,4.025c-0.111,0.866,0.413,1.687,1.244,1.952
				c1.273,0.406,2.531,0.896,3.742,1.456c0.246,0.114,0.504,0.168,0.758,0.168c0.683,0,1.336-0.389,1.642-1.049
				c0.42-0.906,0.025-1.981-0.881-2.4c-0.891-0.412-1.805-0.79-2.731-1.13l0.328-2.564c0.336-2.625-1.527-5.034-4.152-5.37
				l-6.353-0.813c-1.269-0.162-2.526,0.181-3.539,0.966c-1.013,0.785-1.66,1.917-1.822,3.187l-0.328,2.562
				c-1.013,0.097-2.025,0.238-3.022,0.421c-1.356,0.249-2.714,0.582-4.035,0.989c-0.954,0.294-1.49,1.305-1.196,2.26
				C126.037,74.128,127.048,74.663,128.003,74.369z"/>
			<path fill="#74B574" d="M154.799,77.979c1.494,0.949,2.923,2.031,4.245,3.216c0.65,0.582,1.622,0.618,2.312,0.084l3.213-2.485
				c0.248-0.193,0.556-0.278,0.866-0.238c0.31,0.04,0.587,0.199,0.783,0.455l3.914,5.052c0.405,0.528,0.311,1.262-0.208,1.667
				l-3.209,2.481c-0.69,0.534-0.901,1.484-0.501,2.259c0.536,1.038,1.02,2.117,1.439,3.205c0.277,0.718,0.961,1.158,1.687,1.158
				c0.216,0,0.436-0.039,0.65-0.121c0.932-0.359,1.396-1.405,1.037-2.337c-0.286-0.742-0.599-1.48-0.935-2.205l2.048-1.584
				c2.078-1.618,2.463-4.635,0.855-6.731l-3.914-5.053c-0.783-1.019-1.915-1.671-3.188-1.833c-1.273-0.163-2.533,0.182-3.542,0.968
				l-2.043,1.58c-1.138-0.936-2.335-1.804-3.573-2.591c-0.843-0.535-1.96-0.286-2.495,0.557
				C153.706,76.326,153.956,77.443,154.799,77.979z"/>
			<path fill="#74B574" d="M136.872,83.703c-2.34,0.109-4.609,0.585-6.744,1.414c-0.931,0.361-1.392,1.409-1.031,2.34
				c0.278,0.716,0.961,1.154,1.686,1.154c0.218,0,0.439-0.04,0.654-0.123c1.77-0.687,3.656-1.082,5.604-1.173
				c0.997-0.047,1.768-0.893,1.722-1.89C138.716,84.427,137.87,83.657,136.872,83.703z"/>
			<path fill="#74B574" d="M159.557,104.367c-0.109-2.333-0.582-4.597-1.408-6.729c-0.381-1.033-0.843-2.018-1.372-2.929
				c-1.185-2.095-2.701-3.969-4.506-5.57c-1.66-1.472-3.523-2.674-5.532-3.57c-1.02-0.459-2.047-0.827-3.051-1.094
				c-0.965-0.257-1.955,0.318-2.212,1.283c-0.257,0.965,0.318,1.955,1.283,2.212c0.816,0.217,1.656,0.519,2.503,0.899
				c1.677,0.748,3.228,1.749,4.611,2.975c1.507,1.337,2.773,2.901,3.761,4.651c0.001,0.001,0.002,0.003,0.002,0.004
				c0,0,0,0.001,0,0.001c0,0,0,0.001,0.001,0.001c0.003,0.006,0.007,0.012,0.01,0.017c0.428,0.737,0.803,1.539,1.114,2.384
				c0.004,0.01,0.007,0.019,0.011,0.029c0.687,1.771,1.082,3.657,1.173,5.605c0.045,0.969,0.845,1.724,1.804,1.724
				c0.028,0,0.057-0.001,0.086-0.002C158.833,106.21,159.604,105.364,159.557,104.367z"/>
			<path fill="#74B574" d="M99.152,108.435l2.563,0.328c0.013,0.138,0.027,0.275,0.042,0.412c0.101,0.926,0.884,1.613,1.795,1.613
				c0.065,0,0.131-0.004,0.197-0.011c0.993-0.108,1.71-1,1.602-1.992c-0.062-0.571-0.109-1.152-0.14-1.726
				c-0.047-0.871-0.71-1.584-1.576-1.695l-4.025-0.515c-0.648-0.083-1.107-0.677-1.024-1.325l0.813-6.354
				c0.082-0.643,0.677-1.098,1.324-1.016l4.025,0.515c0.991,0.126,1.896-0.574,2.023-1.564c0.127-0.99-0.574-1.896-1.564-2.023
				l-4.025-0.515c-2.624-0.335-5.034,1.523-5.369,4.144L95,103.065C94.664,105.69,96.527,108.099,99.152,108.435z"/>
			<path fill="#74B574" d="M167.426,121.761c-0.848-0.528-1.963-0.268-2.49,0.58c-0.53,0.852-1.108,1.69-1.716,2.489
				c-0.522,0.686-1.079,1.36-1.656,2.003c-0.582,0.65-0.618,1.622-0.084,2.313l2.481,3.208c0.397,0.514,0.303,1.256-0.211,1.653
				l-5.067,3.918c-0.514,0.397-1.256,0.303-1.653-0.211l-2.481-3.209c-0.611-0.79-1.746-0.935-2.536-0.324
				c-0.79,0.611-0.935,1.746-0.324,2.536l2.481,3.209c0.944,1.22,2.363,1.86,3.798,1.86c1.024,0,2.056-0.326,2.927-1l5.067-3.918
				c2.091-1.617,2.477-4.634,0.86-6.725l-1.58-2.043c0.293-0.355,0.578-0.716,0.855-1.08c0.677-0.889,1.319-1.821,1.909-2.769
				C168.533,123.403,168.273,122.288,167.426,121.761z"/>
			<path fill="#74B574" d="M121.788,90.827c-1.531,1.694-2.779,3.607-3.711,5.685c-0.444,0.961-0.813,1.99-1.097,3.06
				c-0.257,0.965,0.318,1.955,1.282,2.212c0.156,0.041,0.312,0.061,0.466,0.061c0.799,0,1.531-0.535,1.746-1.344
				c0.232-0.871,0.531-1.706,0.889-2.48c0.003-0.007,0.006-0.014,0.009-0.02c0.777-1.736,1.82-3.334,3.099-4.749
				c0.669-0.741,0.612-1.884-0.129-2.553C123.601,90.028,122.457,90.086,121.788,90.827z"/>
			<path fill="#74B574" d="M175.816,102.113l-2.563-0.328c-0.033-0.338-0.07-0.674-0.112-1.008
				c-0.129-1.029-0.305-2.066-0.524-3.079c-0.21-0.976-1.172-1.597-2.148-1.386c-0.976,0.21-1.597,1.172-1.386,2.148
				c0.196,0.911,0.355,1.842,0.471,2.768c0.094,0.747,0.162,1.509,0.203,2.262c0.047,0.871,0.71,1.584,1.576,1.695l4.025,0.515
				c0.643,0.082,1.099,0.672,1.017,1.315l-0.813,6.353c-0.083,0.648-0.673,1.107-1.316,1.025l-4.025-0.515
				c-0.866-0.112-1.687,0.413-1.952,1.244c-0.35,1.098-0.764,2.188-1.229,3.241c-0.404,0.913,0.009,1.981,0.922,2.385
				c0.238,0.105,0.486,0.155,0.73,0.155c0.694,0,1.356-0.402,1.654-1.077c0.315-0.711,0.608-1.439,0.877-2.174l2.564,0.328
				c2.62,0.335,5.026-1.528,5.362-4.153l0.812-6.353C180.296,104.853,178.437,102.449,175.816,102.113z"/>
			<path fill="#74B574" d="M105.974,92.03c0.254,0.123,0.522,0.181,0.786,0.181c0.672,0,1.317-0.376,1.629-1.021
				c0.78-1.613,1.703-3.172,2.743-4.634c0.7-0.984,1.464-1.94,2.272-2.841c0.582-0.65,0.618-1.622,0.084-2.312l-2.481-3.209
				c-0.196-0.253-0.282-0.564-0.242-0.875c0.04-0.311,0.201-0.59,0.454-0.786l5.058-3.911c0.253-0.196,0.564-0.281,0.875-0.242
				c0.311,0.04,0.591,0.201,0.786,0.454l2.481,3.209c0.611,0.79,1.746,0.935,2.536,0.324c0.79-0.611,0.935-1.746,0.324-2.536
				l-2.481-3.208c-0.786-1.017-1.918-1.667-3.188-1.829c-1.269-0.163-2.529,0.181-3.546,0.968l-5.057,3.911
				c-1.017,0.786-1.667,1.919-1.829,3.188c-0.162,1.269,0.181,2.529,0.968,3.546l1.58,2.043c-0.538,0.653-1.053,1.326-1.541,2.012
				c-1.157,1.626-2.183,3.361-3.052,5.155C104.699,90.514,105.076,91.595,105.974,92.03z"/>
		</g>
	</g>
</g>
</svg>
