<?xml version="1.0" encoding="utf-8"?>
<!-- Generator: Adobe Illustrator 27.7.0, SVG Export Plug-In . SVG Version: 6.00 Build 0)  -->
<svg version="1.1" id="Layer_1" xmlns="http://www.w3.org/2000/svg" xmlns:xlink="http://www.w3.org/1999/xlink" x="0px" y="0px"
	 viewBox="0 0 180 191.148" enable-background="new 0 0 180 191.148" xml:space="preserve">
<g>
	<g>
		<path fill="#74B574" d="M106.018,109.431c0.351,0.206,0.736,0.304,1.116,0.304c0.759,0,1.498-0.391,1.91-1.093
			c1.133-1.933,2.508-4.121,4.089-6.505c0.675-1.018,0.397-2.39-0.621-3.065c-1.018-0.675-2.39-0.397-3.065,0.621
			c-1.625,2.451-3.045,4.71-4.219,6.713C104.611,107.459,104.964,108.814,106.018,109.431z"/>
		<path fill="#74B574" d="M130.303,98.252c-2.646-4.199-5.214-7.9-6.749-10.112c-0.445-0.641-0.829-1.195-1.105-1.602
			c-0.399-0.589-1.057-0.949-1.768-0.969c-0.71-0.018-1.388,0.304-1.819,0.869c-0.04,0.052-0.985,1.293-2.447,3.291
			c-1.151,1.573-2.286,3.156-3.375,4.707c-0.702,0.999-0.46,2.378,0.539,3.08c0.999,0.702,2.378,0.46,3.08-0.539
			c1.072-1.527,2.191-3.087,3.324-4.637c0.199-0.272,0.388-0.53,0.567-0.772c1.582,2.286,3.736,5.43,6.011,9.041
			c0.42,0.667,1.138,1.033,1.873,1.033c0.403,0,0.811-0.11,1.177-0.341C130.644,100.65,130.954,99.285,130.303,98.252z"/>
		<path fill="#74B574" d="M134.113,104.609c-0.601-1.063-1.95-1.438-3.013-0.837c-1.063,0.601-1.438,1.95-0.837,3.013
			c1.696,3,3.029,5.863,3.962,8.511c2.234,6.342,2.252,11.502,0.051,15.339c-2.538,4.424-7.397,5.948-10.068,6.463
			c-1.762,0.339-3.6,0.448-5.316,0.315c-1.516-0.118-2.978-0.437-4.347-0.948c-1.878-0.701-3.573-1.755-5.039-3.132
			c-0.861-0.809-1.635-1.725-2.3-2.723c-0.906-1.36-1.602-2.852-2.066-4.435c-0.501-1.707-0.719-3.465-0.647-5.224
			c0.059-1.429,0.31-2.837,0.747-4.185c0.377-1.162-0.259-2.409-1.421-2.785c-1.162-0.377-2.409,0.259-2.785,1.421
			c-0.562,1.731-0.884,3.537-0.96,5.368c-0.092,2.242,0.185,4.48,0.822,6.651c0.591,2.012,1.475,3.91,2.63,5.641
			c0.852,1.278,1.845,2.453,2.951,3.493c1.896,1.782,4.09,3.145,6.521,4.052c1.755,0.655,3.622,1.064,5.55,1.214
			c0.586,0.046,1.183,0.068,1.787,0.068c1.561,0,3.162-0.152,4.709-0.45c5.895-1.136,10.536-4.192,13.067-8.605
			c2.87-5.003,2.965-11.398,0.284-19.008C137.377,110.935,135.936,107.834,134.113,104.609z"/>
		<path fill="#74B574" d="M179.638,154.921c-1.094-8.49-4.692-18.178-10.694-28.796c-6.903-12.21-14.83-23.635-19.089-29.772
			c-0.811-1.169-1.511-2.178-2.018-2.925c-0.399-0.589-1.057-0.949-1.768-0.969c-0.713-0.021-1.388,0.304-1.819,0.869
			c-0.033,0.043-3.353,4.402-7.785,10.594c-0.711,0.993-0.482,2.374,0.511,3.085c0.993,0.711,2.374,0.482,3.085-0.511
			c2.408-3.364,4.482-6.179,5.871-8.043c0.095,0.138,0.193,0.278,0.291,0.42c4.218,6.079,12.07,17.395,18.873,29.428
			c5.72,10.118,9.138,19.264,10.158,27.184c0.574,4.455,0.388,8.553-0.552,12.181c-0.868,3.346-2.391,6.344-4.527,8.908
			c-2.181,2.619-5,4.799-8.378,6.479c-2.304,1.147-4.839,2.045-7.533,2.669c-2.702,0.626-5.481,0.962-8.261,0.999
			c-1.107,0.014-2.208-0.02-3.272-0.103c-1.218-0.095-2.281,0.815-2.376,2.033c-0.095,1.217,0.815,2.281,2.033,2.376
			c1.02,0.079,2.069,0.119,3.125,0.119c0.182,0,0.365-0.001,0.547-0.004c3.096-0.04,6.192-0.415,9.201-1.113
			c3.03-0.702,5.891-1.718,8.504-3.018c3.93-1.956,7.229-4.515,9.805-7.608c2.557-3.07,4.377-6.646,5.41-10.629
			C180.064,164.6,180.285,159.939,179.638,154.921z"/>
		<path fill="#74B574" d="M136.376,185.466c-1.388-0.407-2.751-0.917-4.052-1.517c-1.617-0.746-3.173-1.647-4.626-2.677
			c-1.896-1.345-3.641-2.927-5.186-4.701c-0.802-0.921-2.198-1.018-3.119-0.216c-0.921,0.802-1.018,2.198-0.216,3.119
			c1.775,2.039,3.781,3.857,5.963,5.405c1.674,1.188,3.468,2.226,5.332,3.086c1.497,0.691,3.066,1.278,4.661,1.746
			c0.208,0.061,0.417,0.09,0.623,0.09c0.956,0,1.838-0.626,2.121-1.59C138.219,187.037,137.548,185.809,136.376,185.466z"/>
		<path fill="#74B574" d="M115.901,163.978c-0.842-3.236-1.161-6.55-0.948-9.85c0.162-2.511,0.635-4.989,1.406-7.365
			c0.377-1.162-0.259-2.409-1.421-2.785c-1.162-0.377-2.409,0.259-2.785,1.421c-0.884,2.726-1.427,5.567-1.613,8.445
			c-0.244,3.772,0.12,7.556,1.081,11.249c0.608,2.336,1.455,4.617,2.516,6.78c0.384,0.783,1.17,1.237,1.986,1.237
			c0.327,0,0.659-0.073,0.972-0.227c1.096-0.538,1.549-1.863,1.011-2.959C117.176,168.027,116.434,166.027,115.901,163.978z"/>
		<path fill="#74B574" d="M130.858,126.243c-2.913,6.144-7.598,6.389-7.796,6.396l0.011,0l0.057,2.763
			c0.266-0.005,6.55-0.224,10.225-7.975c0.327-0.69,0.033-1.514-0.657-1.841C132.009,125.26,131.185,125.553,130.858,126.243z"/>
		<path fill="#74B574" d="M169,164.613c-1.874,5.457-4.845,9.559-8.829,12.191c-2.949,1.948-5.401,2.33-5.462,2.339
			c-0.904,0.124-1.538,0.957-1.417,1.862c0.111,0.833,0.823,1.439,1.642,1.439c0.073,0,0.147-0.005,0.221-0.015
			c0.125-0.017,3.099-0.434,6.669-2.743c3.23-2.089,7.64-6.212,10.313-13.995c0.297-0.866-0.163-1.809-1.03-2.107
			C170.241,163.286,169.298,163.747,169,164.613z"/>
		<path fill="#74B574" d="M132.763,123.3c0.058,0,0.117-0.004,0.176-0.011c0.757-0.096,1.293-0.788,1.196-1.545l-0.179-1.409
			c-0.096-0.757-0.788-1.292-1.545-1.196c-0.757,0.096-1.293,0.788-1.196,1.545l0.179,1.408
			C131.482,122.791,132.077,123.3,132.763,123.3z"/>
		<path fill="#74B574" d="M173.323,159.358v-2.217c0-0.916-0.742-1.658-1.658-1.658s-1.658,0.742-1.658,1.658v2.217
			c0,0.916,0.742,1.658,1.658,1.658S173.323,160.273,173.323,159.358z"/>
	</g>
	<g>
		<path d="M116.365,0h-4.34H52.793c-6.436,0-11.672,5.232-11.672,11.664V24.4h-6.714L23.901,13.893
			c-0.863-0.863-2.263-0.863-3.127,0L0.648,34.019c-0.863,0.863-0.863,2.263,0,3.127L11.37,47.868v85.525
			c0,6.033,2.349,11.704,6.613,15.968s9.936,6.613,15.968,6.613h68.319c1.221,0,2.211-0.99,2.211-2.211
			c0-1.221-0.99-2.211-2.211-2.211H33.951c-10.013,0-18.159-8.146-18.159-18.16V47.845l1.242-1.242
			c3.694-3.512,7.985-7.867,11.468-11.468l6.313-6.313h8.517h10.392h28.477h0.839c2.815,0,5.497-1.098,7.554-3.094l13.2-12.829
			l9.101-8.477h3.47c10.009,0,18.152,8.143,18.152,18.152v67.568c0,1.221,0.99,2.211,2.211,2.211c1.221,0,2.211-0.99,2.211-2.211
			V22.574C138.939,10.126,128.812,0,116.365,0z M25.365,32.018L13.94,43.443c-0.128,0.121-0.255,0.242-0.381,0.361l-8.221-8.221
			l16.999-16.999l8.117,8.117C29.266,27.955,27.465,29.847,25.365,32.018z M86.971,22.523c-0.651,0.605-1.4,1.074-2.207,1.392
			c-0.808,0.318-1.675,0.485-2.562,0.485H55.936v-5.888c0-2.759,2.109-5.004,4.702-5.004h36.013L86.971,22.523z M101.399,9.086
			H60.638c-5.031,0-9.124,4.228-9.124,9.426V24.4h-5.97V11.664c0-3.993,3.252-7.242,7.25-7.242h53.614L101.399,9.086z"/>
		<path d="M114.869,46.426L95.95,65.253H54.055L35.137,46.426c-0.865-0.861-2.266-0.858-3.127,0.008
			c-0.861,0.866-0.858,2.265,0.008,3.127l19.019,18.926v41.467l-19.018,18.926c-0.866,0.861-0.869,2.261-0.008,3.127
			c0.432,0.434,1,0.651,1.567,0.651c0.564,0,1.128-0.215,1.56-0.644l18.919-18.827h42.704c1.221,0,2.211-0.99,2.211-2.211v-42.49
			l19.018-18.926c0.866-0.861,0.869-2.261,0.008-3.127C117.135,45.568,115.735,45.564,114.869,46.426z M94.548,108.765h-39.09
			v-39.09h39.09V108.765z"/>
		<path d="M22.775,76.414c-1.221,0-2.211,0.99-2.211,2.211v48.774c0,1.221,0.99,2.211,2.211,2.211c1.221,0,2.211-0.99,2.211-2.211
			V78.625C24.986,77.404,23.996,76.414,22.775,76.414z"/>
		<path d="M24.986,57.456c0-1.221-0.99-2.211-2.211-2.211c-1.221,0-2.211,0.99-2.211,2.211v8.129c0,1.221,0.99,2.211,2.211,2.211
			c1.221,0,2.211-0.99,2.211-2.211V57.456z"/>
		<path d="M116.678,9.014c-1.207-0.186-2.339,0.642-2.525,1.849c-0.185,1.207,0.639,2.335,1.846,2.521
			c0.062,0.01,6.251,1.054,8.422,5.72c1.651,3.55,1.755,10.611,1.656,13.032c-0.051,1.22,0.897,2.25,2.117,2.301
			c0.031,0.001,0.062,0.002,0.094,0.002c1.179,0,2.158-0.93,2.207-2.119c0.017-0.399,0.379-9.827-2.064-15.081
			C125.252,10.404,117.027,9.068,116.678,9.014z"/>
		<path d="M128.286,38.512c-1.221,0-2.211,0.99-2.211,2.211v8.355c0,1.221,0.99,2.211,2.211,2.211c1.221,0,2.211-0.99,2.211-2.211
			v-8.355C130.497,39.502,129.507,38.512,128.286,38.512z"/>
	</g>
</g>
</svg>
