<?xml version="1.0" encoding="utf-8"?>
<!-- Generator: Adobe Illustrator 27.7.0, SVG Export Plug-In . SVG Version: 6.00 Build 0)  -->
<svg version="1.1" id="Layer_1" xmlns="http://www.w3.org/2000/svg" xmlns:xlink="http://www.w3.org/1999/xlink" x="0px" y="0px"
	 viewBox="0 0 180 235.039" enable-background="new 0 0 180 235.039" xml:space="preserve">
<g>
	<g>
		<g>
			<path d="M180,3.111c-0.014-1.243-0.936-2.288-2.169-2.454c-0.802-0.109-19.786-2.591-30.059,2.865
				c-5.674,3.013-9.763,6.516-12.502,10.708c-2.672,4.087-3.702,8.266-4.358,11.813l-1.232,6.664
				c-4.717,4.493-7.888,9.007-9.464,13.489c-1.134,3.224-2.039,8.019-2.706,14.316l-2.678-2.058
				c-0.086-1.353-0.279-3.719-0.67-6.383c-0.832-5.67-2.139-9.8-3.884-12.277c-4.073-5.78-8.723-10.162-18.176-12.759
				c-0.73-0.2-1.474-0.372-2.229-0.516c-1.539-0.294-2.964,0.894-2.964,2.461c0,0.602,0.214,1.16,0.577,1.596
				c0.362,0.437,0.871,0.75,1.462,0.864c0.622,0.119,1.233,0.259,1.827,0.423c8.079,2.219,11.768,5.646,15.41,10.815
				c1.712,2.429,2.705,7.435,3.228,11.614L92.307,41.147c-1.096-0.842-2.668-0.636-3.511,0.461c-0.842,1.096-0.636,2.667,0.461,3.51
				l17.189,13.206c-5.169,0.7-13.054,1-18.655-2.288c-6.405-3.761-10.839-9.321-13.18-16.523c-1.059-3.26-1.432-6.149-1.56-7.964
				c1.553-0.233,3.864-0.518,6.48-0.64c1.338-0.061,2.393-1.163,2.393-2.503c0-1.389-1.129-2.507-2.503-2.507
				c-0.038,0-0.076,0.001-0.114,0.003c-5.089,0.232-9.039,1.035-9.326,1.095c-1.119,0.233-1.939,1.194-1.991,2.336
				c-0.01,0.212-0.214,5.227,1.796,11.529c2.671,8.377,8.02,15.117,15.47,19.492c4.511,2.648,9.983,3.431,14.877,3.431
				c5.114,0,9.596-0.855,11.69-1.329l5.163,3.968c-0.145,1.988-0.274,4.087-0.383,6.301c-0.259,5.261-0.378,10.466-0.419,15.122
				c-0.149-0.831-0.337-1.749-0.574-2.707c-1.232-4.971-3.138-8.515-5.667-10.531c-8.227-6.559-20.617-2.821-21.14-2.658
				c-0.875,0.272-1.532,0.999-1.712,1.897c-0.028,0.134-0.651,3.319,0.008,7.212c0.9,5.318,3.73,9.475,8.183,12.019
				c3.965,2.265,7.795,2.97,11.029,2.97c3.055,0,5.577-0.63,7.173-1.167c1.18,1.369,2.192,2.716,2.725,3.447
				c0.026,1.922,0.059,3.525,0.089,4.71h-15.913c-1.858,0-3.364,1.506-3.364,3.364v7.748c0,1.858,1.506,3.364,3.364,3.364h0.852
				v0.603c0,1.383,1.121,2.503,2.503,2.503h0c1.382,0,2.503-1.121,2.503-2.503v-0.603h23.589v9.839c0,1.382,1.121,2.503,2.503,2.503
				h0c1.382,0,2.503-1.121,2.503-2.503v-9.839h0.585c1.857,0,3.363-1.506,3.363-3.363v-7.75c0-1.857-1.506-3.363-3.363-3.363
				h-14.118c-0.19-7.559-0.19-15.675,0.041-23.393l4.802-3.612c1.725,0.408,5.03,1.048,8.813,1.048c3.11,0,6.541-0.433,9.676-1.781
				c4.152-1.786,7.56-4.092,10.131-6.851c2.577-2.767,4.251-5.914,4.973-9.351c1.334-6.357,0.183-9.492-0.063-10.057
				c-0.305-0.706-0.92-1.232-1.665-1.427c-0.399-0.104-6.351-1.612-13.098-0.872c-1.635,0.179-2.658,1.855-2.069,3.391
				c0.374,0.974,1.308,1.608,2.332,1.608c0.09,0,0.18-0.005,0.27-0.015c4.031-0.438,7.836,0.066,9.839,0.429
				c0.125,1.124,0.15,3.068-0.447,5.914c-1.116,5.316-5.328,9.684-12.181,12.631c-3.54,1.523-7.746,1.537-11.004,1.19l12.867-9.678
				c1.105-0.831,1.327-2.401,0.496-3.506c-0.83-1.104-2.399-1.327-3.505-0.496l-12.729,9.575c0.469-2.116,1.267-4.603,2.62-7.012
				c0.522-0.93,0.387-2.09-0.323-2.886c-0.504-0.566-1.187-0.837-1.865-0.837c-0.866,0-1.726,0.443-2.2,1.287
				c-3.087,5.482-3.744,11.172-3.879,13.695l-1.537,1.156c0.118-2.397,0.262-4.722,0.432-6.947c0.175-0.453,0.209-0.941,0.113-1.406
				c0.61-7.297,1.524-13.364,2.795-16.979c1.417-4.028,4.382-7.856,7.959-11.305c2.066,0.128,6.731,0.379,11.41,0.379
				c3.194,0,6.396-0.118,8.78-0.471c3.108-0.461,5.96-1.252,8.572-2.382c1.366-0.592,1.9-2.252,1.154-3.541
				c-0.459-0.794-1.295-1.243-2.163-1.243c-0.335,0-0.675,0.066-1,0.207c-2.202,0.947-4.623,1.61-7.297,2.006
				c-3.566,0.528-9.412,0.462-13.899,0.3c8.739-6.7,18.247-11.089,18.429-11.172c1.259-0.573,1.815-2.058,1.242-3.316
				c-0.572-1.258-2.056-1.814-3.316-1.242c-0.289,0.133-7.182,3.289-14.878,8.501c-1.484,1.006-2.889,2.015-4.218,3.025l0.12-0.652
				c1.184-6.408,3.263-13.155,14.286-19.008c6.97-3.702,19.623-3.03,24.772-2.566c-0.208,2.724-0.849,7.52-2.806,11.899
				c-0.461,1.028-0.164,2.237,0.708,2.949c0.471,0.383,1.026,0.563,1.575,0.563c0.946,0,1.87-0.536,2.297-1.489
				C180.041,11.742,180.003,3.526,180,3.111z M99.605,84.094c0.07,0.046,5.983,3.966,9.557,6.706
				c-0.27,0.044-0.549,0.084-0.84,0.118c-3.72,0.426-7.273-0.312-10.559-2.189c-3.11-1.777-5.029-4.588-5.705-8.358
				c-0.282-1.57-0.287-3.008-0.227-4.024c3.115-0.66,10.251-1.602,14.987,2.174c1.779,1.418,2.975,4.269,3.742,7.078
				c-3.593-2.63-7.939-5.511-8.193-5.68c-1.153-0.762-2.706-0.447-3.469,0.706C98.136,81.777,98.453,83.33,99.605,84.094z
				 M133.778,108.042v4.463h-31.754v-4.463H133.778z M141.865,164.596c-4.157-6.217-6.541-13.359-6.961-20.784
				c-0.075-1.33-1.167-2.375-2.499-2.375h0c-1.437,0-2.581,1.207-2.5,2.641c0.467,8.324,3.139,16.331,7.799,23.3l4.551,6.808
				c-3.039-0.751-6.843-0.686-11.236,1.442c-4.623,2.239-7.749,5.92-10.621,9.674c-3.535-0.821-13.967-2.954-22.956-1.905
				c-4.814,0.561-9.291,2.167-12.917,3.88l13.32-19.419c4.992-7.275,7.845-15.671,8.325-24.429c0.079-1.436-1.062-2.644-2.5-2.644h0
				c-1.331,0-2.426,1.043-2.499,2.372c-0.43,7.841-2.986,15.357-7.453,21.871l-23.684,34.526c-2.561,3.731-3.914,8.095-3.914,12.621
				c0,5.92,2.295,11.496,6.461,15.703c4.167,4.205,9.723,6.552,15.642,6.607l59.123,0.554c0.071,0.001,0.141,0.001,0.213,0.001
				c5.87,0,11.391-2.27,15.568-6.408c4.227-4.187,6.553-9.769,6.553-15.719c0-4.393-1.29-8.646-3.732-12.298L141.865,164.596z
				 M79.688,194.324c3.13-2.081,10.27-6.276,18.189-7.199c7.211-0.841,15.72,0.587,20.016,1.477
				c-4.057,5.278-8.353,9.993-16.864,11.489c-6.66,1.169-12.479,0.335-17.299-2.479c-1.876-1.095-3.23-2.295-4.102-3.199
				L79.688,194.324z M159.599,225.075c-3.269,3.239-7.606,4.999-12.21,4.956l-59.122-0.554c-9.452-0.088-17.143-7.851-17.143-17.304
				c0-3.511,1.05-6.895,3.035-9.79l3.308-4.821c1.014,0.978,2.394,2.114,4.169,3.174c2.978,1.777,7.572,3.61,13.857,3.61
				c1.905,0,3.966-0.168,6.184-0.558c10.918-1.917,16.043-8.711,20.565-14.707c0.129-0.171,0.259-0.344,0.388-0.514
				c0.004-0.005,0.006-0.009,0.01-0.013c2.931-3.88,5.774-7.493,10.014-9.547c6.344-3.074,11.078-0.782,13.775,1.426l15.352,22.964
				c1.89,2.826,2.887,6.117,2.887,9.516C164.671,217.515,162.87,221.835,159.599,225.075z"/>
			<path d="M115.519,160.404c-2.28-0.182-4.176,1.715-3.994,3.994c0.143,1.794,1.596,3.247,3.39,3.39
				c2.28,0.182,4.176-1.715,3.994-3.994C118.767,162.001,117.313,160.547,115.519,160.404z M115.374,164.651
				c-0.437,0.116-0.827-0.274-0.711-0.711c0.051-0.192,0.206-0.347,0.398-0.398c0.437-0.116,0.827,0.274,0.711,0.711
				C115.721,164.445,115.566,164.6,115.374,164.651z"/>
			<path d="M137.181,193.176c-2.28-0.182-4.176,1.715-3.994,3.994c0.143,1.794,1.596,3.247,3.39,3.39
				c2.28,0.182,4.176-1.715,3.994-3.994C140.428,194.772,138.975,193.318,137.181,193.176z M137.035,197.422
				c-0.437,0.116-0.827-0.274-0.711-0.711c0.051-0.192,0.206-0.347,0.398-0.398c0.437-0.116,0.827,0.274,0.711,0.711
				C137.383,197.216,137.227,197.371,137.035,197.422z"/>
			<path d="M103.72,169.609c-3.764-0.336-6.904,2.805-6.568,6.569c0.257,2.885,2.581,5.208,5.466,5.466
				c3.764,0.335,6.904-2.805,6.568-6.568C108.928,172.189,106.605,169.866,103.72,169.609z M103.402,177.901
				c-1.444,0.144-2.653-1.065-2.509-2.509c0.107-1.069,0.972-1.934,2.041-2.041c1.445-0.144,2.654,1.065,2.509,2.509
				C105.336,176.929,104.471,177.794,103.402,177.901z"/>
			<path d="M91.682,211.769c-3.764-0.335-6.904,2.805-6.568,6.568c0.257,2.885,2.581,5.209,5.466,5.466
				c3.764,0.335,6.904-2.805,6.568-6.568C96.891,214.35,94.567,212.026,91.682,211.769z M91.365,220.061
				c-1.444,0.144-2.654-1.065-2.509-2.509c0.107-1.069,0.972-1.934,2.041-2.041c1.444-0.144,2.654,1.065,2.509,2.509
				C93.299,219.09,92.434,219.954,91.365,220.061z"/>
		</g>
		<path fill="none" stroke="#000000" stroke-width="40" stroke-linecap="round" stroke-linejoin="round" stroke-miterlimit="10" d="
			M91.232,159.025"/>
		<path fill="#74B574" d="M91.481,102.77c1.458,0,2.624-1.246,2.493-2.731c-0.115-1.3-1.245-2.276-2.55-2.276h-11.56l-15.882-27.51
			c-0.447-0.775-1.274-1.252-2.168-1.252l-31.13,0L18.627,48.464c1.836-1.936,2.967-4.549,2.967-7.422
			c0-5.953-4.843-10.797-10.797-10.797S0,35.088,0,41.042c0,2.884,1.123,5.595,3.162,7.634c2.039,2.039,4.75,3.162,7.634,3.162
			c1.275,0,2.499-0.224,3.635-0.631l11.596,19.752L15.169,89.767c-0.819-0.196-1.662-0.296-2.523-0.296
			c-5.954,0-10.797,4.843-10.797,10.796c0,5.954,4.843,10.797,10.797,10.797c0.862,0,1.705-0.1,2.524-0.296l11.265,19.512
			c0.447,0.775,1.274,1.252,2.168,1.252h31.765L75.5,157.74l-13.919,22.331c-1.143-0.413-2.375-0.64-3.659-0.64
			c-6.148,0-11.112,5.165-10.781,11.384c0.292,5.474,4.72,9.902,10.194,10.194c6.219,0.331,11.384-4.633,11.384-10.781
			c0-2.866-1.124-5.472-2.952-7.407l14.042-22.529H89.95c1.305,0,2.435-0.976,2.55-2.276c0.131-1.485-1.036-2.731-2.493-2.731
			H79.864l-15.16-26.258l15.16-26.258H91.481z M10.797,46.832c-1.696,0-3.281-0.724-4.401-2.027
			c-0.795-0.925-1.277-2.088-1.371-3.304c-0.272-3.511,2.608-6.437,6.105-6.24c2.876,0.162,5.225,2.463,5.441,5.336
			C16.825,43.99,14.136,46.832,10.797,46.832z M58.451,195.994c-3.607,0.322-6.617-2.688-6.295-6.295
			c0.247-2.765,2.473-4.992,5.238-5.238c3.607-0.321,6.616,2.688,6.295,6.295C63.442,193.521,61.216,195.748,58.451,195.994z
			 M18.421,100.681c-0.144,2.057-1.353,3.866-3.228,4.787c-0.794,0.391-1.651,0.589-2.547,0.589c-3.193,0-5.791-2.598-5.791-5.791
			c0-3.192,2.598-5.789,5.791-5.789c0.895,0,1.752,0.198,2.548,0.59c1.999,0.982,3.242,2.974,3.242,5.2
			C18.436,100.405,18.431,100.544,18.421,100.681z M60.369,126.524h-30.32l-10.407-18.026c0.085-0.072,0.169-0.145,0.251-0.22
			c0.027-0.024,0.053-0.049,0.079-0.073c0.058-0.053,0.116-0.107,0.173-0.162c0.029-0.028,0.057-0.055,0.086-0.083
			c0.058-0.057,0.115-0.114,0.172-0.173c0.023-0.023,0.046-0.046,0.068-0.07c0.077-0.08,0.153-0.162,0.227-0.245
			c0.016-0.018,0.032-0.037,0.049-0.056c0.059-0.066,0.117-0.133,0.173-0.2c0.025-0.029,0.049-0.059,0.074-0.089
			c0.049-0.06,0.098-0.12,0.145-0.18c0.024-0.03,0.047-0.059,0.07-0.09c0.057-0.074,0.113-0.148,0.167-0.223
			c0.011-0.016,0.023-0.031,0.035-0.047c0.065-0.09,0.128-0.181,0.19-0.273c0.019-0.028,0.037-0.056,0.056-0.085
			c0.044-0.066,0.087-0.133,0.13-0.2c0.021-0.033,0.041-0.066,0.062-0.099c0.042-0.068,0.083-0.137,0.123-0.206
			c0.017-0.029,0.034-0.058,0.051-0.087c0.055-0.096,0.109-0.194,0.161-0.292c0.009-0.017,0.017-0.034,0.026-0.05
			c0.043-0.083,0.086-0.166,0.127-0.25c0.016-0.034,0.032-0.067,0.049-0.101c0.034-0.07,0.067-0.141,0.099-0.212
			c0.016-0.034,0.031-0.069,0.046-0.103c0.036-0.082,0.071-0.166,0.106-0.249c0.009-0.021,0.018-0.042,0.026-0.063
			c0.042-0.104,0.082-0.208,0.12-0.313c0.011-0.029,0.021-0.059,0.031-0.089c0.028-0.078,0.055-0.156,0.081-0.235
			c0.012-0.037,0.024-0.073,0.036-0.11c0.024-0.077,0.048-0.154,0.071-0.231c0.01-0.033,0.02-0.066,0.029-0.099
			c0.031-0.109,0.06-0.218,0.088-0.328c0.003-0.011,0.005-0.021,0.007-0.032c0.025-0.1,0.048-0.201,0.07-0.302
			c0.008-0.035,0.015-0.071,0.022-0.106c0.016-0.079,0.032-0.158,0.046-0.238c0.007-0.038,0.014-0.075,0.02-0.113
			c0.015-0.088,0.029-0.177,0.042-0.266c0.004-0.026,0.008-0.051,0.012-0.077c0.016-0.114,0.03-0.228,0.042-0.343
			c0.003-0.029,0.005-0.057,0.008-0.086c0.009-0.088,0.016-0.175,0.023-0.263c0.003-0.039,0.005-0.077,0.008-0.116
			c0.005-0.083,0.01-0.166,0.013-0.249c0.001-0.036,0.003-0.072,0.004-0.108c0.004-0.117,0.006-0.234,0.006-0.352
			c0-0.118-0.002-0.235-0.006-0.352c-0.001-0.036-0.003-0.072-0.004-0.108c-0.003-0.083-0.008-0.166-0.013-0.248
			c-0.003-0.039-0.005-0.078-0.008-0.117c-0.007-0.088-0.014-0.175-0.023-0.262c-0.003-0.029-0.005-0.058-0.008-0.087
			c-0.012-0.114-0.026-0.228-0.042-0.342c-0.004-0.027-0.008-0.053-0.012-0.08c-0.013-0.088-0.027-0.175-0.042-0.262
			c-0.007-0.038-0.014-0.077-0.021-0.115c-0.014-0.078-0.029-0.156-0.045-0.234c-0.008-0.037-0.015-0.073-0.023-0.11
			c-0.021-0.098-0.044-0.195-0.067-0.292c-0.003-0.014-0.006-0.028-0.01-0.042c-0.027-0.109-0.056-0.217-0.087-0.324
			c-0.01-0.036-0.021-0.071-0.031-0.106c-0.022-0.074-0.044-0.148-0.068-0.222c-0.013-0.039-0.025-0.079-0.038-0.118
			c-0.025-0.074-0.05-0.149-0.076-0.222c-0.012-0.033-0.023-0.067-0.035-0.1c-0.038-0.103-0.077-0.206-0.118-0.307
			c-0.011-0.027-0.023-0.054-0.034-0.081c-0.032-0.077-0.064-0.153-0.097-0.229c-0.017-0.039-0.035-0.077-0.052-0.116
			c-0.03-0.066-0.06-0.131-0.091-0.196c-0.018-0.038-0.037-0.077-0.055-0.115c-0.037-0.075-0.075-0.149-0.113-0.222
			c-0.013-0.026-0.026-0.051-0.04-0.077c-0.05-0.095-0.103-0.189-0.156-0.282c-0.02-0.036-0.042-0.071-0.062-0.107
			c-0.036-0.061-0.072-0.122-0.11-0.183c-0.024-0.039-0.048-0.077-0.072-0.116c-0.038-0.059-0.076-0.118-0.115-0.177
			c-0.023-0.035-0.046-0.071-0.07-0.106c-0.06-0.088-0.12-0.175-0.183-0.262c-0.019-0.027-0.039-0.053-0.059-0.079
			c-0.046-0.063-0.093-0.126-0.141-0.188c-0.028-0.037-0.057-0.073-0.085-0.109c-0.042-0.052-0.084-0.105-0.126-0.156
			c-0.03-0.036-0.059-0.072-0.09-0.108c-0.048-0.056-0.096-0.112-0.145-0.167c-0.025-0.029-0.05-0.058-0.076-0.086
			c-0.071-0.079-0.143-0.157-0.217-0.233c-0.029-0.031-0.059-0.061-0.089-0.091c-0.049-0.05-0.098-0.1-0.149-0.149
			c-0.034-0.033-0.068-0.066-0.102-0.099c-0.05-0.048-0.1-0.095-0.151-0.141c-0.033-0.03-0.065-0.06-0.098-0.09
			c-0.081-0.072-0.163-0.144-0.246-0.214c0,0,0,0,0-0.001l10.407-18.026l30.32,0l15.16,26.258L60.369,126.524z"/>
	</g>
	<path d="M85.758,27.953v0.354c0,0.882-0.715,1.598-1.598,1.598l0,0c-0.882,0-1.598-0.715-1.598-1.598v-0.354
		c0-0.882,0.715-1.598,1.598-1.598l0,0C85.043,26.355,85.758,27.07,85.758,27.953z"/>
	<path d="M141.746,49.044v0.354c0,0.882-0.715,1.598-1.598,1.598l0,0c-0.882,0-1.598-0.715-1.598-1.598v-0.354
		c0-0.882,0.715-1.598,1.598-1.598l0,0C141.031,47.446,141.746,48.161,141.746,49.044z"/>
	<path d="M165.779,31.287c-0.732,0-1.457-0.319-1.951-0.933c-0.867-1.077-0.697-2.652,0.38-3.52c0.891-0.718,3.435-2.835,4.49-3.995
		c0.93-1.023,2.513-1.098,3.536-0.168c1.023,0.93,1.098,2.513,0.168,3.536c-1.507,1.657-4.696,4.238-5.054,4.527
		C166.884,31.106,166.33,31.287,165.779,31.287z"/>
	<path d="M132.387,56.84c-0.399,0-0.803-0.109-1.166-0.338c-1.023-0.645-1.33-1.998-0.685-3.021
		c1.518-2.408,4.122-3.758,4.414-3.903c1.082-0.541,2.398-0.102,2.939,0.98c0.541,1.082,0.102,2.398-0.98,2.939
		c-0.488,0.249-1.936,1.161-2.668,2.321C133.825,56.478,133.114,56.84,132.387,56.84z"/>
	<path d="M104.005,137.577c-1.383,0-2.503-1.121-2.503-2.503v-10.695c0-1.383,1.121-2.503,2.503-2.503s2.503,1.121,2.503,2.503
		v10.695C106.508,136.456,105.387,137.577,104.005,137.577z"/>
	<path d="M131.999,139.409c-1.383,0-2.503-1.121-2.503-2.503v-3.579c0-1.383,1.121-2.503,2.503-2.503s2.503,1.121,2.503,2.503v3.579
		C134.502,138.288,133.381,139.409,131.999,139.409z"/>
</g>
</svg>
