<?xml version="1.0" encoding="utf-8"?>
<!-- Generator: Adobe Illustrator 27.7.0, SVG Export Plug-In . SVG Version: 6.00 Build 0)  -->
<svg version="1.1" id="Layer_1" xmlns="http://www.w3.org/2000/svg" xmlns:xlink="http://www.w3.org/1999/xlink" x="0px" y="0px"
	 viewBox="0 0 180 191.601" enable-background="new 0 0 180 191.601" xml:space="preserve">
<g>
	<g>
		<g>
			<path d="M87.952,189.107c0.046,1.318-1.008,2.399-2.316,2.399H2.317c-1.28,0-2.317-1.037-2.317-2.317V66.328
				c0-1.28,1.037-2.317,2.317-2.317h0c1.28,0,2.317,1.037,2.317,2.317v120.545h80.947C86.838,186.872,87.909,187.851,87.952,189.107
				z"/>
			<path d="M27.113,87.482H43.08c1.28,0,2.317,1.037,2.317,2.317l0,0c0,1.28-1.037,2.317-2.317,2.317H24.796
				c-1.28,0-2.317-1.037-2.317-2.317V51.526c0-6.258-5.073-11.331-11.331-11.331H4.634v16.293c0,1.279-1.011,2.362-2.291,2.376
				c-0.651,0.007-1.24-0.254-1.664-0.679C0.259,57.766,0,57.187,0,56.547V37.878c0-1.279,1.037-2.317,2.317-2.317h8.831
				c8.817,0,15.965,7.148,15.965,15.965V87.482z"/>
			<path d="M99.029,39.975c-0.002,0.014-0.003,0.028-0.006,0.042c-0.06,0.443-0.108,0.865-0.146,1.267
				c-0.048,0.499-0.298,0.955-0.694,1.259c-2.693,2.074-4.432,5.328-4.432,8.983v38.274c0,1.28-1.037,2.317-2.317,2.317H81.196
				c-1.28,0-2.317-1.037-2.317-2.317l0,0c0-1.28,1.037-2.317,2.317-2.317h7.92V51.526c0-5.548,2.844-10.444,7.151-13.306
				C97.556,37.363,99.241,38.443,99.029,39.975z"/>
		</g>
		<g>
			<path d="M171.214,132.978c-0.102,0-0.204-0.007-0.306-0.02c-0.015-0.002-0.032-0.003-0.051-0.003
				c-1.28,0-2.317-1.037-2.317-2.317s1.037-2.317,2.317-2.317c0.022,0,0.048-0.002,0.077-0.005c1.261-0.151,2.406,0.741,2.571,1.999
				l0.006,0.045c0.094,0.715-0.15,1.432-0.661,1.941C172.413,132.737,171.823,132.978,171.214,132.978z"/>
		</g>
		<g>
			<path d="M163.035,191.601h-24.809c-1.28,0-2.317-1.037-2.317-2.317s1.037-2.317,2.317-2.317h24.809
				c6.734,0,12.222-5.435,12.309-12.148l-4.094-27.934c-0.13,0.01-0.261,0.015-0.393,0.015c-1.28,0-2.317-1.037-2.317-2.317
				c0-1.28,1.037-2.317,2.317-2.317c0.236,0,0.378-0.131,0.442-0.21c0.579-0.714,1.526-1.018,2.413-0.774
				c0.887,0.244,1.546,0.988,1.679,1.898l4.564,31.142c0.016,0.111,0.024,0.224,0.024,0.336
				C179.979,184,172.378,191.601,163.035,191.601z"/>
		</g>
		<g>
			<path d="M150.887,29.593h-19.314c-1.286,0-2.563-0.321-3.692-0.928c-2.533-1.363-4.106-3.995-4.106-6.87V9.354
				c0-5.158,4.196-9.354,9.352-9.354h16.205c5.158,0,9.354,4.196,9.354,9.354v12.44c0,2.876-1.574,5.508-4.109,6.87
				C153.45,29.272,152.174,29.593,150.887,29.593z M133.128,4.634c-2.602,0-4.719,2.118-4.719,4.721v12.44
				c0,1.167,0.639,2.236,1.668,2.789c0.462,0.249,0.966,0.375,1.496,0.375h19.314c0.53,0,1.034-0.126,1.497-0.375
				c1.03-0.553,1.669-1.622,1.669-2.789V9.354c0-2.603-2.118-4.721-4.721-4.721H133.128z"/>
		</g>
		<g>
			<path d="M167.966,105.066h-14.684c-1.28,0-2.317-1.037-2.317-2.317c0-1.28,1.037-2.317,2.317-2.317h14.684
				c1.909,0,3.463-1.553,3.463-3.463v-2.385c0-1.909-1.553-3.463-3.463-3.463c-1.28,0-2.317-1.037-2.317-2.317
				c0-1.28,1.037-2.317,2.317-2.317c4.464,0,8.096,3.632,8.096,8.096v2.385C176.062,101.434,172.43,105.066,167.966,105.066z"/>
		</g>
		<g>
			<path d="M129.687,88.889c-0.044,1.256-1.114,2.234-2.371,2.234h-14.924c-1.912,0-3.462,1.55-3.462,3.462v2.386
				c0,0.008,0,0.016,0,0.024c0.008,1.15-0.896,2.096-2.046,2.096h-0.54c-1.118,0-2.033-0.898-2.047-2.016
				c0-0.035-0.001-0.069-0.001-0.104v-2.386c0-2.749,1.377-5.182,3.479-6.646c1.278-0.891,2.824-1.423,4.493-1.448
				c0.042-0.001,0.083-0.001,0.125-0.001h14.978C128.678,86.488,129.733,87.57,129.687,88.889z"/>
		</g>
		<g>
			
				<path fill="none" stroke="#000000" stroke-width="40" stroke-linecap="round" stroke-linejoin="round" stroke-miterlimit="10" d="
				M112.394,116.693"/>
		</g>
		<g>
			<path d="M167.966,119.01c-1.28,0-2.317-1.037-2.317-2.317c0-1.28,1.037-2.317,2.317-2.317c1.909,0,3.463-1.553,3.463-3.463
				v-2.385c0-1.909-1.553-3.463-3.463-3.463h-12.91c-1.28,0-2.317-1.037-2.317-2.317c0-1.28,1.037-2.317,2.317-2.317h12.91
				c4.464,0,8.096,3.632,8.096,8.096v2.385C176.062,115.378,172.43,119.01,167.966,119.01z"/>
		</g>
		<g>
			<path d="M170.857,132.955h-21.391c-1.28,0-2.317-1.037-2.317-2.317s1.037-2.317,2.317-2.317h21.391
				c0.022,0,0.048-0.002,0.077-0.005c0.28-0.034,0.495-0.278,0.495-0.567v-5.276c0-1.909-1.553-3.463-3.463-3.463
				c-1.28,0-2.317-1.037-2.317-2.317c0-1.28,1.037-2.317,2.317-2.317c4.464,0,8.096,3.632,8.096,8.096v5.276
				c0,2.629-1.967,4.851-4.575,5.167C171.271,132.942,171.061,132.955,170.857,132.955z"/>
		</g>
		<g>
			<path d="M156.308,146.899h-10.569c-1.28,0-2.317-1.037-2.317-2.317c0-1.28,1.037-2.317,2.317-2.317h10.569
				c1.28,0,2.317,1.037,2.317,2.317C158.625,145.862,157.588,146.899,156.308,146.899z"/>
		</g>
		<g>
			<path d="M162.717,146.899h-0.899c-1.28,0-2.317-1.037-2.317-2.317c0-1.28,1.037-2.317,2.317-2.317h0.899
				c1.28,0,2.317,1.037,2.317,2.317C165.034,145.862,163.997,146.899,162.717,146.899z"/>
		</g>
		<g>
			<path d="M170.857,146.899h-2.382c-1.28,0-2.317-1.037-2.317-2.317c0-1.28,1.037-2.317,2.317-2.317h2.382
				c0.236,0,0.378-0.131,0.442-0.21c0.06-0.073,0.13-0.195,0.13-0.362v-8.167c0-0.288-0.213-0.531-0.495-0.565
				c-0.009-0.001-0.018-0.002-0.027-0.003c-0.015-0.002-0.032-0.003-0.051-0.003c-1.28,0-2.317-1.037-2.317-2.317
				s1.037-2.317,2.317-2.317c0.218,0,0.436,0.014,0.649,0.042c2.599,0.322,4.557,2.54,4.557,5.164v8.167
				c0,1.191-0.414,2.356-1.166,3.282C173.905,146.198,172.432,146.899,170.857,146.899z"/>
		</g>
		<g>
			
				<path fill="none" stroke="#000000" stroke-width="40" stroke-linecap="round" stroke-linejoin="round" stroke-miterlimit="10" d="
				M110.215,88.805"/>
		</g>
		<g>
			<path d="M180,43.801c0,0.131-0.01,0.263-0.034,0.393l-7.513,43.656l-0.028,0.162c-0.067,0.388-0.13,0.775-0.192,1.162
				l-4.575-0.74c0.066-0.405,0.132-0.809,0.2-1.209l0.126-0.736l7.379-42.877c-0.102-6.701-5.584-12.12-12.309-12.12h-9.575
				c-1.139,0-2.085-0.822-2.28-1.905c-0.021,0.001-0.043,0.001-0.064,0.002h-0.021c-0.076,0.002-0.153,0.003-0.229,0.003h-19.314
				c-0.076,0-0.154-0.001-0.231-0.003h-0.019c-0.022-0.001-0.043-0.001-0.065-0.002c-0.195,1.082-1.142,1.905-2.281,1.905h-9.575
				c-6.742,0-12.237,5.449-12.309,12.176l5.174,42.823l0.247,2.038c0.153,1.27-0.752,2.425-2.023,2.578
				c-0.094,0.012-0.188,0.017-0.28,0.017c-1.156,0-2.156-0.863-2.297-2.039l-0.139-1.146l-5.049-41.783l-0.25-2.076
				c-0.012-0.093-0.017-0.185-0.017-0.278c0-1.156,0.116-2.285,0.338-3.376c0.35-1.728,0.965-3.362,1.799-4.856
				c0.122-0.219,0.249-0.434,0.38-0.646c2.987-4.837,8.336-8.065,14.426-8.065h7.258v-0.233c0-0.816,0.429-1.571,1.13-1.989
				c0.7-0.418,1.567-0.438,2.286-0.051c0.462,0.248,0.966,0.374,1.497,0.374h19.314c0.531,0,1.033-0.126,1.497-0.374
				c0.718-0.387,1.586-0.367,2.286,0.051c0.7,0.418,1.128,1.174,1.128,1.989v0.233h7.258C172.399,26.857,180,34.458,180,43.801z"/>
		</g>
		<g>
			<path d="M160.41,119.01h-6.27c-1.28,0-2.317-1.037-2.317-2.317c0-1.28,1.037-2.317,2.317-2.317h6.27
				c1.28,0,2.317,1.037,2.317,2.317C162.727,117.973,161.69,119.01,160.41,119.01z"/>
		</g>
		<g>
			<path d="M151.063,91.122h-18.812c-1.28,0-2.317-1.037-2.317-2.317c0-1.28,1.037-2.317,2.317-2.317h18.812
				c1.28,0,2.317,1.037,2.317,2.317C153.38,90.085,152.343,91.122,151.063,91.122z"/>
		</g>
		<g>
			<path d="M159.404,91.122h-2.366c-1.28,0-2.317-1.037-2.317-2.317c0-1.28,1.037-2.317,2.317-2.317h2.366
				c1.28,0,2.317,1.037,2.317,2.317C161.721,90.085,160.684,91.122,159.404,91.122z"/>
		</g>
		<g>
			<path d="M11.337,168.717c-1.28,0-2.317-1.037-2.317-2.317v-56.678c0-1.28,1.037-2.317,2.317-2.317s2.317,1.037,2.317,2.317V166.4
				C13.654,167.679,12.616,168.717,11.337,168.717z"/>
		</g>
		<g>
			<path d="M11.337,183.049c-1.28,0-2.317-1.037-2.317-2.317v-5.896c0-1.28,1.037-2.317,2.317-2.317s2.317,1.037,2.317,2.317v5.896
				C13.654,182.011,12.616,183.049,11.337,183.049z"/>
		</g>
		<g>
			<path d="M167.121,43.766c-0.68,0-1.353-0.298-1.811-0.87c-2.789-3.487-8.201-3.567-8.256-3.567c-1.28,0-2.313-1.037-2.313-2.317
				c0-1.28,1.042-2.317,2.321-2.317c0.311,0,7.669,0.06,11.866,5.306c0.799,0.999,0.637,2.457-0.362,3.257
				C168.139,43.6,167.628,43.766,167.121,43.766z"/>
		</g>
		<g>
			<path d="M169.249,52.462c-1.28,0-2.317-1.037-2.317-2.317v-2.041c0-1.28,1.037-2.317,2.317-2.317s2.317,1.037,2.317,2.317v2.041
				C171.566,51.424,170.528,52.462,169.249,52.462z"/>
		</g>
		<g>
			<path d="M159.967,182.871h-10.442c-1.28,0-2.317-1.037-2.317-2.317c0-1.28,1.037-2.317,2.317-2.317h10.442
				c2.823,0,5.419-1.652,6.613-4.21c0.593-1.27,0.808-2.676,0.62-4.066l-1.574-11.666c-0.171-1.268,0.718-2.435,1.986-2.606
				c1.267-0.171,2.435,0.718,2.606,1.986l1.574,11.666c0.307,2.272-0.044,4.57-1.014,6.647
				C168.826,180.169,164.582,182.871,159.967,182.871z"/>
		</g>
		<g>
			<path d="M143.097,182.871h-2.169c-1.28,0-2.317-1.037-2.317-2.317c0-1.28,1.037-2.317,2.317-2.317h2.169
				c1.28,0,2.317,1.037,2.317,2.317C145.414,181.834,144.377,182.871,143.097,182.871z"/>
		</g>
		<g>
			<path fill="#74B574" d="M148.161,103.94H79.662c-1.279,0-2.317,1.038-2.317,2.317v13.193c0,1.279,1.038,2.317,2.317,2.317h68.498
				c1.28,0,2.317-1.038,2.317-2.317v-13.193C150.477,104.978,149.441,103.94,148.161,103.94z M81.979,117.132v-8.559h63.864v8.559
				H81.979z"/>
		</g>
		<g>
			<path fill="#74B574" d="M131.59,191.507H96.801c-1.115,0-2.073-0.795-2.277-1.891L81.49,119.875
				c-0.127-0.677,0.055-1.376,0.495-1.906c0.44-0.53,1.094-0.837,1.783-0.837h60.288c0.686,0,1.336,0.304,1.777,0.83
				c0.44,0.526,0.625,1.22,0.504,1.895l-12.465,69.741C133.674,190.702,132.713,191.507,131.59,191.507z M98.725,186.873h30.926
				l11.637-65.107h-54.73L98.725,186.873z"/>
		</g>
		<g>
			<path fill="#74B574" d="M119.237,108.574c-1.28,0-2.317-1.037-2.317-2.317v-21.53c0-0.721,0.336-1.401,0.908-1.84l14.889-11.401
				c1.016-0.778,2.47-0.585,3.248,0.431c0.778,1.016,0.585,2.47-0.431,3.248l-13.981,10.705v20.386
				C121.554,107.537,120.517,108.574,119.237,108.574z"/>
		</g>
		<g>
			<path fill="#74B574" d="M100.793,165.716c-1.101,0-2.078-0.788-2.278-1.91l-6.211-34.784c-0.225-1.26,0.614-2.463,1.874-2.688
				c1.259-0.225,2.463,0.614,2.688,1.874l6.211,34.784c0.225,1.26-0.614,2.463-1.874,2.688
				C101.065,165.704,100.928,165.716,100.793,165.716z"/>
		</g>
		<g>
			<path fill="#74B574" d="M103.632,180.101c-1.098,0-2.074-0.784-2.277-1.903l-1.42-7.818c-0.229-1.259,0.607-2.465,1.866-2.694
				c1.258-0.228,2.465,0.607,2.694,1.866l1.42,7.818c0.229,1.259-0.607,2.465-1.866,2.694
				C103.909,180.089,103.77,180.101,103.632,180.101z"/>
		</g>
	</g>
	<path d="M62.779,92.116H50.376c-1.28,0-2.317-1.037-2.317-2.317l0,0c0-1.28,1.037-2.317,2.317-2.317h12.403
		c1.28,0,2.317,1.037,2.317,2.317l0,0C65.096,91.079,64.058,92.116,62.779,92.116z"/>
	<path d="M72.835,92.116h-3.293c-1.28,0-2.317-1.037-2.317-2.317l0,0c0-1.28,1.037-2.317,2.317-2.317h3.293
		c1.28,0,2.317,1.037,2.317,2.317l0,0C75.152,91.079,74.115,92.116,72.835,92.116z"/>
</g>
</svg>
