<?xml version="1.0" encoding="utf-8"?>
<!-- Generator: Adobe Illustrator 27.7.0, SVG Export Plug-In . SVG Version: 6.00 Build 0)  -->
<svg version="1.1" id="Layer_1" xmlns="http://www.w3.org/2000/svg" xmlns:xlink="http://www.w3.org/1999/xlink" x="0px" y="0px"
	 viewBox="0 0 180 238.341" enable-background="new 0 0 180 238.341" xml:space="preserve">
<g>
	<g>
		<g>
			<path fill="#74B574" d="M90.033,14.818c3.899,0,7.679,0.467,11.234,1.388c4.16,1.077,7.884,2.763,10.77,4.874
				c0.45,0.329,0.973,0.488,1.491,0.488c0.779,0,1.548-0.359,2.043-1.036c0.824-1.127,0.579-2.709-0.548-3.534
				c-3.397-2.485-7.715-4.452-12.488-5.688c-3.969-1.028-8.175-1.549-12.502-1.549c-1.397,0-2.529,1.132-2.529,2.529
				S88.637,14.818,90.033,14.818z"/>
			<path fill="#74B574" d="M74.967,50.615c0.26,0.084,0.523,0.125,0.782,0.125c1.066,0,2.057-0.679,2.404-1.748
				c0.432-1.328-0.295-2.755-1.623-3.186c-4.512-1.467-8.284-3.633-10.909-6.265c-2.505-2.512-3.829-5.35-3.829-8.205
				c0-4.344,3.117-8.63,8.553-11.759c3.132-1.803,6.957-3.171,11.06-3.957c1.372-0.263,2.271-1.587,2.008-2.959
				c-0.263-1.372-1.588-2.271-2.959-2.008c-4.65,0.89-9.018,2.461-12.633,4.541c-3.38,1.946-6.06,4.277-7.967,6.929
				c-2.07,2.88-3.12,5.979-3.12,9.213C56.735,39.572,63.721,46.96,74.967,50.615z"/>
			<path fill="#74B574" d="M118.274,31.336c0,4.722-3.579,9.258-9.819,12.446c-2.755,1.407-5.876,2.473-9.278,3.168
				c-2.938,0.6-6.014,0.904-9.144,0.904c-1.397,0-2.529,1.132-2.529,2.529s1.132,2.529,2.529,2.529
				c3.469,0,6.886-0.339,10.156-1.007c3.849-0.786,7.404-2.004,10.566-3.619c7.992-4.083,12.575-10.26,12.575-16.949
				c0-1.397-1.132-2.529-2.529-2.529S118.274,29.939,118.274,31.336z"/>
			<path fill="#74B574" d="M100.692,21.962c-2.199-0.787-4.616-1.314-7.185-1.568c-1.139-0.112-2.308-0.17-3.474-0.17
				c-2.304,0-4.56,0.219-6.706,0.65c-2.983,0.599-5.705,1.611-7.87,2.925c-1.194,0.725-1.574,2.28-0.849,3.474
				c0.476,0.784,1.309,1.217,2.164,1.217c0.447,0,0.9-0.119,1.31-0.367c1.669-1.013,3.827-1.805,6.242-2.29
				c1.819-0.366,3.74-0.551,5.71-0.551c1.001,0,2.002,0.049,2.977,0.145c2.157,0.213,4.169,0.649,5.979,1.297
				c1.316,0.47,2.762-0.214,3.232-1.529C102.692,23.879,102.007,22.432,100.692,21.962z"/>
			<path fill="#74B574" d="M72.346,29.703c-1.397,0-2.529,1.132-2.529,2.529c0,3.714,2.684,7.126,7.365,9.361
				c1.812,0.865,3.862,1.533,6.091,1.985c0.17,0.034,0.338,0.051,0.505,0.051c1.178,0,2.232-0.828,2.475-2.027
				c0.277-1.369-0.607-2.703-1.976-2.981c-1.823-0.37-3.478-0.906-4.917-1.593c-2.809-1.341-4.486-3.135-4.486-4.797
				C74.874,30.835,73.742,29.703,72.346,29.703z"/>
			<path fill="#74B574" d="M100.786,36.99c-1.323,0.641-2.838,1.154-4.504,1.526c-1.976,0.441-4.078,0.665-6.249,0.665
				c-1.397,0-2.529,1.132-2.529,2.529s1.132,2.529,2.529,2.529c2.541,0,5.014-0.265,7.351-0.787c2.046-0.457,3.932-1.1,5.606-1.91
				c1.257-0.609,1.782-2.121,1.174-3.378C103.555,36.907,102.042,36.381,100.786,36.99z"/>
			<path fill="#74B574" d="M104.76,37.908c0.464,0.367,1.017,0.545,1.566,0.545c0.747,0,1.487-0.329,1.986-0.961
				c1.267-1.604,1.938-3.423,1.938-5.261c0-2.308-1.03-4.524-2.979-6.408c-1.004-0.971-2.605-0.943-3.575,0.061
				c-0.971,1.004-0.943,2.605,0.061,3.575c0.953,0.921,1.437,1.854,1.437,2.771c0,0.698-0.285,1.413-0.848,2.125
				C103.478,35.452,103.664,37.043,104.76,37.908z"/>
			<path fill="#74B574" d="M164.893,79.794c-1.82-4.721-4.478-5.426-5.901-5.426c-0.243,0-0.485,0.035-0.718,0.104l-1.139,0.337
				c-0.001,0-0.001,0-0.002,0.001l-20.402,6.049V39.047c0-0.518-0.156-0.999-0.423-1.4c0.281-1.495,0.423-3.011,0.423-4.544
				c0-4.592-1.268-9.034-3.77-13.202c-2.367-3.945-5.735-7.472-10.009-10.484C114.336,3.344,102.925,0,90.82,0
				C78.716,0,67.304,3.344,58.688,9.417c-4.274,3.012-7.641,6.539-10.009,10.484c-2.501,4.168-3.77,8.61-3.77,13.202
				c0,1.413,0.121,2.812,0.36,4.192c-0.437,0.455-0.707,1.071-0.707,1.751v104.99c0,9.871,3.844,19.151,10.824,26.131
				c6.98,6.98,16.26,10.824,26.131,10.824h18.259c9.871,0,19.151-3.844,26.131-10.824c6.98-6.98,10.824-16.26,10.824-26.131v-22.302
				l24.268-16.765c0.026-0.018,0.052-0.038,0.077-0.057c1.684-0.845,3.067-2.726,4.03-5.505c0.918-2.647,1.423-6.027,1.423-9.516
				C166.529,86.118,165.948,82.532,164.893,79.794z M161.472,89.893c0,2.786-0.37,5.469-1.042,7.555
				c-0.54,1.677-1.124,2.496-1.438,2.805c-0.009-0.008-0.017-0.017-0.026-0.026c-0.009-0.009-0.017-0.017-0.026-0.027
				c-0.014-0.015-0.028-0.031-0.043-0.047c-0.009-0.01-0.018-0.02-0.028-0.031c-0.016-0.019-0.033-0.04-0.05-0.061
				c-0.009-0.011-0.017-0.021-0.026-0.032c-0.024-0.031-0.049-0.063-0.075-0.098c-0.002-0.003-0.005-0.006-0.007-0.01
				c-0.028-0.038-0.057-0.079-0.086-0.122c-0.01-0.015-0.02-0.031-0.031-0.046c-0.02-0.03-0.04-0.06-0.06-0.092
				c-0.013-0.02-0.026-0.042-0.038-0.062c-0.019-0.03-0.037-0.061-0.056-0.093c-0.014-0.023-0.028-0.048-0.042-0.073
				c-0.019-0.033-0.037-0.065-0.056-0.1c-0.015-0.026-0.029-0.054-0.044-0.082c-0.019-0.035-0.038-0.072-0.057-0.109
				c-0.015-0.029-0.03-0.06-0.046-0.09c-0.019-0.039-0.039-0.078-0.058-0.119c-0.016-0.032-0.031-0.065-0.047-0.099
				c-0.02-0.042-0.039-0.086-0.059-0.13c-0.016-0.035-0.031-0.07-0.047-0.107c-0.02-0.047-0.04-0.095-0.061-0.144
				c-0.015-0.037-0.031-0.074-0.046-0.112c-0.021-0.053-0.042-0.108-0.064-0.163c-0.015-0.038-0.029-0.074-0.044-0.113
				c-0.023-0.062-0.047-0.128-0.07-0.193c-0.012-0.035-0.025-0.068-0.037-0.103c-0.036-0.102-0.071-0.208-0.106-0.318
				c-0.672-2.086-1.043-4.77-1.043-7.557c0-0.188,0.002-0.374,0.005-0.558c0.001-0.062,0.003-0.122,0.005-0.184
				c0.003-0.121,0.005-0.242,0.01-0.36c0.002-0.072,0.006-0.143,0.009-0.214c0.004-0.106,0.009-0.212,0.014-0.317
				c0.004-0.074,0.009-0.147,0.013-0.221c0.006-0.099,0.012-0.198,0.018-0.296c0.005-0.075,0.011-0.149,0.017-0.223
				c0.007-0.093,0.014-0.187,0.022-0.279c0.006-0.074,0.013-0.148,0.02-0.221c0.009-0.09,0.017-0.179,0.026-0.268
				c0.008-0.073,0.016-0.145,0.024-0.217c0.01-0.086,0.02-0.172,0.03-0.258c0.009-0.071,0.018-0.142,0.027-0.212
				c0.011-0.084,0.022-0.167,0.034-0.249c0.01-0.069,0.019-0.137,0.029-0.204c0.012-0.081,0.025-0.162,0.037-0.242
				c0.01-0.066,0.021-0.132,0.032-0.197c0.013-0.079,0.027-0.157,0.041-0.234c0.011-0.063,0.022-0.127,0.034-0.189
				c0.014-0.077,0.029-0.153,0.044-0.228c0.012-0.06,0.024-0.121,0.036-0.18c0.016-0.076,0.032-0.15,0.048-0.224
				c0.012-0.056,0.024-0.113,0.037-0.169c0.017-0.076,0.035-0.15,0.052-0.225c0.012-0.051,0.024-0.103,0.036-0.153
				c0.019-0.079,0.039-0.156,0.059-0.233c0.011-0.043,0.022-0.087,0.033-0.13c0.027-0.102,0.054-0.201,0.082-0.298
				c0.005-0.016,0.009-0.033,0.014-0.049c0.032-0.113,0.065-0.223,0.098-0.331c0.011-0.037,0.023-0.072,0.035-0.109
				c0.022-0.07,0.044-0.14,0.067-0.208c0.014-0.042,0.028-0.082,0.042-0.123c0.02-0.06,0.041-0.119,0.061-0.177
				c0.015-0.043,0.03-0.084,0.046-0.125c0.02-0.053,0.039-0.107,0.059-0.159c0.016-0.042,0.032-0.082,0.048-0.122
				c0.02-0.05,0.039-0.099,0.059-0.147c0.016-0.039,0.032-0.077,0.048-0.116c0.019-0.046,0.039-0.092,0.058-0.136
				c0.016-0.038,0.033-0.074,0.049-0.111c0.019-0.043,0.039-0.085,0.058-0.126c0.016-0.035,0.033-0.07,0.049-0.104
				c0.019-0.04,0.038-0.078,0.058-0.117c0.016-0.033,0.033-0.065,0.049-0.096c0.019-0.037,0.038-0.073,0.057-0.108
				c0.016-0.03,0.032-0.059,0.048-0.088c0.019-0.034,0.038-0.067,0.058-0.1c0.016-0.027,0.032-0.054,0.047-0.08
				c0.019-0.031,0.038-0.061,0.057-0.091c0.015-0.024,0.031-0.048,0.046-0.071c0.019-0.029,0.038-0.056,0.057-0.083
				c0.015-0.021,0.029-0.042,0.044-0.062c0.02-0.027,0.039-0.052,0.058-0.076c0.013-0.017,0.027-0.036,0.04-0.052
				c0.021-0.025,0.041-0.048,0.061-0.071c0.011-0.013,0.023-0.027,0.034-0.04c0.025-0.028,0.05-0.053,0.075-0.077
				c0.006-0.005,0.011-0.012,0.017-0.017c0,0,0.001,0,0.001-0.001l0.008-0.002c0.315,0.31,0.898,1.129,1.438,2.803
				C161.102,84.424,161.472,87.107,161.472,89.893z M152.496,81.638c-0.023,0.083-0.046,0.165-0.068,0.248
				c-0.024,0.09-0.046,0.181-0.069,0.271c-0.021,0.084-0.042,0.168-0.063,0.252c-0.022,0.091-0.043,0.183-0.064,0.275
				c-0.018,0.079-0.036,0.157-0.054,0.236l-11.223,3.355c-1.338,0.4-2.098,1.809-1.699,3.147c0.328,1.096,1.333,1.805,2.422,1.805
				c0.24,0,0.484-0.034,0.725-0.107l9.084-2.715c-0.004,0.085-0.006,0.168-0.009,0.253c-0.002,0.069-0.006,0.139-0.008,0.208
				c-0.004,0.117-0.006,0.232-0.008,0.347c-0.001,0.057-0.003,0.114-0.004,0.17c-0.003,0.171-0.004,0.341-0.004,0.509
				c0,1.987,0.162,3.921,0.469,5.707l-22.728,10.812c-0.36-1.619-0.58-3.315-0.58-5.043c0-2.208,0.284-4.34,0.846-6.378l7.001-2.092
				c1.338-0.4,2.098-1.809,1.699-3.147c-0.4-1.338-1.809-2.098-3.147-1.699l-2.864,0.856c0.525-0.823,0.995-1.43,1.306-1.803
				l1.491-0.442c0.004-0.001,0.009-0.003,0.013-0.004l17.59-5.215C152.531,81.508,152.514,81.574,152.496,81.638z M61.601,13.55
				C69.373,8.073,79.75,5.057,90.82,5.057s21.448,3.016,29.219,8.493c7.502,5.288,11.634,12.232,11.634,19.553
				c0,7.321-4.132,14.265-11.634,19.553c-7.771,5.477-18.148,8.493-29.219,8.493s-21.448-3.016-29.219-8.493
				c-7.502-5.288-11.634-12.232-11.634-19.553C49.967,25.782,54.099,18.838,61.601,13.55z M64.357,170.915
				c0.009-0.087,0.013-0.176,0.013-0.266l-0.185-30.521c-0.009-1.391-1.139-2.513-2.528-2.513c-0.005,0-0.01,0-0.016,0
				c-1.397,0.008-2.522,1.147-2.513,2.544l0.162,26.732c-5.961-5.799-9.67-13.901-9.67-22.854V47.772
				c2.275,3.336,5.297,6.347,9.003,8.97l0.315,52.028c0.009,1.391,1.139,2.513,2.528,2.513c0.005,0,0.01,0,0.016,0
				c1.397-0.008,2.522-1.147,2.513-2.544L63.699,59.85c4.453,2.35,9.427,4.084,14.711,5.142l0.174,28.733
				c0.009,1.391,1.139,2.513,2.528,2.513c0.005,0,0.01,0,0.016,0c1.397-0.008,2.522-1.147,2.513-2.544l-0.169-27.908
				c2.409,0.277,4.864,0.42,7.349,0.42c1.769,0,3.524-0.074,5.257-0.215l0.666,109.943H81.517
				C75.205,175.934,69.315,174.091,64.357,170.915z M120.841,167.968l-0.088-13.56c-0.009-1.397-1.15-2.527-2.545-2.512
				c-1.396,0.009-2.521,1.149-2.512,2.545l0.112,17.163c-4.165,2.431-8.926,3.945-14.007,4.265l-0.669-110.494
				c8.181-1.341,15.706-4.275,21.822-8.585c3.552-2.503,6.475-5.363,8.721-8.522v34.091l-0.346,0.103
				c-0.404,0.12-0.771,0.338-1.069,0.636c-0.274,0.274-6.7,6.831-6.7,18.271c0,11.274,7.456,20.822,7.774,21.223
				c0.104,0.131,0.219,0.249,0.342,0.354v21.091C131.674,153.559,127.478,162.118,120.841,167.968z M133.954,117.507
				c-0.924-1.449-2.168-3.621-3.223-6.225l22.582-10.742c0.038,0.088,0.076,0.174,0.114,0.259c0.01,0.021,0.019,0.042,0.028,0.063
				c0.052,0.114,0.105,0.226,0.158,0.335c0.009,0.018,0.017,0.035,0.026,0.053c0.055,0.112,0.111,0.221,0.167,0.328
				c0.003,0.006,0.006,0.012,0.009,0.017c0.055,0.104,0.111,0.206,0.168,0.305c0.007,0.012,0.014,0.024,0.02,0.036
				c0.056,0.097,0.112,0.191,0.169,0.284c0.01,0.017,0.02,0.033,0.03,0.049c0.056,0.089,0.112,0.176,0.168,0.261
				c0.01,0.016,0.021,0.031,0.031,0.046c0.057,0.085,0.115,0.169,0.173,0.249c0.006,0.009,0.013,0.017,0.019,0.026
				c0.057,0.079,0.115,0.155,0.172,0.229c0.006,0.008,0.012,0.016,0.018,0.023c0.002,0.003,0.005,0.006,0.007,0.009L133.954,117.507
				z"/>
			<path fill="#74B574" d="M118.024,121.157c-0.006,0-0.011,0-0.017,0c-1.396,0.009-2.521,1.149-2.512,2.545l0.141,21.582
				c0.009,1.391,1.139,2.512,2.528,2.512c0.006,0,0.011,0,0.017,0c1.397-0.009,2.521-1.149,2.512-2.545l-0.141-21.582
				C120.543,122.278,119.413,121.157,118.024,121.157z"/>
			<path fill="#74B574" d="M117.91,108.827c0.006,0,0.011,0,0.017,0c1.396-0.009,2.521-1.149,2.512-2.545l-0.255-39.103
				c-0.009-1.391-1.139-2.512-2.528-2.512c-0.006,0-0.011,0-0.017,0c-1.396,0.009-2.521,1.149-2.512,2.545l0.255,39.103
				C115.391,107.706,116.521,108.827,117.91,108.827z"/>
			<path fill="#74B574" d="M81.203,106.227c-0.005,0-0.01,0-0.016,0c-1.397,0.008-2.522,1.147-2.513,2.544l0.347,57.222
				c0.009,1.391,1.139,2.513,2.528,2.513c0.005,0,0.01,0,0.016,0c1.397-0.008,2.522-1.147,2.513-2.544l-0.347-57.222
				C83.723,107.349,82.593,106.227,81.203,106.227z"/>
			<path fill="#74B574" d="M117.988,25.994c0.5,0.58,1.206,0.878,1.917,0.878c0.585,0,1.172-0.202,1.649-0.613
				c1.058-0.912,1.176-2.508,0.265-3.566l-1.19-1.381c-0.912-1.058-2.508-1.176-3.566-0.265c-1.058,0.912-1.176,2.508-0.265,3.566
				L117.988,25.994z"/>
			<path fill="#74B574" d="M84.696,47.892l-2.18-0.38c-1.375-0.239-2.685,0.681-2.925,2.056c-0.24,1.376,0.681,2.685,2.056,2.925
				l2.18,0.38c0.147,0.026,0.293,0.038,0.437,0.038c1.206,0,2.274-0.866,2.488-2.095C86.992,49.442,86.071,48.132,84.696,47.892z"/>
			<path fill="#74B574" d="M61.841,113.527c-1.397,0-2.529,1.132-2.529,2.529v12.862c0,1.396,1.132,2.529,2.529,2.529
				c1.397,0,2.529-1.132,2.529-2.529v-12.862C64.369,114.659,63.237,113.527,61.841,113.527z"/>
		</g>
		<g>
			<path d="M139.16,202.01c-7.031,4.998-14.739,8.877-22.911,11.53c-6.65,2.158-13.537,3.479-20.542,3.943l11.348-10.795
				c1.012-0.962,1.052-2.563,0.089-3.575c-0.963-1.012-2.563-1.052-3.575-0.089l-16.132,15.345
				c-0.499,0.475-0.783,1.132-0.786,1.821c-0.003,0.689,0.275,1.349,0.77,1.828l16.132,15.611c0.491,0.475,1.125,0.712,1.758,0.712
				c0.661,0,1.321-0.258,1.817-0.77c0.971-1.004,0.945-2.604-0.059-3.575l-11.798-11.418c7.687-0.444,15.246-1.861,22.538-4.227
				c8.661-2.811,16.83-6.922,24.28-12.218c1.138-0.809,1.405-2.388,0.596-3.526C141.876,201.468,140.298,201.201,139.16,202.01z"/>
			<path d="M171.297,165.172c-1.281-0.556-2.77,0.033-3.326,1.314c-1.922,4.435-4.246,8.737-6.905,12.789
				c-2.739,4.173-5.868,8.132-9.301,11.766c-0.959,1.015-0.913,2.616,0.102,3.574c0.489,0.462,1.113,0.69,1.736,0.69
				c0.671,0,1.341-0.266,1.839-0.792c3.636-3.85,6.951-8.043,9.852-12.464c2.818-4.293,5.279-8.853,7.317-13.552
				C173.167,167.216,172.579,165.727,171.297,165.172z"/>
			<path d="M177.471,130.201c-1.397,0-2.529,1.132-2.529,2.529c0,7.723-1.036,15.376-3.079,22.745
				c-0.373,1.346,0.415,2.739,1.761,3.112c0.226,0.063,0.453,0.093,0.677,0.093c1.108,0,2.125-0.734,2.435-1.854
				c2.165-7.809,3.262-15.916,3.262-24.096C180,131.333,178.868,130.201,177.471,130.201z"/>
			<path d="M19.815,180.591c-1.923-2.814-3.692-5.772-5.26-8.793c-0.643-1.239-2.17-1.723-3.409-1.08
				c-1.24,0.643-1.723,2.17-1.08,3.409c1.661,3.201,3.536,6.335,5.573,9.317c2.139,3.131,4.501,6.158,7.021,8.997
				c0.5,0.563,1.194,0.85,1.892,0.85c0.597,0,1.196-0.21,1.677-0.637c1.045-0.927,1.14-2.525,0.213-3.57
				C24.064,186.405,21.834,183.547,19.815,180.591z"/>
			<path d="M9.842,160.908c-1.046-2.977-1.934-6.046-2.64-9.123c-0.71-3.096-1.25-6.272-1.607-9.439
				c-0.357-3.17-0.538-6.405-0.538-9.617c0-1.396-1.132-2.529-2.529-2.529S0,131.333,0,132.73c0,3.4,0.192,6.826,0.57,10.183
				c0.378,3.356,0.951,6.721,1.703,10.003c0.747,3.261,1.689,6.515,2.798,9.67c0.366,1.04,1.342,1.691,2.385,1.691
				c0.278,0,0.561-0.046,0.839-0.144C9.613,163.669,10.305,162.226,9.842,160.908z"/>
			<path d="M25.418,75.733c-0.003-0.009-0.007-0.017-0.009-0.025c-0.022-0.067-0.046-0.133-0.073-0.199
				c-0.004-0.009-0.007-0.018-0.011-0.026c-0.025-0.057-0.051-0.113-0.08-0.168c-0.004-0.008-0.009-0.016-0.013-0.024
				c-0.015-0.028-0.031-0.054-0.046-0.081c-0.022-0.038-0.045-0.075-0.069-0.111c-0.018-0.027-0.036-0.055-0.055-0.081
				c-0.028-0.039-0.057-0.076-0.087-0.113c-0.019-0.024-0.039-0.049-0.059-0.072c-0.041-0.048-0.084-0.094-0.129-0.138
				c-0.02-0.02-0.042-0.039-0.063-0.059c-0.034-0.031-0.068-0.062-0.103-0.091c-0.022-0.018-0.044-0.036-0.066-0.054
				c-0.042-0.032-0.084-0.063-0.128-0.092c-0.016-0.011-0.032-0.023-0.049-0.034c-0.059-0.038-0.12-0.073-0.181-0.106
				c-0.021-0.011-0.044-0.022-0.065-0.033c-0.044-0.022-0.087-0.042-0.132-0.061c-0.026-0.011-0.053-0.022-0.079-0.032
				c-0.044-0.017-0.088-0.032-0.133-0.047c-0.025-0.008-0.05-0.017-0.076-0.025c-0.065-0.019-0.13-0.035-0.196-0.049
				c-0.031-0.006-0.062-0.011-0.093-0.016c-0.04-0.007-0.08-0.013-0.121-0.018c-0.035-0.004-0.07-0.007-0.106-0.01
				c-0.039-0.003-0.079-0.005-0.118-0.006c-0.034-0.001-0.067-0.003-0.101-0.002c-0.068,0.001-0.135,0.004-0.204,0.01l-0.008,0.001
				c-0.006,0.001-0.012,0.001-0.018,0.002l-18.382,1.71c-1.391,0.129-2.413,1.362-2.283,2.752s1.363,2.412,2.752,2.283l12.553-1.168
				c-4.16,5.669-7.635,11.795-10.364,18.274c-2.095,4.975-3.747,10.171-4.91,15.443c-0.301,1.364,0.561,2.713,1.925,3.014
				c0.183,0.04,0.366,0.06,0.547,0.06c1.161,0,2.207-0.804,2.467-1.985c1.097-4.974,2.655-9.875,4.632-14.569
				c2.695-6.399,6.163-12.432,10.334-17.99l4.257,13.617c0.338,1.082,1.336,1.775,2.413,1.775c0.25,0,0.504-0.037,0.755-0.116
				c1.333-0.417,2.076-1.835,1.659-3.168L25.418,75.733z"/>
			<path d="M145.24,196.899l-1.427,1.458c-0.977,0.998-0.959,2.599,0.039,3.576c0.492,0.482,1.13,0.721,1.768,0.721
				c0.656,0,1.312-0.254,1.807-0.76l1.427-1.458c0.977-0.998,0.959-2.599-0.039-3.576
				C147.817,195.884,146.217,195.901,145.24,196.899z"/>
			<path d="M2.247,126.957c0.096,0.011,0.191,0.016,0.285,0.016c1.27,0,2.365-0.955,2.51-2.247l0.405-3.615
				c0.155-1.388-0.844-2.639-2.231-2.794c-1.388-0.156-2.639,0.844-2.794,2.231l-0.405,3.615
				C-0.14,125.55,0.859,126.801,2.247,126.957z"/>
		</g>
	</g>
	<g>
		<path d="M46.434,217.079c-0.747,0-1.425-0.411-1.769-1.073c-0.22-0.422-0.407-0.875-0.557-1.347
			c-0.318-0.953-0.48-1.962-0.48-2.992c0-1.03,0.162-2.039,0.483-2.999c0.148-0.464,0.335-0.917,0.555-1.34
			c0.345-0.662,1.023-1.073,1.769-1.073c0.318,0,0.636,0.078,0.919,0.226c0.472,0.246,0.82,0.661,0.981,1.169
			c0.16,0.508,0.113,1.048-0.133,1.52c-0.116,0.222-0.215,0.465-0.297,0.722l-0.011,0.034c-0.185,0.553-0.279,1.139-0.279,1.743
			c0,0.603,0.094,1.19,0.28,1.744l0.011,0.035c0.08,0.254,0.18,0.496,0.296,0.719c0.507,0.975,0.127,2.181-0.848,2.689
			C47.07,217.001,46.752,217.079,46.434,217.079z"/>
		<path d="M47.422,209.738c-0.003,0.008-0.005,0.016-0.008,0.024c-0.203,0.606-0.306,1.247-0.306,1.905
			c0,0.658,0.103,1.299,0.306,1.905c0.003,0.008,0.005,0.016,0.008,0.024c0.09,0.284,0.201,0.554,0.33,0.802
			c0.379,0.729,0.096,1.627-0.633,2.006c-0.219,0.114-0.454,0.168-0.686,0.168c-0.537,0-1.056-0.292-1.321-0.801
			c-0.207-0.397-0.383-0.823-0.524-1.266c-0.303-0.908-0.456-1.863-0.456-2.839s0.154-1.931,0.456-2.839
			c0.141-0.444,0.317-0.87,0.524-1.266c0.379-0.729,1.278-1.012,2.006-0.633c0.729,0.379,1.012,1.278,0.633,2.006
			C47.623,209.184,47.512,209.454,47.422,209.738z"/>
		<g>
			<path d="M51.444,236.081c-2.008,0-3.641-1.633-3.641-3.641v-0.646c-1.745-0.466-3.421-1.161-4.994-2.071l-0.457,0.457
				c-0.69,0.685-1.605,1.061-2.579,1.062c-0.972,0-1.885-0.375-2.572-1.057l-2.502-2.507c-0.689-0.684-1.069-1.598-1.069-2.574
				s0.382-1.892,1.075-2.581l0.452-0.452c-0.907-1.569-1.602-3.246-2.069-4.993h-0.647c-2.01,0-3.645-1.635-3.645-3.645v-3.537
				c0-2.008,1.635-3.641,3.645-3.641h0.647c0.468-1.748,1.162-3.424,2.069-4.993l-0.457-0.457c-0.69-0.69-1.07-1.605-1.07-2.578
				c0-0.973,0.38-1.888,1.07-2.578l2.496-2.496c0.688-0.688,1.603-1.066,2.578-1.066c0.975,0,1.89,0.379,2.578,1.066l0.457,0.457
				c1.572-0.91,3.249-1.605,4.994-2.071v-0.646c0-2.01,1.633-3.645,3.641-3.645h3.537c2.01,0,3.645,1.635,3.645,3.645v0.648
				c1.748,0.468,3.424,1.162,4.993,2.069l0.457-0.457c0.685-0.689,1.6-1.07,2.576-1.07c0.976,0,1.892,0.382,2.58,1.075l2.495,2.49
				c1.412,1.423,1.415,3.733,0.006,5.152l-0.462,0.462c0.907,1.569,1.601,3.245,2.069,4.993h0.648c2.007,0,3.641,1.633,3.641,3.641
				v3.537c0,2.01-1.633,3.645-3.641,3.645H73.34c-0.468,1.748-1.162,3.425-2.069,4.993l0.457,0.457c1.42,1.42,1.42,3.731,0,5.151
				l-2.501,2.501c-0.687,0.687-1.602,1.065-2.575,1.065c-0.974,0-1.889-0.378-2.575-1.065l-0.457-0.457
				c-1.569,0.907-3.245,1.601-4.993,2.069v0.648c0,2.007-1.635,3.641-3.645,3.641H51.444z M54.639,232.094V230.2
				c0-0.962,0.687-1.787,1.634-1.961c2.344-0.43,4.531-1.336,6.498-2.693c0.334-0.23,0.725-0.352,1.131-0.352
				c0.533,0,1.034,0.207,1.41,0.584l1.34,1.34l2.014-2.014l-1.34-1.34c-0.68-0.68-0.778-1.749-0.232-2.541
				c1.356-1.968,2.262-4.154,2.692-6.498c0.174-0.947,0.998-1.634,1.961-1.634h1.895v-2.85h-1.895c-0.962,0-1.787-0.687-1.961-1.634
				c-0.43-2.344-1.336-4.531-2.692-6.498c-0.546-0.792-0.449-1.861,0.232-2.541l1.342-1.342l-2.016-2.012l-1.34,1.34
				c-0.376,0.377-0.877,0.584-1.41,0.584c-0.406,0-0.797-0.122-1.131-0.352c-1.968-1.356-4.154-2.262-6.498-2.693
				c-0.947-0.174-1.634-0.998-1.634-1.96v-1.899h-2.85v1.899c0,0.964-0.688,1.789-1.637,1.961c-2.334,0.424-4.52,1.33-6.495,2.692
				c-0.334,0.23-0.725,0.352-1.131,0.352c-0.533,0-1.033-0.207-1.41-0.584l-1.342-1.342l-2.014,2.014l1.342,1.342
				c0.68,0.68,0.778,1.749,0.232,2.541c-1.356,1.968-2.262,4.154-2.693,6.498c-0.174,0.946-0.998,1.633-1.961,1.633h-1.899v2.85
				h1.899c0.962,0,1.787,0.687,1.961,1.633c0.43,2.345,1.336,4.531,2.693,6.499c0.546,0.792,0.449,1.86-0.231,2.541l-1.34,1.34
				l2.012,2.016l1.342-1.342c0.377-0.376,0.877-0.584,1.41-0.584c0.406,0,0.797,0.122,1.131,0.352
				c1.975,1.362,4.161,2.268,6.495,2.692c0.948,0.172,1.637,0.997,1.637,1.961v1.895H54.639z"/>
			<path d="M73.988,206.761c1.729,0,3.135,1.406,3.135,3.135v3.537c0,1.731-1.406,3.14-3.135,3.14h-1.04
				c-0.487,1.97-1.261,3.839-2.312,5.579l0.734,0.734c1.223,1.223,1.223,3.213,0,4.436l-2.501,2.501
				c-1.223,1.223-3.213,1.223-4.436,0l-0.734-0.734c-1.74,1.051-3.609,1.825-5.579,2.312v1.04c0,1.729-1.408,3.135-3.14,3.135
				h-3.537c-1.729,0-3.135-1.406-3.135-3.135v-1.038c-1.966-0.484-3.835-1.259-5.58-2.313l-0.734,0.734
				c-1.226,1.217-3.214,1.217-4.437,0.004l-2.501-2.505c-0.592-0.588-0.921-1.377-0.921-2.217c0-0.84,0.329-1.629,0.926-2.222
				l0.73-0.731c-1.051-1.74-1.825-3.609-2.312-5.579h-1.04c-1.731,0-3.14-1.408-3.14-3.14v-3.537c0-1.729,1.408-3.135,3.14-3.135
				h1.04c0.487-1.971,1.261-3.839,2.312-5.579l-0.734-0.734c-0.594-0.594-0.922-1.383-0.922-2.22c0-0.837,0.327-1.626,0.922-2.22
				l2.496-2.496c1.224-1.224,3.216-1.224,4.44,0l0.734,0.734c1.745-1.054,3.613-1.829,5.58-2.313v-1.038
				c0-1.731,1.406-3.14,3.135-3.14h3.537c1.731,0,3.14,1.408,3.14,3.14v1.04c1.971,0.487,3.839,1.261,5.579,2.312l0.734-0.734
				c0.589-0.593,1.378-0.922,2.218-0.922c0.84,0,1.629,0.329,2.222,0.925l2.496,2.492c1.218,1.227,1.218,3.215,0.005,4.437
				l-0.738,0.738c1.051,1.74,1.825,3.609,2.312,5.579H73.988z M74.148,213.433v-3.537c0-0.087-0.073-0.16-0.16-0.16h-2.241
				c-0.718,0-1.334-0.513-1.463-1.219c-0.443-2.415-1.376-4.667-2.774-6.694c-0.407-0.591-0.335-1.389,0.173-1.896l1.584-1.584
				c0.063-0.064,0.063-0.169-0.004-0.237l-2.496-2.492c-0.035-0.036-0.072-0.051-0.115-0.051c-0.043,0-0.08,0.016-0.111,0.047
				l-1.587,1.587c-0.507,0.508-1.305,0.58-1.896,0.173c-2.027-1.397-4.279-2.33-6.694-2.774c-0.706-0.13-1.219-0.745-1.219-1.463
				v-2.241c0-0.091-0.074-0.164-0.164-0.164h-3.537c-0.088,0-0.16,0.074-0.16,0.164v2.241c0,0.719-0.514,1.335-1.221,1.464
				c-2.405,0.437-4.657,1.37-6.691,2.773c-0.591,0.408-1.389,0.335-1.896-0.173l-1.584-1.584c-0.067-0.067-0.166-0.067-0.233,0
				l-2.496,2.496c-0.034,0.034-0.05,0.073-0.05,0.116c0,0.044,0.017,0.083,0.05,0.116l1.584,1.584
				c0.508,0.508,0.58,1.305,0.173,1.896c-1.397,2.027-2.33,4.279-2.774,6.694c-0.13,0.706-0.745,1.219-1.463,1.219h-2.241
				c-0.091,0-0.164,0.072-0.164,0.16v3.537c0,0.091,0.074,0.164,0.164,0.164h2.241c0.718,0,1.333,0.513,1.463,1.219
				c0.443,2.415,1.377,4.667,2.774,6.694c0.407,0.591,0.335,1.389-0.173,1.896l-1.583,1.584c-0.035,0.035-0.05,0.072-0.05,0.114
				s0.016,0.08,0.047,0.11l2.501,2.506c0.064,0.063,0.167,0.063,0.235-0.005l1.58-1.58c0.288-0.288,0.669-0.436,1.052-0.436
				c0.293,0,0.588,0.086,0.844,0.263c2.035,1.403,4.286,2.336,6.691,2.773c0.707,0.129,1.221,0.745,1.221,1.464v2.241
				c0,0.087,0.073,0.16,0.16,0.16h3.537c0.091,0,0.164-0.072,0.164-0.16V230.2c0-0.718,0.513-1.334,1.219-1.463
				c2.415-0.443,4.667-1.376,6.694-2.774c0.591-0.407,1.389-0.335,1.896,0.173l1.583,1.584c0.063,0.063,0.165,0.063,0.228,0
				l2.501-2.501c0.063-0.063,0.063-0.165,0-0.228l-1.584-1.583c-0.508-0.508-0.58-1.305-0.173-1.896
				c1.397-2.027,2.33-4.279,2.774-6.694c0.13-0.706,0.745-1.219,1.463-1.219h2.241C74.076,213.597,74.148,213.524,74.148,213.433z"
				/>
			<path d="M50.837,220.871c-0.204,0-0.406-0.031-0.602-0.093c-0.446-0.141-0.897-0.327-1.34-0.551
				c-0.98-0.497-1.374-1.699-0.876-2.679c0.341-0.674,1.023-1.092,1.779-1.092c0.311,0,0.622,0.075,0.9,0.216
				c0.251,0.127,0.5,0.231,0.741,0.307c0.508,0.161,0.922,0.509,1.168,0.982c0.245,0.473,0.292,1.012,0.131,1.52
				C52.474,220.311,51.71,220.871,50.837,220.871z"/>
			<path d="M51.286,217.459c0.783,0.248,1.217,1.084,0.969,1.867c-0.201,0.634-0.787,1.039-1.418,1.039
				c-0.149,0-0.3-0.022-0.449-0.07c-0.42-0.133-0.846-0.308-1.264-0.52c-0.733-0.372-1.026-1.267-0.654-2
				c0.371-0.733,1.267-1.026,2-0.654C50.744,217.261,51.019,217.375,51.286,217.459z"/>
			<path d="M55.592,220.871c-0.873,0-1.637-0.56-1.9-1.392c-0.161-0.508-0.114-1.047,0.131-1.52c0.245-0.473,0.66-0.821,1.168-0.982
				c0.241-0.076,0.49-0.179,0.74-0.307c1.065-0.536,1.947-1.418,2.485-2.484l0.012-0.023c0.115-0.221,0.215-0.464,0.296-0.721
				l0.009-0.029c0.187-0.557,0.281-1.144,0.281-1.747c0-0.603-0.094-1.19-0.28-1.744l-0.009-0.028
				c-0.082-0.261-0.182-0.503-0.298-0.726c-0.246-0.472-0.293-1.012-0.133-1.52c0.16-0.508,0.509-0.923,0.981-1.169
				c0.283-0.147,0.601-0.226,0.919-0.226c0.747,0,1.425,0.411,1.769,1.074c0.22,0.422,0.407,0.875,0.557,1.346
				c0.318,0.953,0.48,1.961,0.48,2.992c0,1.03-0.162,2.039-0.482,2.998c-0.146,0.461-0.332,0.911-0.55,1.331
				c-0.918,1.815-2.425,3.319-4.24,4.233c-0.44,0.223-0.889,0.408-1.335,0.549C55.998,220.84,55.796,220.871,55.592,220.871z"/>
			<path d="M61.316,207.562c0.206,0.397,0.383,0.823,0.524,1.266c0.303,0.908,0.456,1.863,0.456,2.838
				c0,0.976-0.154,1.931-0.456,2.838c-0.14,0.441-0.315,0.864-0.52,1.258c-0.872,1.723-2.299,3.149-4.019,4.014
				c-0.415,0.21-0.84,0.386-1.26,0.518c-0.149,0.047-0.301,0.07-0.449,0.07c-0.631,0-1.217-0.405-1.418-1.039
				c-0.248-0.783,0.186-1.619,0.969-1.867c0.266-0.084,0.541-0.198,0.817-0.338c1.161-0.584,2.121-1.545,2.708-2.707
				c0.003-0.006,0.006-0.011,0.008-0.016c0.129-0.248,0.24-0.518,0.33-0.803c0.003-0.008,0.005-0.016,0.008-0.024
				c0.203-0.606,0.306-1.247,0.306-1.905c0-0.658-0.103-1.299-0.306-1.905c-0.003-0.008-0.005-0.016-0.008-0.024
				c-0.09-0.284-0.201-0.555-0.33-0.803c-0.379-0.729-0.096-1.627,0.633-2.006C60.038,206.55,60.936,206.833,61.316,207.562z"/>
			<path d="M56.631,206.879c-0.31,0-0.621-0.075-0.899-0.215c-0.252-0.128-0.501-0.231-0.741-0.307l-0.03-0.01
				c-0.556-0.186-1.143-0.281-1.746-0.281c-0.603,0-1.19,0.094-1.744,0.28c-0.205,0.069-0.419,0.104-0.634,0.104
				c-0.857,0-1.617-0.546-1.89-1.36c-0.349-1.042,0.214-2.174,1.256-2.524c0.963-0.323,1.976-0.487,3.011-0.487
				c1.031,0,2.04,0.162,2.999,0.482c0.434,0.138,0.88,0.322,1.32,0.545c0.98,0.497,1.374,1.699,0.877,2.679
				C58.069,206.46,57.387,206.879,56.631,206.879L56.631,206.879z"/>
			<path d="M55.143,205.875c-0.008-0.003-0.016-0.005-0.024-0.008c-0.606-0.203-1.247-0.306-1.905-0.306
				c-0.658,0-1.299,0.103-1.905,0.306c-0.779,0.261-1.622-0.158-1.883-0.937c-0.261-0.779,0.158-1.622,0.937-1.883
				c0.911-0.306,1.87-0.461,2.851-0.461c0.976,0,1.931,0.154,2.839,0.457c0.415,0.132,0.836,0.306,1.252,0.516
				c0.733,0.371,1.026,1.266,0.655,1.999c-0.262,0.517-0.785,0.815-1.328,0.815c-0.226,0-0.456-0.052-0.671-0.161
				C55.684,206.072,55.409,205.959,55.143,205.875z"/>
		</g>
	</g>
</g>
</svg>
