<?xml version="1.0" encoding="utf-8"?>
<!-- Generator: Adobe Illustrator 27.6.1, SVG Export Plug-In . SVG Version: 6.00 Build 0)  -->
<svg version="1.1" xmlns="http://www.w3.org/2000/svg" xmlns:xlink="http://www.w3.org/1999/xlink" x="0px" y="0px"
	 viewBox="0 0 197 182.761" enable-background="new 0 0 197 182.761" xml:space="preserve">
<g id="Color_5">
	<g id="Layer_58_copy_3">
		<g>
			<g>
				<path fill="#E5E5E5" d="M57.617,122.96h-43.51c-4.102,0-7.428-3.326-7.428-7.428v0c0-4.102,3.326-7.428,7.428-7.428h43.51
					c4.102,0,7.428,3.326,7.428,7.428v0C65.045,119.635,61.72,122.96,57.617,122.96z"/>
			</g>
			<g>
				<path fill="#E5E5E5" d="M20.899,102.905H3.047C1.364,102.905,0,101.54,0,99.857v0c0-1.683,1.364-3.047,3.047-3.047h17.851
					c1.683,0,3.047,1.364,3.047,3.047v0C23.946,101.54,22.582,102.905,20.899,102.905z"/>
			</g>
			<g>
				<path fill="#E5E5E5" d="M185.945,90.29h-11.063v6.063h11.063c1.885,0,3.413-1.357,3.413-3.032v0
					C189.357,91.648,187.829,90.29,185.945,90.29z"/>
			</g>
			<g>
				<path fill="#E5E5E5" d="M190.378,74.763H173.99v11.765h16.388c3.657,0,6.622-2.634,6.622-5.882v0
					C197,77.397,194.035,74.763,190.378,74.763z"/>
			</g>
			<g>
				<g>
					<path fill="#E5E5E5" d="M168.503,0H56.745v17.028H42.196c2.433-2.86,4.866-5.72,7.299-8.58
						c-2.466,2.899-4.931,5.797-7.397,8.696v121.924v30.814h135.994v-30.814V8.809C178.092,3.944,173.799,0,168.503,0z
						 M62.143,22.766h101.997v4.801H62.143V22.766z M62.143,36.637h101.997v4.801H62.143V36.637z M62.143,51.375h101.997v4.801
						H62.143V51.375z M62.143,65.246h101.997v4.801H62.143V65.246z M62.143,79.117h101.997v4.801H62.143V79.117z M62.143,93.855
						h101.997v4.801H62.143V93.855z"/>
				</g>
			</g>
		</g>
	</g>
</g>
<g id="Color_4_00000121275546086983520780000010172067193410881701_">
	<g id="Layer_63">
		<g id="Layer_150">
			<g id="Layer_21_copy_4">
				<g id="Layer_20_copy_4">
					<g>
						<path fill="#E89F97" d="M113.105,29.057c-0.219-0.084-0.447-0.12-0.674-0.114c-0.596-4.207-3.509-7.4-7.014-7.4
							c-3.515,0-6.435,3.213-7.019,7.438c-0.087,0.019-0.173,0.043-0.258,0.076c-1.042,0.399-1.491,1.716-1.002,2.942
							c0.3,0.753,0.884,1.295,1.531,1.51c0.582,2.3,1.799,4.371,3.363,5.65l-0.502,1.894l-1.369,5.17l-1.445,5.459l14.394,0.094
							l-1.82-6.485l-1.162-4.14l-0.697-2.485c1.256-1.267,2.22-3.077,2.723-5.065c0.806-0.084,1.588-0.688,1.952-1.601
							C114.596,30.773,114.147,29.456,113.105,29.057z"/>
						<g>
							<path fill="#E89F97" d="M101.917,76.287c3.054-0.727,5.367-1.587,7.523-2.649c-2.511-0.471-5.02-1.017-7.523-1.679V76.287z"
								/>
							<path fill="#E89F97" d="M96.599,70.359c-0.069-0.024-0.139-0.048-0.208-0.072c0.125,2.565-0.039,3.711-1.254,7.228
								c2.65-0.367,4.861-0.771,6.78-1.228V71.96C100.14,71.49,98.367,70.962,96.599,70.359z"/>
							<path fill="#E89F97" d="M115.922,66.791l-0.458-0.914c0.001-0.005,0.003-0.01,0.004-0.014
								c-0.335,0.106-2.318,0.737-4.984,1.438c1.996,0.008,3.793-0.085,5.523-0.313L115.922,66.791z"/>
							<path fill="#E89F97" d="M109.782,67.483v-0.189c-2.291-0.035-4.85-0.193-7.865-0.429v2.223
								C104.571,68.724,107.397,68.093,109.782,67.483z"/>
							<path fill="#E89F97" d="M109.44,73.638c0.063,0.012,0.126,0.024,0.189,0.036c0.051,0.009,0.102,0.018,0.153,0.028v-0.234
								C109.668,73.525,109.554,73.582,109.44,73.638z"/>
							<path fill="#E89F97" d="M101.917,69.089v-2.223c-1.775-0.139-3.708-0.304-5.836-0.487l-0.65,3.571
								c0.32,0.115,0.64,0.227,0.961,0.337c-0.015-0.301-0.033-0.62-0.054-0.966C97.902,69.494,99.857,69.372,101.917,69.089z"/>
							<path fill="#E89F97" d="M116.02,66.986c-0.004,0.001-0.009,0.001-0.013,0.002l0.952,2.209
								c-2.73,1.713-4.881,3.109-7.177,4.271v0.234c3.115,0.576,6.231,1.043,9.336,1.481c-0.762-2.279-1.383-5.315-3.072-8.157
								c-0.001,0.001-0.003,0.002-0.004,0.003L116.02,66.986z"/>
							<path fill="#E89F97" d="M110.484,67.301c-0.231-0.001-0.465-0.003-0.702-0.007v0.189
								C110.021,67.422,110.255,67.361,110.484,67.301z"/>
							<path fill="#E89F97" d="M109.782,67.483c-2.385,0.61-5.211,1.241-7.865,1.606v2.871c2.503,0.662,5.012,1.208,7.523,1.679
								c0.114-0.056,0.228-0.113,0.342-0.171V67.483z"/>
							<path fill="#E89F97" d="M101.917,71.96v-2.871c-2.059,0.283-4.015,0.405-5.58,0.232c0.021,0.346,0.04,0.665,0.054,0.966
								c0.069,0.024,0.139,0.048,0.208,0.072C98.367,70.962,100.14,71.49,101.917,71.96z"/>
							<path fill="#E89F97" d="M109.782,73.468c2.296-1.161,4.448-2.557,7.177-4.271l-0.952-2.209
								c-1.73,0.228-3.527,0.321-5.523,0.313c-0.229,0.06-0.463,0.121-0.702,0.182V73.468z"/>
							<path fill="#E89F97" d="M122.03,62.115c-0.089-0.077-0.218-0.094-0.325-0.042l-1.684,0.809l2.467-1.94
								c0.247-0.195,0.271-0.55,0.052-0.773v0c-0.196-0.2-0.519-0.222-0.743-0.051l-2.617,1.998l2.099-1.657
								c0.214-0.169,0.253-0.47,0.089-0.685h0c-0.178-0.232-0.521-0.272-0.752-0.089l-2.366,1.877l1.452-1.259
								c0.204-0.177,0.226-0.477,0.05-0.68c-0.189-0.218-0.531-0.237-0.746-0.041l-1.821,1.665
								c-0.672,1.417-1.233,2.969-1.716,4.616c0.023-0.007,0.04-0.013,0.047-0.015l0.407,0.943l0.098,0.195c0.001,0,0.002,0,0.003,0
								c0.008,0.013,0.015,0.027,0.023,0.04c1.561-1.189,2.927-2.271,4.463-3.633l1.473-0.829
								C122.152,62.469,122.176,62.242,122.03,62.115z"/>
							<path fill="#E89F97" d="M115.922,66.791l-0.407-0.943c-0.007,0.002-0.024,0.008-0.047,0.015
								c-0.001,0.005-0.003,0.01-0.004,0.014L115.922,66.791z"/>
							<path fill="#E89F97" d="M116.02,66.986l0.021,0.043c0.001-0.001,0.003-0.002,0.004-0.003
								c-0.008-0.013-0.015-0.027-0.023-0.04C116.022,66.986,116.021,66.986,116.02,66.986z"/>
						</g>
					</g>
				</g>
			</g>
		</g>
	</g>
</g>
<g id="Color_3_00000152227947784957711100000015484766282323996298_">
	<g>
		<path fill="#67AD5B" d="M100.017,41.414l0.145,4.809l1.369-5.17C101.015,41.149,100.508,41.268,100.017,41.414z"/>
		<path fill="#67AD5B" d="M111.473,41.409c-0.433-0.093-0.882-0.18-1.344-0.258l1.162,4.14L111.473,41.409z"/>
		<g>
			<rect x="92.188" y="170.009" fill="#67AD5B" width="9.351" height="9.437"/>
		</g>
		<g>
			<path fill="#67AD5B" d="M101.539,182.761H81.108v0c0-4.219,3.42-7.64,7.64-7.64h12.792V182.761z"/>
		</g>
		<g>
			
				<rect x="110.93" y="170.009" transform="matrix(-1 -4.318336e-11 4.318336e-11 -1 231.212 349.4557)" fill="#67AD5B" width="9.351" height="9.437"/>
		</g>
		<g>
			<path fill="#67AD5B" d="M110.93,182.761h20.431v0c0-4.219-3.42-7.64-7.64-7.64H110.93V182.761z"/>
		</g>
		<g>
			<path fill="#67AD5B" d="M116.02,66.986l-0.098-0.195l0.085,0.197C116.011,66.987,116.016,66.987,116.02,66.986z"/>
			<path fill="#67AD5B" d="M112.928,80.462h7.423c-0.071-0.83-0.145-1.743-0.223-2.79l1.018-0.206
				c3.674-7.305,6.078-21.597,3.104-28.377c-3.668-2.376-6.107-3.295-10.762-4.184l-2.036-3.459
				c-0.095,1.752-0.568,3.177-1.273,4.393c-1.787,3.084-6.791,3.012-8.449-0.128c-0.65-1.231-1.201-2.638-1.713-4.297l-2.906,3.151
				c-3.872,0.761-7.245,2.24-10.038,4.552c-2.661,10.58-2.361,20.153,2.642,28.127l3.038,0.35l-0.281,2.868h6.627l7.231-3.275
				L112.928,80.462z M95.137,77.515c1.215-3.518,1.379-4.663,1.254-7.228c-0.32-0.11-0.641-0.222-0.961-0.337l0.65-3.571
				c2.129,0.183,4.061,0.348,5.836,0.487c3.015,0.235,5.574,0.394,7.865,0.429c0.237,0.004,0.471,0.006,0.702,0.007
				c2.666-0.701,4.65-1.332,4.984-1.438c0.483-1.647,1.045-3.199,1.716-4.616l1.821-1.665c0.214-0.196,0.556-0.177,0.746,0.041
				c0.176,0.203,0.154,0.503-0.05,0.68l-1.452,1.259l2.366-1.877c0.231-0.183,0.574-0.142,0.752,0.089h0
				c0.165,0.215,0.125,0.515-0.089,0.685l-2.099,1.657l2.617-1.998c0.224-0.171,0.547-0.149,0.743,0.051v0
				c0.219,0.223,0.196,0.579-0.052,0.773l-2.467,1.94l1.684-0.809c0.107-0.051,0.236-0.035,0.325,0.042
				c0.146,0.127,0.122,0.353-0.048,0.449l-1.473,0.829c-1.537,1.362-2.902,2.444-4.463,3.633c1.689,2.842,2.31,5.878,3.072,8.157
				c-3.105-0.438-6.221-0.904-9.336-1.481c-0.051-0.009-0.102-0.018-0.153-0.028c-0.063-0.012-0.126-0.024-0.189-0.036
				c-2.156,1.061-4.469,1.922-7.523,2.649C99.998,76.744,97.787,77.148,95.137,77.515z"/>
			<polygon fill="#67AD5B" points="106.33,77.187 99.099,80.462 112.928,80.462 			"/>
		</g>
		<g>
			<path fill="#67AD5B" d="M68.915,112.46l-4.965,63.792l-24.645,0h1.262h21.529h2.512c1.467,0,2.692-1.116,2.829-2.576
				l5.748-61.216H68.915z"/>
			<polygon fill="#67AD5B" points="68.915,112.46 56.105,112.46 46.557,112.46 34.203,112.46 38.822,176.252 39.305,176.252 
				63.95,176.252 			"/>
		</g>
		<g>
			<path fill="#67AD5B" d="M30.723,97.959l-1.399,12.235h43.899l-1.399-12.235c-0.28-2.448-2.082-4.278-4.215-4.278H34.937
				C32.805,93.682,31.003,95.511,30.723,97.959z"/>
		</g>
		<g>
			<path fill="#67AD5B" d="M182.966,27.279l2.978-1.134c0.624-0.238,1.33-0.009,1.695,0.551l1.742,2.668
				c0.191,0.292,0.482,0.503,0.818,0.595l3.076,0.833c0.645,0.175,1.081,0.775,1.048,1.442l-0.159,3.183
				c-0.017,0.348,0.094,0.691,0.313,0.962l1.999,2.481c0.419,0.52,0.419,1.262,0,1.782l-1.999,2.481
				c-0.219,0.271-0.33,0.614-0.313,0.962l0.159,3.183c0.033,0.667-0.403,1.267-1.048,1.442l-3.076,0.833
				c-0.336,0.091-0.628,0.303-0.818,0.595l-1.742,2.668c-0.365,0.559-1.071,0.789-1.695,0.551l-2.978-1.134
				c-0.326-0.124-0.686-0.124-1.011,0l-2.978,1.134c-0.624,0.238-1.33,0.009-1.695-0.551l-1.742-2.668
				c-0.191-0.292-0.482-0.503-0.818-0.595l-3.076-0.833c-0.645-0.175-1.081-0.775-1.048-1.442l0.159-3.183
				c0.017-0.348-0.094-0.691-0.313-0.962l-1.999-2.481c-0.419-0.52-0.419-1.262,0-1.782l1.999-2.481
				c0.219-0.271,0.33-0.614,0.313-0.962l-0.159-3.183c-0.033-0.667,0.403-1.267,1.048-1.442l3.076-0.833
				c0.336-0.091,0.628-0.303,0.818-0.595l1.742-2.668c0.365-0.559,1.071-0.789,1.695-0.551l2.978,1.134
				C182.28,27.403,182.64,27.403,182.966,27.279z"/>
		</g>
		<g>
			<rect x="145.23" y="155.227" fill="#67AD5B" width="32.244" height="27.428"/>
		</g>
		<g>
			<rect x="175.942" y="155.227" fill="#67AD5B" width="11.913" height="27.428"/>
		</g>
		<g>
			<rect x="139.294" y="127.884" fill="#67AD5B" width="23.013" height="27.428"/>
		</g>
		<g>
			<rect x="161.607" y="127.884" fill="#67AD5B" width="20.312" height="27.428"/>
		</g>
		<path fill="#67AD5B" d="M93.945,61.3c-0.158-1.6-0.256-3.205-0.295-4.812c-0.022-0.905-0.025-1.81-0.01-2.714
			c0.003-0.182-0.28-0.182-0.283,0c-0.027,1.616,0.005,3.233,0.097,4.846c0.092,1.611,0.243,3.218,0.455,4.818
			c0.119,0.898,0.255,1.793,0.411,2.685c0.031,0.179,0.304,0.103,0.273-0.075C94.317,64.473,94.101,62.89,93.945,61.3z"/>
		<path fill="#67AD5B" d="M117.897,53.773c0.03,1.677-0.014,3.356-0.136,5.029c-0.034,0.474-0.075,0.948-0.122,1.422
			c-0.018,0.181,0.265,0.18,0.283,0c0.164-1.669,0.253-3.346,0.266-5.023c0.003-0.476,0.001-0.952-0.008-1.428
			C118.177,53.591,117.894,53.591,117.897,53.773z"/>
		<path fill="#67AD5B" d="M105.679,85.387c0,1.708,0,3.417,0,5.125c0,1.701,0,3.401,0,5.102c0,0.964,0,1.928,0,2.892
			c0,0.146,0.227,0.147,0.227,0c0-1.708,0-3.417,0-5.125c0-1.701,0-3.401,0-5.102c0-0.964,0-1.928,0-2.892
			C105.906,85.24,105.679,85.24,105.679,85.387z"/>
	</g>
</g>
<g id="Color_2_00000124871326432268732900000012500795872293765283_">
	<g>
		<g opacity="0.02">
			<path fill="#111111" d="M56.745,17.028V0h-0.063l-7.186,8.448c-2.433,2.86-4.866,5.72-7.299,8.58H56.745z"/>
		</g>
		<g>
			<g>
				<g>
					<path fill="#111111" d="M89.994,175.608c0.12,0.028,0.237,0.065,0.351,0.111c-0.058-0.024-0.035-0.014,0.008,0.006
						c0.028,0.013,0.055,0.027,0.082,0.041c0.054,0.029,0.107,0.059,0.158,0.092c0.051,0.033,0.101,0.068,0.15,0.104
						c-0.05-0.037-0.028-0.022,0.007,0.008c0.023,0.02,0.046,0.04,0.068,0.06c0.044,0.041,0.087,0.084,0.128,0.128
						c0.02,0.022,0.04,0.045,0.06,0.068c0.014,0.017,0.064,0.087,0.007,0.006c0.075,0.106,0.144,0.214,0.201,0.33
						c0.011,0.024,0.022,0.047,0.033,0.071c-0.042-0.093,0.008,0.025,0.012,0.037c0.02,0.055,0.037,0.112,0.052,0.168
						c0.017,0.063,0.027,0.127,0.041,0.191c0.012,0.055-0.005-0.076,0.002,0.014c0.003,0.032,0.006,0.065,0.007,0.097
						c0.003,0.065,0.004,0.13,0.001,0.195c-0.001,0.033-0.005,0.065-0.006,0.097c-0.005,0.101,0.014-0.075-0.004,0.033
						c-0.038,0.235,0.061,0.504,0.319,0.563c0.22,0.05,0.522-0.067,0.563-0.319c0.109-0.675-0.019-1.381-0.431-1.939
						c-0.384-0.52-0.935-0.896-1.566-1.045c-0.232-0.055-0.506,0.073-0.563,0.319C89.621,175.28,89.745,175.549,89.994,175.608
						L89.994,175.608z"/>
				</g>
			</g>
			<g>
				<g>
					<path fill="#111111" d="M87.239,175.724c0.12,0.028,0.237,0.065,0.351,0.111c-0.058-0.024-0.035-0.014,0.008,0.006
						c0.028,0.013,0.055,0.027,0.082,0.041c0.054,0.028,0.107,0.059,0.158,0.092c0.051,0.033,0.101,0.068,0.15,0.104
						c-0.05-0.037-0.028-0.022,0.007,0.008c0.023,0.02,0.046,0.04,0.068,0.06c0.044,0.041,0.087,0.084,0.128,0.128
						c0.02,0.022,0.04,0.045,0.06,0.068c0.014,0.017,0.064,0.087,0.007,0.006c0.075,0.106,0.144,0.214,0.201,0.33
						c0.011,0.024,0.022,0.047,0.033,0.071c-0.042-0.093,0.008,0.025,0.012,0.037c0.02,0.055,0.037,0.112,0.052,0.168
						c0.017,0.063,0.027,0.127,0.041,0.191c0.012,0.055-0.005-0.076,0.002,0.014c0.003,0.032,0.006,0.065,0.007,0.097
						c0.003,0.065,0.004,0.13,0.001,0.195c-0.001,0.033-0.005,0.065-0.006,0.097c-0.005,0.101,0.014-0.075-0.004,0.033
						c-0.038,0.235,0.061,0.504,0.319,0.563c0.22,0.05,0.522-0.067,0.563-0.319c0.109-0.676-0.019-1.381-0.431-1.939
						c-0.384-0.52-0.935-0.896-1.566-1.045c-0.232-0.055-0.506,0.073-0.563,0.319C86.866,175.396,86.99,175.665,87.239,175.724
						L87.239,175.724z"/>
				</g>
			</g>
			<g>
				<g>
					<path fill="#111111" d="M122.233,174.726c-0.632,0.15-1.181,0.526-1.566,1.045c-0.412,0.557-0.539,1.264-0.431,1.939
						c0.038,0.237,0.345,0.39,0.563,0.319c0.257-0.083,0.36-0.309,0.319-0.563c-0.02-0.122,0.001,0.057-0.002-0.014
						c-0.001-0.032-0.006-0.065-0.008-0.097c-0.003-0.065-0.004-0.13-0.001-0.195c0.001-0.033,0.004-0.065,0.007-0.097
						c0.004-0.046,0.011-0.079,0-0.014c0.011-0.064,0.023-0.128,0.039-0.191c0.016-0.063,0.035-0.126,0.057-0.187
						c0.004-0.011,0.043-0.111,0.02-0.055c-0.023,0.055,0.025-0.054,0.025-0.053c0.057-0.117,0.126-0.224,0.201-0.33
						c-0.021,0.031-0.037,0.046-0.005,0.008c0.024-0.027,0.047-0.055,0.071-0.082c0.041-0.044,0.084-0.087,0.128-0.128
						c0.018-0.016,0.036-0.033,0.054-0.048c0.012-0.01,0.108-0.084,0.021-0.02c0.044-0.033,0.089-0.064,0.135-0.094
						c0.051-0.033,0.104-0.064,0.158-0.093c0.027-0.014,0.054-0.029,0.082-0.042c0.001,0,0.105-0.05,0.046-0.023
						c-0.059,0.027,0.036-0.014,0.048-0.018c0.029-0.011,0.058-0.021,0.087-0.03c0.064-0.021,0.13-0.039,0.195-0.054
						c0.233-0.055,0.394-0.333,0.319-0.563C122.717,174.803,122.483,174.667,122.233,174.726L122.233,174.726z"/>
				</g>
			</g>
			<g>
				<g>
					<path fill="#111111" d="M124.988,174.842c-0.632,0.15-1.181,0.526-1.566,1.045c-0.412,0.557-0.539,1.264-0.431,1.939
						c0.038,0.237,0.345,0.39,0.563,0.319c0.257-0.083,0.36-0.309,0.319-0.563c-0.02-0.122,0.001,0.057-0.002-0.014
						c-0.001-0.032-0.006-0.065-0.008-0.097c-0.003-0.065-0.004-0.13-0.001-0.195c0.001-0.033,0.004-0.065,0.007-0.097
						c0.004-0.046,0.011-0.079,0-0.014c0.011-0.064,0.023-0.128,0.039-0.191s0.035-0.126,0.057-0.187
						c0.004-0.011,0.043-0.111,0.02-0.055c-0.023,0.055,0.025-0.053,0.025-0.053c0.057-0.117,0.126-0.224,0.201-0.33
						c-0.021,0.031-0.037,0.046-0.005,0.008c0.024-0.027,0.047-0.055,0.071-0.082c0.041-0.044,0.084-0.087,0.128-0.128
						c0.018-0.016,0.036-0.033,0.054-0.048c0.012-0.01,0.108-0.084,0.021-0.02c0.044-0.033,0.089-0.064,0.135-0.094
						c0.051-0.033,0.104-0.064,0.158-0.093c0.027-0.014,0.054-0.029,0.082-0.042c0.001,0,0.105-0.05,0.046-0.023
						c-0.059,0.027,0.036-0.014,0.048-0.018c0.029-0.011,0.058-0.021,0.087-0.03c0.064-0.021,0.13-0.039,0.195-0.054
						c0.233-0.055,0.394-0.333,0.319-0.563C125.472,174.919,125.237,174.783,124.988,174.842L124.988,174.842z"/>
				</g>
			</g>
			<path fill="#111111" d="M122.803,92.832c-0.117-3.122-2.627-5.718-2.773-8.846l-7.102-3.525H99.099l-6.376,2.888
				c-0.137,3.326-2.493,6.426-2.603,9.772c-0.83,25.243,1.343,51.284,1.965,77.583l9.446,0.178
				c0.772-7.716,3.471-36.762,4.837-56.035c1.366,19.274,3.746,46.171,4.431,55.857l9.471-0.116
				C121.36,145.056,123.774,118.781,122.803,92.832z M105.906,88.279c0,1.701,0,3.401,0,5.102c0,1.708,0,3.417,0,5.125
				c0,0.147-0.227,0.146-0.227,0c0-0.964,0-1.928,0-2.892c0-1.701,0-3.401,0-5.102c0-1.708,0-3.417,0-5.125
				c0-0.147,0.227-0.146,0.227,0C105.906,86.351,105.906,87.315,105.906,88.279z"/>
			<g opacity="0.18">
				<path fill="#111111" d="M69.125,110.137l4.098,0.058l-1.399-12.235c-0.245-2.145-1.659-3.814-3.439-4.195L69.125,110.137z"/>
			</g>
			<g>
				<path fill="#111111" d="M72.884,113.063H29.141c-1.135,0-2.055-0.92-2.055-2.055v0c0-1.135,0.92-2.055,2.055-2.055h43.743
					c1.135,0,2.055,0.92,2.055,2.055v0C74.939,112.143,74.019,113.063,72.884,113.063z"/>
			</g>
			<g>
				<path fill="#111111" d="M60.38,103.791H42.591c-1.003,0-1.824-0.821-1.824-1.824l0,0c0-1.003,0.821-1.824,1.824-1.824H60.38
					c1.003,0,1.824,0.821,1.824,1.824l0,0C62.204,102.97,61.383,103.791,60.38,103.791z"/>
			</g>
			<g>
				<circle fill="#111111" cx="41.036" cy="178.492" r="2.339"/>
			</g>
			<g>
				<circle fill="#111111" cx="61.554" cy="178.492" r="2.339"/>
			</g>
			<g>
				<path fill="#111111" d="M55.87,133.289l-2.51-4.574c-0.679-1.237-2.443-1.276-3.175-0.07l-2.875,4.735l1.824,0.95l2.196-3.693
					c0.14-0.236,0.483-0.234,0.621,0.003l2.091,3.594l-0.901,0.466l1.526,0.745l1.526,0.745l0.273-1.676l0.273-1.676L55.87,133.289z
					"/>
				<path fill="#111111" d="M56.461,136.71l-4.096-2l1.191-0.616l-1.907-3.278c-0.002-0.004-0.001-0.003-0.01-0.006
					c-0.006,0-0.008,0.002-0.01,0.006l-2.364,3.976l-2.447-1.274l3.068-5.053c0.409-0.674,1.122-1.066,1.913-1.049
					c0.789,0.017,1.486,0.44,1.866,1.132l2.346,4.276l1.183-0.612L56.461,136.71z M53.916,134.692l2.008,0.98l0.36-2.205
					l-0.556,0.288l-2.674-4.872c-0.258-0.471-0.733-0.759-1.27-0.77c-0.538-0.013-1.024,0.255-1.302,0.714l-2.682,4.417l1.202,0.626
					l2.027-3.409c0.129-0.217,0.357-0.346,0.609-0.346c0.001,0,0.002,0,0.004,0c0.254,0.001,0.481,0.133,0.609,0.352l2.275,3.911
					L53.916,134.692z"/>
			</g>
			<g>
				<path fill="#111111" d="M53.843,144.732l5.218-0.002c1.412-0.001,2.293-1.529,1.588-2.751l-2.77-4.797l-1.71,1.143l2.182,3.7
					c0.139,0.236-0.026,0.536-0.301,0.543l-4.157,0.106l0.024-1.014l-1.387,0.98l-1.387,0.98l1.338,1.045l1.338,1.045
					L53.843,144.732z"/>
				<path fill="#111111" d="M54.151,146.412l-3.592-2.806l3.723-2.63l-0.032,1.34l3.791-0.096c0.004,0,0.007,0,0.01-0.006
					c0.003-0.006,0.002-0.008,0-0.011l-2.35-3.984l2.293-1.533l2.956,5.119c0.394,0.683,0.395,1.499,0,2.182
					c-0.394,0.683-1.101,1.091-1.889,1.092l-4.878,0.002L54.151,146.412z M51.727,143.634l1.761,1.375l0.015-0.626l5.558-0.002
					c0.537,0,1.018-0.278,1.286-0.743c0.268-0.465,0.268-1.02,0-1.485l-2.584-4.475l-1.127,0.753l2.015,3.417
					c0.129,0.219,0.132,0.481,0.009,0.703c-0.123,0.222-0.348,0.358-0.602,0.365l-4.523,0.115l0.016-0.687L51.727,143.634z"/>
			</g>
			<g>
				<path fill="#111111" d="M45.232,137.604l-2.658,4.49c-0.719,1.215,0.146,2.752,1.558,2.768l5.539,0.062l-0.112-2.054
					l-4.296-0.009c-0.275-0.001-0.447-0.296-0.314-0.536l2.028-3.63l0.86,0.538l-0.136-1.693l-0.136-1.693l-1.581,0.618
					l-1.581,0.618L45.232,137.604z"/>
				<path fill="#111111" d="M50.039,145.277l-5.911-0.066c-0.789-0.009-1.491-0.425-1.878-1.112
					c-0.387-0.688-0.378-1.503,0.024-2.182l2.485-4.197l-1.129-0.706l4.245-1.66l0.365,4.544l-1.137-0.711l-1.849,3.311
					c-0.002,0.004-0.003,0.006,0,0.011c0.003,0.006,0.006,0.006,0.01,0.006l4.626,0.009L50.039,145.277z M45.174,137.157
					l0.531,0.332l-2.831,4.783c-0.274,0.462-0.28,1.017-0.016,1.485c0.263,0.468,0.741,0.751,1.278,0.757l5.167,0.058l-0.074-1.353
					l-3.967-0.008c-0.254,0-0.482-0.132-0.61-0.35c-0.128-0.219-0.131-0.482-0.007-0.703l2.207-3.95l0.582,0.364l-0.179-2.227
					L45.174,137.157z"/>
			</g>
			<g>
				<path fill="#111111" d="M97.112,44.565c-3.872,0.761-7.245,2.24-10.038,4.552c-2.661,10.58-2.361,20.153,2.642,28.127
					l3.038,0.35l-5.502,15.907c3.43,1.168,13.085,3.594,14.666-6.353v-10.86c-1.919,0.457-4.13,0.861-6.78,1.228
					c1.215-3.518,1.379-4.663,1.254-7.228c-0.32-0.11-0.641-0.222-0.961-0.337l0.65-3.571c2.129,0.183,4.061,0.348,5.836,0.487
					V49.179v-0.806v-2.32c-0.732-1.311-1.339-2.823-1.899-4.639L97.112,44.565z M94.319,66.123
					c-0.155-0.892-0.292-1.787-0.411-2.685c-0.211-1.599-0.363-3.207-0.455-4.818c-0.092-1.614-0.124-3.23-0.097-4.846
					c0.003-0.182,0.286-0.182,0.283,0c-0.015,0.905-0.012,1.81,0.01,2.714c0.039,1.607,0.138,3.212,0.295,4.812
					c0.157,1.59,0.373,3.174,0.647,4.748C94.623,66.226,94.35,66.302,94.319,66.123z"/>
				<path fill="#111111" d="M115.922,66.791l0.085,0.197c0.004-0.001,0.009-0.001,0.013-0.002L115.922,66.791z"/>
				<path fill="#111111" d="M123.286,77.285c3.674-7.305,3.938-21.416,0.964-28.196c-3.668-2.376-6.079-3.344-10.735-4.233
					l-2.063-3.41c-0.112,2.063-0.749,3.673-1.671,5.022v2.045v0.78v18.002c0.237,0.004,0.471,0.006,0.702,0.007
					c2.666-0.701,4.65-1.332,4.984-1.438c0.483-1.647,1.045-3.199,1.716-4.616l1.821-1.665c0.214-0.196,0.556-0.177,0.746,0.041
					c0.176,0.203,0.154,0.503-0.05,0.68l-1.452,1.259l2.366-1.877c0.231-0.183,0.574-0.142,0.752,0.089h0
					c0.165,0.215,0.125,0.515-0.089,0.685l-2.099,1.657l2.617-1.998c0.224-0.171,0.547-0.149,0.743,0.051v0
					c0.219,0.223,0.196,0.579-0.052,0.773l-2.467,1.94l1.684-0.809c0.107-0.051,0.236-0.035,0.325,0.042
					c0.146,0.127,0.122,0.353-0.048,0.449l-1.473,0.829c-1.537,1.362-2.902,2.444-4.463,3.633c1.689,2.842,2.31,5.878,3.072,8.157
					c-3.105-0.438-6.221-0.904-9.336-1.481v13.434c-0.291,8.744,9.1,9.238,15.294,6.541c-1.364-4.188-3.959-11.743-4.949-16.005
					L123.286,77.285z M118.188,55.201c-0.012,1.677-0.102,3.354-0.266,5.023c-0.018,0.18-0.301,0.181-0.283,0
					c0.047-0.473,0.087-0.947,0.122-1.422c0.122-1.673,0.166-3.352,0.136-5.029c-0.003-0.183,0.28-0.182,0.283,0
					C118.189,54.249,118.192,54.725,118.188,55.201z"/>
			</g>
			<path fill="#111111" d="M114.214,24.798c-0.104-1.489-0.725-3.016-1.944-3.842c-0.704-0.477-1.577-0.681-2.415-0.585
				c-1.358-1.689-2.998-2.436-4.731-2.644c-2.462-0.296-5.027,1.056-6.401,3.404c-0.181,0.31-0.34,0.635-0.478,0.972
				c-0.139-0.013-0.278-0.033-0.417-0.062c-0.967-0.2-1.901-0.871-2.405-1.838c-0.132-0.254-0.481-0.155-0.485,0.138
				c-0.008,0.676,0.126,1.355,0.395,1.953c0.252,0.561,0.622,1.047,1.063,1.412c0.247,0.204,0.014,0.628-0.267,0.49
				c-0.021-0.01-0.041-0.021-0.061-0.032c-0.204-0.111-0.434,0.09-0.37,0.332c0.231,0.882,0.847,1.625,1.559,2.05
				c0.145,0.086,0.293,0.161,0.444,0.227c0.123,0.84,0.363,1.656,0.725,2.402l0.068-0.129c0.168-0.66,0.409-1.289,0.711-1.879
				c0.326,0.043,0.654,0.069,0.98,0.087c1.538,0.086,3.097,0.046,4.589-0.399c1.492-0.446,2.924-1.323,3.926-2.701
				c0.05-0.069,0.097-0.134,0.142-0.197c0.635,1.984,1.906,3.79,3.58,4.984c0,0.002,0,0.005,0,0.007
				c0.414,0.012,0.712,0.087,1.169,0.385c0.132-0.358,0.226-0.727,0.293-1.101C114.097,27.3,114.286,25.818,114.214,24.798z"/>
			<g>
				<g>
					<path fill="#111111" d="M109.53,18.948c0.175,0.802,0.249,1.621,0.222,2.442c-0.006,0.182,0.277,0.182,0.283,0
						c0.027-0.845-0.052-1.691-0.232-2.517C109.764,18.695,109.491,18.77,109.53,18.948L109.53,18.948z"/>
				</g>
			</g>
			<g>
				<g>
					<path fill="#111111" d="M110.811,19.436c-0.566,0.204-1.014,0.679-1.174,1.262c-0.048,0.176,0.225,0.251,0.273,0.075
						c0.132-0.483,0.506-0.895,0.976-1.064c0.072-0.026,0.12-0.096,0.099-0.174C110.966,19.465,110.883,19.41,110.811,19.436
						L110.811,19.436z"/>
				</g>
			</g>
			<g>
				<g>
					<path fill="#111111" d="M100.735,29.318c0.747-0.52,1.75-0.647,2.575-0.297c0.152,0.064,0.328,0.046,0.419-0.11
						c0.075-0.128,0.043-0.354-0.11-0.419c-1.033-0.438-2.262-0.351-3.193,0.297c-0.135,0.094-0.198,0.268-0.11,0.419
						C100.395,29.342,100.599,29.413,100.735,29.318L100.735,29.318z"/>
				</g>
			</g>
			<g>
				<g>
					<path fill="#111111" d="M110.318,28.789c-0.93-0.648-2.16-0.735-3.193-0.297c-0.152,0.065-0.186,0.289-0.11,0.419
						c0.092,0.158,0.266,0.175,0.419,0.11c0.825-0.35,1.828-0.223,2.575,0.297c0.136,0.094,0.34,0.025,0.419-0.11
						C110.517,29.056,110.454,28.884,110.318,28.789L110.318,28.789z"/>
				</g>
			</g>
			<g>
				<g>
					<path fill="#111111" d="M112.564,30.056c0.041,0.715-0.082,1.431-0.366,2.089c-0.037,0.085,0.089,0.16,0.126,0.074
						c0.294-0.682,0.429-1.421,0.386-2.163C112.705,29.963,112.559,29.962,112.564,30.056L112.564,30.056z"/>
				</g>
			</g>
			<g>
				<g>
					<path fill="#111111" d="M113.039,30.522c-0.169,0.241-0.339,0.483-0.508,0.724c-0.023,0.032-0.006,0.081,0.026,0.1
						c0.036,0.021,0.077,0.006,0.1-0.026c0.169-0.241,0.339-0.483,0.508-0.724c0.023-0.032,0.006-0.081-0.026-0.1
						C113.102,30.475,113.061,30.49,113.039,30.522L113.039,30.522z"/>
				</g>
			</g>
			<g>
				<g>
					<path fill="#111111" d="M98.501,30.056c-0.043,0.742,0.092,1.481,0.386,2.163c0.037,0.086,0.163,0.012,0.126-0.074
						c-0.284-0.658-0.407-1.374-0.366-2.089C98.652,29.962,98.506,29.962,98.501,30.056L98.501,30.056z"/>
				</g>
			</g>
			<g>
				<g>
					<path fill="#111111" d="M98.047,30.596c0.169,0.241,0.339,0.483,0.508,0.724c0.023,0.032,0.064,0.047,0.1,0.026
						c0.032-0.019,0.049-0.067,0.026-0.1c-0.169-0.241-0.339-0.483-0.508-0.724c-0.023-0.032-0.064-0.047-0.1-0.026
						C98.041,30.515,98.024,30.563,98.047,30.596L98.047,30.596z"/>
				</g>
			</g>
			<g opacity="0.11">
				<polygon fill="#111111" points="105.417,30.594 104.204,34.773 105.874,34.703 				"/>
			</g>
			<g>
				<g>
					<path fill="#111111" d="M103.395,36.284c0.493,0.559,1.348,0.763,2.065,0.733c0.701-0.029,1.511-0.286,1.924-0.893
						c0.095-0.139-0.131-0.27-0.225-0.132c-0.364,0.536-1.126,0.747-1.739,0.765c-0.642,0.018-1.399-0.157-1.84-0.658
						C103.468,35.974,103.284,36.159,103.395,36.284L103.395,36.284z"/>
				</g>
			</g>
			<g>
				<ellipse fill="#111111" cx="102.111" cy="30.345" rx="0.51" ry="0.747"/>
			</g>
			<g>
				<ellipse fill="#111111" cx="108.53" cy="30.345" rx="0.51" ry="0.747"/>
			</g>
			<g>
				<path fill="#111111" d="M188.553,35.822l-0.076-0.076c-0.531-0.531-1.393-0.531-1.924,0l-5.799,5.799l-2.216-2.216
					c-0.531-0.531-1.393-0.531-1.924,0l0,0c-0.531,0.531-0.531,1.393,0,1.924l3.028,3.028l0.009-0.009l0.227,0.227
					c0.531,0.531,1.393,0.531,1.924,0l6.752-6.752C189.085,37.215,189.085,36.353,188.553,35.822z"/>
			</g>
			<path opacity="0.11" fill="#111111" d="M102.033,39.159l-1.031,3.894c3.092-0.847,6.083-1.844,8.762-3.205l-0.332-1.182
				c-1.124,1.134-2.483,1.832-3.954,1.832C104.234,40.498,103.059,39.998,102.033,39.159z"/>
			<path opacity="0.11" fill="#111111" d="M96.599,70.359c0.015,0.077,0.03,0.154,0.043,0.232c1.061,0.65,2.29,1.124,3.416,1.572
				c1.634,0.65,3.166,1.379,4.83,1.952c0.737,0.254,1.249,0.42,1.992,0.658c0.847-0.365,1.779-0.726,2.75-1.098
				C105.273,72.863,100.919,71.833,96.599,70.359z"/>
			<g opacity="0.18">
				<rect x="175.942" y="155.227" fill="#111111" width="11.913" height="27.428"/>
			</g>
			<g opacity="0.18">
				<rect x="161.607" y="127.884" fill="#111111" width="20.312" height="27.428"/>
			</g>
			<g>
				<polygon fill="#111111" points="159.493,132.859 137.148,132.859 139.294,127.884 161.64,127.884 				"/>
			</g>
			<path opacity="0.11" fill="#111111" d="M106.976,50.067c-1.186,0.252-2.444,0.062-3.521-0.499
				c-0.583-0.304-1.101-0.707-1.538-1.195v0.806c0.811,0.742,1.836,1.258,2.915,1.46c1.33,0.25,2.705,0.024,3.895-0.618
				c0.376-0.203,0.731-0.449,1.056-0.729v-0.78C109.026,49.296,108.046,49.84,106.976,50.067z"/>
			<g opacity="0.18">
				<path fill="#111111" d="M68.927,112.374l-4.976,63.878l0.657,0c1.467,0,2.692-1.116,2.829-2.576l5.748-61.216L68.927,112.374z"
					/>
			</g>
		</g>
	</g>
</g>
<g id="Color_1_00000115501624430084696410000005850604863930635143_">
	<g id="Layer_31">
		<g>
			<path fill="#73BA65" d="M34.247,113.068h-4.713l5.691,60.608c0.137,1.46,1.363,2.576,2.829,2.576h0.767L34.247,113.068z"/>
			<g>
				<path fill="#73BA65" d="M33.818,108.953l0-15.097c-1.616,0.511-2.865,2.099-3.094,4.104l-1.258,10.993H33.818z"/>
			</g>
		</g>
	</g>
</g>
</svg>
