<?xml version="1.0" encoding="utf-8"?>
<!-- Generator: Adobe Illustrator 24.1.0, SVG Export Plug-In . SVG Version: 6.00 Build 0)  -->
<svg version="1.1" id="Layer_1" xmlns="http://www.w3.org/2000/svg" xmlns:xlink="http://www.w3.org/1999/xlink" x="0px" y="0px"
	 viewBox="0 0 1071 670" style="enable-background:new 0 0 1071 670;" xml:space="preserve">
<style type="text/css">
	.st0{clip-path:url(#SVGID_2_);}
	.st1{fill:#DADEE3;}
	.st2{fill:none;}
	.st3{clip-path:url(#SVGID_4_);}
	.st4{fill:#E5E5E5;}
	.st5{fill:#F7F7F7;}
	.st6{fill:#96969B;}
	.st7{fill:#111111;}
	.st8{fill:#353535;}
	.st9{fill:#302C80;}
	.st10{fill:#E89F97;}
	.st11{fill:#1640C4;}
	.st12{fill:#1941DF;}
	.st13{fill:#3A5CE3;}
	.st14{fill:#FFFFFF;}
	.st15{fill:#BF8E8A;}
	.st16{fill:#CE8984;}
	.st17{fill:#331328;}
	.st18{fill:#FFCDC7;}
	.st19{fill:#153DBA;}
	.st20{fill:#494949;}
	.st21{fill:#C6C6C6;}
</style>
<g>
	<defs>
		<rect id="SVGID_1_" x="-849" y="-125" width="1920" height="795"/>
	</defs>
	<clipPath id="SVGID_2_">
		<use xlink:href="#SVGID_1_"  style="overflow:visible;"/>
	</clipPath>
	<g id="Background_Image" class="st0">
		<g id="Illustration" transform="translate(849 125)">
			<path id="Fill_1" class="st1" d="M221,287h-4c-0.2,3.4,1.4,5.2,4,6V287z"/>
			<path id="Fill_3" class="st1" d="M197.1,287c-1.1,8.3,12.3,7.7,10.8,0H197.1z"/>
			<path id="Fill_5" class="st1" d="M179.1,287c-1.1,8.3,12.3,7.7,10.8,0H179.1z"/>
			<path id="Fill_7" class="st1" d="M159.1,287c-1.2,8.3,12.4,7.7,10.8,0H159.1z"/>
			<path id="Fill_9" class="st1" d="M148.8,287h-9.6c-1.6,7.8,11,8,9.8,0.4C148.9,287.2,148.9,287,148.8,287"/>
			<path id="Fill_11" class="st1" d="M129.8,287h-9.6c-1.7,7.8,11.1,8,9.7,0.4C129.9,287.2,129.9,287,129.8,287"/>
			<path id="Fill_13" class="st1" d="M109.7,287h-9.5c-1.7,6.4,10.8,6.8,9.8,0.4C109.8,287.3,109.9,287,109.7,287"/>
			<path id="Fill_15" class="st1" d="M89.8,287h-7.6C80.6,293.8,91.7,293.5,89.8,287"/>
			<path id="Fill_17" class="st1" d="M62.2,287c-1.6,6.8,9.5,6.5,7.6,0H62.2z"/>
			<path id="Fill_19" class="st1" d="M44.1,287c-1.5,6.8,8.4,6.5,6.6,0H44.1z"/>
			<path id="Fill_21" class="st1" d="M24.2,287c-1.8,6.9,8.6,6.5,6.5,0H24.2z"/>
			<path id="Fill_23" class="st1" d="M4.2,287c-1.5,5.5,7.4,5.2,5.6,0H4.2z"/>
			<path id="Fill_25" class="st1" d="M-14.9,287.2c-1.1,4.4,5,5,5.8,1.9c-0.1-0.6,0.3-1.8-0.3-2C-11.2,287-13,287-14.9,287.2"/>
			<path id="Fill_27" class="st1" d="M-33.8,287c-1.7,5.5,6.5,5.1,4.5,0H-33.8z"/>
			<path id="Fill_29" class="st1" d="M-52.7,287c-1.8,2.7,6.3,2.7,4.5,0H-52.7z"/>
			<path id="Fill_31" class="st1" d="M-71.7,287.1c-1.5,1.8,3,2.5,3.6,1.2C-67.5,286.9-69.6,286.8-71.7,287.1"/>
			<path id="Fill_33" class="st1" d="M212.5,292.1c-7-1.3-9,9.1-2.6,10.7c3.4,0.9,7.8-1.7,7.1-6.4
				C216.5,294.2,214.7,292.4,212.5,292.1"/>
			<path id="Fill_35" class="st1" d="M194.5,292.1c-7-1.3-9,9.1-2.6,10.7c3,0.8,6.1-1,6.9-4c0.2-0.8,0.3-1.6,0.1-2.4
				C198.5,294.2,196.7,292.4,194.5,292.1"/>
			<path id="Fill_37" class="st1" d="M174,292.1c-6.9-1.4-8.1,9.7-2,10.8C178.8,304.1,180.3,293.4,174,292.1"/>
			<path id="Fill_39" class="st1" d="M155.5,293c-2.7-0.3-5.1,1.6-5.5,4.3c0,0.2,0,0.4,0,0.6c-0.2,7.1,9.8,6.4,10,0.3
				c0.3-2.6-1.6-4.8-4.2-5.1C155.7,293,155.6,293,155.5,293"/>
			<path id="Fill_41" class="st1" d="M135.4,293c-2.7-0.3-5.1,1.7-5.4,4.5c0,0.2,0,0.4,0,0.5c0,6.9,9.9,6.3,10,0.1
				c0.3-2.6-1.6-4.9-4.2-5.1C135.7,293,135.5,293,135.4,293"/>
			<path id="Fill_43" class="st1" d="M116.6,294c-2.8-0.3-5.5,1.4-5.6,3.9c-0.2,5.7,9.9,5.2,10,0.2
				C121.1,295.9,119.6,294.3,116.6,294"/>
			<path id="Fill_45" class="st1" d="M96.6,294c-4.8-0.7-6.5,6-2.2,7.6C99.9,303.8,102.5,294.9,96.6,294"/>
			<path id="Fill_47" class="st1" d="M76.5,294c-5.8-0.7-5.9,7.8-0.6,8C80.9,302.1,81.6,294.7,76.5,294"/>
			<path id="Fill_49" class="st1" d="M57,295c-1.8-0.4-3.5,0.8-3.9,2.6c-0.1,0.2-0.1,0.5-0.1,0.8c-0.1,4.8,6.9,4.8,7,0.2
				c0.2-1.8-1.1-3.4-2.9-3.6C57.1,295,57,295,57,295"/>
			<path id="Fill_51" class="st1" d="M37.2,295.1c-6.2-1.2-5.3,8.5,0.5,6.7C40.4,300.9,41.2,295.9,37.2,295.1"/>
			<path id="Fill_53" class="st1" d="M18.5,295.1c-4.4-0.7-4.6,5.8-0.6,5.9c1.7,0.1,3.1-1.2,3.2-2.8C21.1,296.6,20,295.3,18.5,295.1
				"/>
			<path id="Fill_55" class="st1" d="M-1.3,295.1c-1.5-0.5-3.1,0.4-3.6,1.9c-0.1,0.5-0.2,1-0.1,1.4c0.3,3.4,6.4,3.7,6-0.8
				C1,296.3,0,295.2-1.3,295.1"/>
			<path id="Fill_57" class="st1" d="M-19.7,296.1c-4.5-1.2-4.3,5.7,0,4.8C-18.1,300.6-16.8,296.9-19.7,296.1"/>
			<path id="Fill_59" class="st1" d="M-41.4,296.1c-2.8-0.8-3.6,3.3-1.2,3.9C-40.2,300.5-38.8,296.8-41.4,296.1"/>
			<path id="Fill_61" class="st1" d="M-60.2,296.2c-0.9-0.5-2-0.2-2.5,0.8c0,0.1-0.1,0.2-0.1,0.2c-0.9,3.4,4.9,4.1,3.7,0
				C-59.4,296.7-59.8,296.3-60.2,296.2"/>
			<path id="Fill_63" class="st1" d="M-79.5,297.1c-0.5-0.1-1-0.1-1.5,0.1C-81.6,298.6-77.7,297.8-79.5,297.1"/>
			<path id="Fill_65" class="st1" d="M204.5,303.1c-7-1.3-9,9.1-2.6,10.7c3.4,0.9,7.8-1.7,7.1-6.4
				C208.5,305.2,206.7,303.4,204.5,303.1"/>
			<path id="Fill_67" class="st1" d="M185.4,303.1c-2.9-0.6-5.7,1.2-6.3,4.1c0,0.1-0.1,0.3-0.1,0.4c-0.5,3,1.6,5.8,4.6,6.3
				c3,0.5,5.8-1.6,6.3-4.6c0.1-0.5,0.1-1,0-1.6C189.8,305.3,187.9,303.4,185.4,303.1"/>
			<path id="Fill_69" class="st1" d="M221,304c-5.3,0.6-5.3,9.4,0,10V304z"/>
			<path id="Fill_71" class="st1" d="M164,304.1c-2.7-0.6-5.3,1.1-5.9,3.8c-0.2,1-0.1,2.1,0.3,3.1c2,5.7,11.7,3,9.2-3.9
				C167,305.5,165.6,304.4,164,304.1"/>
			<path id="Fill_73" class="st1" d="M145,304.1c-2.7-0.6-5.4,1.1-5.9,3.8c-0.2,1-0.1,2.1,0.3,3.1c1.1,2.5,4,3.7,6.6,2.7
				c2.6-1.1,3.8-4.1,2.6-6.7c0,0,0,0,0,0C148,305.4,146.6,304.3,145,304.1"/>
			<path id="Fill_75" class="st1" d="M125.2,304c-4.6-0.3-6.9,4.3-3.9,6.7c4.5,3.8,11.9-2,7.1-5.7C127.5,304.3,126.4,304,125.2,304"
				/>
			<path id="Fill_77" class="st1" d="M105.1,304c-2.2-0.1-4.1,1.7-4.1,3.9c0,0.4,0,0.7,0.1,1.1c1,4.9,8.9,3.5,7.8-1.9
				C108.5,305.2,106.9,304,105.1,304"/>
			<path id="Fill_79" class="st1" d="M86.2,304c-6.8-0.5-4.7,10.3,1.6,7.5c2-1,2.8-3.3,1.8-5.3C89,304.9,87.7,304.1,86.2,304"/>
			<path id="Fill_81" class="st1" d="M67.3,305.1c-1.9-0.5-3.8,0.6-4.2,2.5c-0.1,0.6-0.1,1.2,0,1.7c0.8,4,7.8,3.4,6.8-1.7
				C69.6,306.4,68.6,305.3,67.3,305.1"/>
			<path id="Fill_83" class="st1" d="M48.1,305.1c-1.1-0.3-2.2,0-3.1,0.8c-3.3,3.1,1.8,8.5,5,5c1.3-1.4,1.2-3.6-0.2-5
				C49.4,305.5,48.8,305.2,48.1,305.1"/>
			<path id="Fill_85" class="st1" d="M28.2,305c-4-0.4-4.4,5.9-0.4,6C31.7,311.1,32.2,305.4,28.2,305"/>
			<path id="Fill_87" class="st1" d="M7.5,305.1c-2.4-0.4-4.1,1.5-3.3,4c1,3.2,7,2.3,5.6-2.2C9.4,305.9,8.5,305.2,7.5,305.1"/>
			<path id="Fill_89" class="st1" d="M-11.8,306.1c-1.2-0.4-2.5,0.2-2.9,1.3c-1.7,4.7,5.8,4.7,4.6,0.3
				C-10.3,307.1-10.4,306.5-11.8,306.1"/>
			<path id="Fill_91" class="st1" d="M-31.5,306.1c-0.9-0.4-2,0-2.3,1c-0.1,0.2-0.1,0.4-0.1,0.5c-0.4,2.9,4.3,3.5,4,0.1
				C-30.1,306.9-30.7,306.2-31.5,306.1"/>
			<path id="Fill_93" class="st1" d="M-50.5,308c-1.4-0.2-2.5,0.2-2.5,0.9c0,1.4,4,1.3,4,0C-49,308.6-49.2,308.2-50.5,308"/>
			<path id="Fill_95" class="st1" d="M-70.5,308.1c-0.5-0.1-1-0.1-1.5,0.1C-72.6,309.6-68.7,308.8-70.5,308.1"/>
			<path id="Fill_97" class="st1" d="M212.4,312.1c-2.9-0.6-5.8,1.4-6.3,4.3c-0.1,0.6-0.1,1.2,0,1.8c0.7,7.1,11.7,6.1,10.9-1.3
				C216.8,314.4,214.9,312.4,212.4,312.1"/>
			<path id="Fill_99" class="st1" d="M194.4,312.1c-3-0.5-5.9,1.6-6.3,4.6c0,0.1,0,0.2,0,0.3c-0.2,3.1,2.1,5.8,5.2,6.1
				c0.3,0,0.5,0,0.8,0c6.5-0.4,6.6-10,0.7-10.9C194.6,312,194.5,312.1,194.4,312.1"/>
			<path id="Fill_101" class="st1" d="M173.9,313.1c-5.5-1-7.6,5.8-4.2,8.6c4.9,4.1,10.9-2.6,7.2-7.1
				C176.1,313.8,175,313.2,173.9,313.1"/>
			<path id="Fill_103" class="st1" d="M155.1,313.1c-2.7-0.6-5.4,1-6.1,3.8c-0.5,2.8,1.3,5.5,4.1,6c0.6,0.1,1.3,0.1,1.9,0
				C160,322,160.6,314.2,155.1,313.1"/>
			<path id="Fill_105" class="st1" d="M134.8,314.1c-0.8-0.2-1.7-0.1-2.5,0.1c-2.8,1.1-3.4,6.2,0,7.5c2.1,0.7,4.4-0.2,5.4-2.2
				c0.4-1,0.4-2.2,0-3.2C137.1,315.2,136.1,314.4,134.8,314.1"/>
			<path id="Fill_107" class="st1" d="M115.9,314.1c-3.5-0.7-6.6,3.7-3.7,6.8c1.6,1.5,4.1,1.5,5.7,0c1.6-1.6,1.5-4.2-0.2-5.8
				C117.2,314.6,116.5,314.2,115.9,314.1"/>
			<path id="Fill_109" class="st1" d="M96.2,314.1c-5.4-1.1-5.7,8.8,0,7.9C99.9,321.3,99.9,314.8,96.2,314.1"/>
			<path id="Fill_111" class="st1" d="M76.2,315.1c-1.9-0.4-3.7,0.7-4.1,2.6c-0.1,0.4-0.1,0.9,0,1.3c0.4,4.4,6.5,3.6,6.9,0.1
				c0.4-1.8-0.7-3.6-2.6-4C76.3,315.1,76.3,315.1,76.2,315.1"/>
			<path id="Fill_113" class="st1" d="M56.4,315c-4.2-0.7-4.8,7-0.5,7C59.8,322,60.1,315.7,56.4,315"/>
			<path id="Fill_115" class="st1" d="M36.7,315.1c-4.4-0.9-4.9,5.2-1.5,5.8C38.9,321.6,40.8,316,36.7,315.1"/>
			<path id="Fill_117" class="st1" d="M17.6,315c-2.7-0.2-3.8,4.9-0.9,5.9C20,322,21.7,315.3,17.6,315"/>
			<path id="Fill_119" class="st1" d="M-1.6,316.2c-3.2-1.4-4.8,3.9-1.7,4.7C-0.1,321.7,1.3,317.3-1.6,316.2"/>
			<path id="Fill_121" class="st1" d="M-20.5,316.1c-1.6-0.4-2.4,0.5-2.5,1.5c-0.4,2.9,4.3,3.6,4,0.1
				C-19.1,316.9-19.7,316.2-20.5,316.1"/>
			<path id="Fill_123" class="st1" d="M-40.7,317.1c-0.9-0.3-1.2,0.2-1.3,0.6c-0.1,0.5,0.2,1.1,0.7,1.2c0.5,0.1,1.1-0.2,1.2-0.7
				C-39.9,317.5-40.2,317.3-40.7,317.1"/>
			<path id="Fill_125" class="st1" d="M-60.9,317.1c-0.1,0.2-0.1,0.5,0,0.8c0.2,0.1,0.5,0.1,0.8,0c0.2-0.2,0.1-0.6-0.1-0.8
				C-60.4,317-60.7,317-60.9,317.1"/>
			<path id="Fill_127" class="st1" d="M-79.2,317.6C-79.7,316.5-80.1,318.4-79.2,317.6"/>
			<path id="Fill_129" class="st1" d="M202.8,322c-2.9-0.3-5.5,1.9-5.8,4.8c0,0,0,0.1,0,0.1c-0.2,6.9,10.8,6.6,11,0.3
				C208.1,324.3,206,322.2,202.8,322"/>
			<path id="Fill_131" class="st1" d="M221,322c-5.3,0.7-5.3,9.3,0,10V322z"/>
			<path id="Fill_133" class="st1" d="M184.6,322c-2.6-0.4-5.1,1.4-5.5,4c0,0.2-0.1,0.5-0.1,0.7c-0.1,2.8,2.1,5.1,4.8,5.2
				c2.8,0.1,5.1-2.2,5.1-4.9c0-0.8-0.2-1.7-0.6-2.4C187.7,323.2,186.2,322.2,184.6,322"/>
			<path id="Fill_135" class="st1" d="M163.7,322.1c-5.1-0.7-7.5,5.4-4.2,8.6c2.1,1.9,5.3,1.7,7.2-0.3c0.8-0.9,1.3-2,1.3-3.2
				C168.2,324.5,166.3,322.3,163.7,322.1"/>
			<path id="Fill_137" class="st1" d="M144.7,323.1c-2.2-0.4-4.2,1.1-4.6,3.2c0,0,0,0.1,0,0.1c-0.7,5.7,7.4,6,7.9,1.2
				c0.4-2.1-1-4.1-3.2-4.5C144.8,323.1,144.7,323.1,144.7,323.1"/>
			<path id="Fill_139" class="st1" d="M125.6,323.1c-5.7-0.9-6.3,7.8-0.8,7.9C130,331.1,130.5,323.8,125.6,323.1"/>
			<path id="Fill_141" class="st1" d="M105.1,323.1c-4.9-0.8-5.6,6.7-0.8,6.9C108.8,330.2,109.4,323.7,105.1,323.1"/>
			<path id="Fill_143" class="st1" d="M86,323c-5.1-0.7-5.2,6.8-0.6,7c1.9,0.1,3.6-1.4,3.7-3.3C89.1,324.9,87.8,323.3,86,323"/>
			<path id="Fill_145" class="st1" d="M67.3,323.1c-1.9-0.4-3.8,0.8-4.2,2.7c-0.3,1.1,0.1,2.4,0.9,3.2c3.2,3.2,7.9-1.8,5.2-4.9
				C68.7,323.5,68,323.2,67.3,323.1"/>
			<path id="Fill_147" class="st1" d="M47.4,324c-4.5-0.6-4.3,5.8-0.5,6C50.6,330.1,51.3,324.5,47.4,324"/>
			<path id="Fill_149" class="st1" d="M28.1,324.1c-4.4-1-3.8,6.1,0.4,4.7C30.1,328.2,31,324.7,28.1,324.1"/>
			<path id="Fill_151" class="st1" d="M7.1,324.1c-2.1-0.4-3.1,0.8-3.1,2.5c0.1,3.1,5.1,3.4,5-0.3C9.1,325.2,8.2,324.2,7.1,324.1"/>
			<path id="Fill_153" class="st1" d="M-11.8,325c-0.6,0-1.3,0.2-1.7,0.7c-2.2,3.3,3.7,4.8,3.5,1.2C-10,325.9-10.8,325-11.8,325
				C-11.8,325-11.8,325-11.8,325"/>
			<path id="Fill_155" class="st1" d="M-30.9,326c-0.6,0-1,0.4-1.1,0.9c0,0.4,0.2,0.8,0.5,1C-30.2,328.5-29.2,326.2-30.9,326"/>
			<path id="Fill_157" class="st1" d="M-51.9,327.3c-0.1,0.5,0.1,0.7,0.6,0.6C-50.8,327.5-51.5,326.8-51.9,327.3"/>
			<path id="Fill_159" class="st1" d="M-70.2,327.6C-70.7,326.5-71.1,328.4-70.2,327.6"/>
			<path id="Fill_161" class="st1" d="M212.6,332.1c-3.3-0.6-6,1.4-6.5,3.9c-1.4,8.2,12.1,7.7,10.8,0
				C216.5,333.9,214.7,332.3,212.6,332.1"/>
			<path id="Fill_163" class="st1" d="M193.4,332c-2.7-0.2-5.1,1.8-5.4,4.5c0,0.1,0,0.2,0,0.4c-0.2,7.2,10,6.4,10,0.1
				c0.2-2.6-1.8-4.8-4.3-5C193.6,332,193.5,332,193.4,332"/>
			<path id="Fill_165" class="st1" d="M173.5,332c-2.6-0.4-5.1,1.5-5.4,4.1c0,0.3-0.1,0.6,0,0.9c0,7.9,12.7,5.6,9.5-2.1
				C176.9,333.3,175.3,332.1,173.5,332"/>
			<path id="Fill_167" class="st1" d="M154.5,334c-2.2-0.3-4.1,1.2-4.4,3.4c0,0.2,0,0.4,0,0.6c0,5.6,7.9,4.9,8,0.1
				c0.2-2-1.3-3.9-3.3-4.1C154.6,334,154.5,334,154.5,334"/>
			<path id="Fill_169" class="st1" d="M134.3,334c-5.5-0.5-5.9,8-0.4,8C138.9,342,139.6,334.5,134.3,334"/>
			<path id="Fill_171" class="st1" d="M115.8,334c-4.8-0.5-5.2,7-0.4,7C119.8,341,120.4,334.5,115.8,334"/>
			<path id="Fill_173" class="st1" d="M96.4,334.1c-1.8-0.5-3.7,0.5-4.2,2.3c-0.2,0.7-0.2,1.4,0,2.1c1,3.9,8,3.2,6.7-2
				C98.5,335.3,97.6,334.4,96.4,334.1"/>
			<path id="Fill_175" class="st1" d="M76.6,335.1c-3.4-0.6-5,4-2.1,5.5C78.4,342.7,81.2,335.9,76.6,335.1"/>
			<path id="Fill_177" class="st1" d="M56.8,335.1c-1.6-0.4-3.3,0.6-3.7,2.2c-0.3,1,0,2.1,0.7,2.8C57.3,343.6,61.7,336.2,56.8,335.1
				"/>
			<path id="Fill_179" class="st1" d="M36.6,335c-3.3-0.2-3.7,5.1,0,5C39.9,339.9,39.7,335.2,36.6,335"/>
			<path id="Fill_181" class="st1" d="M17.8,335c-3.7-0.5-3.6,4.8-0.4,5C20.2,340.1,21.3,335.5,17.8,335"/>
			<path id="Fill_183" class="st1" d="M-1.4,336.1c-1.7-0.5-2.4,0.5-2.6,1.6c-0.3,2.7,4.2,3.4,4,0.1C0,337-0.6,336.3-1.4,336.1"/>
			<path id="Fill_185" class="st1" d="M-20.7,336.1c-0.9-0.3-1.3,0.2-1.3,0.8c-0.1,0.6,0.3,1,0.9,1.1c0.6,0.1,1-0.3,1.1-0.9
				C-19.9,336.6-20.2,336.2-20.7,336.1C-20.7,336.1-20.7,336.1-20.7,336.1"/>
			<path id="Fill_187" class="st1" d="M-41.9,337.3c-0.1,0.5,0.1,0.7,0.6,0.6C-40.8,337.5-41.5,336.8-41.9,337.3"/>
			<path id="Fill_189" class="st1" d="M-60.2,337.6C-60.7,336.5-61.1,338.4-60.2,337.6"/>
			<path id="Fill_191" class="st1" d="M222,342c-5.3,0.8-5.3,9.1-0.1,10C222.2,348.9,221.9,345.3,222,342"/>
			<path id="Fill_193" class="st1" d="M204,342.1c-2.6-0.6-5.3,1.1-5.9,3.7c-0.1,0.6-0.2,1.2-0.1,1.8c0.4,2.8,2.9,4.7,5.7,4.3
				c4-0.4,5.7-5.8,3-8.6C206,342.7,205,342.2,204,342.1"/>
			<path id="Fill_195" class="st1" d="M185.2,342.1c-2.6-0.7-5.3,0.9-6,3.6c-0.2,0.8-0.2,1.6,0,2.4c0.6,2.7,3.3,4.4,6.1,3.9
				c3.3-0.6,5-5.3,2.9-8.1C187.3,342.9,186.3,342.3,185.2,342.1"/>
			<path id="Fill_197" class="st1" d="M164.9,344.1c-0.8-0.2-1.7-0.1-2.5,0.1c-2.1,0.9-4,5.9,0,7.5c2.1,0.9,4.5-0.1,5.3-2.1
				c0.4-1,0.4-2.2,0-3.2C167.1,345.2,166.1,344.3,164.9,344.1"/>
			<path id="Fill_199" class="st1" d="M144.9,344.1c-7.3-1.5-5.9,10.2,0.7,7.4c2-0.8,2.9-3.2,2.1-5.2c0-0.1-0.1-0.1-0.1-0.2
				C147,345.1,146,344.4,144.9,344.1"/>
			<path id="Fill_201" class="st1" d="M126.3,343.1c-0.8-0.1-1.6-0.1-2.3,0.1c-2.1,0.9-3.1,5.2,0,6.5
				C128.6,351.6,131.3,344.1,126.3,343.1"/>
			<path id="Fill_203" class="st1" d="M105.1,343.1c-4.4-0.7-5.5,5.2-2.2,6.6C107.6,351.6,110.4,343.9,105.1,343.1"/>
			<path id="Fill_205" class="st1" d="M86.4,345c-0.9-0.2-1.8,0.1-2.4,0.7c-2.8,2.6,1.3,7.2,4.2,4.4c1.2-1.2,1.2-3.1,0-4.2
				C87.6,345.4,87,345.1,86.4,345"/>
			<path id="Fill_207" class="st1" d="M66.7,345.1c-1.5-0.5-3.1,0.3-3.5,1.8c-0.1,0.3-0.2,0.7-0.1,1.1c0,4,6,4.1,6,0
				C69.1,346.5,68.1,345.3,66.7,345.1"/>
			<path id="Fill_209" class="st1" d="M48.1,344.1c-3.3-0.7-4.3,4.3-1.2,4.9c1.4,0.3,2.8-0.5,3.1-1.9c0.1-0.5,0.1-1.1-0.1-1.6
				C49.5,344.7,48.8,344.2,48.1,344.1"/>
			<path id="Fill_211" class="st1" d="M28.1,344.1c-5.5-1.4-2.9,7.4,1,4.1c1-0.8,1.1-2.3,0.3-3.3C29.1,344.5,28.6,344.3,28.1,344.1"
				/>
			<path id="Fill_213" class="st1" d="M7.2,346c-0.6-0.1-1.1,0.1-1.5,0.5C3,349.4,9.2,352,9,347.9C9,346.9,8.2,346,7.2,346
				C7.2,346,7.2,346,7.2,346"/>
			<path id="Fill_215" class="st1" d="M-11.7,346.1c-0.9-0.3-1.2,0.2-1.3,0.8C-13.2,349.4-9.5,346.9-11.7,346.1"/>
			<path id="Fill_217" class="st1" d="M-31.2,347.6C-31.7,346.5-32.1,348.4-31.2,347.6"/>
			<path id="Fill_219" class="st1" d="M212.7,352.1c-6-0.9-8,7.7-2.6,9.6c2.6,1,5.5-0.3,6.5-2.9c0.5-1.2,0.4-2.5,0-3.7
				C216.1,353.4,214.5,352.2,212.7,352.1"/>
			<path id="Fill_221" class="st1" d="M193.9,352.1c-1.6-0.3-3.3,0.1-4.6,1.3c-1.2,1.6-1.6,3.7-1.1,5.6c1.8,4.5,8,3.6,9.4,0
				c1-2.7-0.4-5.6-3-6.6C194.4,352.2,194.2,352.1,193.9,352.1"/>
			<path id="Fill_223" class="st1" d="M174.8,353.1c-2.2-0.4-4.3,1-4.7,3.2c-0.3,1.3,0.1,2.6,1,3.6c3.4,3.6,9.3-1.6,5.9-5.5
				C176.4,353.6,175.7,353.2,174.8,353.1"/>
			<path id="Fill_225" class="st1" d="M154.7,353.1c-2.2-0.4-4.3,1.1-4.7,3.3c-0.2,1.3,0.2,2.6,1.1,3.5c1.6,1.5,4.1,1.5,5.7,0
				c1.6-1.6,1.5-4.2-0.1-5.7C156.2,353.6,155.5,353.2,154.7,353.1"/>
			<path id="Fill_227" class="st1" d="M135,353.1c-5.2-0.8-5.3,7.1-0.5,6.9c2-0.1,3.6-1.8,3.4-3.8c0-0.7-0.3-1.4-0.7-1.9
				C136.7,353.5,135.9,353.1,135,353.1"/>
			<path id="Fill_229" class="st1" d="M115.7,353c-1.3,0-2.5,0.7-3.2,1.8c-2.2,4.7,4.5,7.1,6.2,3.4c0.9-1.8,0.1-4-1.7-4.8
				C116.6,353.2,116.1,353,115.7,353"/>
			<path id="Fill_231" class="st1" d="M96.7,354.1c-5.1-1.1-4.9,6.7,0,5.8C99.1,359.5,100.3,354.8,96.7,354.1"/>
			<path id="Fill_233" class="st1" d="M76.5,354.1c-4.1-0.7-5,5.8-0.7,5.9c1.7,0.1,3.1-1.2,3.1-2.9C79,355.6,78,354.3,76.5,354.1"/>
			<path id="Fill_235" class="st1" d="M57,354.1c-3.8-0.7-4,4.8-0.6,4.9C59.3,359.1,60.1,354.6,57,354.1"/>
			<path id="Fill_237" class="st1" d="M36.9,355c-1.9-0.3-2.9,0.7-2.9,1.8c-0.2,2.8,5,2.9,5,0.1C39,355.8,38.3,355.2,36.9,355"/>
			<path id="Fill_239" class="st1" d="M18.5,355.1c-0.8-0.3-1.6,0-2.1,0.6c-2,3.3,3.6,4.8,3.6,1.3c0.2-0.9-0.4-1.7-1.3-1.9
				C18.6,355.1,18.6,355.1,18.5,355.1"/>
			<path id="Fill_241" class="st1" d="M-2.5,356.1c-0.1-0.3-0.7,0-1-0.1c-1.5,0.9,0.5,2.9,1.5,1.5C-2,356.8-2,356.3-2.5,356.1"/>
			<path id="Fill_243" class="st1" d="M-22.2,357.6C-22.7,356.5-23.1,358.4-22.2,357.6"/>
			<path id="Fill_245" class="st1" d="M203.6,362c-2.8-0.3-5.5,1.4-5.6,3.9c-0.2,5.7,9.9,5.2,10,0.2
				C208.1,363.9,206.6,362.3,203.6,362"/>
			<path id="Fill_247" class="st1" d="M222,362c-5.3,0.5-5.3,7.5,0,8V362z"/>
			<path id="Fill_249" class="st1" d="M184.6,363c-4.8-0.7-6.5,6-2.2,7.6C187.9,372.8,190.5,363.9,184.6,363"/>
			<path id="Fill_251" class="st1" d="M164.5,363c-5.8-0.7-5.9,7.8-0.6,8C168.9,371.1,169.6,363.7,164.5,363"/>
			<path id="Fill_253" class="st1" d="M144.6,363c-1.5,0-2.8,0.8-3.4,2.2c-1.7,5,5.2,6.5,6.5,2.7c0.7-1.8-0.1-3.9-1.9-4.6
				C145.5,363.1,145.1,363,144.6,363"/>
			<path id="Fill_255" class="st1" d="M126.2,363.1c-6.2-1.2-5.3,8.5,0.5,6.7C129.4,368.9,130.2,363.9,126.2,363.1"/>
			<path id="Fill_257" class="st1" d="M105.5,363.1c-4.4-0.7-4.6,5.8-0.6,5.9c1.7,0.1,3.1-1.2,3.2-2.8
				C108.1,364.6,107,363.3,105.5,363.1"/>
			<path id="Fill_259" class="st1" d="M86.7,363.1c-1.5-0.5-3.1,0.4-3.6,1.9c-0.1,0.5-0.2,1-0.1,1.4c0.3,3.4,6.4,3.7,6-0.8
				C89,364.3,88,363.2,86.7,363.1"/>
			<path id="Fill_261" class="st1" d="M67.3,364.1c-4.5-1.2-4.3,5.7,0,4.8C68.9,368.6,70.2,364.9,67.3,364.1"/>
			<path id="Fill_263" class="st1" d="M47.6,365.1c-2.8-0.8-3.6,3.3-1.2,3.9C48.8,369.5,50.2,365.8,47.6,365.1"/>
			<path id="Fill_265" class="st1" d="M28.8,364.2c-0.9-0.5-2-0.2-2.5,0.8c0,0.1-0.1,0.2-0.1,0.2c-0.9,3.4,4.9,4.1,3.7,0
				C29.6,364.7,29.2,364.3,28.8,364.2"/>
			<path id="Fill_267" class="st1" d="M7.5,365.1c-0.5-0.1-1-0.1-1.5,0.1C5.4,366.6,9.3,365.8,7.5,365.1"/>
			<path id="Fill_269" class="st1" d="M-11.2,365.6C-11.7,364.5-12.1,366.4-11.2,365.6"/>
			<path id="Fill_271" class="st1" d="M212.2,372c-4.6-0.3-6.9,4.3-3.9,6.7c4.5,3.8,11.9-2,7.1-5.7C214.5,372.3,213.4,372,212.2,372
				"/>
			<path id="Fill_273" class="st1" d="M194.1,372c-2.2-0.1-4.1,1.7-4.1,3.9c0,0.4,0,0.7,0.1,1.1c1,4.9,8.9,3.5,7.8-1.9
				C197.5,373.2,195.9,372,194.1,372"/>
			<path id="Fill_275" class="st1" d="M174.2,372c-6.8-0.5-4.7,10.3,1.6,7.5c2-1,2.8-3.3,1.8-5.3C177,372.9,175.7,372.1,174.2,372"
				/>
			<path id="Fill_277" class="st1" d="M155.3,373.1c-1.9-0.5-3.8,0.6-4.2,2.5c-0.1,0.6-0.1,1.2,0,1.7c0.8,4,7.8,3.4,6.8-1.7
				C157.6,374.4,156.6,373.3,155.3,373.1"/>
			<path id="Fill_279" class="st1" d="M135.1,373.1c-1.1-0.3-2.2,0-3.1,0.8c-3.3,3.1,1.8,8.5,5,5c1.3-1.4,1.2-3.6-0.2-5
				C136.4,373.5,135.8,373.2,135.1,373.1"/>
			<path id="Fill_281" class="st1" d="M116.2,373c-4-0.4-4.4,5.9-0.4,6c1.7,0.1,3-1.2,3.1-2.9C119,374.5,117.8,373.2,116.2,373"/>
			<path id="Fill_283" class="st1" d="M96.5,373.1c-2.4-0.4-4.1,1.5-3.3,4c1,3.2,7,2.3,5.6-2.2C98.4,373.9,97.5,373.2,96.5,373.1"/>
			<path id="Fill_285" class="st1" d="M76.2,374.1c-1.2-0.4-2.5,0.2-2.9,1.3c-1.7,4.7,5.8,4.7,4.6,0.3
				C77.7,375.1,77.6,374.5,76.2,374.1"/>
			<path id="Fill_287" class="st1" d="M56.6,374.2c-0.4-0.2-0.9-0.2-1.3-0.1c-1,0.2-2.4,3.3,0,3.9c1.2,0.3,3.1-0.2,2.6-2.6
				C57.7,374.8,57.2,374.3,56.6,374.2"/>
			<path id="Fill_289" class="st1" d="M36.5,376c-1.4-0.2-2.5,0.2-2.5,0.9c0,1.4,4,1.3,4,0C38,376.6,37.8,376.2,36.5,376"/>
			<path id="Fill_291" class="st1" d="M18.1,376.1c-0.1,0.2-0.1,0.5,0,0.8c0.2,0.1,0.5,0.1,0.8,0c0.2-0.2,0.1-0.6-0.1-0.8
				C18.6,376,18.3,376,18.1,376.1"/>
			<path id="Fill_293" class="st1" d="M-2.2,376.6C-2.7,375.5-3.1,377.4-2.2,376.6"/>
			<path id="Fill_295" class="st1" d="M221,382c-2.6,0.7-2.6,7.1-0.1,8C221.1,387.6,220.9,384.6,221,382"/>
			<path id="Fill_297" class="st1" d="M202.9,382.1c-3.5-0.7-6.6,3.7-3.7,6.8c1.6,1.5,4.1,1.5,5.7,0c1.6-1.6,1.5-4.2-0.2-5.8
				C204.2,382.6,203.5,382.2,202.9,382.1"/>
			<path id="Fill_299" class="st1" d="M184.2,382.1c-5.4-1.1-5.7,8.8,0,7.9C187.9,389.3,187.9,382.8,184.2,382.1"/>
			<path id="Fill_301" class="st1" d="M164.2,383.1c-1.9-0.4-3.7,0.7-4.1,2.6c-0.1,0.4-0.1,0.9,0,1.3c0.4,4.4,6.5,3.6,6.9,0.1
				c0.4-1.8-0.7-3.6-2.6-4C164.3,383.1,164.3,383.1,164.2,383.1"/>
			<path id="Fill_303" class="st1" d="M144.8,383.1c-5.4-1.4-4.7,8.5,0.4,6.6C147.2,389,148.2,384,144.8,383.1"/>
			<path id="Fill_305" class="st1" d="M125.6,383.1c-4.5-0.9-4.7,5.4-1.2,5.9C128.3,389.5,129.5,383.8,125.6,383.1"/>
			<path id="Fill_307" class="st1" d="M104.6,383c-2.7-0.2-3.8,4.9-0.9,5.9C107,390,108.7,383.3,104.6,383"/>
			<path id="Fill_309" class="st1" d="M86.4,384.2c-3.2-1.4-4.8,3.9-1.7,4.7C87.9,389.7,89.3,385.3,86.4,384.2"/>
			<path id="Fill_311" class="st1" d="M66.5,384.1c-1.6-0.4-2.4,0.5-2.5,1.5c-0.4,2.9,4.3,3.6,4,0.1
				C67.9,384.9,67.3,384.2,66.5,384.1"/>
			<path id="Fill_313" class="st1" d="M47.3,385.1c-0.9-0.3-1.2,0.2-1.3,0.6c-0.1,0.5,0.2,1.1,0.7,1.2c0.5,0.1,1.1-0.2,1.2-0.7
				C48.1,385.5,47.8,385.3,47.3,385.1"/>
			<path id="Fill_315" class="st1" d="M27.1,385.1c-0.1,0.2-0.1,0.5,0,0.8c0.2,0.1,0.5,0.1,0.8,0c0.2-0.2,0.1-0.6-0.1-0.8
				C27.6,385,27.3,385,27.1,385.1"/>
			<path id="Fill_317" class="st1" d="M7.8,385.6C7.3,384.5,6.9,386.4,7.8,385.6"/>
			<path id="Fill_319" class="st1" d="M212.6,391.1c-5.7-0.9-6.3,7.8-0.7,7.9C217,399.1,217.5,391.8,212.6,391.1"/>
			<path id="Fill_321" class="st1" d="M194.1,393.1c-4.9-0.8-5.6,6.7-0.8,6.9C197.8,400.2,198.4,393.7,194.1,393.1"/>
			<path id="Fill_323" class="st1" d="M173.7,393c-4.7-0.4-5.1,6.9-0.4,7C177.6,400.1,178.7,393.4,173.7,393"/>
			<path id="Fill_325" class="st1" d="M155.3,393.1c-1.9-0.4-3.8,0.8-4.2,2.7c-0.3,1.1,0.1,2.3,0.9,3.2c3.2,3.2,7.9-1.8,5.2-4.9
				C156.7,393.5,156,393.2,155.3,393.1"/>
			<path id="Fill_327" class="st1" d="M134.4,392c-4.5-0.6-4.3,5.8-0.5,6C137.6,398.1,138.3,392.5,134.4,392"/>
			<path id="Fill_329" class="st1" d="M116.1,394.1c-4.4-1-3.8,6.1,0.4,4.7C118.2,398.2,119,394.7,116.1,394.1"/>
			<path id="Fill_331" class="st1" d="M96.1,394.1c-2.1-0.4-3.1,0.8-3.1,2.5c0.1,3.1,5.1,3.4,5-0.3
				C98.1,395.2,97.2,394.2,96.1,394.1"/>
			<path id="Fill_333" class="st1" d="M76.2,393c-0.6-0.1-1.3,0.2-1.7,0.7c-2.2,3.3,3.7,4.8,3.5,1.1C78,393.9,77.2,393,76.2,393
				C76.2,393,76.2,393,76.2,393"/>
			<path id="Fill_335" class="st1" d="M57.1,395c-0.6,0-1,0.4-1.1,0.9c0,0.4,0.2,0.8,0.5,1C57.8,397.5,58.8,395.2,57.1,395"/>
			<path id="Fill_337" class="st1" d="M36.1,395.3c-0.1,0.5,0.1,0.7,0.6,0.6C37.2,395.5,36.5,394.8,36.1,395.3"/>
			<path id="Fill_339" class="st1" d="M18.8,395.6C18.3,394.5,17.9,396.4,18.8,395.6"/>
			<path id="Fill_341" class="st1" d="M221,402c-2.6,0.7-2.6,6.2-0.1,7C221.1,406.9,220.9,404.3,221,402"/>
			<path id="Fill_343" class="st1" d="M203.4,402.1c-1.8-0.5-3.8,0.5-4.3,2.4c-0.2,0.6-0.2,1.3,0,2c0.8,4.1,8.2,3,6.7-2
				C205.5,403.3,204.6,402.4,203.4,402.1"/>
			<path id="Fill_345" class="st1" d="M184.4,403.1c-1.8-0.5-3.7,0.5-4.2,2.3c-0.2,0.7-0.2,1.4,0,2.1c1,3.9,8,3.2,6.7-2
				C186.5,404.3,185.6,403.4,184.4,403.1"/>
			<path id="Fill_347" class="st1" d="M164.6,403.1c-3.4-0.6-5,4-2.1,5.5C166.4,410.7,169.2,403.9,164.6,403.1"/>
			<path id="Fill_349" class="st1" d="M144.8,403.1c-1.6-0.4-3.3,0.6-3.7,2.2c-0.3,1,0,2.1,0.7,2.8
				C145.3,411.6,149.7,404.2,144.8,403.1"/>
			<path id="Fill_351" class="st1" d="M125.6,404c-3.3-0.2-3.7,5.1,0,5C128.9,408.9,128.7,404.2,125.6,404"/>
			<path id="Fill_353" class="st1" d="M104.8,404c-3.7-0.5-3.6,4.8-0.4,5C107.2,409.1,108.3,404.5,104.8,404"/>
			<path id="Fill_355" class="st1" d="M86.6,404.1c-1.7-0.5-2.4,0.5-2.6,1.6c-0.3,2.7,4.2,3.4,4,0.1C88,405,87.4,404.3,86.6,404.1"
				/>
			<path id="Fill_357" class="st1" d="M67.3,406.1c-0.9-0.3-1.3,0.2-1.3,0.8c-0.1,0.6,0.3,1,0.9,1.1c0.6,0.1,1-0.3,1.1-0.9
				C68.1,406.6,67.8,406.2,67.3,406.1C67.3,406.1,67.3,406.1,67.3,406.1"/>
			<path id="Fill_359" class="st1" d="M46.1,406.3c-0.1,0.5,0.1,0.7,0.6,0.6C47.2,406.5,46.5,405.8,46.1,406.3"/>
			<path id="Fill_361" class="st1" d="M27.8,406.6C27.3,405.5,26.9,407.4,27.8,406.6"/>
			<path id="Fill_363" class="st1" d="M213.3,412.1c-0.8-0.1-1.6-0.1-2.3,0.1c-2.1,0.9-3.1,5.2,0,6.5
				C215.6,420.6,218.3,413.1,213.3,412.1"/>
			<path id="Fill_365" class="st1" d="M194.1,412.1c-4.4-0.7-5.5,5.2-2.2,6.6C196.6,420.6,199.4,412.9,194.1,412.1"/>
			<path id="Fill_367" class="st1" d="M174.8,413.1c-1.6-0.5-3.2,0.4-3.7,2c-0.2,0.7-0.2,1.4,0.1,2.1c1.1,3.2,7.1,2.1,5.5-2.4
				C176.4,414,175.7,413.3,174.8,413.1"/>
			<path id="Fill_369" class="st1" d="M154.7,413.1c-1.5-0.5-3.1,0.3-3.5,1.8c-0.1,0.3-0.2,0.7-0.1,1.1c0,4,6,4.1,6,0
				C157.1,414.5,156.1,413.3,154.7,413.1"/>
			<path id="Fill_371" class="st1" d="M135.1,413.1c-3.3-0.7-4.3,4.3-1.2,4.9c1.4,0.3,2.8-0.5,3.1-1.9c0.1-0.5,0.1-1.1-0.1-1.6
				C136.5,413.7,135.8,413.2,135.1,413.1"/>
			<path id="Fill_373" class="st1" d="M116.1,413.1c-5.5-1.4-2.9,7.4,1,4.1c1-0.8,1.1-2.3,0.3-3.3
				C117.1,413.5,116.6,413.3,116.1,413.1"/>
			<path id="Fill_375" class="st1" d="M96.2,414c-0.6-0.1-1.1,0.1-1.5,0.5c-2.6,2.9,3.5,5.5,3.3,1.4C98,414.9,97.2,414,96.2,414
				C96.2,414,96.2,414,96.2,414"/>
			<path id="Fill_377" class="st1" d="M75.3,414.1c-0.9-0.3-1.2,0.2-1.3,0.8C73.8,417.4,77.5,414.9,75.3,414.1"/>
			<path id="Fill_379" class="st1" d="M56.8,415.6C56.3,414.5,55.9,416.4,56.8,415.6"/>
			<path id="Fill_381" class="st1" d="M202.7,421c-1.3,0-2.5,0.7-3.2,1.8c-2.2,4.7,4.5,7.1,6.2,3.4c0.9-1.8,0.1-4-1.7-4.8
				C203.6,421.2,203.1,421,202.7,421"/>
			<path id="Fill_383" class="st1" d="M222,422c-2.7,0.7-2.7,5.3,0,6V422z"/>
			<path id="Fill_385" class="st1" d="M184.7,422.1c-5.1-1.1-4.9,6.7,0,5.8C187.1,427.5,188.3,422.8,184.7,422.1"/>
			<path id="Fill_387" class="st1" d="M165,422.1c-5.7-1.2-4.9,6.9,0,5.8C167.3,427.3,168.1,422.8,165,422.1"/>
			<path id="Fill_389" class="st1" d="M145,422.1c-3.8-0.7-4,4.8-0.6,4.9C147.3,427.1,148.1,422.6,145,422.1"/>
			<path id="Fill_391" class="st1" d="M125.9,423c-1.9-0.3-2.9,0.7-2.9,1.8c-0.2,2.8,5,2.9,5,0.1C128,423.8,127.2,423.2,125.9,423"
				/>
			<path id="Fill_393" class="st1" d="M105.5,423.1c-0.8-0.3-1.6,0-2.1,0.6c-2,3.3,3.6,4.8,3.6,1.3c0.2-0.9-0.4-1.7-1.3-1.9
				C105.6,423.1,105.6,423.1,105.5,423.1"/>
			<path id="Fill_395" class="st1" d="M86.5,424.1c-0.1-0.3-0.7,0-1-0.1c-1.5,0.9,0.5,2.9,1.5,1.5C87,424.8,87,424.3,86.5,424.1"/>
			<path id="Fill_397" class="st1" d="M66.8,425.6C66.3,424.5,65.9,426.4,66.8,425.6"/>
			<path id="Fill_399" class="st1" d="M213.2,431.1c-6.2-1.2-5.3,8.5,0.5,6.7C216.4,436.9,217.2,431.9,213.2,431.1"/>
			<path id="Fill_401" class="st1" d="M194.5,432.1c-4.4-0.7-4.6,5.8-0.6,5.9c1.7,0.1,3.1-1.2,3.2-2.8
				C197.1,433.6,196,432.3,194.5,432.1"/>
			<path id="Fill_403" class="st1" d="M174.7,432.1c-1.5-0.5-3.1,0.4-3.6,1.9c-0.1,0.5-0.2,1-0.1,1.4c0.3,3.4,6.4,3.7,6-0.8
				C177,433.3,176,432.2,174.7,432.1"/>
			<path id="Fill_405" class="st1" d="M155.3,432.1c-4.5-1.2-4.3,5.7,0,4.8C156.9,436.6,158.2,432.9,155.3,432.1"/>
			<path id="Fill_407" class="st1" d="M134.6,433.1c-2.8-0.8-3.6,3.3-1.2,3.9C135.8,437.5,137.2,433.8,134.6,433.1"/>
			<path id="Fill_409" class="st1" d="M116.8,433.2c-0.9-0.5-2-0.2-2.5,0.8c0,0.1-0.1,0.2-0.1,0.2c-0.9,3.4,4.9,4.1,3.7,0
				C117.6,433.7,117.2,433.3,116.8,433.2"/>
			<path id="Fill_411" class="st1" d="M95.5,434.1c-0.5-0.1-1-0.1-1.5,0.1C93.4,435.6,97.3,434.8,95.5,434.1"/>
			<path id="Fill_413" class="st1" d="M75.8,434.6C75.3,433.5,74.9,435.4,75.8,434.6"/>
			<path id="Fill_415" class="st1" d="M203.2,443c-4-0.4-4.4,5.9-0.4,6c1.7,0,3-1.3,3.1-2.9C206,444.5,204.8,443.2,203.2,443"/>
			<path id="Fill_417" class="st1" d="M221,443c-1.3,0.7-1.3,5.1-0.1,6C221.1,447.3,220.9,445,221,443"/>
			<path id="Fill_419" class="st1" d="M184.5,443.1c-2.4-0.4-4.1,1.5-3.3,4c1,3.2,7,2.3,5.6-2.2
				C186.4,443.9,185.5,443.2,184.5,443.1"/>
			<path id="Fill_421" class="st1" d="M164.2,442.1c-1.2-0.4-2.5,0.2-2.9,1.3c-1.7,4.7,5.8,4.7,4.6,0.3
				C165.7,443.1,165.6,442.5,164.2,442.1"/>
			<path id="Fill_423" class="st1" d="M144.6,444.2c-0.4-0.2-0.9-0.2-1.3-0.1c-1,0.2-2.4,3.3,0,3.9c1.2,0.3,3.1-0.2,2.6-2.6
				C145.7,444.8,145.2,444.3,144.6,444.2"/>
			<path id="Fill_425" class="st1" d="M125.5,444c-1.4-0.2-2.5,0.2-2.5,0.9c0,1.4,4,1.3,4,0C127,444.6,126.8,444.2,125.5,444"/>
			<path id="Fill_427" class="st1" d="M105.1,445.1c-0.1,0.2-0.1,0.5,0,0.8c0.2,0.1,0.5,0.1,0.8,0c0.2-0.2,0.1-0.6-0.1-0.8
				C105.6,445,105.3,445,105.1,445.1"/>
			<path id="Fill_429" class="st1" d="M86.8,445.6C86.3,444.5,85.9,446.4,86.8,445.6"/>
			<path id="Fill_431" class="st1" d="M212.6,451.1c-4.5-0.9-4.7,5.4-1.2,5.9C215.3,457.5,216.5,451.8,212.6,451.1"/>
			<path id="Fill_433" class="st1" d="M193.6,451c-2.7-0.2-3.8,4.9-0.9,5.9C196,458,197.7,451.3,193.6,451"/>
			<path id="Fill_435" class="st1" d="M174.4,452.2c-3.2-1.4-4.8,3.9-1.7,4.7C175.9,457.7,177.3,453.3,174.4,452.2"/>
			<path id="Fill_437" class="st1" d="M154.5,452.1c-1.6-0.4-2.4,0.5-2.5,1.5c-0.4,2.9,4.3,3.6,4,0.1
				C155.9,452.9,155.3,452.2,154.5,452.1"/>
			<path id="Fill_439" class="st1" d="M135.3,454.1c-0.9-0.3-1.2,0.2-1.3,0.6c-0.1,0.5,0.2,1.1,0.7,1.2c0.5,0.1,1.1-0.2,1.2-0.7
				C136.1,454.5,135.8,454.3,135.3,454.1"/>
			<path id="Fill_441" class="st1" d="M116.1,453.1c-0.1,0.2-0.1,0.5,0,0.8c0.2,0.1,0.5,0.1,0.8,0c0.2-0.2,0.2-0.6-0.1-0.8
				C116.6,453,116.3,453,116.1,453.1"/>
			<path id="Fill_443" class="st1" d="M95.8,453.6C95.3,452.5,94.9,454.4,95.8,453.6"/>
			<path id="Fill_445" class="st1" d="M203.1,462.1c-4.4-1-3.8,6.1,0.4,4.7C205.1,466.2,206,462.7,203.1,462.1"/>
			<path id="Fill_447" class="st1" d="M220.9,462c-1,0.6-1,4.2-0.1,5C221,465.6,220.8,463.6,220.9,462"/>
			<path id="Fill_449" class="st1" d="M184.1,462.1c-2.1-0.4-3.1,0.8-3.1,2.5c0.1,3.1,5.1,3.4,5-0.3
				C186.1,463.2,185.2,462.2,184.1,462.1"/>
			<path id="Fill_451" class="st1" d="M164.2,462c-0.6,0-1.3,0.2-1.7,0.7c-2.2,3.3,3.7,4.8,3.5,1.2C166,462.9,165.2,462,164.2,462
				C164.2,462,164.2,462,164.2,462"/>
			<path id="Fill_453" class="st1" d="M144.1,463c-0.6,0-1,0.4-1.1,0.9c0,0.4,0.2,0.8,0.5,1C144.8,465.5,145.8,463.2,144.1,463"/>
			<path id="Fill_455" class="st1" d="M124.1,463.3c-0.1,0.5,0.1,0.7,0.6,0.6C125.2,463.5,124.5,462.8,124.1,463.3"/>
			<path id="Fill_457" class="st1" d="M105.8,463.6C105.3,462.5,104.9,464.4,105.8,463.6"/>
			<path id="Fill_459" class="st1" d="M212.6,472c-3.3-0.2-3.7,5.1,0,5C215.9,476.9,215.7,472.2,212.6,472"/>
			<path id="Fill_461" class="st1" d="M193.8,472c-3.7-0.5-3.6,4.8-0.4,5C196.2,477.1,197.3,472.5,193.8,472"/>
			<path id="Fill_463" class="st1" d="M174.6,472.1c-1.7-0.5-2.4,0.5-2.6,1.6c-0.3,2.7,4.2,3.4,4,0.1
				C176,473,175.4,472.3,174.6,472.1"/>
			<path id="Fill_465" class="st1" d="M155.3,474.1c-0.9-0.3-1.3,0.2-1.3,0.8c-0.1,0.6,0.3,1,0.9,1.1c0.6,0.1,1-0.3,1.1-0.9
				C156.1,474.6,155.8,474.2,155.3,474.1C155.3,474.1,155.3,474.1,155.3,474.1"/>
			<path id="Fill_467" class="st1" d="M134.1,474.3c-0.1,0.5,0.1,0.7,0.6,0.6C135.2,474.5,134.5,473.8,134.1,474.3"/>
			<path id="Fill_469" class="st1" d="M116.8,474.6C116.3,473.5,115.9,475.4,116.8,474.6"/>
			<path id="Fill_471" class="st1" d="M203.1,482.1c-5.5-1.4-2.9,7.4,1,4.1c1-0.8,1.1-2.3,0.3-3.3
				C204.1,482.5,203.6,482.3,203.1,482.1"/>
			<path id="Fill_473" class="st1" d="M221.7,482c-0.7,0.8-0.6,3.1-0.1,4C221.9,484.9,221.7,483.3,221.7,482"/>
			<path id="Fill_475" class="st1" d="M184.2,482c-0.6-0.1-1.1,0.1-1.5,0.5c-2.6,2.9,3.5,5.5,3.3,1.4C186,482.9,185.2,482,184.2,482
				C184.2,482,184.2,482,184.2,482"/>
			<path id="Fill_477" class="st1" d="M165.3,483.1c-0.9-0.3-1.2,0.2-1.3,0.8C163.8,486.4,167.5,483.9,165.3,483.1"/>
			<path id="Fill_479" class="st1" d="M143.8,483.6C143.3,482.5,142.9,484.4,143.8,483.6"/>
			<path id="Fill_481" class="st1" d="M212.9,491c-1.9-0.3-2.9,0.7-2.9,1.8c-0.1,2.8,5,2.9,5,0.1C215,491.8,214.2,491.2,212.9,491"
				/>
			<path id="Fill_483" class="st1" d="M194.5,491.1c-0.8-0.3-1.6,0-2.1,0.6c-2,3.3,3.6,4.8,3.6,1.3c0.2-0.9-0.4-1.7-1.3-1.9
				C194.6,491.1,194.6,491.1,194.5,491.1"/>
			<path id="Fill_485" class="st1" d="M173.5,492.1c-0.1-0.3-0.7,0-1-0.1c-1.5,0.9,0.5,2.9,1.5,1.5C174,492.8,174,492.3,173.5,492.1
				"/>
			<path id="Fill_487" class="st1" d="M154.8,493.6C154.3,492.5,153.9,494.4,154.8,493.6"/>
			<path id="Fill_489" class="st1" d="M203.8,501.2c-0.9-0.5-2-0.2-2.5,0.7c0,0.1-0.1,0.2-0.1,0.3c-0.9,3.4,4.9,4.1,3.7,0
				C204.6,501.7,204.2,501.3,203.8,501.2"/>
			<path id="Fill_491" class="st1" d="M221.6,501c-0.2,0.7-0.2,1.3-0.1,2C221.6,502.3,221.6,501.7,221.6,501"/>
			<path id="Fill_493" class="st1" d="M184.5,503.1c-0.5-0.1-1-0.1-1.5,0.1C182.4,504.6,186.3,503.8,184.5,503.1"/>
			<path id="Fill_495" class="st1" d="M164.8,503.6C164.3,502.5,163.9,504.4,164.8,503.6"/>
			<path id="Fill_497" class="st1" d="M212.5,512c-1.4-0.2-2.5,0.2-2.5,0.9c0,1.4,4,1.3,4,0C214,512.7,213.8,512.2,212.5,512"/>
			<path id="Fill_499" class="st1" d="M193.1,513.1c-0.1,0.2-0.1,0.5,0,0.8c0.2,0.1,0.5,0.1,0.8,0c0.2-0.2,0.2-0.6-0.1-0.8
				C193.6,513,193.3,513,193.1,513.1"/>
			<path id="Fill_501" class="st1" d="M173.8,513.6C173.3,512.5,172.9,514.4,173.8,513.6"/>
			<path id="Fill_503" class="st1" d="M203.1,523.1c-0.1,0.2-0.1,0.5,0,0.8c0.2,0.1,0.5,0.1,0.8,0c0.2-0.2,0.1-0.6-0.1-0.8
				C203.6,523,203.3,523,203.1,523.1"/>
			<path id="Fill_505" class="st1" d="M184.8,523.6C184.3,522.5,183.9,524.4,184.8,523.6"/>
			<path id="Fill_507" class="st1" d="M211.1,531.3c-0.1,0.5,0.1,0.7,0.6,0.6C212.2,531.5,211.5,530.8,211.1,531.3"/>
			<path id="Fill_509" class="st1" d="M193.8,531.6C193.3,530.5,192.9,532.4,193.8,531.6"/>
			<path id="Fill_511" class="st1" d="M203.8,542.6C203.3,541.5,202.9,543.4,203.8,542.6"/>
			<path id="Clip_514-2" class="st2" d="M-849,592H265v-717H-849V592z"/>
			<g>
				<defs>
					<rect id="SVGID_3_" x="-849" y="-125" width="1114" height="717"/>
				</defs>
				<clipPath id="SVGID_4_">
					<use xlink:href="#SVGID_3_"  style="overflow:visible;"/>
				</clipPath>
				<g id="Illustration-2" class="st3">
					<path id="Fill_513" class="st4" d="M-337,479h-65V-99h65V479z M-400.3-97.3v574.6h61.6V-97.3H-400.3z"/>
					<path id="Fill_515" class="st4" d="M265,478h-667v-578h667V478z M-400.3-98.3v574.6h663.6V-98.3H-400.3z"/>
					<path id="Fill_516" class="st4" d="M265-114h-667v-11h667V-114z M-400.3-123.3v7.5h663.6v-7.5H-400.3z"/>
					<path id="Fill_517" class="st4" d="M-418,120h-45V-58h45V120z M-461.3-56.3v174.6h41.7V-56.3H-461.3z"/>
					<path id="Fill_518" class="st4" d="M-418,175h-45v-44h45V175z M-461.3,132.7v40.6h41.7v-40.6H-461.3z"/>
					<path id="Fill_519" class="st5" d="M222,284h-587v-21.1h587V284z M222,251.9h-587v-21.1h587V251.9L222,251.9z M222,219.8h-587
						v-21.1h587V219.8L222,219.8z M222,187.8h-587v-21.1h587V187.8L222,187.8z M222,155.7h-587v-21.1h587V155.7L222,155.7z
						 M222,123.6h-587v-21.1h587V123.6L222,123.6z M222,91.5h-587V70.4h587V91.5L222,91.5z M222,59.4h-587V38.3h587V59.4L222,59.4z
						 M222,27.4h-587V6.2h587V27.4L222,27.4z M222-4.7h-587v-21.1h587V-4.7L222-4.7z M222-36.8h-587v-21.1h587V-36.8L222-36.8z
						 M222-68.9h-587V-90h587V-68.9L222-68.9z"/>
					<path id="Fill_520" class="st4" d="M223,284h-79.3l-26.3-21.1H223V284L223,284z M223,251.9H103.6l-26.3-21.1H223V251.9
						L223,251.9L223,251.9z M223,219.8H63.6l-26.3-21.1H223V219.8L223,219.8L223,219.8z M223,187.8H23.6l-26.3-21.1H223V187.8
						L223,187.8L223,187.8z M223,155.7H-16.5l-26.3-21.1H223V155.7L223,155.7L223,155.7z M223,123.6H-56.5l-26.3-21.1H223V123.6
						L223,123.6L223,123.6z M223,91.5H-96.5l-26.3-21.1H223V91.5L223,91.5L223,91.5z M223,59.4h-359.5l-26.3-21.1H223V59.4L223,59.4
						L223,59.4z M223,27.4h-399.6l-26.3-21.1H223V27.4L223,27.4L223,27.4z M223-4.7h-439.6l-26.3-21.1H223V-4.7L223-4.7L223-4.7z
						 M223-36.8h-479.6L-283-57.9h506V-36.8L223-36.8L223-36.8z M223-68.9h-519.7L-323-90h546V-68.9L223-68.9L223-68.9z"/>
					<path id="Fill_521" class="st4" d="M197,347h1v-457h-1V347z"/>
					<path id="Fill_522" class="st6" d="M197.4,389h0.1c3.6,0,6.4-2.9,6.4-6.5v-59.1c0-3.6-2.9-6.5-6.4-6.5h-0.1
						c-3.6,0-6.4,2.9-6.4,6.5v59.1C191,386.1,193.9,389,197.4,389"/>
					<path id="Fill_523" class="st7" d="M-216,455.1c5.9-57.2,31-107.4,49.7-155.8c14.1-36.4,20.8-84.5,23.2-106.1
						c0.7-6.4,6.2-11.3,12.7-11.3H71c-4.2,0.2-7.4,3.7-7.4,7.8c0.3,19.5,0,71.6-10.2,111.6C40.7,351.6,21.9,404.5,22.9,462
						c0.8,42.8,7.6,67.3,9.8,74l-247.4-4.2C-214.7,531.8-221.2,505.9-216,455.1"/>
					<path id="Fill_524" class="st8" d="M10.9,519l-208.9-3.6l-0.1-0.8c-1-11.4-1.6-30.6,1.1-56.9c4.4-43.2,20.7-83.2,36.5-121.9v0
						c4-9.8,8.1-19.9,12-29.9c8.4-21.7,15.2-49.4,20.4-82.2l0.1-0.7H46l0,0.9c-1.2,29.3-4.3,54-9.2,73.4c-2.6,10.1-5.3,20-8.1,30.6
						l0,0v0C17,370.5,4.9,414.6,5.8,463.1c0.2,18.4,1.8,36.7,4.9,54.9L10.9,519L10.9,519L10.9,519z M-126.7,224.7L-126.7,224.7
						c-5.2,32.7-12,60.2-20.4,81.9c-3.8,9.9-8,20.2-12,30l0,0v0c-15.7,38.5-31.9,78.3-36.3,121.3c-2.6,25.8-2.1,44.6-1.1,55.9
						l205.4,3.5c-2.9-17.9-4.5-36-4.7-54.1c-0.9-48.8,11.2-93,22.9-135.7l0.1-0.4c2.9-10.4,5.5-20.3,8-30.2
						c4.8-19.1,7.9-43.4,9.1-72.2L-126.7,224.7z"/>
					<path id="Fill_525" class="st8" d="M28.8,327.3c-0.9,3.2-1.7,6.5-2.6,9.7H-160c0.1-0.3,0.2-0.6,0.4-0.9
						c2.3-5.6,4.6-11.3,6.8-17.1H31C30.3,321.7,29.5,324.5,28.8,327.3"/>
					<path id="Fill_526" class="st8" d="M5.7,463.6c0.1,3.6,0.2,7,0.3,10.4h-203c0.3-5,0.7-10.2,1.3-15.8c0.1-0.7,0.2-1.5,0.3-2.2
						H5.7C5.7,458.5,5.6,461.1,5.7,463.6"/>
					<path id="Fill_527" class="st8" d="M7,501h-205.9c-0.1-5.3-0.1-11.3,0.1-18H5.4C5.8,489.5,6.4,495.5,7,501"/>
					<path id="Fill_528" class="st8" d="M35.8,297c-1.1,4.3-2.2,8.7-3.3,13H-148c0.5-1.3,1-2.5,1.4-3.8c1.7-4.6,3.4-9.4,4.9-14.2H37
						C36.6,293.7,36.3,295.3,35.8,297"/>
					<path id="Fill_529" class="st8" d="M23,347c-1.6,6-3.1,12-4.6,18H-171c2.3-6,4.7-12,7.1-18H23z"/>
					<path id="Fill_530" class="st8" d="M6,428c-0.6,5.9-1,11.9-1.3,18H-195c0.9-6.1,2-12.1,3.3-18H6z"/>
					<path id="Fill_531" class="st8" d="M16,373c-1.4,6-2.6,12-3.8,18H-181c2-6,4.1-12,6.3-18H16z"/>
					<path id="Fill_532" class="st8" d="M12,401c-1,5.9-1.9,11.9-2.7,18H-188c1.5-6.1,3.2-12.1,5-18H12z"/>
					<path id="Fill_533" class="st9" d="M44.5,462.8C45.4,514,55,539,55,539H34.6c0,0-9.6-25-10.5-76.2c-0.5-27.6,3.5-54.1,9.3-79.8
						l18.5,8.9C47.2,414.8,44,438.4,44.5,462.8"/>
					<path id="Fill_534" class="st8" d="M40,242H14v-11h26V242z M15.7,232.6v7.8h22.7v-7.8H15.7z"/>
					<path id="Fill_535" class="st8" d="M17,256H1v-7h16V256z M2.7,250.6v3.8h12.6v-3.8H2.7z"/>
					<path id="Fill_536" class="st8" d="M54.4,538c0,0-9.7-24.9-10.6-76c-1.1-57.4,18-110.4,30.9-160.6
						c10.4-40.5,7.2-93.5,5.6-112.3c-0.4-4-3.8-7.1-7.9-7.1h-0.2c-4.3,0-7.8,3.4-7.9,7.7c0,0,0,0.1,0,0.1
						c0.3,19.5,0,71.6-10.3,111.6C41.1,351.6,22,404.6,23,462c1,51.1,10.6,76,10.6,76H54.4z"/>
					<path id="Fill_537" class="st10" d="M-324.9,311c0,0-59.1,61.5-107.1,70.6l32.3,47.4c0,0,99.5-9.4,124.7-86.8L-324.9,311z"/>
					<path id="Fill_538" class="st11" d="M-296.6,252c0,0-26.6,54.7-48.4,73.9c0,0,30.2,42.4,57.4,57.1c0,0,33.6-62.2,29.3-93.4
						S-296.6,252-296.6,252"/>
					<path id="Fill_539" class="st12" d="M-250.1,534c-3.8-10.5-21.4-58.9-20.4-63.6c1.2-5.3,6.6-14.2,6.6-14.2l-33-205.3
						c58.9-3.4,88.5-32.8,88.5-32.8l61.6-6.1c42.6,43.3,116.8,64.1,119.1,71.2c4,12.1-8.6,47.8-14.2,79.6s-3.9,78.5-6.6,103.2
						c-2.1,18.5-13.4,52.2-19,68L-250.1,534z"/>
					<path id="Fill_540" class="st13" d="M-287.9,382L-287.9,382l3.5-7.2l0.1,0.1l-0.1-0.2l-0.1,0.1l-8-5.8
						c-0.2-0.2-0.5-0.4-0.7-0.5c-0.4-0.3-0.9-0.6-1.3-0.9l-1.9-1.6l-3.8-3.3c-0.4-0.4-0.9-0.8-1.3-1.2c-0.8-0.7-1.6-1.4-2.4-2.2
						l-3.5-3.5l-3.5-3.5l-3.3-3.8l-3.3-3.8c-0.7-0.8-1.3-1.7-2-2.6c-0.3-0.5-0.7-0.9-1.1-1.4l-3-4l-2.7-4.2c-0.3-0.5-0.6-1-1-1.5
						c-0.6-0.9-1.2-1.8-1.7-2.7l-2.5-4.3l-1.2-2.2l-1.1-2.2l-1.7-3.3l-3.9,4.5c-0.3,0.3-0.5,0.6-0.8,0.8c-0.2,0.1-0.3,0.3-0.5,0.4
						l-1.3,1.3l-2.1,2l-0.3-0.4l-0.1-0.2l-0.1,1.1l0.5-0.5c3.5,4.8,7.4,9.8,12,15.4c1.8,2.2,3.6,4.3,5.4,6.4l1.1,1.3
						c2.5,2.8,4.7,5.3,6.8,7.5c0.9,1,1.9,2,2.8,2.9l0.7,0.7c0.3,0.3,0.6,0.6,0.9,1c0.9,0.9,1.7,1.8,2.6,2.6l3.7,3.5l3.8,3.4
						c0.9,0.8,1.9,1.6,2.8,2.4c0.3,0.3,0.7,0.6,1.1,0.9l0.1,0.1c1.2,1,2.5,2.1,3.8,3c0.5,0.3,1,0.7,1.5,1.1c0.9,0.6,1.7,1.3,2.7,1.9
						L-287.9,382l-4.4-2.5c-1-0.5-1.9-1.2-2.8-1.8c-0.5-0.3-1-0.7-1.5-1c-1.4-0.9-2.7-1.9-3.9-2.9l-0.2-0.1
						c-0.4-0.3-0.7-0.6-1.1-0.8c-1-0.7-2-1.5-2.9-2.3l-3.9-3.3l-3.7-3.4c-0.9-0.8-1.8-1.7-2.7-2.5c-0.3-0.3-0.7-0.7-1-1l-0.7-0.7
						c-1-0.9-2-1.9-2.9-2.9c-2.2-2.2-4.4-4.6-7-7.4c-0.8-0.8-1.5-1.7-2.3-2.6l0,0c-0.4-0.4-0.7-0.8-1.1-1.2c-1-1.1-1.9-2.2-2.8-3.3
						l-0.5-0.5c-4.9-5.8-9-11-12.6-15.9c-0.2-0.3-0.2-0.8,0.1-1.1l2.5-2.5l1.3-1.2c0.1-0.1,0.3-0.3,0.4-0.4c0.3-0.3,0.5-0.5,0.8-0.8
						l4.7-5.4c0.1-0.1,0.2-0.2,0.3-0.2c0.1-0.1,0.2-0.1,0.4-0.1c0.3,0,0.6,0.2,0.8,0.5l2.2,4.4l1.1,2.2l1.2,2.2l2.4,4.3
						c0.5,0.9,1.1,1.8,1.7,2.7c0.3,0.5,0.6,1,1,1.5l2.7,4.2l2.9,4c0.4,0.5,0.7,1,1.1,1.4c0.6,0.8,1.3,1.7,1.9,2.5l3.2,3.8l3.2,3.8
						l3.4,3.6l3.5,3.6c0.7,0.8,1.5,1.5,2.3,2.2c0.4,0.4,0.9,0.8,1.3,1.2l3.7,3.3l1.8,1.7c0.4,0.4,0.9,0.7,1.3,1
						c0.2,0.2,0.5,0.3,0.7,0.5c0.1,0.1,7.9,6.1,7.9,6.1c0.1,0,0.1,0.1,0,0.2L-287.9,382z M-336.1,315.2l0.6,1.1l0.8-1L-336.1,315.2z
						"/>
					<path id="Fill_541" class="st14" d="M-185.6,280c22,0,47.2-10.6,58.5-24.7c5-6.2,7-12.7,5.7-18.7
						c-2.5-11.6-30.7-22.6-58.1-22.6c-14.1,0-26.8,3-36.7,8.6c-10.9,6.3-16.4,16.7-14.5,27.8c2.4,14,15.4,25.2,33.2,28.5
						C-193.6,279.7-189.6,280-185.6,280L-185.6,280z"/>
					<path id="Fill_542" class="st13" d="M-264.7,256c0,0-0.2,1.6-0.2,4.4c-0.1,2.8-0.2,6.8,0,11.7c0.2,4.8,0.6,10.5,1.4,16.4
						c0.4,3,0.9,6.1,1.5,9.2c0.6,3.1,1.3,6.3,2.1,9.4c0.8,3.1,1.8,6.2,2.8,9.2s2.1,5.9,3.3,8.7c0.6,1.4,1.2,2.8,1.8,4.1
						c0.6,1.3,1.3,2.6,1.9,3.8c0.6,1.2,1.3,2.4,2,3.5c0.7,1.1,1.3,2.2,2,3.2c0.7,1,1.3,2,1.9,2.9c0.7,0.9,1.3,1.7,1.9,2.5
						c1.2,1.5,2.3,2.8,3.2,3.9c1.9,2,3,3.2,3,3.2s-1-1.2-2.8-3.4c-0.8-1.1-1.9-2.5-3-4.1s-2.3-3.4-3.5-5.5c-0.6-1-1.2-2.1-1.8-3.2
						c-0.6-1.1-1.2-2.3-1.8-3.5c-0.6-1.2-1.2-2.5-1.8-3.8c-0.6-1.3-1.2-2.6-1.7-4c-1.2-2.8-2.2-5.7-3.2-8.6c-1-3-1.8-6.1-2.6-9.1
						c-0.8-3.1-1.5-6.2-2.2-9.3c-0.6-3.1-1.2-6.1-1.6-9.1c-0.4-3-0.8-5.8-1.2-8.6s-0.6-5.3-0.8-7.7c-0.4-4.8-0.6-8.8-0.7-11.6
						C-264.7,257.6-264.7,256-264.7,256"/>
					<path id="Fill_543" class="st13" d="M-278,293c0,0,0,2.2,0.2,6.1c0.2,3.8,0.5,9.4,1.2,15.9c0.4,3.3,0.8,6.8,1.4,10.6
						c0.6,3.8,1.2,7.7,2,11.8c0.8,4.1,1.7,8.2,2.7,12.5c1.1,4.2,2.2,8.5,3.5,12.7c1.3,4.2,2.8,8.4,4.3,12.5c0.8,2,1.6,4,2.4,6
						c0.9,1.9,1.7,3.9,2.6,5.8c0.9,1.8,1.8,3.7,2.8,5.4c1,1.7,1.9,3.4,2.9,5.1c1,1.6,2,3.2,2.9,4.7l2.9,4.2l2.9,3.7
						c0.9,1.2,1.9,2.2,2.8,3.2c1.7,2.1,3.5,3.6,4.9,5c1.4,1.3,2.6,2.2,3.4,2.9l1.2,1c0,0-0.4-0.4-1.1-1.1c-0.7-0.7-1.9-1.7-3.2-3.1
						c-1.3-1.4-3-3-4.6-5.1c-1.7-2-3.5-4.5-5.4-7.1c-0.9-1.4-1.8-2.8-2.8-4.3c-0.9-1.5-1.8-3.1-2.8-4.7c-0.9-1.6-1.8-3.4-2.7-5.1
						l-2.7-5.4c-0.8-1.9-1.7-3.8-2.5-5.7c-0.8-2-1.6-3.9-2.4-6c-1.5-4-2.9-8.2-4.2-12.4c-1.3-4.2-2.5-8.4-3.6-12.6
						c-1-4.2-2-8.3-2.8-12.4c-0.8-4-1.6-7.9-2.2-11.7c-0.6-3.7-1.2-7.3-1.6-10.5C-277.5,301.8-278,293-278,293"/>
					<path id="Fill_544" class="st13" d="M-91,272c0,0-1,0.4-2.7,1.3c-1.7,0.9-4.1,2.1-6.9,3.8c-1.4,0.9-2.9,1.8-4.4,2.9
						c-1.6,1-3.1,2.2-4.7,3.5c-1.6,1.2-3.2,2.6-4.8,4c-1.5,1.5-3.2,2.9-4.7,4.5c-1.4,1.6-3,3.2-4.3,4.9c-1.3,1.6-2.6,3.3-3.8,5.1
						l-1.7,2.5c-0.6,0.8-0.9,1.7-1.4,2.5c-0.9,1.5-1.7,3.1-2.3,4.7c-0.6,1.5-1.2,2.9-1.7,4.1c-0.4,1.3-0.7,2.4-0.9,3.3
						c-0.5,1.8-0.8,2.9-0.8,2.9l1.1-2.8c0.3-0.9,0.7-2,1.2-3.2c0.6-1.2,1.2-2.5,1.9-4c0.8-1.6,1.6-3.1,2.5-4.5
						c1-1.7,2.1-3.3,3.2-4.8c1.1-1.7,2.5-3.2,3.8-4.9c1.3-1.7,2.8-3.2,4.3-4.8c1.5-1.6,3-3,4.5-4.5c1.6-1.4,3.1-2.8,4.7-4.1
						c1.6-1.3,3-2.5,4.5-3.6c1.4-1.1,2.9-2.1,4.2-3.1c2.7-1.8,4.9-3.3,6.5-4.3C-91.9,272.5-91,272-91,272"/>
					<path id="Fill_545" class="st10" d="M-136.1,238.5c0,0.1,0,0.1,0.1,0.2l-74.3,8.3c0-35.4-0.4-37.3-11.9-73
						c-0.6-1.9-1.1-3.9-1.4-5.8c-3.4-20.7,10.7-40.3,31.4-43.7c20.7-3.4,40.3,10.7,43.7,31.4c0,0.2,0,0.3,0.1,0.5c0.3,2,0.4,4,0.4,6
						C-148,200.9-147.8,201.8-136.1,238.5L-136.1,238.5z"/>
					<path id="Fill_546" class="st8" d="M-244.6,49.1c-8.9-14.7-52.7,14-52.4,26.4c0.2,8.4,19.6,5.4,19.6,5.4s-4.1,9.6,5.5,13.6
						s25.7-23,25.7-23S-235.7,63.8-244.6,49.1"/>
					<path id="Fill_547" class="st7" d="M-291,74.3c-0.1-7.2,13.1-19.6,26.4-26.5c6.3-1.6,11.6-0.9,14.1,3.5
						c8.7,15.2-1.7,23.3-1.7,23.3s-7,12.4-14.4,19.5c-9.2-4.2-5.3-14-5.3-14S-290.8,83-291,74.3"/>
					<path id="Fill_548" class="st7" d="M-290,108l55,3.1l-3.6,8.9l-50.9-7.4L-290,108z"/>
					<path id="Fill_549" class="st10" d="M-271,113.4c-0.5,45.6,10.7,101.1,46.9,94c51-10.1,77.4-68.8,79.9-110.3
						C-139.8,25.4-269.6-14.8-271,113.4"/>
					<path id="Fill_550" class="st15" d="M-224.6,207.4c-24.9,4.9-37.9-20-43.4-50.9c21-25.3,46.7,10.2,73.3,0.6
						c17-6.1,19.3-29.2,19.3-29.2c7.6,1.8,15.1,4.2,22.3,7.3C-164.5,168.1-188.3,200.2-224.6,207.4"/>
					<path id="Fill_552" class="st7" d="M-140.9,165.7c-3.7,8.1-12.8,6.1-12.8,6.1c4.5-16.5,7.5-54.4,0.1-50.1
						c0,0-11,24.3-19.3,19.4c-8.3-4.9,5.5-36,5.5-36l-8.6-9.9l5.3-28.6c0,0,49.7-14.5,49.7-0.3C-124.3,133.8-135.6,154-140.9,165.7"
						/>
					<path id="Fill_553" class="st7" d="M-189,109c0,0,52.6,2.2,64.8,3.5c7.7,0.8-0.6,9-3.5,8.5c-8.7-1.6-60.8-7.6-60.8-7.6
						L-189,109z"/>
					<path id="Fill_554" class="st10" d="M-171,142.4c5.3-11,19.9-35.3,31.6-28.1c7.2,4.5,5.1,18.8-3.5,28.2
						C-160.3,161.7-176.3,153.4-171,142.4"/>
					<path id="Fill_555" class="st7" d="M-142,121.1c-0.4-0.1-0.8-0.1-1.2-0.1c-1.1,0-2.2,0.2-3.2,0.5c-0.7,0.2-1.4,0.4-2.1,0.7
						c-0.8,0.3-1.5,0.6-2.2,1c-1.6,0.9-3,1.9-4.3,3.2c-0.6,0.7-1.3,1.3-1.8,2c-0.5,0.7-1.1,1.4-1.6,2.1c-0.4,0.7-0.9,1.5-1.2,2.1
						c-0.4,0.7-0.6,1.4-0.9,2c-0.4,1-0.8,2.1-1.1,3.1c-0.2,0.8-0.3,1.2-0.3,1.2s0.2-0.4,0.6-1.1c0.4-0.7,0.9-1.7,1.6-2.8
						c0.3-0.6,0.7-1.2,1.1-1.8c0.4-0.6,0.9-1.2,1.4-1.9c0.5-0.7,1.1-1.3,1.6-1.9c0.5-0.7,1.2-1.2,1.8-1.9c0.6-0.6,1.3-1.2,1.9-1.7
						c0.7-0.5,1.3-1,2-1.4c1.2-0.8,2.5-1.5,3.9-2.1c1-0.4,1.9-0.8,3-1.1C-142.4,121.1-142,121.1-142,121.1"/>
					<path id="Fill_556" class="st7" d="M-115.6,26.2c-4.4-1.8-23.6,5.9-15.3,25.8C-131,52-111.3,28-115.6,26.2"/>
					<path id="Fill_557" class="st7" d="M-129,45c0,0,17.5-5.3,18-1.9C-110.3,47.8-126.3,52.7-129,45"/>
					<path id="Fill_558" class="st7" d="M-225,81.2c-0.5,0.7,9.4,12.8,21.7,12.8c5.8,0,12.8-3.4,11.1-3.9
						C-199.5,88-223.8,79.8-225,81.2"/>
					<path id="Fill_559" class="st7" d="M-247,77.1c0.6,0.6-7.1,15.4-19.1,17.6c-5.8,1.1-13.2-1.4-11.6-2.2
						C-271,89-248.4,75.8-247,77.1"/>
					<path id="Fill_560" class="st7" d="M-157,130.2c0,0,0.7-0.3,1.8-0.7c0.6-0.2,1.2-0.4,1.8-0.5c0.3-0.1,0.6-0.1,1-0.1
						c0.3,0,0.6,0,1,0c0.6,0.1,1.2,0.2,1.8,0.6c0.3,0.2,0.5,0.3,0.8,0.5c0.2,0.2,0.4,0.4,0.6,0.6c0.3,0.3,0.7,0.7,1,1
						c0.2,0.3,0.4,0.4,0.4,0.4s0-0.2-0.1-0.6c-0.1-0.5-0.3-1-0.5-1.5c-0.1-0.3-0.3-0.6-0.5-0.9c-0.2-0.3-0.5-0.6-0.8-0.9
						c-0.3-0.3-0.7-0.5-1.1-0.7c-0.4-0.2-0.8-0.3-1.3-0.3c-0.4,0-0.9,0-1.3,0c-0.4,0.1-0.8,0.2-1.2,0.4c-0.7,0.3-1.3,0.7-1.8,1.1
						C-156.2,129-156.6,129.6-157,130.2"/>
					<path id="Fill_561" class="st7" d="M-266.5,131c-12.4,0-22.5-10.1-22.4-22.6c0-11.4,8.6-21,20-22.3c0.8-0.1,1.7-0.1,2.5-0.1
						c12.4,0,22.5,10.1,22.5,22.5c0,11.4-8.6,21-20,22.3C-264.9,131-265.7,131-266.5,131z M-266.5,87.6c-0.8,0-1.6,0-2.3,0.1
						c-11.5,1.3-19.7,11.6-18.5,23c1.2,10.6,10.1,18.6,20.7,18.6c0.8,0,1.6,0,2.3-0.1c11.5-1.3,19.7-11.6,18.5-23
						C-246.9,95.6-255.8,87.6-266.5,87.6z"/>
					<path id="Fill_562" class="st7" d="M-213.5,134c-12.4,0-22.5-10.1-22.4-22.6c0-11.4,8.6-21,20-22.3c0.8-0.1,1.7-0.1,2.5-0.1
						c12.4,0,22.5,10.1,22.5,22.5c0,11.4-8.6,21.1-20,22.3C-211.9,134-212.7,134-213.5,134z M-213.5,90.6c-0.8,0-1.6,0-2.3,0.1
						c-11.5,1.3-19.7,11.6-18.5,23c1.2,10.6,10.1,18.6,20.7,18.6c0.8,0,1.6,0,2.3-0.1c11.5-1.3,19.7-11.6,18.5-23
						C-193.9,98.6-202.8,90.6-213.5,90.6z"/>
					<path id="Fill_563" class="st13" d="M-297,252c0,0-1.4,3.8-3.4,9.4c-1,2.8-2.3,6.1-3.6,9.6c-1.3,3.5-2.7,7.2-4.3,10.9
						c-0.8,1.8-1.5,3.7-2.3,5.5c-0.8,1.8-1.5,3.6-2.3,5.3c-0.8,1.7-1.5,3.3-2.3,4.9c-0.4,0.8-0.8,1.5-1.1,2.2
						c-0.4,0.7-0.8,1.4-1.1,2l-1.1,1.9c-0.4,0.6-0.7,1.1-1,1.6c-0.5,0.9-1.1,1.8-1.8,2.6c-1.1,1.4-1.7,2.2-1.7,2.2l2-1.9
						c0.7-0.8,1.4-1.6,2-2.4l1.2-1.5l1.2-1.8c0.4-0.6,0.8-1.3,1.3-2c0.4-0.7,0.8-1.4,1.3-2.2c0.4-0.7,0.9-1.5,1.3-2.3
						c0.4-0.8,0.8-1.6,1.2-2.5c0.9-1.7,1.7-3.4,2.5-5.3c0.8-1.8,1.6-3.7,2.4-5.5c1.5-3.7,2.9-7.5,4.1-11.1c1.2-3.6,2.2-6.9,3.1-9.8
						s1.4-5.3,1.9-7C-297.2,253-297,252-297,252"/>
					<path id="Fill_564" class="st13" d="M-294,259c2.4,16.5,4.7,32.9,7.3,49.4l3.7,24.7l3.8,24.7l7.7,49.3l7.9,49.3l0-0.4L-270,471
						c-0.1,0.1-0.1,0.3,0,0.4l9.9,28.8l10,28.8l-9.4-29l-9.5-29l0,0.4l6.5-15c0.1-0.1,0.1-0.3,0.1-0.4l-7.6-49.3l-7.8-49.3l-4-24.6
						l-4-24.6C-288.4,291.8-291.2,275.4-294,259"/>
					<path id="Fill_565" class="st13" d="M-250.1,266.3l-6.9-0.3c0,0,2.2,18.6,6.1,24l6.9-1.4L-250.1,266.3z"/>
					<path id="Fill_566" class="st13" d="M-145,315.1l-6.7-4.1l-0.3,7.9l3.4,0.1L-145,315.1z"/>
					<path id="Fill_567" class="st16" d="M-232.1,96c-1.2-0.9-16.2,12.5-21.6,29.2c-3.5,11.1,0.5,26.7,6.1,26.8
						c2.6,0,1.4-16.6,5.4-32C-238.4,105.7-231.2,96.7-232.1,96"/>
					<path id="Fill_568" class="st17" d="M-234.8,111c0.4,0,0.7-0.2,0.8-0.6c0-0.3-0.3-0.6-0.7-0.7l-9.4-0.8
						c-0.4-0.1-0.8,0.2-0.9,0.6c0,0.3,0.3,0.6,0.7,0.7L-234.8,111L-234.8,111"/>
					<path id="Fill_569" class="st17" d="M-264,110.4c0.2,2.2,2.2,3.8,4.4,3.5s3.8-2.2,3.5-4.4c-0.2-2.2-2.2-3.8-4.4-3.5
						c0,0,0,0,0,0C-262.6,106.3-264.2,108.2-264,110.4"/>
					<path id="Fill_570" class="st7" d="M-231.9,167c13.6,0,18.7-9.7,18.8-9.8c0.2-0.4,0-0.9-0.4-1.1c0,0,0,0,0,0
						c-0.4-0.2-0.9,0-1.1,0.4c-0.3,0.5-6.5,12.1-24.3,8.1c-0.4-0.1-0.9,0.2-1,0.6c-0.1,0.4,0.2,0.9,0.6,1c0,0,0,0,0,0
						C-236.9,166.7-234.4,167-231.9,167"/>
					<path id="Fill_571" class="st17" d="M-221,113.4c0.2,2.2,2.2,3.8,4.4,3.5c2.2-0.2,3.8-2.2,3.5-4.4c-0.2-2.2-2.2-3.8-4.4-3.5
						c0,0,0,0,0,0C-219.6,109.3-221.2,111.2-221,113.4"/>
					<path id="Fill_572" class="st14" d="M-216.1,116c-0.3,0-0.6,0-0.9,0c1.7-0.1,3.1-1.5,3-3.3c0,0,0,0,0,0c-0.3-1.5-1.5-2.5-3-2.6
						c0,0,0.1,0,0.1,0c1.8-0.3,3.5,0.9,3.9,2.7c0.1,1.7-1.2,3.2-3,3.3C-216,116-216.1,116-216.1,116"/>
					<path id="Fill_573" class="st14" d="M-260.1,113c-0.3,0-0.6,0-0.9,0c1.7-0.1,3.1-1.5,3-3.3c0,0,0,0,0,0c-0.3-1.5-1.5-2.5-3-2.6
						c0,0,0.1,0,0.1,0c1.8-0.3,3.5,0.9,3.9,2.7c0.1,1.7-1.2,3.2-3,3.3C-260,113-260.1,113-260.1,113"/>
					<path id="Fill_574" class="st17" d="M-211,109c-0.1-0.7-0.3-1.4-0.6-2.1c-0.5-1.1-1.3-2-2.3-2.7c-0.4-0.3-0.8-0.5-1.2-0.7
						c-0.8-0.4-1.8-0.5-2.7-0.5c-0.4,0-0.8,0.1-1.2,0.2c-0.4,0.1-0.7,0.2-1,0.3c-0.5,0.2-1,0.4-1.4,0.7c-0.3,0.2-0.5,0.3-0.5,0.3
						s0.2,0,0.6,0c0.4,0,0.9-0.1,1.5-0.1c0.3,0,0.6-0.1,1,0c0.3,0,0.7,0,1,0.1c0.4,0.1,0.7,0.1,1.1,0.2c0.4,0.1,0.7,0.2,1,0.4
						c0.7,0.3,1.3,0.6,1.9,1.1c0.5,0.4,1,0.9,1.5,1.3C-211.6,108.3-211,109-211,109"/>
					<path id="Fill_575" class="st17" d="M-256,105c-0.3-0.7-0.8-1.3-1.3-1.8c-0.6-0.6-1.2-1-1.9-1.4c-0.4-0.2-0.8-0.4-1.3-0.5
						c-0.5-0.1-0.9-0.2-1.4-0.2c-0.5,0-0.9,0-1.4,0.1c-0.5,0.1-0.9,0.2-1.3,0.4c-0.4,0.2-0.8,0.4-1.1,0.6c-0.3,0.2-0.6,0.4-0.9,0.7
						c-0.4,0.4-0.8,0.8-1.1,1.3c-0.2,0.3-0.3,0.5-0.3,0.5s0.2-0.1,0.6-0.3c0.4-0.2,0.9-0.5,1.4-0.7c0.3-0.1,0.6-0.3,0.9-0.4
						c0.3-0.1,0.7-0.2,1-0.3c0.4-0.1,0.7-0.1,1.1-0.2c0.4,0,0.7,0,1.1,0c0.7,0,1.5,0.2,2.2,0.4c0.6,0.2,1.3,0.5,1.9,0.8
						C-256.8,104.5-256,105-256,105"/>
					<path id="Fill_576" class="st7" d="M-136.6,35.9c20.8,14,19.6,39.2,3.4,46.1c-15.2,6.5-34.6-5.7-34.6-5.7s1.8,6.4-0.3,8.3
						s-18.8-3.4-18.8-3.4s29.3,16.8,20.9,21.8c-13,7.8-66.1-29.6-66.1-29.6s4,11.8-1.9,12.5c-7.4,0.9-19.6-27.8-21.4-27
						s4.3,15.6-1.8,16.7c-7.8,1.5-25.5-38.6-25.5-38.6c-3.8-8.3-5.5-19.7,12.2-19.9C-259.8,16.9-157.4,21.9-136.6,35.9"/>
					<path id="Fill_577" class="st8" d="M-232,73c0,0,43.6,27.5,63,30.9c-0.2,0-0.4,0-0.5,0.1c-0.4,0.1-0.9,0.1-1.3,0.1
						C-188.6,104-232,73-232,73"/>
					<path id="Fill_578" class="st8" d="M-142,83c-13,0.6-26-7-26-7S-152.9,81.8-142,83"/>
					<path id="Fill_579" class="st8" d="M-234.2,84.9c-0.2,0-0.4-0.1-0.6-0.1c-0.1,0-0.2-0.1-0.3-0.1c-0.2-0.1-0.4-0.2-0.5-0.3
						c-0.1-0.1-0.2-0.1-0.3-0.2c-0.2-0.1-0.4-0.2-0.6-0.4c-0.1-0.1-0.2-0.2-0.3-0.2c-0.2-0.2-0.4-0.3-0.7-0.5
						c-0.1-0.1-0.2-0.1-0.3-0.2c-0.3-0.3-0.6-0.6-0.9-0.9c-0.1-0.1-0.1-0.1-0.2-0.2c-0.3-0.3-0.5-0.5-0.8-0.8
						c-0.1-0.1-0.2-0.3-0.3-0.4c-0.2-0.2-0.4-0.5-0.6-0.7c-0.1-0.1-0.2-0.3-0.4-0.4c-0.2-0.3-0.4-0.5-0.6-0.8
						c-0.1-0.1-0.2-0.3-0.3-0.5c-0.2-0.3-0.4-0.6-0.7-0.9c-0.1-0.1-0.2-0.3-0.3-0.4c-0.3-0.4-0.6-0.8-0.8-1.2c0-0.1-0.1-0.1-0.1-0.2
						c-0.3-0.5-0.6-0.9-1-1.4l-0.2-0.3c-0.2-0.4-0.5-0.8-0.7-1.2c-0.1-0.1-0.2-0.3-0.3-0.4c-0.2-0.4-0.4-0.7-0.7-1.1l-0.2-0.4
						c-0.2-0.4-0.5-0.8-0.7-1.1c-0.1-0.1-0.1-0.2-0.2-0.3c-0.3-0.5-0.6-0.9-0.8-1.4c-3-4.9-5.3-9.1-6.3-9.8c0-0.1,0.1-0.2,0.1-0.2
						c1.5-0.6,16.3,20.5,23.9,25.9c-0.2,0.2-0.4,0.4-0.6,0.5c-0.1,0.1-0.2,0.1-0.3,0.2c-0.1,0-0.2,0.1-0.3,0.1
						c-0.3,0.1-0.6,0.2-0.9,0.2c-0.3,0-0.5,0-0.8,0C-234,85-234.1,84.9-234.2,84.9"/>
					<path id="Fill_580" class="st8" d="M-269.3,17c0.2,0,0.4,0,0.6,0h0.2l0.6,0l0.3,0c0.2,0,0.4,0,0.7,0l0.3,0l0.9,0
						c0.1,0,0.2,0,0.2,0c1.7,0,3.7,0.1,6.1,0.2c-2-0.1-3.5-0.1-4.4-0.1c-17.8,0.2-16,11.5-12.3,19.7c0,0,13.3,29.7,22,36.8
						c-0.1,0.1-0.2,0.3-0.3,0.4c-0.1,0.2-0.3,0.3-0.5,0.4c-0.1,0-0.2,0.1-0.2,0.1c-0.3,0.1-0.6,0.2-0.9,0.3
						c-7.8,1.5-25.6-38.2-25.6-38.2C-285.3,28.5-287.1,17.2-269.3,17"/>
					<path id="Fill_581" class="st8" d="M-187,80c0,0,12.5,2.6,18,3.7C-171.7,85.1-184.5,80.9-187,80"/>
					<path id="Fill_582" class="st10" d="M-123.3,237.2c4.4,20.8-39.2,45-72.7,38.8c-32.2-6-41.4-37.1-17.8-50.7
						C-181,206.4-126.1,223.8-123.3,237.2"/>
					<path id="Fill_583" class="st8" d="M-256.7,22c-0.3,0.4-0.5,0.8-0.8,1.2c-0.6,1.1-1.1,2.3-1.4,3.5c-0.2,0.8-0.4,1.7-0.6,2.5
						c-0.2,0.9-0.3,1.9-0.4,2.8c-0.1,1-0.1,2-0.1,3.1c0.1,1,0.1,2.1,0.2,3.2c0.2,1,0.3,2.1,0.5,3.1s0.5,2,0.8,3
						c0.3,0.9,0.6,1.8,0.9,2.7c0.3,0.8,0.7,1.6,1,2.3c0.5,1.2,1.1,2.3,1.8,3.3c0.5,0.8,0.7,1.2,0.7,1.2s-0.1-0.5-0.4-1.4
						c-0.3-0.9-0.8-2.1-1.2-3.6c-0.2-0.7-0.5-1.5-0.7-2.4c-0.2-0.9-0.4-1.8-0.7-2.7c-0.3-0.9-0.4-1.9-0.6-2.9c-0.2-1-0.3-2-0.5-3
						c-0.1-1-0.2-2-0.3-3c0-1-0.1-2,0-2.9c0-1,0.1-1.9,0.1-2.7c0.1-0.9,0.2-1.7,0.3-2.5c0.2-1.2,0.5-2.4,0.8-3.6
						C-256.9,22.5-256.7,22-256.7,22"/>
					<path id="Fill_584" class="st8" d="M-244.5,34c-0.1,0.6-0.2,1.3-0.3,1.9c-0.1,0.6-0.1,1.4-0.1,2.2c0,1,0,1.9,0,2.9
						c0,1.1,0.2,2.2,0.3,3.4c0.2,1.3,0.4,2.5,0.7,3.8c0.3,1.3,0.8,2.7,1.2,3.9c0.3,0.7,0.5,1.3,0.8,2l0.9,1.9
						c0.6,1.3,1.4,2.5,2.2,3.7c0.8,1.1,1.6,2.2,2.5,3.3c0.8,1,1.7,1.9,2.7,2.8c0.8,0.8,1.7,1.6,2.6,2.2c0.7,0.6,1.5,1.2,2.3,1.7
						c0.7,0.4,1.4,0.8,1.9,1.2c1.1,0.6,1.7,1,1.7,1s-0.5-0.5-1.5-1.2l-1.7-1.4c-0.7-0.5-1.3-1.3-2.1-1.9c-0.8-0.7-1.6-1.5-2.4-2.4
						c-0.8-0.9-1.6-1.8-2.4-2.9c-0.7-1.1-1.6-2.1-2.3-3.3c-0.7-1.1-1.4-2.3-2-3.6l-0.9-1.8c-0.3-0.6-0.5-1.3-0.8-1.9
						c-0.5-1.2-0.9-2.5-1.3-3.7c-0.3-1.2-0.7-2.5-1-3.6c-0.2-1.2-0.5-2.3-0.6-3.3c-0.3-1.7-0.4-3.3-0.5-5
						C-244.6,34.7-244.5,34-244.5,34"/>
					<path id="Fill_585" class="st8" d="M-228,38c0,0.9,0.1,1.8,0.3,2.7c0.1,0.8,0.3,1.9,0.6,3c0.3,1.3,0.6,2.6,1,3.9
						c0.4,1.4,1,2.9,1.6,4.5c0.6,1.6,1.4,3.2,2.2,4.8c0.9,1.7,1.9,3.3,3,4.9c0.6,0.8,1.1,1.6,1.7,2.4l1.9,2.3
						c1.3,1.5,2.7,2.9,4.1,4.3c0.7,0.7,1.4,1.3,2.2,1.9l2.2,1.8c1.5,1.1,3,2,4.5,2.9c1.4,0.8,2.8,1.6,4.3,2.2
						c1.2,0.6,2.5,1.2,3.7,1.6l3,1l2.6,0.8c0,0-0.9-0.4-2.5-1.1l-2.8-1.3c-0.6-0.2-1.2-0.5-1.7-0.9c-0.6-0.3-1.2-0.7-1.9-1
						c-1.4-0.7-2.8-1.5-4.1-2.4l-2.1-1.5c-0.8-0.5-1.5-1-2.2-1.6c-0.7-0.6-1.4-1.2-2.1-1.8c-0.7-0.6-1.4-1.2-2.1-1.9
						c-1.4-1.3-2.7-2.7-4-4.2l-1.9-2.2l-1.7-2.3c-1.2-1.5-2.1-3.1-3-4.7c-0.9-1.6-1.7-3.1-2.4-4.6c-0.7-1.5-1.3-2.9-1.8-4.3
						c-0.9-2.2-1.6-4.4-2.2-6.7C-227.8,39-228,38-228,38"/>
					<path id="Fill_586" class="st10" d="M-37,346.8L-97.2,315c-2.7,12.5-8.5,37.8-15.7,64.3l-0.2,0.8l-0.4,0.7
						c-12.6,21.2-17.9,41.1-22.2,57.1c-3.1,11.7-5.7,21.3-10.3,28.3l35.2,63.6C-110.8,530-44.4,432.3-37,346.8"/>
					<path id="Fill_587" class="st18" d="M-135.7,438c4.3-16,9.7-35.9,22.2-57.1l0.4-0.7l0.2-0.8c7.2-26.5,13-51.8,15.7-64.3
						l60.2,31.8c0,0-56.9-30-56.9-30c-2.7,12.5-8.5,37.8-15.7,64.3l-0.2,0.8l-0.4,0.7c-12.6,21.2-17.9,41.1-22.2,57.1
						c-3.1,11.7-5.7,21.3-10.3,28.3l33.1,59.9c-0.8,1.2-1.3,1.9-1.3,1.9l-35.2-63.6C-141.5,459.4-138.9,449.7-135.7,438"/>
					<path id="Fill_588" class="st13" d="M-122,383.7c0,0,12.9-68.3,38.7-95.7c21.7-23,59.3-11.2,58.2,2.8
						C-26,303-38.4,410-38.4,410s-13.2-3.2-29.1-8C-94.2,393.9-112.4,385-122,383.7"/>
					<path id="Fill_589" class="st19" d="M-73,280c0,0-0.4,0.2-1.2,0.6c-1.1,0.6-2.1,1.3-3,2.1c-0.7,0.5-1.4,1.1-2,1.7
						c-0.7,0.6-1.5,1.3-2.3,2.1L-84,289c-0.8,1-1.7,1.9-2.5,3c-0.9,1-1.7,2.2-2.6,3.4c-0.9,1.2-1.8,2.4-2.6,3.7
						c-0.9,1.3-1.7,2.7-2.6,4c-0.9,1.4-1.6,2.9-2.5,4.4c-1.7,3-3.2,6.2-4.8,9.4c-0.4,0.8-0.8,1.6-1.2,2.4l-1.1,2.5l-2.1,5
						c-0.7,1.7-1.3,3.4-1.9,5.1c-0.6,1.7-1.2,3.4-1.8,5.1c-1.3,3.4-2.2,6.8-3.2,10c-1,3.3-1.9,6.4-2.6,9.5c-0.7,3-1.4,5.9-2.1,8.6
						c-0.7,2.6-1,5.1-1.5,7.3c-0.4,2.2-0.8,4.1-1.1,5.6c-0.6,3.1-0.9,4.9-0.9,4.9s0.4-1.8,1.2-4.8c0.4-1.5,0.8-3.4,1.4-5.6
						c0.6-2.1,1-4.6,1.8-7.2c0.7-2.6,1.5-5.5,2.3-8.5c0.8-3,1.8-6.1,2.8-9.4c1-3.2,2-6.6,3.3-9.9c0.6-1.7,1.2-3.4,1.8-5.1
						c0.6-1.7,1.2-3.4,2-5c0.7-1.7,1.4-3.3,2-5l1-2.5c0.4-0.8,0.8-1.6,1.1-2.4c1.5-3.2,3-6.4,4.6-9.3c0.8-1.5,1.6-3,2.4-4.4
						c0.8-1.4,1.7-2.8,2.5-4.1c0.8-1.4,1.7-2.6,2.5-3.8c0.8-1.2,1.6-2.4,2.5-3.4c0.8-1.1,1.6-2.1,2.4-3c0.8-0.9,1.6-1.8,2.3-2.6
						c0.7-0.8,1.5-1.5,2.2-2.2c0.6-0.6,1.3-1.2,1.9-1.8C-75.8,281.8-74.4,280.8-73,280"/>
					<path id="Fill_590" class="st10" d="M-380.2,424c0,0,13,15.1,25.5,21.9c10.2,5.5,38,27.1,78.9,32.5c26.1,3.8,89.4-3.7,109.5-9
						c17-4.5,30.4-6,40.8-4.4c8.4,1.2,14.4,4.4,18.6,9.5c8,9.9,2.4,37.5-3.7,55.5c-33-3.7-117.1-6.8-153.3-8.1
						c0,0-32.1,0.6-46.9-5.6c-15.8-6.6-17.1-14.6-17.1-14.6s-14.6-5.7-20.9-11.7c-6.2-5.9-10-27.9-18.1-35.6
						c-8.1-7.7-19.1-20.2-19.1-25.6L-380.2,424z"/>
					<path id="Fill_591" class="st10" d="M-296,451.9l-5.5-8.4l-1-8.9l-3.8-3.3c0,0-1.9-7.1-3.7-10.1s-37.5-14.2-43.3-18.2
						c0,0-15.3,11.3-18.4,12.5c0,0-10.2,22.3-11.4,24.2l2.7,2.8c0,0,7.4-2.1,10.5-6.6c1.9-2.7,3.4-5.7,4.6-8.8
						c0,0,10.8-4.9,13.7-7.5l7.8,4.8l-8.9,2.6c0,0-13.1,17.4-14.4,19.4l-5.4,25.4l6.2,1.1l8-16.2l9.2-11l-4.7,8.6l-2,21.1l3.5,1.6
						l6.2-3.8l-1.2,4.3l4.2,2.7c0,0,8.8-5.3,11.3-8.9c0,0-3.5,24.7,3.6,31.8c7.1,7.1,19,15.2,28.8,8.4
						C-285.3,501.7-295.7,455.4-296,451.9"/>
					<path id="Fill_592" class="st10" d="M-365,428.3c-1.2,3.1-2.8,6.1-4.7,8.8c-3.1,4.5-10.4,6.9-10.4,6.9l-3-3.1
						c1.1-1.7,9.9-20.9,11.3-23.9C-367.5,420.5-365,428.3-365,428.3"/>
					<path id="Fill_593" class="st10" d="M-349,445.8l-9,11.2c0,0-6.6,14.7-7.5,16.2c-1.7,3.2-6.5-0.8-6.5-0.8l5.3-26
						c1.2-1.9,11.7-16.5,13.8-19.4c7.4-0.9,10.7,8.9,10.7,8.9c8.1,1.1,11,13.3,11,13.3c7.8,3.1,7.3,13.8,7.3,13.8l-7.9,8.9
						c-2.4,3.7-11.1,9.1-11.1,9.1l-4.1-2.7l1.2-4.4l-6.1,3.9l-3.5-1.6l1.9-21.6L-349,445.8z"/>
					<path id="Fill_594" class="st18" d="M-322,420c0,0-1.5,0-3.7,0.3c-2.2,0.3-5.1,0.8-8,1.4c-2.9,0.6-5.7,1.4-7.8,2.1
						c-2.1,0.7-3.5,1.2-3.5,1.2s1.5,0,3.7-0.3c2.2-0.3,5.1-0.8,8-1.4c2.9-0.6,5.7-1.4,7.8-2.1S-322,420-322,420"/>
					<path id="Fill_595" class="st18" d="M-318,429c-2.1,0.4-4.1,0.9-6.1,1.4c-2,0.5-4,1-6,1.6c-2,0.5-4,1.1-6,1.7
						c-2,0.6-4,1.1-5.9,1.7l-0.1,0c-0.2,0-0.3,0.2-0.4,0.3c-1.1,1.8-2.2,3.7-3.3,5.6c-1.1,1.9-2.1,3.8-3.1,5.8
						c1.3-1.7,2.6-3.4,3.9-5.1c1.3-1.7,2.5-3.5,3.7-5.3l-0.5,0.3c1-0.2,2.1-0.5,3.1-0.7s2.1-0.5,3.1-0.8c2-0.6,4-1.2,6-1.9
						c2-0.6,4-1.4,5.9-2.1C-321.9,430.7-319.9,429.9-318,429"/>
					<path id="Fill_596" class="st18" d="M-314,443l-8.4,3.3c-0.7,0.3-1.4,0.5-2.1,0.8s-1.4,0.5-2.1,0.7l-2.1,0.7l-2.1,0.5
						c-0.2,0-0.4,0.2-0.5,0.3c-2,2.9-4,5.8-6,8.7c-2,2.9-3.9,5.9-5.8,8.9c-0.5,1.4-1,2.7-1.5,4c-0.4,1.3-0.9,2.6-1.3,4
						c0.7-1.2,1.3-2.5,1.9-3.7c0.6-1.2,1.2-2.5,1.8-3.8l0,0.1c2.1-2.8,4.2-5.7,6.3-8.5c2-2.9,4-5.8,6-8.7l-0.5,0.3l2.2-0.7l2.2-0.8
						c0.7-0.3,1.4-0.6,2.1-0.9c0.7-0.3,1.4-0.6,2.1-1c1.4-0.7,2.7-1.3,4.1-2.1C-316.6,444.5-315.3,443.8-314,443"/>
					<path id="Fill_597" class="st18" d="M-306,458c-3.1,0.4-6.1,0.9-9.2,1.5s-6,1.4-9,2.2c-0.2,0-0.3,0.1-0.4,0.2
						c-1.3,1.5-2.6,2.9-3.8,4.4c-0.6,0.8-1.2,1.5-1.8,2.3c-0.6,0.8-1.2,1.5-1.8,2.4c0.8-0.6,1.5-1.3,2.2-1.9s1.5-1.3,2.2-2
						c1.4-1.3,2.8-2.7,4.2-4.1l-0.4,0.2c3-0.7,6-1.4,9-2.3C-311.8,460.1-308.9,459.1-306,458"/>
					<path id="Fill_598" class="st18" d="M-310,462.8c0,0-0.7-0.1-1.7-0.2c-0.2,0-0.5-0.1-0.8-0.1c-0.3-0.1-0.6-0.1-0.8-0.2
						c-0.3-0.1-0.6-0.2-0.9-0.2c-0.3-0.1-0.6-0.1-0.9-0.3l-0.9-0.2c-0.3-0.1-0.6-0.2-0.8-0.3c-0.3-0.1-0.6-0.2-0.8-0.3
						c-0.2-0.1-0.5-0.2-0.7-0.3c-0.5-0.3-1.1-0.5-1.6-0.6c0.3,0.5,0.7,1.1,1.1,1.5c0.2,0.2,0.4,0.5,0.6,0.6c0.3,0.2,0.5,0.4,0.8,0.6
						c0.3,0.2,0.6,0.4,0.9,0.6c0.3,0.1,0.7,0.2,1,0.4c0.7,0.2,1.4,0.3,2.1,0.3c0.3,0,0.7,0,1-0.1c0.3,0,0.6-0.1,0.9-0.2
						C-311,463.5-310.5,463.2-310,462.8"/>
					<path id="Fill_599" class="st18" d="M-315,472l-1.6-1.2c-0.5-0.4-1-0.8-1.5-1.3c-0.6-0.5-1.1-1.1-1.6-1.6
						c-0.3-0.3-0.5-0.6-0.7-0.9c-0.2-0.3-0.4-0.6-0.6-1c-0.4-0.6-0.7-1.2-1-1.9c-0.2-0.5-0.4-1-0.6-1.5c-0.1-0.4-0.2-0.6-0.2-0.6
						s0,0.2-0.1,0.6c-0.1,0.6,0,1.2,0.1,1.7c0,0.4,0.1,0.8,0.2,1.1c0.1,0.4,0.2,0.8,0.4,1.2c0.4,0.8,0.8,1.6,1.4,2.3
						c0.6,0.7,1.2,1.2,1.9,1.7c0.6,0.4,1.2,0.7,1.9,0.9C-316.3,471.9-315.7,472-315,472"/>
					<path id="Fill_600" class="st18" d="M-347,478c-0.3,1.8,2.6,4,3.8,2.4s2.9-5.2,4.1-7.3c1.2-2.1-5.1-5.4-5.5-3.7
						S-346.7,476.3-347,478"/>
					<path id="Fill_601" class="st18" d="M-350.1,475.6c1.3-2.3,2.4-4.8,3.1-7.4c0.8-2.7-6.4-5.2-6.4-5.2s-1.4,11.4-1.5,12.5
						C-355.1,476.5-351.7,478.3-350.1,475.6"/>
					<path id="Fill_602" class="st18" d="M-369.4,472c0,0,1.7-3.5,3.2-6.2s-4.7-3.8-4.7-3.8l-2.1,9.4L-369.4,472z"/>
					<path id="Fill_603" class="st18" d="M-379.6,440.5c1.7-2.7,3.2-5.4,4.6-8.3l-3.3-4.3c0,0-3.9,8.5-4.6,10.1
						C-383.6,439.7-380.5,442-379.6,440.5"/>
					<path id="Fill_604" class="st12" d="M-38,409c0,0-13.3-3.2-29.3-7.9c-26.8-7.9-45.1-16.7-54.7-18c0,0,1.2-6.4,3.7-16.1
						c14.3,6,41.9,16.1,82.3,25.4C-37.2,402.4-38,409-38,409"/>
					<path id="Fill_605" class="st19" d="M-117,358c0,0,0,0.2,0.1,0.6c0.1,0.5,0.3,1,0.5,1.5c0.3,0.8,0.7,1.5,1.1,2.3
						c0.5,1,1.1,1.9,1.8,2.7c0.8,1,1.6,2,2.5,3c1,1,2.1,2,3.2,2.9c1.2,1,2.4,1.9,3.7,2.7c0.7,0.4,1.3,0.9,2,1.3l2.1,1.1
						c1.4,0.7,2.8,1.4,4.3,2c0.7,0.3,1.4,0.6,2.1,0.9l2.1,0.7c1.3,0.5,2.7,0.9,4.1,1.2c1.3,0.3,2.6,0.6,3.7,0.9
						c1,0.3,2.1,0.5,3.2,0.6c0.9,0.1,1.8,0.3,2.5,0.4l2.1,0.3l-2.1-0.6l-2.4-0.7c-0.9-0.3-2-0.5-3.1-0.9l-3.6-1.2
						c-1.3-0.4-2.6-1-3.9-1.4l-2.1-0.8l-2.1-0.9c-1.4-0.6-2.8-1.2-4.2-2l-2.1-1.1c-0.7-0.4-1.3-0.8-2-1.2c-1.3-0.8-2.5-1.6-3.7-2.5
						c-1.2-0.9-2.2-1.8-3.2-2.6c-0.9-0.8-1.8-1.7-2.6-2.7c-0.8-0.9-1.4-1.7-2-2.5c-0.5-0.7-0.9-1.4-1.3-2.1
						C-116.4,359.3-116.8,358.7-117,358"/>
					<path id="Fill_606" class="st18" d="M-301,444c-0.1-3-0.4-6-0.6-9.1c0-0.1,0-0.2-0.1-0.2l-3.8-3.4l0.2,0.2
						c-1.2-3.4-2.4-6.9-3.6-10.3c-0.1-0.2-0.2-0.4-0.4-0.4c-3.7-1.6-7.4-3.2-11-4.8l-5.5-2.3c-1.8-0.8-3.7-1.5-5.6-2.2
						c-3.7-1.5-7.5-2.9-11.2-4.3c-3.7-1.4-7.5-2.8-11.3-4.1c3.6,1.7,7.3,3.4,10.9,5c3.7,1.6,7.3,3.2,11,4.8l11,4.7
						c3.7,1.6,7.4,3.1,11.1,4.6l-0.4-0.4c1.3,3.4,2.7,6.8,4,10.1c0,0.1,0.1,0.2,0.2,0.2l3.9,3.2l-0.1-0.3
						C-302,438-301.5,441-301,444"/>
					<path id="Fill_607" class="st18" d="M-344,328c0,0-1.2,1.1-3.4,3c-2.1,1.9-5.3,4.5-9.1,7.6c-1.9,1.5-4,3.2-6.2,4.9
						c-2.2,1.7-4.6,3.4-7,5.2c-2.5,1.8-5,3.6-7.7,5.4c-2.7,1.7-5.3,3.6-8.1,5.3c-2.7,1.7-5.5,3.5-8.3,5l-4.1,2.4l-4.1,2.2l-4,2.1
						l-3.9,1.9c-2.5,1.2-4.9,2.4-7.1,3.3l-6.1,2.6c-1.9,0.7-3.5,1.3-4.8,1.8l-4.2,1.6l4.3-1.2l4.9-1.5l6.2-2.3
						c2.3-0.8,4.7-1.9,7.3-3c1.3-0.6,2.6-1.1,3.9-1.7c1.3-0.7,2.7-1.3,4-2l4.1-2.1l4.2-2.3c2.8-1.5,5.6-3.2,8.4-5
						c2.8-1.7,5.4-3.6,8.1-5.4c2.6-1.8,5.2-3.7,7.7-5.5c2.4-1.9,4.8-3.6,6.9-5.5c2.2-1.8,4.2-3.5,6-5.1c3.7-3.2,6.6-6.1,8.7-8.1
						C-345.1,329.2-344,328-344,328"/>
					<path id="Fill_608" class="st18" d="M-212,205c0,0,0.2,2.4,0.5,6.1c0.4,3.6,0.9,8.5,1.4,13.4c0.2,1.2,0.3,2.4,0.3,3.6
						c0.1,1.2,0.2,2.4,0.3,3.5c0.1,1.1,0.1,2.2,0.2,3.3c0.1,1,0.1,2,0.2,3c0.1,0.9,0,1.7,0,2.5c0,0.7,0,1.4,0,1.9c0,1.1,0,1.7,0,1.7
						s0.1-0.6,0.3-1.7c0.1-0.5,0.2-1.2,0.3-1.9c0.2-0.8,0.3-1.7,0.3-2.5c0-0.9,0.1-1.9,0.1-3c0-1.1,0.1-2.2,0-3.3
						c-0.1-2.3-0.2-4.8-0.4-7.2c-0.1-1.2-0.3-2.4-0.4-3.7c-0.1-1.2-0.3-2.4-0.5-3.5c-0.3-2.3-0.7-4.4-1.1-6.2
						c-0.3-1.8-0.8-3.3-1-4.3C-211.8,205.6-212,205-212,205"/>
					<path id="Fill_609" class="st8" d="M-646.8,513H-390c7.2,0,13-5.8,13-12.9c0-1.5-0.3-3-0.8-4.5l-78.9-216.9
						c-3.5-9.4-12.4-15.7-22.5-15.7H-736c-7.2,0-13,5.8-13,12.9c0,1.5,0.3,3,0.8,4.5l78.9,216.9C-665.8,506.7-656.8,513-646.8,513"
						/>
					<path id="Fill_610" class="st7" d="M-734,262h256.2c10-0.1,18.9,6.1,22.4,15.4l8.4,22.6h-291.5l-7.8-21
						c-2.4-6.6,1.1-13.9,7.7-16.3C-737,262.2-735.5,262-734,262"/>
					<path id="Fill_611" class="st7" d="M-443,315h-292l-2-6h292L-443,315z"/>
					<path id="Fill_612" class="st7" d="M-381.2,497.3L-459.9,281c-3.5-9.4-12.4-15.7-22.4-15.6h-256.3c-2.6,0-5.2,0.8-7.3,2.2
						c2.4-3.5,6.4-5.6,10.7-5.6H-479c10,0,19,6.2,22.4,15.6l78.8,216.3c2,5.6,0,11.8-4.9,15.1C-380.3,505.6-379.7,501.2-381.2,497.3
						"/>
					<path id="Fill_613" class="st14" d="M23,177h48v-1H23V177z"/>
					<path id="Fill_614" class="st14" d="M9,177h7v-1H9V177z"/>
					<path id="Fill_615" class="st7" d="M-662,525h153V367h-153V525z"/>
					<path id="Fill_616" class="st14" d="M193,341h1v-13h-1V341z"/>
					<path id="Fill_617" class="st4" d="M-541.5,151c-6.4,0-11.5-5.1-11.5-11.5s5.1-11.5,11.5-11.5s11.5,5.1,11.5,11.5
						C-530,145.8-535.2,151-541.5,151z M-541.5,131.6c-4.3,0-7.9,3.5-7.9,7.9s3.5,7.9,7.9,7.9c4.3,0,7.9-3.5,7.9-7.9
						C-533.6,135.2-537.2,131.6-541.5,131.6L-541.5,131.6z"/>
					<path id="Fill_618" class="st4" d="M-624.5,188c-7.5,0-13.5-6-13.5-13.5s6-13.5,13.5-13.5s13.5,6,13.5,13.5
						C-611,182-617,188-624.5,188z M-624.5,164.5c-5.5,0-10,4.5-10,10s4.5,10,10,10s10-4.5,10-10c0,0,0,0,0,0
						C-614.5,169-619,164.5-624.5,164.5z"/>
					<path id="Fill_619" class="st4" d="M-584,113c-5,0-9-4-9-9s4-9,9-9s9,4,9,9C-575,109-579,113-584,113z M-584,98.6
						c-3,0-5.4,2.4-5.4,5.4s2.4,5.4,5.4,5.4s5.4-2.4,5.4-5.4l0,0C-578.6,101-581,98.6-584,98.6z"/>
					<g id="Group_622" transform="translate(147 245)">
						<path id="Fill_620" class="st4" d="M-846.7-98c0.5,0,1-0.2,1.3-0.5l24.7-23.4c0.7-0.6,0.7-1.7,0.1-2.4c0,0-0.1-0.1-0.1-0.1
							c-0.7-0.7-1.9-0.7-2.6,0L-848-101c-0.7,0.6-0.7,1.7-0.1,2.4c0,0,0.1,0.1,0.1,0.1C-847.6-98.2-847.2-98-846.7-98"/>
						<path id="Fill_621" class="st4" d="M-822-98c0.5,0,1-0.2,1.3-0.5c0.7-0.6,0.7-1.7,0.1-2.4c0,0-0.1-0.1-0.1-0.1l-24.7-23.4
							c-0.7-0.7-1.9-0.7-2.6,0c-0.7,0.6-0.7,1.7-0.1,2.4c0,0,0.1,0.1,0.1,0.1l24.7,23.4C-822.9-98.2-822.5-98-822-98"/>
					</g>
					<path id="Fill_624" class="st13" d="M-721,525h846.2c9.3,0,16.8,8,16.8,17.8v0.2h-863V525z"/>
					<path id="Fill_625" class="st12" d="M-832.2,525h681.4c9.3,0,16.8,8,16.8,17.8v0.2h-715v-0.2C-849,533-841.5,525-832.2,525"/>
					<path id="Fill_626" class="st20" d="M-4.8,525h52.6L57,422h-71L-4.8,525z"/>
					<path id="Fill_627" class="st21" d="M-20,430h83l-1.2-11h-80.5L-20,430z"/>
					<path id="Fill_628" class="st21" d="M-10.5,505h62.9l4.5-45h-72L-10.5,505z"/>
					<path id="Fill_629" class="st20" d="M-11,419h65l-1.7-10H-9.3L-11,419z"/>
					<path id="Fill_630" class="st14" d="M-15,459h72v-1h-72V459z"/>
				</g>
			</g>
		</g>
	</g>
</g>
</svg>
