<svg xmlns="http://www.w3.org/2000/svg" width="639" height="508" viewBox="0 0 639 508">
  <path id="Base" d="M597.622,401.78c-17.489,10.988-41.507,19.436-73.888,23.782-13.851,1.865-59.3,4.01-87.994,28.381-17.522,14.882-39.527,40.4-102.517,50.681C211.065,524.534,49.114,454.175,21.805,351.367c-6.763-25.45-9.45-44.166-10.041-59.081-.625-15.763,1.1-27.259,2.849-37.909.8-4.892,1.61-9.608,2.2-14.475,1.83-15.056,1.587-31.57-7.366-59.326a218.085,218.085,0,0,1-6-22.356c-5.918-28.036-3.868-50.055,3.463-69.153C11.649,76.713,18.6,65.6,27.04,54.867c.845-1.078,1.7-2.144,2.548-3.187C82.2-12.977,135.44-10.426,200.619,23.575c40.059,20.884,70.7,27.745,113.183,11.381,43.29-16.665,91.468-22.134,128.98-9.143A99.42,99.42,0,0,1,466.5,37.623c19.549,13.328,33.748,34.245,39.029,64.413C526.837,223.863,598.8,200.949,630.57,284.972c.22.591.44,1.183.659,1.785a131.124,131.124,0,0,1,6.162,23.1c5.4,31.811-1.563,67.889-39.723,91.89C597.656,401.758,597.633,401.77,597.622,401.78Z" transform="translate(0 0)" fill="#1941df"/>
</svg>
