<?xml version="1.0" encoding="utf-8"?>
<!-- Generator: Adobe Illustrator 24.1.0, SVG Export Plug-In . SVG Version: 6.00 Build 0)  -->
<svg version="1.1" id="Layer_1" xmlns="http://www.w3.org/2000/svg" xmlns:xlink="http://www.w3.org/1999/xlink" x="0px" y="0px" viewBox="0 0 639 508" style="enable-background:new 0 0 639 508;" xml:space="preserve">
<style type="text/css">
	.st0{opacity:0.5;fill:#67AD5B;}
</style>
<path id="Base" class="st0" d="M597.6,401.8c-17.5,11-41.5,19.4-73.9,23.8c-13.9,1.9-59.3,4-88,28.4
	c-17.5,14.9-39.5,40.4-102.5,50.7C211.1,524.5,49.1,454.2,21.8,351.4c-6.8-25.5-9.4-44.2-10-59.1c-0.6-15.8,1.1-27.3,2.8-37.9
	c0.8-4.9,1.6-9.6,2.2-14.5c1.8-15.1,1.6-31.6-7.4-59.3c-2.4-7.3-4.4-14.8-6-22.4c-5.9-28-3.9-50.1,3.5-69.2
	C11.6,76.7,18.6,65.6,27,54.9c0.8-1.1,1.7-2.1,2.5-3.2c52.6-64.7,105.9-62.1,171-28.1c40.1,20.9,70.7,27.7,113.2,11.4
	c43.3-16.7,91.5-22.1,129-9.1c8.4,2.9,16.4,6.8,23.7,11.8c19.5,13.3,33.7,34.2,39,64.4c21.3,121.8,93.3,98.9,125,182.9
	c0.2,0.6,0.4,1.2,0.7,1.8c2.8,7.5,4.8,15.2,6.2,23.1C642.8,341.7,635.8,377.7,597.6,401.8C597.7,401.8,597.6,401.8,597.6,401.8z"/>
</svg>
