<?xml version="1.0" encoding="utf-8"?>
<!-- Generator: Adobe Illustrator 27.6.1, SVG Export Plug-In . SVG Version: 6.00 Build 0)  -->
<svg version="1.1" xmlns="http://www.w3.org/2000/svg" xmlns:xlink="http://www.w3.org/1999/xlink" x="0px" y="0px"
	 viewBox="0 0 197 182.349" enable-background="new 0 0 197 182.349" xml:space="preserve">
<g id="Color_5_00000075124967614384673340000013788207644945335693_">
	<g id="Layer_262_copy_2">
		<g>
			<path fill="#E5E5E5" d="M50.381,74.217c0-3.531-0.864-6.859-2.39-9.787v19.575C49.517,81.076,50.381,77.748,50.381,74.217z"/>
			<path fill="#E5E5E5" d="M29.174,53.01c-11.712,0-21.207,9.495-21.207,21.207c0,11.712,9.495,21.207,21.207,21.207
				c6.615,0,12.521-3.029,16.41-7.775V60.784C41.695,56.039,35.788,53.01,29.174,53.01z"/>
			<path fill="#E5E5E5" d="M47.991,64.429c-0.677-1.3-1.485-2.521-2.406-3.645V87.65c0.921-1.124,1.729-2.345,2.406-3.645V64.429z"
				/>
			<path fill="#E5E5E5" d="M74.403,151.901c0,9.848,7.983,17.832,17.832,17.832s17.832-7.983,17.832-17.832
				c0-6.354-3.324-11.93-8.326-15.088H82.73C77.727,139.971,74.403,145.547,74.403,151.901z"/>
			<path fill="#E5E5E5" d="M82.73,136.813h19.011c-2.752-1.737-6.011-2.743-9.505-2.743S85.481,135.075,82.73,136.813z"/>
			<path fill="#E5E5E5" d="M46.792,134.168c-0.007-0.01-0.014-0.02-0.022-0.03c-0.058-0.082-0.115-0.165-0.169-0.249
				c-0.01-0.015-0.02-0.03-0.029-0.046c-0.052-0.082-0.102-0.165-0.15-0.25c-0.009-0.016-0.018-0.032-0.027-0.048
				c-0.05-0.09-0.098-0.18-0.144-0.273c-0.005-0.01-0.011-0.02-0.016-0.03c-0.102-0.208-0.193-0.422-0.273-0.642
				c-0.005-0.014-0.009-0.028-0.014-0.042c-0.032-0.092-0.063-0.184-0.091-0.278c-0.01-0.033-0.019-0.065-0.028-0.098
				c-0.022-0.076-0.042-0.153-0.061-0.23c-0.01-0.04-0.019-0.079-0.027-0.119c-0.016-0.072-0.031-0.145-0.045-0.217
				c-0.008-0.043-0.016-0.085-0.023-0.128c-0.012-0.073-0.022-0.146-0.032-0.219c-0.006-0.043-0.012-0.085-0.016-0.128
				c-0.009-0.079-0.015-0.158-0.021-0.238c-0.003-0.037-0.006-0.075-0.009-0.112c-0.006-0.117-0.01-0.235-0.01-0.354v-11.384
				c-4.831-4.163-11.121-6.681-17.998-6.681C12.351,112.371,0,124.722,0,139.957c0,15.235,12.351,27.586,27.586,27.586
				s27.586-12.351,27.586-27.586c0-1.063-0.062-2.112-0.179-3.144h-3.032C49.833,136.813,47.95,135.769,46.792,134.168z"/>
			<path fill="#E5E5E5" d="M45.672,131.488c-0.012-0.073-0.022-0.146-0.032-0.219C45.65,131.342,45.66,131.415,45.672,131.488z"/>
			<path fill="#E5E5E5" d="M45.828,132.183c-0.022-0.076-0.042-0.153-0.061-0.23C45.786,132.03,45.807,132.106,45.828,132.183z"/>
			<path fill="#E5E5E5" d="M45.74,131.834c-0.016-0.072-0.031-0.145-0.045-0.217C45.709,131.689,45.723,131.761,45.74,131.834z"/>
			<path fill="#E5E5E5" d="M46.394,133.545c-0.05-0.089-0.098-0.18-0.144-0.273C46.296,133.365,46.344,133.456,46.394,133.545z"/>
			<path fill="#E5E5E5" d="M46.77,134.137c-0.058-0.082-0.115-0.165-0.169-0.249C46.655,133.973,46.712,134.056,46.77,134.137z"/>
			<path fill="#E5E5E5" d="M46.571,133.842c-0.052-0.082-0.102-0.165-0.15-0.25C46.469,133.677,46.519,133.76,46.571,133.842z"/>
			<path fill="#E5E5E5" d="M46.234,133.242c-0.102-0.208-0.193-0.422-0.273-0.642C46.041,132.82,46.132,133.034,46.234,133.242z"/>
			<path fill="#E5E5E5" d="M45.947,132.558c-0.032-0.092-0.063-0.184-0.091-0.278C45.884,132.374,45.915,132.467,45.947,132.558z"/>
			<path fill="#E5E5E5" d="M47.991,135.424c-0.454-0.362-0.858-0.785-1.199-1.256c1.158,1.602,3.041,2.645,5.169,2.645h3.032
				c-0.67-5.907-3.205-11.248-7.002-15.42V135.424z"/>
			<path fill="#E5E5E5" d="M45.594,130.79c-0.006-0.117-0.01-0.235-0.01-0.354C45.584,130.555,45.588,130.673,45.594,130.79z"/>
			<path fill="#E5E5E5" d="M45.624,131.141c-0.009-0.079-0.015-0.158-0.021-0.238C45.609,130.982,45.615,131.062,45.624,131.141z"/>
			<path fill="#E5E5E5" d="M46.421,133.593c-0.009-0.016-0.018-0.032-0.027-0.048C46.403,133.561,46.412,133.577,46.421,133.593z"/>
			<path fill="#E5E5E5" d="M46.25,133.273c-0.005-0.01-0.011-0.02-0.016-0.03C46.239,133.253,46.245,133.262,46.25,133.273z"/>
			<path fill="#E5E5E5" d="M46.601,133.888c-0.01-0.015-0.02-0.03-0.029-0.046C46.581,133.858,46.591,133.873,46.601,133.888z"/>
			<path fill="#E5E5E5" d="M46.792,134.168c-0.007-0.01-0.014-0.02-0.022-0.03C46.777,134.147,46.784,134.158,46.792,134.168z"/>
			<path fill="#E5E5E5" d="M45.767,131.953c-0.01-0.04-0.019-0.079-0.027-0.119C45.748,131.873,45.757,131.913,45.767,131.953z"/>
			<path fill="#E5E5E5" d="M45.695,131.616c-0.008-0.043-0.016-0.085-0.023-0.128C45.679,131.531,45.687,131.573,45.695,131.616z"/>
			<path fill="#E5E5E5" d="M45.856,132.281c-0.01-0.033-0.019-0.065-0.028-0.098C45.838,132.215,45.846,132.248,45.856,132.281z"/>
			<path fill="#E5E5E5" d="M45.64,131.269c-0.006-0.043-0.012-0.085-0.016-0.128C45.628,131.184,45.634,131.226,45.64,131.269z"/>
			<path fill="#E5E5E5" d="M45.962,132.6c-0.005-0.014-0.009-0.028-0.014-0.042C45.952,132.572,45.956,132.587,45.962,132.6z"/>
			<path fill="#E5E5E5" d="M45.603,130.902c-0.003-0.037-0.006-0.075-0.009-0.112C45.596,130.828,45.6,130.865,45.603,130.902z"/>
			<path fill="#E5E5E5" d="M45.594,130.79c0.002,0.038,0.006,0.075,0.009,0.112c0.006,0.08,0.012,0.159,0.021,0.238
				c0.005,0.043,0.011,0.086,0.016,0.128c0.01,0.073,0.02,0.146,0.032,0.219c0.007,0.043,0.015,0.086,0.023,0.128
				c0.014,0.073,0.029,0.145,0.045,0.217c0.009,0.04,0.018,0.08,0.027,0.119c0.019,0.077,0.04,0.154,0.061,0.23
				c0.009,0.033,0.018,0.066,0.028,0.098c0.028,0.094,0.059,0.186,0.091,0.278c0.005,0.014,0.009,0.028,0.014,0.042
				c0.079,0.22,0.171,0.434,0.273,0.642c0.005,0.01,0.01,0.02,0.016,0.03c0.046,0.092,0.094,0.183,0.144,0.273
				c0.009,0.016,0.018,0.032,0.027,0.048c0.048,0.084,0.098,0.168,0.15,0.25c0.01,0.015,0.019,0.031,0.029,0.046
				c0.055,0.084,0.111,0.168,0.169,0.249c0.007,0.01,0.014,0.02,0.022,0.03c0.341,0.471,0.745,0.894,1.199,1.256v-14.031
				c-0.754-0.828-1.558-1.61-2.406-2.341v11.384C45.584,130.555,45.588,130.673,45.594,130.79z"/>
			<path fill="#E5E5E5" d="M116.478,60.118h-49.3c-2.251,0-4.076,1.825-4.076,4.076l0,0c0,2.251,1.825,4.076,4.076,4.076h49.3
				c2.251,0,4.076-1.825,4.076-4.076l0,0C120.554,61.943,118.729,60.118,116.478,60.118z"/>
			<path fill="#E5E5E5" d="M116.478,74.874h-49.3c-2.251,0-4.076,1.825-4.076,4.076v0c0,2.251,1.825,4.076,4.076,4.076h49.3
				c2.251,0,4.076-1.825,4.076-4.076v0C120.554,76.7,118.729,74.874,116.478,74.874z"/>
			<path fill="#E5E5E5" d="M116.478,89.631h-49.3c-2.251,0-4.076,1.825-4.076,4.076v0c0,2.251,1.825,4.076,4.076,4.076h49.3
				c2.251,0,4.076-1.825,4.076-4.076v0C120.554,91.456,118.729,89.631,116.478,89.631z"/>
			<path fill="#E5E5E5" d="M116.478,103.531h-49.3c-2.251,0-4.076,1.825-4.076,4.076v11.735c0,2.251,1.825,4.076,4.076,4.076h49.3
				c2.251,0,4.076-1.825,4.076-4.076v-11.735C120.554,105.356,118.729,103.531,116.478,103.531z"/>
			<circle fill="#E5E5E5" cx="92.508" cy="33.529" r="15.852"/>
		</g>
	</g>
</g>
<g id="Color_4">
	<g id="Layer_284">
		<g>
			<g>
				<path fill="#E89F97" d="M159.898,42.184c4.968-4.051,12.464-4.67,18.03-1.49c1.046,0.598,2.08,1.386,2.47,2.526
					c0.387,1.129,0.046,2.421-0.675,3.371s-1.778,1.597-2.88,2.055c-3.08,1.278-6.66,1.185-9.756-0.055s-5.704-3.574-7.469-6.404"/>
			</g>
			<g>
				<rect x="165.704" y="32.341" fill="#E89F97" width="9.092" height="8.742"/>
			</g>
			<g>
				<path fill="#E89F97" d="M146.858,56.93c-1.438,1.468-2.7,2.93-3.653,4.384l-5.882-6.958v12.182
					c1.389,1.787,2.856,3.504,4.396,5.156c1.343,1.441,3.522,1.728,5.177,0.66c3.367-2.173,5.923-5.062,7.877-8.483L146.858,56.93z"
					/>
				<path fill="#E89F97" d="M133.241,49.527l1.91-6.108c0.097-0.314-0.018-0.654-0.285-0.845c-0.347-0.248-0.83-0.163-1.071,0.188
					l-0.832,1.21l-1.295-5.494c-0.075-0.319-0.375-0.533-0.701-0.502c-0.349,0.034-0.61,0.337-0.591,0.688l0.197,3.651l-1.978-4.858
					c-0.123-0.303-0.459-0.46-0.771-0.36v0c-0.301,0.097-0.482,0.403-0.423,0.713l1.014,5.314l-1.833-3.633
					c-0.18-0.357-0.615-0.501-0.972-0.322c-0.333,0.167-0.486,0.559-0.354,0.907l1.424,3.742l-2.068-2.668
					c-0.183-0.236-0.514-0.295-0.767-0.137c-0.267,0.167-0.352,0.516-0.193,0.787l1.525,2.596l2.815,6.119c0.002,0,0.005,0,0.007,0
					c2.448,5.936,5.603,11.235,9.324,16.024V54.357L133.241,49.527z"/>
			</g>
			<g>
				<polygon fill="#E89F97" points="193.579,62.895 192.503,97.2 187.243,96.955 186.167,64.61 				"/>
			</g>
			<g>
				<path fill="#E89F97" d="M187.187,94.924l0.071,2.562l0.035,0.527c0.538,0.704,2.083,2.691,0.582,4.58l-0.957,1.258
					c-0.067,0.088-0.107,0.196-0.113,0.307l0,0c-0.028,0.49,0.535,0.772,0.895,0.447l1.174-1.059l-2.024,2.842
					c-0.085,0.12-0.138,0.26-0.154,0.408v0c-0.081,0.761,0.788,1.233,1.357,0.737l2.656-2.313c1.123-0.979,1.776-2.41,1.788-3.921
					l0.049-6.03L187.187,94.924z"/>
			</g>
			<g>
				<path fill="#E89F97" d="M176.222,26.803c0.22-0.481,0.557-0.856,0.934-1.087c-0.01-5.324-3.294-9.636-7.343-9.636
					c-4.016,0-7.278,4.241-7.342,9.504c0.477,0.202,0.919,0.633,1.187,1.22c0.478,1.046,0.221,2.188-0.574,2.551
					c-0.024,0.011-0.049,0.019-0.074,0.028c0.552,1.783,1.497,3.3,2.694,4.365v-1.407h9.092v0.495
					c0.806-0.98,1.445-2.194,1.853-3.56C175.971,28.844,175.775,27.782,176.222,26.803z"/>
				<path fill="#E89F97" d="M165.704,32.341v1.407c1.173,1.043,2.587,1.653,4.109,1.653c1.923,0,3.674-0.973,4.983-2.565v-0.495
					H165.704z"/>
				<path fill="#E89F97" d="M178.527,25.568c-0.429-0.196-0.927-0.123-1.371,0.149c0,0.008,0,0.016,0,0.024
					c0,1.248-0.18,2.44-0.507,3.535c0.047,0.03,0.096,0.057,0.147,0.08c0.795,0.363,1.827-0.19,2.305-1.236
					C179.579,27.073,179.322,25.931,178.527,25.568z"/>
				<path fill="#E89F97" d="M177.156,25.716c-0.377,0.231-0.714,0.606-0.934,1.087c-0.447,0.978-0.251,2.041,0.427,2.471
					c0.327-1.095,0.507-2.287,0.507-3.535C177.156,25.732,177.156,25.724,177.156,25.716z"/>
				<path fill="#E89F97" d="M162.471,25.584c-0.374-0.158-0.768-0.176-1.117-0.016c-0.795,0.363-1.052,1.506-0.574,2.551
					c0.463,1.014,1.447,1.562,2.231,1.264c-0.348-1.124-0.541-2.354-0.541-3.643C162.469,25.688,162.47,25.636,162.471,25.584z"/>
				<path fill="#E89F97" d="M163.658,26.803c-0.268-0.587-0.71-1.018-1.187-1.22c-0.001,0.052-0.002,0.104-0.002,0.157
					c0,1.289,0.192,2.518,0.541,3.643c0.025-0.009,0.05-0.017,0.074-0.028C163.879,28.992,164.136,27.849,163.658,26.803z"/>
			</g>
		</g>
	</g>
</g>
<g id="Color_3">
	<g>
		<g>
			<path fill="#67AD5B" d="M102.128,159.738H82.986c-0.575,0-1.041-0.466-1.041-1.041v-11.899c0-0.575,0.466-1.041,1.041-1.041
				h19.142c0.575,0,1.041,0.466,1.041,1.041v11.899C103.169,159.272,102.703,159.738,102.128,159.738z"/>
		</g>
		<circle fill="#67AD5B" cx="52.132" cy="5.192" r="1.538"/>
		<circle fill="#67AD5B" cx="57.584" cy="5.192" r="1.538"/>
		<circle fill="#67AD5B" cx="63.037" cy="5.192" r="1.538"/>
		<g>
			<circle fill="#67AD5B" cx="29.174" cy="74.217" r="3.015"/>
		</g>
		<g>
			<circle fill="#67AD5B" cx="38.116" cy="74.217" r="3.015"/>
		</g>
		<g>
			<circle fill="#67AD5B" cx="20.231" cy="74.217" r="3.015"/>
		</g>
		<g>
			<path fill="#67AD5B" d="M37.576,143.396c-0.952-0.107-1.897-0.304-2.81-0.583c-1.143-0.35-2.374-0.046-3.212,0.792l-1.745,1.745
				c-3.341-1.828-6.128-4.615-7.957-7.957l1.745-1.745c0.838-0.838,1.141-2.069,0.792-3.212c-0.279-0.913-0.475-1.859-0.582-2.811
				c-0.182-1.617-1.552-2.837-3.187-2.837h-4.307c-0.899,0-1.762,0.381-2.368,1.045c-0.542,0.594-0.84,1.372-0.84,2.172
				c0,0.098,0.004,0.196,0.013,0.294c0.284,3.09,1.104,6.074,2.435,8.869c1.294,2.717,3.033,5.177,5.169,7.313
				c2.136,2.136,4.596,3.875,7.313,5.168c2.795,1.331,5.778,2.15,8.869,2.435c0.9,0.083,1.799-0.218,2.466-0.827
				c0.664-0.606,1.045-1.469,1.045-2.368v-4.307C40.413,144.948,39.193,143.578,37.576,143.396z"/>
		</g>
		<g>
			<path fill="#67AD5B" d="M166.316,182.349h-22.05v0c0-4.778,3.873-8.65,8.65-8.65h13.4V182.349z"/>
		</g>
		<g>
			<path fill="#67AD5B" d="M174.95,182.349H197v0c0-4.778-3.873-8.65-8.65-8.65h-13.4V182.349z"/>
		</g>
		<path fill="#67AD5B" d="M177.927,40.694c-4.892,5.407-10.11,5.46-15.682-0.295c-8.474,4.043-13.994,9.642-17.401,16.354
			l9.551,8.635l1.963-1.832l0.508,17.258l0.151,5.131l28.256-0.147l0.022-5l0.075-16.719l0.688,1.963l9.682-2.355
			C193.361,52.693,187.968,44.519,177.927,40.694z"/>
		<path fill="#67AD5B" d="M127.993,50.515l-2.815-6.119l-1.525-2.596c-0.159-0.271-0.074-0.62,0.193-0.787
			c0.253-0.158,0.585-0.099,0.767,0.137l2.068,2.668l-1.424-3.742c-0.132-0.348,0.02-0.74,0.354-0.907
			c0.357-0.179,0.792-0.035,0.972,0.322l1.833,3.633L127.4,37.81c-0.059-0.31,0.122-0.616,0.423-0.713v0
			c0.312-0.1,0.648,0.057,0.771,0.36l1.978,4.858l-0.197-3.651c-0.019-0.351,0.242-0.654,0.591-0.688
			c0.326-0.032,0.626,0.183,0.701,0.502l1.295,5.494l0.832-1.21c0.242-0.351,0.724-0.436,1.071-0.188
			c0.267,0.191,0.382,0.532,0.285,0.845l-1.91,6.108l4.083,4.83V6.377c0-3.522-2.855-6.377-6.377-6.377H51.961
			c-3.522,0-6.377,2.855-6.377,6.377v54.408c0.921,1.124,1.729,2.345,2.406,3.645c1.526,2.928,2.39,6.257,2.39,9.787
			c0,3.531-0.864,6.859-2.39,9.787c-0.677,1.3-1.485,2.521-2.406,3.645v31.402c0.849,0.731,1.653,1.513,2.406,2.341
			c3.798,4.172,6.332,9.513,7.002,15.42H82.73c2.752-1.737,6.011-2.743,9.505-2.743s6.754,1.006,9.505,2.743h29.206
			c3.522,0,6.377-2.855,6.377-6.377V66.539c-3.721-4.789-6.875-10.088-9.324-16.024C127.997,50.515,127.995,50.515,127.993,50.515z
			 M92.508,17.677c8.755,0,15.852,7.097,15.852,15.852S101.263,49.38,92.508,49.38s-15.852-7.097-15.852-15.852
			S83.754,17.677,92.508,17.677z M120.554,119.343c0,2.251-1.825,4.076-4.076,4.076h-49.3c-2.251,0-4.076-1.825-4.076-4.076v-11.735
			c0-2.251,1.825-4.076,4.076-4.076h49.3c2.251,0,4.076,1.825,4.076,4.076V119.343z M120.554,93.708
			c0,2.251-1.825,4.076-4.076,4.076h-49.3c-2.251,0-4.076-1.825-4.076-4.076v0c0-2.251,1.825-4.076,4.076-4.076h49.3
			C118.729,89.631,120.554,91.456,120.554,93.708L120.554,93.708z M120.554,78.951c0,2.251-1.825,4.076-4.076,4.076h-49.3
			c-2.251,0-4.076-1.825-4.076-4.076v0c0-2.251,1.825-4.076,4.076-4.076h49.3C118.729,74.874,120.554,76.7,120.554,78.951
			L120.554,78.951z M116.478,68.271h-49.3c-2.251,0-4.076-1.825-4.076-4.076c0-2.251,1.825-4.076,4.076-4.076h49.3
			c2.251,0,4.076,1.825,4.076,4.076C120.554,66.445,118.729,68.271,116.478,68.271z"/>
		<g>
			<path fill="#67AD5B" d="M177.624,57.876c0,1.098,0.89,1.989,1.989,1.989h0.492c1.098,0,1.989-0.89,1.989-1.989v-1.334h-4.469
				V57.876z"/>
		</g>
		<rect x="171.049" y="91.393" fill="#67AD5B" width="0.215" height="13.504"/>
	</g>
</g>
<g id="Color_2_00000038400556026743678700000000850327612103195529_">
	<g id="Layer_250_copy_2">
		<g>
			<g>
				<g>
					<path fill="#80BF71" d="M145.744,55.769c2.411,2.137,4.822,4.273,7.233,6.41c0.683,0.605,1.366,1.211,2.049,1.816
						c0.13,0.115,0.327,0.128,0.456,0c0.118-0.118,0.131-0.34,0-0.456c-2.411-2.137-4.822-4.273-7.233-6.41
						c-0.683-0.605-1.366-1.211-2.049-1.816c-0.13-0.115-0.327-0.128-0.456,0C145.626,55.431,145.613,55.653,145.744,55.769
						L145.744,55.769z"/>
				</g>
			</g>
			<g>
				<g>
					<path fill="#80BF71" d="M195.036,62.153c-3.133,0.751-6.266,1.501-9.399,2.252c-0.888,0.213-1.775,0.425-2.663,0.638
						c-0.403,0.097-0.232,0.718,0.171,0.621c3.133-0.751,6.266-1.501,9.399-2.252c0.888-0.213,1.775-0.425,2.663-0.638
						C195.61,62.678,195.439,62.057,195.036,62.153L195.036,62.153z"/>
				</g>
			</g>
			<path fill="#80BF71" d="M47.991,1.389c-1.466,1.168-2.406,2.968-2.406,4.988v54.408c0.921,1.124,1.729,2.345,2.406,3.645V1.389z"
				/>
			<path fill="#80BF71" d="M47.991,121.393V84.004c-0.677,1.3-1.485,2.521-2.406,3.645v31.402
				C46.433,119.783,47.237,120.565,47.991,121.393z"/>
		</g>
	</g>
</g>
<g id="Color_1">
	<g>
		<g>
			<path fill="#111111" d="M130.947,0H51.961c-3.522,0-6.377,2.855-6.377,6.377v3.968h91.74V6.377
				C137.324,2.855,134.469,0,130.947,0z M52.132,6.73c-0.849,0-1.538-0.689-1.538-1.538c0-0.849,0.689-1.538,1.538-1.538
				s1.538,0.689,1.538,1.538C53.67,6.041,52.982,6.73,52.132,6.73z M57.584,6.73c-0.849,0-1.538-0.689-1.538-1.538
				c0-0.849,0.689-1.538,1.538-1.538c0.849,0,1.538,0.689,1.538,1.538C59.122,6.041,58.434,6.73,57.584,6.73z M63.037,6.73
				c-0.849,0-1.538-0.689-1.538-1.538c0-0.849,0.689-1.538,1.538-1.538c0.849,0,1.538,0.689,1.538,1.538
				C64.575,6.041,63.886,6.73,63.037,6.73z"/>
		</g>
		<g>
			<path fill="#111111" d="M98.781,42.38H86.66v-3.755c0-3.347,2.714-6.061,6.061-6.061h0c3.347,0,6.061,2.714,6.061,6.061V42.38z"
				/>
		</g>
		<g>
			<circle fill="#111111" cx="92.541" cy="27.779" r="3.43"/>
		</g>
		<g opacity="0.18">
			<path fill="#111111" d="M92.578,147.027h10.585l-5.293,3.645l-3.586,2.47c-1.028,0.708-2.386,0.708-3.414,0l-3.586-2.47
				l-5.293-3.645H92.578z"/>
		</g>
		<g opacity="0.18">
			<path fill="#111111" d="M21.072,138.003c-0.234,0.192-0.154,0.271-0.074,0.441c0.055,0.115,0.177,0.318,0.239,0.421
				c0.486,0.805,0.839,1.337,1.457,2.154c0.973,1.287,2.08,2.457,3.277,3.546c0.593,0.539,1.227,0.997,1.892,1.444
				c0.334,0.225,0.353,0.208,0.702,0.416c0.324,0.193,0.672,0.044,0.843-0.22c0.206-0.317,0.306-0.474,0.401-0.846l-0.001-0.007
				c-3.296-1.804-6.127-4.676-7.956-7.958C21.52,137.622,21.313,137.805,21.072,138.003z"/>
		</g>
		<g>
			<g>
				<path fill="#111111" d="M132.081,44.226c-1.073,1.196-1.519,2.882-1.179,4.452c0.042,0.195,0.342,0.113,0.3-0.083
					c-0.316-1.457,0.104-3.04,1.099-4.15C132.433,44.297,132.214,44.077,132.081,44.226L132.081,44.226z"/>
			</g>
		</g>
		<path fill="#111111" d="M185.273,85.799l-28.256,0.147l-0.151-5.131l-3.45,0.399l2.208,93.726h10.557l4.434-50.988l4.423,50.863
			h10.557l2.208-93.726l-2.508-0.29L185.273,85.799z M171.264,104.897h-0.215V91.393h0.215V104.897z"/>
		<g opacity="0.11">
			<path fill="#111111" d="M170.055,25.728c-0.123,1.564-0.342,3.338-0.478,4.449l1.729,0.121L170.055,25.728z"/>
		</g>
		<g>
			<g>
				<path fill="#111111" d="M171.611,31.979c-0.773,0.65-1.913,0.675-2.711,0.053c-0.097-0.075-0.234,0.06-0.137,0.137
					c0.886,0.69,2.124,0.671,2.984-0.053C171.843,32.035,171.705,31.899,171.611,31.979L171.611,31.979z"/>
			</g>
		</g>
		<g>
			<ellipse fill="#111111" cx="167.01" cy="25.813" rx="0.44" ry="0.68"/>
		</g>
		<g>
			<ellipse fill="#111111" cx="173.223" cy="25.813" rx="0.44" ry="0.68"/>
		</g>
		<g>
			<g>
				<path fill="#111111" d="M165.439,24.699c0.404-0.298,0.875-0.485,1.337-0.521c0.499-0.039,0.965,0.05,1.396,0.277
					c0.173,0.091,0.393,0.044,0.495-0.13c0.095-0.163,0.044-0.403-0.13-0.495c-1.095-0.577-2.462-0.494-3.464,0.244
					c-0.157,0.116-0.236,0.314-0.13,0.495C165.035,24.724,165.281,24.816,165.439,24.699L165.439,24.699z"/>
			</g>
		</g>
		<g>
			<g>
				<path fill="#111111" d="M175.015,24.075c-1.002-0.738-2.369-0.821-3.464-0.244c-0.173,0.091-0.225,0.332-0.13,0.495
					c0.102,0.175,0.321,0.221,0.495,0.13c0.431-0.227,0.898-0.317,1.396-0.277c0.462,0.036,0.934,0.224,1.337,0.521
					c0.157,0.116,0.404,0.026,0.495-0.13C175.252,24.386,175.173,24.191,175.015,24.075L175.015,24.075z"/>
			</g>
		</g>
		<g>
			<g>
				<path fill="#111111" d="M177.271,26.903c0.043,0.565-0.037,1.128-0.233,1.66c-0.035,0.094,0.115,0.134,0.15,0.041
					c0.2-0.542,0.282-1.124,0.238-1.701C177.419,26.804,177.263,26.803,177.271,26.903L177.271,26.903z"/>
			</g>
		</g>
		<g>
			<g>
				<path fill="#111111" d="M177.871,27.424c-0.196,0.194-0.391,0.387-0.587,0.581c-0.071,0.07,0.039,0.18,0.11,0.11
					c0.196-0.194,0.391-0.387,0.587-0.581C178.052,27.463,177.942,27.354,177.871,27.424L177.871,27.424z"/>
			</g>
		</g>
		<g>
			<g>
				<path fill="#111111" d="M162.39,26.903c-0.044,0.577,0.038,1.158,0.238,1.701c0.034,0.093,0.185,0.053,0.15-0.041
					c-0.196-0.531-0.275-1.095-0.233-1.66C162.553,26.803,162.397,26.803,162.39,26.903L162.39,26.903z"/>
			</g>
		</g>
		<g>
			<g>
				<path fill="#111111" d="M161.835,27.534c0.196,0.194,0.391,0.387,0.587,0.581c0.071,0.07,0.181-0.039,0.11-0.11
					c-0.196-0.194-0.391-0.387-0.587-0.581C161.874,27.354,161.764,27.463,161.835,27.534L161.835,27.534z"/>
			</g>
		</g>
		<g>
			<path fill="#111111" d="M162.249,25.52c-1.302-2.219-1.627-2.929-1.923-4.822c-0.147-0.939,0.084-2.953,0.74-3.668
				c0.976-1.065,2.139-1.632,3.373-2.102c1.067-0.407,1.866-1.239,2.796-1.873c1.615-1.101,3.829-1.242,5.807-0.946
				s3.687,1.421,4.729,3.01c1.051,1.602,1.269,3.202,1.001,5.061c-0.268,1.859-0.904,3.792-1.615,5.548
				c-0.105-0.514-0.634-1.853-0.904-2.133c-0.519-0.539-1.233-0.58-2.094-0.744c-2.375-0.564-4.228-2.049-6.483-3.613
				c-1.251-0.568-2.723,0.019-3.24,1.292l-1.242,6.146"/>
		</g>
		<g>
			<g>
				<path fill="#111111" d="M162.818,14.378c1.042,0.432,1.951,1.172,2.628,2.07c0.067,0.089,0.175,0.132,0.279,0.073
					c0.087-0.05,0.139-0.191,0.073-0.279c-0.748-0.992-1.721-1.781-2.872-2.258c-0.102-0.042-0.223,0.046-0.251,0.142
					C162.642,14.244,162.717,14.336,162.818,14.378L162.818,14.378z"/>
			</g>
		</g>
		<g>
			<g>
				<path fill="#111111" d="M164.256,13.827c-0.095,0.638-0.039,1.289,0.182,1.897c0.029,0.079,0.106,0.132,0.191,0.108
					c0.076-0.021,0.137-0.112,0.108-0.191c-0.2-0.553-0.269-1.149-0.182-1.732c0.012-0.083-0.021-0.167-0.108-0.191
					C164.373,13.698,164.268,13.743,164.256,13.827L164.256,13.827z"/>
			</g>
		</g>
		<path opacity="0.11" fill="#111111" d="M169.813,35.4c-1.522,0-2.936-0.609-4.109-1.653v0.576c1.011,2.042,3.39,3.481,5.68,2.99
			c1.667-0.358,2.712-1.512,3.412-2.909v-1.57C173.487,34.427,171.736,35.4,169.813,35.4z"/>
		<g opacity="0.18">
			<path fill="#111111" d="M162.246,40.399c-1.393,0.665-2.704,1.372-3.941,2.118V85.94l10.298-0.054l-0.83-41.649
				C165.516,43.35,164.418,42.643,162.246,40.399z"/>
		</g>
		<g>
			<g>
				<polygon fill="#111111" points="162.246,40.399 156.971,43.162 150.931,91.799 168.195,91.766 166.483,43.673 				"/>
			</g>
			<g>
				<path fill="#111111" d="M184.87,44.579c-2.231-1.743-4.76-3.085-6.901-3.935l-3.081,2.674l-0.98,48.368l15.71-0.179
					L184.87,44.579z M182.093,57.876c0,1.098-0.89,1.989-1.989,1.989h-0.492c-1.098,0-1.989-0.89-1.989-1.989v-1.334h4.469V57.876z"
					/>
			</g>
		</g>
	</g>
</g>
</svg>
