<?xml version="1.0" encoding="UTF-8"?>
<svg width="23px" height="23px" viewBox="0 0 23 23" version="1.1" xmlns="http://www.w3.org/2000/svg" xmlns:xlink="http://www.w3.org/1999/xlink">
    <!-- Generator: Sketch 63.1 (92452) - https://sketch.com -->
    <title>Dolar-icon</title>
    <desc>Created with Sketch.</desc>
    <g id="Kenzap-Service-Page" stroke="none" stroke-width="1" fill="none" fill-rule="evenodd">
        <g id="Service-Desktop" transform="translate(-1424.000000, -3641.000000)" fill="#818181" fill-rule="nonzero">
            <g id="FOOTER" transform="translate(0.000000, 3161.000000)">
                <g id="Bottom" transform="translate(375.000000, 433.000000)">
                    <g id="Currency" transform="translate(1030.000000, 33.000000)">
                        <g id="Dolar-icon" transform="translate(19.000000, 14.000000)">
                            <path d="M19.6317578,3.36824219 C17.4596953,1.19617969 14.5717578,0 11.5,0 C8.42824219,0 5.54030469,1.19617969 3.36824219,3.36824219 C1.19622461,5.54030469 0,8.42824219 0,11.5 C0,14.5717578 1.19622461,17.4596953 3.36824219,19.6317578 C5.54030469,21.8038203 8.42824219,23 11.5,23 C14.5717578,23 17.4596953,21.8038203 19.6317578,19.6317578 C21.8037754,17.4596953 23,14.5717578 23,11.5 C23,8.42824219 21.8037754,5.54030469 19.6317578,3.36824219 Z M11.5,21.6523438 C5.9019707,21.6523438 1.34765625,17.0980293 1.34765625,11.5 C1.34765625,5.9019707 5.9019707,1.34765625 11.5,1.34765625 C17.0980293,1.34765625 21.6523438,5.9019707 21.6523438,11.5 C21.6523438,17.0980293 17.0980293,21.6523438 11.5,21.6523438 Z" id="Shape"></path>
                            <path d="M12.2094404,11.3420614 L10.7905596,11.3420614 C9.98221179,11.3420614 9.32460954,10.6888596 9.32460954,9.88596491 C9.32460954,9.08302632 9.98225595,8.42982456 10.7905596,8.42982456 L13.6282769,8.42982456 C13.994058,8.42982456 14.2906038,8.13526316 14.2906038,7.77192982 C14.2906038,7.40859649 13.994058,7.11403509 13.6282769,7.11403509 L12.1623268,7.11403509 L12.1623268,5.65789474 C12.1623268,5.2945614 11.865781,5 11.5,5 C11.134219,5 10.8376732,5.2945614 10.8376732,5.65789474 L10.8376732,7.11403509 L10.7906038,7.11403509 C9.2518419,7.11403509 8,8.35754386 8,9.88596491 C8,11.414386 9.25188605,12.6578509 10.7906038,12.6578509 L12.2094845,12.6578509 C13.0177882,12.6578509 13.6753905,13.3110965 13.6753905,14.1139912 C13.6753905,14.916886 13.0177882,15.5701316 12.2094845,15.5701316 L9.37176721,15.5701316 C9.00598617,15.5701316 8.70944037,15.864693 8.70944037,16.2280263 C8.70944037,16.5913596 9.00598617,16.8859211 9.37176721,16.8859211 L10.8376732,16.8859211 L10.8376732,18.3421053 C10.8376732,18.7054386 11.134219,19 11.5,19 C11.865781,19 12.1623268,18.7054386 12.1623268,18.3421053 L12.1623268,16.8859211 L12.2094404,16.8859211 C13.7481581,16.8859211 15,15.6424123 15,14.1139912 C15,12.5855702 13.7481581,11.3420614 12.2094404,11.3420614 Z" id="Path"></path>
                        </g>
                    </g>
                </g>
            </g>
        </g>
    </g>
</svg>