<?xml version="1.0" encoding="UTF-8"?>
<svg width="141px" height="35px" viewBox="0 0 141 35" version="1.1" xmlns="http://www.w3.org/2000/svg" xmlns:xlink="http://www.w3.org/1999/xlink">
    <!-- Generator: Sketch 63.1 (92452) - https://sketch.com -->
    <title>Logo</title>
    <desc>Created with Sketch.</desc>
    <g id="Kenzap-Service-Page" stroke="none" stroke-width="1" fill="none" fill-rule="evenodd">
        <g id="Service-Desktop" transform="translate(-375.000000, -3270.000000)">
            <g id="FOOTER" transform="translate(0.000000, 3161.000000)">
                <g id="About" transform="translate(375.000000, 109.000000)">
                    <g id="Logo">
                        <text id="TECH" font-family="Poppins-SemiBold, Poppins" font-size="11" font-weight="500" letter-spacing="1.5" fill="#323232">
                            <tspan x="108" y="34">TECH</tspan>
                        </text>
                        <path d="M0.501333333,34.2125 L0.501333333,0.2125 L5.91306709,0.2125 L5.91306709,14.5410714 L12.8007282,0.2125 L18.212462,0.2125 L11.7675791,12.6953571 L18.3108571,34.2125 L12.6531355,34.2125 L8.07776059,19.0582143 L5.91306709,23.3810714 L5.91306709,34.2125 L0.501333333,34.2125 Z M20.4060952,34.2125 L20.4060952,0.2125 L35.0727619,0.2125 L35.0727619,5.06964286 L25.783873,5.06964286 L25.783873,14.0553571 L33.1660952,14.0553571 L33.1660952,18.9125 L25.783873,18.9125 L25.783873,29.3553571 L35.0727619,29.3553571 L35.0727619,34.2125 L20.4060952,34.2125 Z M38.215619,34.2125 L38.215619,0.2125 L44.920381,0.2125 L50.1190007,20.5639286 L50.2161712,20.5639286 L50.2161712,0.2125 L54.9775238,0.2125 L54.9775238,34.2125 L49.4873927,34.2125 L43.0741422,9.3925 L42.9769717,9.3925 L42.9769717,34.2125 L38.215619,34.2125 Z M57.0727619,34.2125 L57.0727619,29.4525 L67.0283963,5.06964286 L57.5607832,5.06964286 L57.5607832,0.2125 L72.7870476,0.2125 L72.7870476,4.9725 L62.8314132,29.3553571 L72.7870476,29.3553571 L72.7870476,34.2125 L57.0727619,34.2125 Z M74.8822857,34.2125 L80.267659,0.2125 L87.3064363,0.2125 L92.6918095,34.2125 L87.4953967,34.2125 L86.5505944,27.4610714 L86.5505944,27.5582143 L80.6455799,27.5582143 L79.7007776,34.2125 L74.8822857,34.2125 Z M81.168,22.525 L86.4060952,22.525 L83.8135026,5.525 L83.7076825,5.525 L81.168,22.525 Z M95.8346667,34.2125 L95.8346667,0.2125 L103.643606,0.2125 C108.945973,0.2125 111.548952,3.17535714 111.548952,8.61535714 L111.548952,11.9667857 C111.548952,17.4067857 108.945973,20.3696429 103.643606,20.3696429 L101.137033,20.3696429 L101.137033,34.2125 L95.8346667,34.2125 Z M101.072762,15.0875 L103.642394,15.0875 C105.371953,15.0875 106.310857,14.2968023 106.310857,11.8258721 L106.310857,7.72412791 C106.310857,5.25319767 105.371953,4.4625 103.642394,4.4625 L101.072762,4.4625 L101.072762,15.0875 Z" id="KENZAP" fill="#191718" fill-rule="nonzero"></path>
                    </g>
                </g>
            </g>
        </g>
    </g>
</svg>