<?xml version="1.0" encoding="utf-8"?>
<!-- Generator: Adobe Illustrator 27.6.1, SVG Export Plug-In . SVG Version: 6.00 Build 0)  -->
<svg version="1.1" xmlns="http://www.w3.org/2000/svg" xmlns:xlink="http://www.w3.org/1999/xlink" x="0px" y="0px"
	 viewBox="0 0 197 145.173" enable-background="new 0 0 197 145.173" xml:space="preserve">
<g id="Color_4_00000077291245889699835280000013115247317640162951_">
	<g id="Layer_281">
		<g>
			<path fill="#E89F97" d="M84.161,17.592c-0.099-0.892-0.373-1.735-0.644-2.566c-0.43-1.318-0.887-2.684-1.724-3.622
				c-0.838-0.939-2.175-1.305-3.058-0.437c-0.68,0.669-0.906,1.837-1.088,2.913c-0.407,2.406-0.816,4.836-0.809,7.298
				c0.003,1.207,0.139,2.507,0.781,3.388c0.681,0.935,1.825,1.162,2.767,0.746c0.943-0.415,1.692-1.383,2.195-2.489
				c0.502-1.107,0.784-2.354,1.032-3.595l-0.35,0.092C83.672,18.59,84.26,18.484,84.161,17.592z"/>
			<polygon fill="#E89F97" points="89.893,26.468 88.417,27.146 89.893,32.589 103.341,35.193 104.098,32.029 			"/>
			<path fill="#E89F97" d="M85.577,3.136c-2.859-0.703-5.965,1.722-7.343,5.542c-0.297-0.285-0.656-0.438-1.027-0.403
				c-0.858,0.083-1.458,1.144-1.339,2.371c0.113,1.174,0.844,2.074,1.658,2.076c0.002,0.457,0.034,0.902,0.092,1.334
				c0.366,2.725,1.814,4.863,3.95,5.388c0.662,0.163,1.336,0.157,2,0.006c2.496-0.568,4.833-3.2,5.708-6.758
				C90.382,8.189,88.726,3.91,85.577,3.136z"/>
			<g>
				<path fill="#E89F97" d="M67.236,42.626l0.072-9.507l-4.731-0.794c-0.29,4.167-0.18,7.488-0.116,9.761
					c0.077,2.727,3.516,2.404,4.758,2.446L67.236,42.626L67.236,42.626z"/>
				<polygon fill="#E89F97" points="87.726,42.626 87.726,42.626 87.792,43.547 89.065,43.485 88.445,39.411 87.495,39.42 
					87.726,42.626 				"/>
				<path fill="#E89F97" d="M67.738,33.07l-5.159-0.762c0,0.006-0.001,0.011-0.001,0.016l4.731,0.794l-0.072,9.507h20.489
					l-0.23-3.205l-19.921,0.201L67.738,33.07z"/>
				<polygon fill="#E89F97" points="87.788,43.547 87.792,43.547 87.726,42.626 				"/>
				<polygon fill="#E89F97" points="67.236,42.626 67.22,44.532 67.222,44.532 67.236,42.626 				"/>
				<polygon fill="#E89F97" points="87.726,42.626 87.726,42.626 87.726,42.626 				"/>
				<path fill="#E89F97" d="M87.788,43.547l-0.062-0.921l0-0.001H67.236l-0.015,1.906c0.049,0.002,0.095,0.004,0.136,0.007
					L87.788,43.547z"/>
			</g>
			<g>
				<path fill="#E89F97" d="M97.34,40.57l-2.244-1.447l-3.882-0.582l-2.857,0.874l0.642,4.08l5.854-0.097
					c0.261-0.004,0.469-0.218,0.466-0.478l0,0c-0.003-0.24-0.185-0.439-0.425-0.464c-1.565-0.159-5.359-0.507-3.333-1.313
					l3.418-0.828l2.236,0.864c0.11,0.034,0.242-0.013,0.284-0.164l0.021-0.09C97.547,40.784,97.461,40.648,97.34,40.57z"/>
			</g>
		</g>
	</g>
</g>
<g id="Color_3_00000165915787892690296550000009672280802821729681_">
	<g>
		<path fill="#67AD5B" d="M120.091,22.157c0.158-0.027,0.316-0.054,0.473-0.083c0.127-0.023,0.199-0.177,0.167-0.294
			c-0.037-0.133-0.167-0.19-0.294-0.167c-0.13,0.024-0.261,0.046-0.391,0.069c-0.039,0.073-0.078,0.147-0.117,0.22
			C119.984,21.987,120.037,22.072,120.091,22.157z"/>
		<path fill="#67AD5B" d="M108.713,21.853c-0.048-0.107-0.095-0.213-0.143-0.32c-0.102-0.022-0.205-0.043-0.307-0.066
			c-0.299-0.068-0.427,0.393-0.127,0.461c0.117,0.027,0.234,0.051,0.352,0.076c0.03-0.051,0.059-0.1,0.089-0.151H108.713z"/>
		<path fill="#67AD5B" d="M117.815,22.473c0.762-0.08,1.521-0.187,2.277-0.316c-0.054-0.085-0.108-0.169-0.162-0.254
			c0.039-0.073,0.078-0.147,0.117-0.22c-1.435,0.248-2.885,0.409-4.341,0.464c-1.594,0.06-3.192-0.004-4.774-0.204
			c-0.793-0.1-1.58-0.24-2.361-0.409c0.048,0.107,0.095,0.213,0.143,0.32h-0.136c-0.03,0.051-0.059,0.1-0.089,0.151
			c1.484,0.318,2.993,0.52,4.508,0.601C114.603,22.69,116.215,22.641,117.815,22.473z"/>
		<path fill="#67AD5B" d="M106.655,53.617c0-0.636,0.043-1.272,0.126-1.903c0.02-0.152-0.219-0.151-0.239,0
			c-0.305,2.311-0.039,4.675,0.734,6.872c0.223,0.633,0.486,1.251,0.784,1.852c0.068,0.138,0.275,0.017,0.206-0.121
			C107.235,58.238,106.655,55.942,106.655,53.617z"/>
		<path fill="#67AD5B" d="M122.161,51.714c0.301,2.279,0.045,4.6-0.711,6.769c-0.219,0.627-0.478,1.239-0.773,1.834
			c-0.068,0.137,0.138,0.259,0.206,0.121c1.043-2.105,1.636-4.426,1.643-6.78c0.002-0.65-0.041-1.299-0.126-1.944
			C122.38,51.564,122.141,51.562,122.161,51.714z"/>
		<path fill="#67AD5B" d="M133.202,48.94L133.202,48.94c-0.178-0.038-0.355-0.062-0.531-0.072c0.66,5.159-1.14,8.382-5.243,10.174
			l-0.62,2.898l6.904,1.478l2.202-10.286C136.324,51.225,135.109,49.348,133.202,48.94z"/>
		<path fill="#67AD5B" d="M132.672,48.867c-1.713-0.103-3.291,1.056-3.661,2.786l-1.582,7.389
			C131.531,57.249,133.332,54.026,132.672,48.867z"/>
		<path fill="#67AD5B" d="M67.358,44.539c-0.042-0.003-0.088-0.005-0.136-0.007l-0.093,12.219l21.825,2.955l-1.161-16.159l-0.004,0
			L67.358,44.539z"/>
		<path fill="#67AD5B" d="M92.775,34.372l0.023-6.795l-10.082-5.112c-0.89,1.777-5.053,1.881-5.809-2.44l-9.624,1.295
			c-3.054,3.329-4.358,6.606-5.607,10.854l0.903,0.152c0-0.006,0.001-0.011,0.001-0.016l5.159,0.762l-0.164,6.551l19.921-0.201
			l-0.446-6.211L92.775,34.372z"/>
		<path fill="#67AD5B" d="M93.463,138.186L93.463,138.186c0-2.305-1.684-4.264-3.962-4.61l-10.166-1.545v-0.093l-3.147-0.385l0,0
			v1.139h-6.599v4.464l-0.005-0.001v7.672h19.978l0,0c0-2.665-1.947-4.931-4.582-5.331l-6.836-1.039v-0.27H93.463z"/>
		<path fill="#67AD5B" d="M51.842,129.395L51.842,129.395c-0.329,0-0.653,0.024-0.971,0.065v-4.585c0-4.113-3.334-7.447-7.447-7.447
			h0c-1.795,0-3.441,0.635-4.727,1.693c-0.233-3.714-3.317-6.655-7.09-6.655h-0.683c-3.924,0-7.105,3.181-7.105,7.105v1.663
			c-0.789-0.3-1.644-0.466-2.538-0.466h-0.606c-3.945,0-7.144,3.198-7.144,7.144v2.045c-0.876-0.362-1.835-0.562-2.841-0.562h0
			c-4.113,0-7.447,3.334-7.447,7.447v7.165H13.53h4.606h5.91h4.378h8.687h1.373h5.91h5.343h9.552v-7.165
			C59.289,132.729,55.954,129.395,51.842,129.395z"/>
		<g>
			<path fill="#67AD5B" d="M62.571,144.02c-0.051-2.364-2.325-4.502-4.264-5.639c-2.3-1.347-4.57-1.985-7.477-1.786
				c-3.155,0.216-6.096,1.833-7.666,4.972c-0.462-2.031-2.816-5.725-7.248-5.817c-2.572-0.054-5.773,1.957-6.62,4.22
				c-1.638-1.264-4.009-1.646-6.007-0.966c-0.737,0.251-1.413,0.643-1.992,1.135c-1.419-0.904-3.542-1.415-5.612-1.297
				c-2.562,0.145-4.905,1.245-5.752,2.7c-1.638-0.813-4.009-1.058-6.007-0.621c-1.998,0.437-3.548,1.539-3.926,2.792l0.034,0.593
				c6.416-0.032,12.886-0.053,19.361-0.073l0.001,0.037C33.699,144.161,48.269,144.129,62.571,144.02z"/>
		</g>
		<g>
			<g>
				<path fill="#67AD5B" d="M194.647,90.668h-38.42c-1.3,0-2.353,1.054-2.353,2.353v1.272c0,1.185,0.876,2.165,2.017,2.329
					l-0.19-1.072h39.39l-0.194,1.083c1.182-0.125,2.103-1.125,2.103-2.34v-1.272C197,91.722,195.946,90.668,194.647,90.668z"/>
			</g>
		</g>
		<g>
			<path fill="#67AD5B" d="M142.454,61.024l-3.989-0.861l9.013-41.775l3.989,0.861c3.3,0.712,5.399,3.965,4.687,7.265l-6.434,29.824
				C149.007,59.638,145.754,61.736,142.454,61.024z"/>
		</g>
		<g>
			<path fill="#67AD5B" d="M128.167,63.253h-11.44H96.262l6.888,73.347c0.164,1.75,1.633,3.087,3.39,3.087h3.01h25.795h3.01
				c1.757,0,3.226-1.337,3.39-3.087l6.888-73.347H128.167z"/>
		</g>
		<g>
			<polygon fill="#67AD5B" points="143.581,62.418 101.907,63.005 107.459,139.687 137.567,139.686 			"/>
		</g>
		<g>
			<path fill="#67AD5B" d="M179.698,95.55h-8.604h-15.393l5.181,46.287c0.124,1.104,1.228,1.948,2.55,1.948h2.264h19.402h2.264
				c1.322,0,2.426-0.844,2.55-1.948l5.181-46.287H179.698z"/>
		</g>
	</g>
</g>
<g id="Color_2_00000178173825307833926920000001700180595759060399_">
	<g>
		<g>
			<path fill="#80BF71" d="M64.278,28.692c0.654-2.572,1.599-5.097,2.994-7.362c-3.047,3.325-4.349,6.599-5.597,10.843l1.822,0.306
				C63.711,31.208,63.96,29.94,64.278,28.692z"/>
		</g>
		<g>
			<g>
				<path fill="#80BF71" d="M75.848,20.281c0.064,1.404,0.769,2.737,1.907,3.564c1.167,0.847,2.761,1.143,4.132,0.655
					c0.728-0.259,1.377-0.723,1.852-1.333c0.093-0.12-0.075-0.29-0.169-0.169c-0.397,0.51-0.914,0.916-1.506,1.176
					c-0.649,0.286-1.376,0.373-2.078,0.293c-1.333-0.151-2.557-0.929-3.254-2.075c-0.387-0.637-0.613-1.366-0.646-2.11
					C76.08,20.128,75.841,20.127,75.848,20.281L75.848,20.281z"/>
			</g>
		</g>
		<g>
			<g>
				<path fill="#80BF71" d="M68.469,28.183c-0.233,1.309-0.467,2.617-0.7,3.926c-0.027,0.15,0.203,0.215,0.23,0.064
					c0.233-1.309,0.467-2.617,0.7-3.926C68.726,28.097,68.496,28.032,68.469,28.183L68.469,28.183z"/>
			</g>
		</g>
		<g>
			<g>
				<path fill="#80BF71" d="M86.412,28.929c0.117,1.165,0.234,2.331,0.351,3.496c0.015,0.152,0.254,0.153,0.239,0
					c-0.117-1.165-0.234-2.331-0.351-3.496C86.636,28.777,86.396,28.776,86.412,28.929L86.412,28.929z"/>
			</g>
		</g>
		<g>
			<path fill="#80BF71" d="M79.891,62.745c-0.011-0.141-0.231-0.142-0.22,0c0.225,2.984,0.449,5.967,0.674,8.951
				c0.063,0.833,0.125,1.666,0.188,2.499c0.011,0.141,0.231,0.142,0.22,0c-0.225-2.984-0.449-5.967-0.674-8.951
				C80.016,64.411,79.953,63.578,79.891,62.745z"/>
			<path fill="#80BF71" d="M71.343,57.427c-0.493,1.405-1.386,2.657-2.541,3.595c-0.327,0.266-0.676,0.503-1.041,0.713
				c-0.133,0.077-0.013,0.283,0.121,0.206c1.329-0.766,2.436-1.907,3.165-3.256c0.207-0.383,0.383-0.783,0.527-1.195
				C71.625,57.345,71.394,57.282,71.343,57.427z"/>
		</g>
		<g>
			<path fill="#80BF71" d="M156.038,98.567l4.843,43.27c0.028,0.248,0.106,0.484,0.224,0.699L158.869,98.5L156.038,98.567z"/>
		</g>
	</g>
</g>
<g id="Color_1">
	<g>
		<path opacity="0.11" fill="#111111" d="M81.567,19.443c-2.136-0.525-3.584-2.663-3.95-5.388c-0.125,0.739-0.249,1.481-0.36,2.225
			c0.252,0.602,0.684,1.126,1.083,1.596c0.612,0.721,1.246,1.436,1.918,2.088c0.815,0.793,1.696,1.497,2.616,2.131
			c0.303-0.843,0.51-1.744,0.694-2.646C82.903,19.6,82.228,19.606,81.567,19.443z"/>
		<path opacity="0.18" fill="#111111" d="M67.358,44.539c-0.042-0.003-0.088-0.005-0.138-0.007l-0.016,1.866l20.611-2.442
			l-0.028-0.409L67.358,44.539z"/>
		<g opacity="0.11">
			<path fill="#111111" d="M86.726,12.408c0.104,1.321,0.289,2.82,0.404,3.759l-1.763-0.828L86.726,12.408z"/>
		</g>
		<path fill="#111111" d="M88.953,59.489l-21.825-3.026l2.458,41.511l-1.75,36.313l10.884,0.29l0.64-1.563l5.164-0.239l7.436-35.409
			L88.953,59.489z M71.573,57.49c-0.144,0.411-0.32,0.811-0.527,1.195c-0.729,1.35-1.835,2.491-3.165,3.256
			c-0.134,0.077-0.254-0.13-0.121-0.206c0.365-0.21,0.714-0.447,1.041-0.713c1.155-0.938,2.047-2.19,2.541-3.595
			C71.394,57.282,71.625,57.345,71.573,57.49z M80.532,74.195c-0.063-0.833-0.125-1.666-0.188-2.499
			c-0.225-2.984-0.449-5.967-0.674-8.951c-0.011-0.142,0.21-0.141,0.22,0c0.063,0.833,0.125,1.666,0.188,2.499
			c0.225,2.984,0.449,5.967,0.674,8.951C80.763,74.337,80.542,74.335,80.532,74.195z"/>
		<g>
			<g>
				<path fill="#111111" d="M77.818,9.869c-0.212,0.717-0.301,1.465-0.263,2.212c0.005,0.098,0.158,0.099,0.153,0
					c-0.038-0.734,0.048-1.466,0.257-2.171C77.993,9.815,77.846,9.774,77.818,9.869L77.818,9.869z"/>
			</g>
		</g>
		<g>
			<g>
				<path fill="#111111" d="M77.092,10.302c0.102,0.276,0.259,0.527,0.463,0.739c0.068,0.071,0.177-0.037,0.108-0.108
					c-0.185-0.192-0.331-0.421-0.424-0.672c-0.014-0.039-0.052-0.065-0.094-0.053C77.108,10.218,77.077,10.263,77.092,10.302
					L77.092,10.302z"/>
			</g>
		</g>
		<g>
			<g>
				<path fill="#111111" d="M84.098,16.837c0.517,0.78,1.514,1.103,2.388,0.759c0.097-0.038,0.054-0.196-0.043-0.157
					c-0.804,0.317-1.725,0.039-2.204-0.684C84.181,16.668,84.04,16.749,84.098,16.837L84.098,16.837z"/>
			</g>
		</g>
		<g>
			
				<ellipse transform="matrix(0.3381 -0.9411 0.9411 0.3381 45.2204 86.6381)" fill="#111111" cx="84.202" cy="11.171" rx="0.759" ry="0.49"/>
		</g>
		<g>
			
				<ellipse transform="matrix(0.3381 -0.9411 0.9411 0.3381 46.8913 91.7256)" fill="#111111" cx="88.654" cy="12.527" rx="0.663" ry="0.429"/>
		</g>
		<g>
			<g>
				<path fill="#111111" d="M82.365,9.756c0.492-0.187,0.981-0.242,1.481-0.172c0.499,0.07,0.965,0.254,1.39,0.565
					c0.144,0.105,0.368,0.024,0.451-0.118c0.098-0.167,0.026-0.346-0.118-0.451C84.619,8.884,83.291,8.7,82.19,9.12
					c-0.166,0.063-0.281,0.222-0.23,0.406C82.003,9.685,82.198,9.819,82.365,9.756L82.365,9.756z"/>
			</g>
		</g>
		<g>
			<g>
				<path fill="#111111" d="M90.124,11.35c-0.631-0.695-1.601-1.007-2.521-0.861c-0.135,0.021-0.209,0.189-0.176,0.31
					c0.039,0.143,0.175,0.197,0.31,0.176c0.743-0.118,1.528,0.178,2.03,0.732C89.986,11.948,90.342,11.59,90.124,11.35L90.124,11.35
					z"/>
			</g>
		</g>
		<path fill="#111111" d="M95.578,5.984c-0.186-0.618-0.774-1.013-1.368-1.192c-0.594-0.179-1.221-0.193-1.822-0.341
			c-2.229-0.547-3.735-2.784-5.869-3.655c-1.497-0.611-3.192-0.49-4.727,0.004c-1.535,0.494-2.943,1.339-4.337,2.177
			c-0.604,0.363-1.224,0.741-1.652,1.317c-0.552,0.743-0.717,1.74-0.639,2.679c0.079,0.939,0.378,1.84,0.676,2.729l0.053,0.145
			c0.131-0.453,0.415-0.835,0.821-1.041c0.845-0.428,1.849-0.034,2.782-0.136c1.332-0.145,2.454-1.454,2.453-2.86
			c1.149-0.195,2.312,0.252,3.33,0.843c1.019,0.591,1.961,1.333,3.032,1.812c1.76,0.787,3.823,0.795,5.588,0.021
			c0.494-0.216,0.976-0.501,1.317-0.933C95.558,7.122,95.739,6.519,95.578,5.984z"/>
		<g>
			<g>
				<path fill="#111111" d="M79.424,0.484c0.606,0.177,1.114,0.608,1.395,1.172c0.078,0.158,0.314,0.019,0.236-0.138
					c-0.311-0.625-0.888-1.102-1.558-1.297C79.328,0.171,79.256,0.435,79.424,0.484L79.424,0.484z"/>
			</g>
		</g>
		<g>
			<g>
				<path fill="#111111" d="M80.788,0.066c-0.209,0.484-0.198,1.031,0.037,1.504c0.078,0.158,0.314,0.019,0.236-0.138
					c-0.187-0.377-0.204-0.841-0.037-1.228c0.029-0.068,0.02-0.147-0.049-0.187C80.917-0.016,80.817-0.002,80.788,0.066
					L80.788,0.066z"/>
			</g>
		</g>
		<g>
			<path fill="#111111" d="M77.473,1.858c-1.439,0.918-2.346,2.615-2.309,4.322c0.009,0.415,0.082,0.855,0.358,1.164
				c0.422,0.472,1.208,0.466,1.74,0.122c0.532-0.343,0.847-0.94,1.046-1.541c0.198-0.601,0.303-1.232,0.536-1.821
				c0.232-0.589,0.623-1.154,1.206-1.402c0.325-0.138,0.685-0.168,1.029-0.251s0.697-0.242,0.875-0.547
				c0.088-0.151,0.257-0.13,0.365-0.085l0.048-0.234C80.834,0.833,78.913,0.94,77.473,1.858z"/>
			<path fill="#111111" d="M82.318,1.82l-0.013,0.062C82.475,1.94,82.429,1.867,82.318,1.82z"/>
		</g>
		<g opacity="0.18">
			<g>
				<path fill="#111111" d="M62.571,143.964c-0.051-2.364-2.325-4.502-4.264-5.639c-2.3-1.347-4.57-1.985-7.477-1.786
					c-3.155,0.216-6.096,1.833-7.666,4.972c-0.462-2.031-2.816-5.725-7.248-5.817c-2.572-0.054-5.773,1.957-6.62,4.22
					c-1.638-1.264-4.009-1.646-6.007-0.966c-0.737,0.251-1.413,0.643-1.992,1.135c-1.419-0.904-3.542-1.415-5.612-1.297
					c-2.562,0.145-4.905,1.245-5.752,2.7c-1.638-0.813-4.009-1.058-6.007-0.621c-1.998,0.437-3.548,1.539-3.926,2.792l0.034,0.593
					c6.416-0.032,12.886-0.053,19.361-0.073l0.001,0.037C33.699,144.104,48.269,144.073,62.571,143.964z"/>
			</g>
		</g>
		<g>
			<circle fill="#111111" cx="110.113" cy="142.37" r="2.803"/>
		</g>
		<g>
			<circle fill="#111111" cx="134.696" cy="142.37" r="2.803"/>
		</g>
		<g>
			<path fill="#111111" d="M127.886,88.21l-3.007-5.481c-0.814-1.483-2.927-1.529-3.805-0.083l-3.445,5.673l2.186,1.138l2.631-4.424
				c0.168-0.283,0.578-0.281,0.744,0.004l2.506,4.307l-1.079,0.558l1.828,0.893l1.828,0.893l0.327-2.008l0.327-2.008L127.886,88.21z
				"/>
			<path fill="#111111" d="M128.594,92.309l-4.908-2.396l1.427-0.738l-2.285-3.927c-0.003-0.004-0.004-0.007-0.012-0.007
				c0,0,0,0,0,0c-0.008,0-0.009,0.002-0.012,0.007l-2.832,4.764l-2.931-1.527l3.676-6.055c0.491-0.808,1.348-1.278,2.292-1.257
				c0.945,0.021,1.781,0.528,2.235,1.356l2.811,5.123l1.418-0.733L128.594,92.309z M125.545,89.891l2.405,1.174l0.431-2.642
				l-0.666,0.345l-3.204-5.838c-0.309-0.564-0.878-0.909-1.521-0.923c-0.64-0.015-1.226,0.306-1.56,0.856l-3.213,5.292l1.44,0.75
				l2.429-4.085c0.155-0.26,0.427-0.415,0.73-0.415c0.001,0,0.003,0,0.004,0c0.304,0.001,0.577,0.159,0.73,0.422l2.726,4.686
				L125.545,89.891z"/>
		</g>
		<g>
			<path fill="#111111" d="M125.457,101.92l6.252-0.002c1.691-0.001,2.748-1.832,1.902-3.296l-3.319-5.748l-2.049,1.369l2.615,4.434
				c0.167,0.283-0.032,0.642-0.361,0.65l-4.981,0.127l0.029-1.215l-1.662,1.174l-1.662,1.174l1.603,1.253l1.603,1.253
				L125.457,101.92z"/>
			<path fill="#111111" d="M125.826,103.933l-4.304-3.362l4.46-3.152l-0.039,1.606l4.542-0.116c0.005,0,0.008,0,0.012-0.007
				c0.004-0.007,0.002-0.01,0-0.014l-2.815-4.774l2.748-1.836l3.542,6.134c0.473,0.819,0.473,1.796,0,2.615
				c-0.472,0.819-1.319,1.308-2.264,1.308l-5.844,0.002L125.826,103.933z M122.922,100.604l2.11,1.648l0.018-0.75l6.659-0.002
				c0.643,0,1.219-0.333,1.541-0.89c0.322-0.557,0.321-1.222,0-1.78l-3.096-5.362l-1.35,0.902l2.414,4.094
				c0.154,0.262,0.159,0.577,0.011,0.843c-0.147,0.266-0.417,0.429-0.721,0.437l-5.42,0.138l0.02-0.823L122.922,100.604z"/>
		</g>
		<g>
			<path fill="#111111" d="M115.14,93.38l-3.185,5.38c-0.862,1.455,0.175,3.298,1.866,3.317l6.637,0.074l-0.134-2.461l-5.147-0.01
				c-0.329-0.001-0.536-0.355-0.376-0.642l2.43-4.35l1.03,0.644l-0.163-2.028l-0.163-2.028l-1.895,0.741l-1.895,0.741L115.14,93.38z
				"/>
			<path fill="#111111" d="M120.9,102.574l-7.083-0.08c-0.945-0.011-1.786-0.509-2.25-1.332c-0.463-0.824-0.453-1.801,0.029-2.614
				l2.977-5.029l-1.353-0.846l5.086-1.989l0.438,5.444l-1.362-0.852l-2.216,3.967c-0.002,0.004-0.004,0.007,0,0.014
				c0.004,0.007,0.007,0.007,0.012,0.007l5.542,0.011L120.9,102.574z M115.071,92.845l0.636,0.398l-3.392,5.73
				c-0.328,0.554-0.335,1.219-0.02,1.779c0.316,0.561,0.888,0.9,1.531,0.907l6.191,0.069l-0.088-1.622l-4.753-0.01
				c-0.304-0.001-0.577-0.158-0.731-0.42c-0.154-0.262-0.157-0.578-0.009-0.843l2.644-4.733l0.698,0.436l-0.215-2.668
				L115.071,92.845z"/>
		</g>
		<g>
			<path fill="#111111" d="M173.31,90.676v-0.984c0-1.418,1.154-2.572,2.572-2.572c1.418,0,2.572,1.154,2.572,2.572v0.984h1.316
				v-0.984c0-2.144-1.744-3.888-3.888-3.888c-2.144,0-3.888,1.744-3.888,3.888v0.984H173.31z"/>
		</g>
		<g>
			<path fill="#111111" d="M132.672,48.867c-0.769-6.01-4.878-14.647-12.58-26.711c-0.755,0.129-1.515,0.237-2.277,0.316
				c-1.6,0.168-3.212,0.217-4.818,0.132c-1.516-0.08-3.025-0.282-4.508-0.601c-14.452,24.468-15.201,35.364-3.126,38.081
				c1.502,0.338,3.036,0.506,4.575,0.52l8.328,0.076c1.794,0.016,3.586-0.141,5.345-0.49c1.438-0.285,2.712-0.665,3.818-1.148
				l1.582-7.389C129.381,49.924,130.959,48.764,132.672,48.867z M108.059,60.437c-0.298-0.601-0.561-1.219-0.784-1.852
				c-0.773-2.197-1.038-4.561-0.734-6.872c0.02-0.151,0.259-0.152,0.239,0c-0.083,0.631-0.126,1.267-0.126,1.903
				c0.001,2.325,0.58,4.621,1.611,6.7C108.333,60.454,108.127,60.575,108.059,60.437z M120.882,60.437
				c-0.068,0.138-0.274,0.017-0.206-0.121c0.295-0.595,0.555-1.207,0.773-1.834c0.756-2.169,1.012-4.49,0.711-6.769
				c-0.02-0.152,0.219-0.15,0.239,0c0.085,0.644,0.128,1.294,0.126,1.944C122.519,56.011,121.926,58.333,120.882,60.437z"/>
			<path fill="#111111" d="M108.57,21.533c0.781,0.169,1.568,0.308,2.361,0.409c1.582,0.2,3.181,0.265,4.774,0.204
				c1.456-0.055,2.906-0.216,4.341-0.464c0.412-0.774,0.824-1.548,1.237-2.322c0.491-0.921,0.998-1.906,1.026-3.008
				c0.028-1.102-0.641-2.308-1.533-2.253c-0.637,0.039-1.131,0.662-1.637,1.141c-0.506,0.479-1.252,0.832-1.75,0.341
				c-0.35-0.345-0.418-0.976-0.346-1.521c0.072-0.545,0.255-1.063,0.306-1.612c0.113-1.209-0.505-2.464-1.427-2.897
				s-2.059-0.005-2.628,0.989c-0.509,0.891-0.547,2.052-0.777,3.105c-0.231,1.053-0.845,2.171-1.729,2.159
				c-1.527-0.02-2.168-3.248-3.676-2.953c-0.713,0.14-1.157,1.113-1.139,2.004c0.018,0.891,0.376,1.711,0.724,2.491
				C107.323,18.741,107.946,20.137,108.57,21.533z"/>
		</g>
		<g opacity="0.18">
			<path fill="#111111" d="M145.329,60.952c2.14-0.577,3.89-2.299,4.39-4.614l6.434-29.824c0.488-2.264-0.346-4.506-1.984-5.92
				L145.329,60.952z"/>
		</g>
		<g>
			<path fill="#111111" d="M152.653,46.283l-1.243-0.268l2.275-10.544l1.243,0.268c0.886,0.191,1.449,1.064,1.258,1.95l-1.583,7.336
				C154.412,45.911,153.539,46.474,152.653,46.283z"/>
		</g>
		<g>
			<path fill="#111111" d="M135.421,54.555l-6.634-1.42c-0.203-0.043-0.332-0.243-0.288-0.445l0.158-0.74
				c0.043-0.203,0.243-0.332,0.445-0.288l6.634,1.42c0.203,0.043,0.332,0.243,0.288,0.445l-0.158,0.74
				C135.823,54.47,135.624,54.599,135.421,54.555z"/>
		</g>
		<g>
			<path fill="#111111" d="M134.823,57.374l-6.634-1.42c-0.203-0.043-0.332-0.243-0.288-0.445l0.158-0.74
				c0.043-0.203,0.243-0.332,0.445-0.288l6.634,1.42c0.203,0.043,0.332,0.243,0.288,0.445l-0.158,0.74
				C135.226,57.288,135.026,57.417,134.823,57.374z"/>
		</g>
		<g>
			<path fill="#111111" d="M134.601,49.713l-2.752-0.589l0.357-1.669c0.078-0.363,0.435-0.594,0.797-0.516l1.438,0.308
				c0.363,0.078,0.594,0.435,0.516,0.797L134.601,49.713z"/>
		</g>
		<g>
			<path fill="#111111" d="M148.271,63.976H95.86c-1.36,0-2.463-1.103-2.463-2.463v0c0-1.36,1.103-2.463,2.463-2.463h52.411
				c1.36,0,2.463,1.103,2.463,2.463v0C150.734,62.873,149.631,63.976,148.271,63.976z"/>
		</g>
		<g opacity="0.18">
			<path fill="#111111" d="M156.227,96.647c-0.114,0-0.297-0.019-0.407-0.034l0.222,1.96l38.683-0.979l0.172-0.96
				c-0.082,0.009-0.165,0.013-0.25,0.013H156.227z"/>
		</g>
		<g>
			<g>
				<path fill="#111111" d="M174.528,103.453c0,4.501,0,9.002,0,13.504c0,4.478,0,8.956,0,13.435c0,2.526,0,5.052,0,7.579
					c0,0.361,0.318,0.708,0.691,0.691c0.374-0.017,0.691-0.304,0.691-0.691c0-4.501,0-9.002,0-13.504c0-4.478,0-8.956,0-13.435
					c0-2.526,0-5.052,0-7.579c0-0.361-0.318-0.708-0.691-0.691C174.845,102.779,174.528,103.066,174.528,103.453L174.528,103.453z"
					/>
			</g>
		</g>
		<g>
			<g>
				<path fill="#111111" d="M165.315,103.453c0,4.501,0,9.002,0,13.504c0,4.478,0,8.956,0,13.435c0,2.526,0,5.052,0,7.579
					c0,0.361,0.318,0.708,0.691,0.691c0.374-0.017,0.691-0.304,0.691-0.691c0-4.501,0-9.002,0-13.504c0-4.478,0-8.956,0-13.435
					c0-2.526,0-5.052,0-7.579c0-0.361-0.318-0.708-0.691-0.691C165.632,102.779,165.315,103.066,165.315,103.453L165.315,103.453z"
					/>
			</g>
		</g>
		<g>
			<g>
				<path fill="#111111" d="M183.742,103.453c0,4.501,0,9.002,0,13.504c0,4.478,0,8.956,0,13.435c0,2.526,0,5.052,0,7.579
					c0,0.361,0.318,0.708,0.691,0.691c0.374-0.017,0.691-0.304,0.691-0.691c0-4.501,0-9.002,0-13.504c0-4.478,0-8.956,0-13.435
					c0-2.526,0-5.052,0-7.579c0-0.361-0.318-0.708-0.691-0.691C184.059,102.779,183.742,103.066,183.742,103.453L183.742,103.453z"
					/>
			</g>
		</g>
		<g opacity="0.18">
			<path fill="#111111" d="M143.421,63.139l-5.87,76.548h0.803c1.757,0,3.226-1.337,3.39-3.087l6.888-73.347L143.421,63.139z"/>
		</g>
	</g>
</g>
</svg>
