<?xml version="1.0" encoding="utf-8"?>
<!-- Generator: Adobe Illustrator 27.6.1, SVG Export Plug-In . SVG Version: 6.00 Build 0)  -->
<svg version="1.1" xmlns="http://www.w3.org/2000/svg" xmlns:xlink="http://www.w3.org/1999/xlink" x="0px" y="0px"
	 viewBox="0 0 197 198.846" enable-background="new 0 0 197 198.846" xml:space="preserve">
<g id="Color_4">
	<g id="Layer_104">
		<path fill="#E89F97" d="M157.975,29.012l-8.628,0.101l1.184,6.086l-6.606,11.915l13.778-9.872l2.512-3.437l-2.147-4.582
			C158.035,29.153,158.006,29.082,157.975,29.012z"/>
		<path fill="#E89F97" d="M157.339,27.252l-1.712-6.18l-6.983,4.425l0.703,3.616l8.628-0.101
			C157.72,28.442,157.506,27.854,157.339,27.252z"/>
	</g>
	<g id="Layer_337_copy_4">
		<g>
			<polygon fill="#E89F97" points="150.675,31.46 135.818,35.031 127.165,12.197 122.34,12.929 129.525,44.544 146.062,42.516 
				152.016,35.991 			"/>
		</g>
	</g>
	<g id="Layer_347_copy_3">
		<g>
			<path fill="#E89F97" d="M122.798,14.933L118.8,5.795c-0.074-0.214-0.618-1.606-0.368-1.773l0.021-0.021
				c0.366-0.262,0.96,0.922,1.074,1.123l1.085,2.204l-1.064-3.974c-0.078-0.29-0.44-1.646-0.036-1.779l0.047-0.021
				c0.446-0.17,0.965,1.131,1.088,1.414l1.602,4.006l-1.363-6.054c-0.065-0.333,0.04-0.75,0.317-0.855l0.025-0.008
				c0.432-0.178,0.814,0.084,0.91,0.43l1.855,5.474l-0.575-3.542c-0.025-0.369-0.167-1.5,0.203-1.618l0.064-0.016
				c0.445-0.032,0.802,1.04,0.892,1.359l0.466,1.653l0.926,3.193l0.526-1.915c0.153-0.426,0.335-1.132,0.955-1.338h0.02
				c0.405-0.037,0.449,0.261,0.48,0.392c0.045,0.193-0.078,0.384-0.149,0.57c-0.523,1.369-0.188,5.85-0.136,9.457L122.798,14.933z"
				/>
		</g>
	</g>
	<g id="Layer_349_copy_3">
		<g>
			<path fill="#E89F97" d="M162.119,36.146l-5.539,2.082l-4.476,19.2l-22.436,12.918l-6.66,3.334l0.002,0.002l-3.484,1.667
				l-5.082,4.939c-0.371,0.361-0.027,0.926,0.528,0.868l2.373-0.25c0.398-0.042,0.766-0.204,1.039-0.457l1.657-1.287
				c0.39-0.363,2.883-0.807,4.765-1.613c0.783-0.335,1.431-0.804,1.858-1.16l5.553-0.604l26.685-11.898l5.037-22.793L162.119,36.146
				z"/>
		</g>
	</g>
	<g id="Layer_106">
		<g id="Layer_105">
			<g>
				<path fill="#E89F97" d="M148.643,25.498l0.281,1.446c0.742,0.329,1.543,0.504,2.388,0.504c1.561,0,3.313-0.651,4.932-1.78
					c0.183-0.128,0.365-0.262,0.544-0.402l-1.162-4.194L148.643,25.498z"/>
				<path fill="#E89F97" d="M161.789,15.549c0-6.597-4.94-11.929-9.396-11.929c-4.456,0-8.754,5.769-8.754,12.366
					c0,5.342,2.11,9.548,5.279,10.955c0.002,0.001,0.004,0.002,0.006,0.003l-0.281-1.446l6.983-4.425l1.162,4.194
					C159.548,23.115,161.789,19.573,161.789,15.549z"/>
			</g>
		</g>
	</g>
</g>
<g id="Color_3">
	<g id="Layer_360_copy">
		<g id="Layer_375_copy">
			<g id="Layer_396_copy">
				<g>
					<g>
						<path fill="#67AD5B" d="M96.251,73.212l1.165-15.746l0.908-12.214c0.146-1.969-1.298-3.601-3.27-3.694L82.82,40.976
							l-15.766-0.75l0.003,0.004l-0.005-0.004L27.802,74.966c-2.458,2.176-2.798,5.808-0.758,8.112l21.815,24.645
							c2.04,2.304,5.686,2.408,8.144,0.232l39.249-34.741L96.251,73.212z M88.786,50.519c-1.056-1.193-0.88-3.073,0.392-4.199
							c1.273-1.126,3.16-1.073,4.216,0.12s0.88,3.073-0.392,4.199C91.73,51.766,89.842,51.712,88.786,50.519z"/>
					</g>
				</g>
			</g>
		</g>
	</g>
	<g id="Layer_361_copy_5">
		<path display="none" fill="#67AD5B" d="M-430.108-697.096l-148.184-142.652l-114.993-110.7c-18.571-17.877-47.829-17.877-66.4,0
			l-114.993,110.7l-148.193,142.66h0.065l-0.089,0.017V39.152h592.931V-697.07L-430.108-697.096z"/>
		<g>
			<circle fill="#67AD5B" cx="28.095" cy="34.573" r="14.567"/>
		</g>
	</g>
	<g id="Layer_353_copy_2">
		<g>
			<path fill="#67AD5B" d="M88.399,180.178h-65.59l-2.338-5.257h62.286c0.797,0,1.531-0.268,2.117-0.718
				c1.015-0.564,1.702-1.647,1.702-2.891v-20.436c0-1.826-1.48-3.306-3.306-3.306h-0.139c-1.826,0-3.306,1.48-3.306,3.306v17.08
				H15.752c-0.439,0-0.858,0.082-1.244,0.23c-0.16,0.043-0.319,0.099-0.475,0.168h0c-1.622,0.721-2.353,2.622-1.631,4.244
				l5.558,12.498c0.427,0.96,1.267,1.608,2.218,1.827c0.379,0.141,0.789,0.219,1.217,0.219h67.005c1.923,0,3.482-1.559,3.482-3.482
				v0C91.881,181.737,90.322,180.178,88.399,180.178z"/>
		</g>
	</g>
	<g id="Layer_352_copy">
		<g>
			<path fill="#67AD5B" d="M94.478,156.334H9.502c-3.141,0-5.688-2.547-5.688-5.688v-45.953c0-2.967,2.28-5.435,5.238-5.67
				l92.741-7.368c3.64-0.289,6.605,2.877,6.079,6.49l-7.765,53.321C99.7,154.261,97.303,156.334,94.478,156.334z"/>
		</g>
		<g>
			<path fill="#67AD5B" d="M99.944,107.691L99.944,107.691c-1.394-0.92-1.777-2.795-0.858-4.189l14.737-22.323
				c0.92-1.394,2.795-1.777,4.189-0.858l0,0c1.394,0.92,1.777,2.795,0.858,4.189l-14.737,22.323
				C103.213,108.227,101.337,108.611,99.944,107.691z"/>
		</g>
	</g>
	<g id="Layer_344_copy_5">
		<g id="Layer_344_copy_5_00000121274539846708355000000015150502323449067198_">
			<g>
				<path fill="#67AD5B" d="M131.263,178.942h-12.369l-2.745,10.033l-6.017,0.736c-4.499,0.55-7.912,4.319-8.016,8.851v0h23.748
					v-0.197h0.087L131.263,178.942z"/>
			</g>
		</g>
		<path display="none" fill="#67AD5B" d="M988.355,893.082l-93.326,54.312l27.855,95.497l-41.838,32.543
			c-31.281,24.332-38.794,70.665-17.643,108.807v0l179.177-104.273l-0.955-1.641l0.653-0.38L988.355,893.082z"/>
		<g id="Layer_344_copy_5_00000046327778529238706840000016464415795586651065_">
			<g>
				<path fill="#67AD5B" d="M189.496,169.412l-9.991,5.766l2.46,9.383l-4.517,3.4c-3.377,2.542-4.378,7.177-2.349,10.885l0,0
					l19.181-11.07l-0.092-0.159l0.07-0.04L189.496,169.412z"/>
			</g>
		</g>
	</g>
	<g id="Layer_103">
		<path fill="#67AD5B" d="M155.068,99.303c-0.389-2.015-0.778-4.03-1.167-6.045c-0.218-1.131-0.436-2.261-0.655-3.392
			c-0.038-0.197-0.339-0.113-0.301,0.083c0.387,2.006,0.774,4.013,1.162,6.019c0.389,2.015,0.778,4.03,1.167,6.045
			c0.218,1.131,0.436,2.261,0.655,3.392c0.038,0.197,0.339,0.113,0.301-0.083C155.842,103.316,155.455,101.309,155.068,99.303z"/>
		<path fill="#67AD5B" d="M168.533,83.043c-1.687-0.509-3.188-1.597-4.208-3.034c-0.287-0.405-0.535-0.835-0.743-1.286
			c-0.084-0.182-0.352-0.024-0.269,0.157c0.761,1.655,2.093,3.037,3.706,3.88c0.457,0.239,0.937,0.434,1.431,0.583
			C168.642,83.401,168.725,83.1,168.533,83.043z"/>
	</g>
	<g id="Layer_341_copy_5_00000022557772398941099310000012558191224769405356_">
		<g>
			<path fill="#67AD5B" d="M141.577,77.341l1.196-11.919l23.932-25.006l-0.796,17.575c-0.026,0.567-0.003,1.136,0.067,1.7
				l2.206,17.65H141.577z"/>
		</g>
	</g>
	<g id="Layer_341_copy_5">
		<g id="Layer_340_copy_3">
			<g>
				<path fill="#67AD5B" d="M166.705,40.416l-0.128,2.828c0.523-2.164,0.24-4.462-0.825-6.45l0,0
					c-1.744-3.254-3.504-3.945-7.061-6.265l-0.045-0.079l-0.03-0.052c-7.274,9.348-9.349,8.139-8.771,1.203l-14.027,3.431
					l-6.225-19.019l-6.944,1.736l6.549,27.811l12.948-1.464l1.553-0.377c-2.67,3.722-3.661,8.392-2.732,12.878l0.779,3.763
					l-11.571,9.696l2.431,5.549l9.582-4.256l0.587-5.926L166.705,40.416z"/>
			</g>
		</g>
	</g>
</g>
<g id="Color_2">
	<g id="Layer_345_copy_3">
		<g>
			<g>
				<path fill="#80BF71" d="M148.137,55.26c-1.41,1.126-2.819,2.251-4.229,3.377c-0.398,0.318-0.796,0.636-1.194,0.953
					c-0.157,0.125,0.065,0.344,0.22,0.22c1.41-1.126,2.819-2.251,4.229-3.377c0.398-0.318,0.796-0.636,1.194-0.953
					C148.514,55.355,148.292,55.136,148.137,55.26L148.137,55.26z"/>
			</g>
		</g>
		<g>
			<g>
				<path fill="#80BF71" d="M154.816,44.023c-1.404,2.5-2.808,5-4.212,7.5c-0.397,0.708-0.795,1.416-1.192,2.123
					c-0.098,0.175,0.171,0.332,0.269,0.157c1.404-2.5,2.808-5,4.212-7.5c0.397-0.708,0.795-1.416,1.192-2.123
					C155.183,44.005,154.914,43.848,154.816,44.023L154.816,44.023z"/>
			</g>
		</g>
		<g>
			<g>
				<path fill="#80BF71" d="M144.506,42.643c0.806-0.915,1.612-1.83,2.418-2.745c0.123-0.14-0.082-0.347-0.206-0.206
					c-0.806,0.915-1.612,1.83-2.418,2.745C144.176,42.578,144.382,42.784,144.506,42.643L144.506,42.643z"/>
			</g>
		</g>
	</g>
	<g id="Layer_396_copy_5">
		<g>
			<g>
				<path fill="#80BF71" d="M42.497,66.518c5.473-5.473,10.945-10.945,16.418-16.418c3.265-3.265,6.531-6.531,9.796-9.796
					l-1.658-0.079l0.003,0.004l-0.005-0.004L27.802,74.966c-2.245,1.987-2.721,5.187-1.235,7.482
					C31.877,77.139,37.187,71.829,42.497,66.518z"/>
			</g>
		</g>
	</g>
</g>
<g id="Color_1">
	<g>
		<g>
			<g>
				<path fill="#111111" d="M67.693,55.896c-2.031-2.191-5.859-1.945-8.552,0.55s-3.228,6.294-1.198,8.485
					c2.031,2.191,5.859,1.945,8.552-0.55C69.188,61.886,69.724,58.087,67.693,55.896z M61.073,62.031
					c-0.727-0.785-0.535-2.145,0.429-3.038c0.964-0.893,2.335-0.982,3.062-0.197c0.727,0.785,0.535,2.145-0.429,3.038
					C63.171,62.728,61.8,62.816,61.073,62.031z"/>
			</g>
		</g>
		<g>
			<g>
				<path fill="#111111" d="M72.406,77.872c-2.031-2.191-5.859-1.945-8.552,0.55s-3.228,6.294-1.198,8.485
					c2.031,2.191,5.859,1.945,8.552-0.55C73.9,83.863,74.437,80.064,72.406,77.872z M65.786,84.007
					c-0.727-0.785-0.535-2.145,0.429-3.038c0.964-0.893,2.335-0.982,3.062-0.197s0.535,2.145-0.429,3.038
					C67.884,84.704,66.513,84.792,65.786,84.007z"/>
			</g>
		</g>
		<g>
			<path fill="#111111" d="M50.638,79.958l-2.505-2.703c-0.492-0.531-0.311-1.39,0.354-1.676l28.625-12.328
				c0.408-0.176,0.882-0.075,1.184,0.25l2.505,2.703c0.492,0.531,0.311,1.39-0.354,1.676L51.822,80.209
				C51.414,80.384,50.94,80.284,50.638,79.958z"/>
		</g>
		<g>
			<circle fill="#111111" cx="38.331" cy="192.177" r="5.009"/>
		</g>
		<g>
			<circle fill="#111111" cx="70.317" cy="192.177" r="5.009"/>
		</g>
		<g>
			<g>
				<path fill="#111111" d="M23.963,28.848c-1.306,0-2.365,1.301-2.365,2.905c0,1.604,1.059,2.905,2.365,2.905
					s2.365-1.301,2.365-2.905C26.328,30.149,25.269,28.848,23.963,28.848z M23.963,32.794c-0.468,0-0.847-0.466-0.847-1.04
					c0-0.575,0.379-1.04,0.847-1.04s0.847,0.466,0.847,1.04C24.81,32.328,24.431,32.794,23.963,32.794z"/>
			</g>
		</g>
		<g>
			<g>
				<path fill="#111111" d="M32.409,33.867c-1.306,0-2.365,1.301-2.365,2.905c0,1.604,1.059,2.905,2.365,2.905
					c1.306,0,2.365-1.301,2.365-2.905C34.773,35.167,33.715,33.867,32.409,33.867z M32.409,37.812c-0.468,0-0.847-0.466-0.847-1.04
					c0-0.575,0.379-1.04,0.847-1.04c0.468,0,0.847,0.466,0.847,1.04C33.256,37.346,32.877,37.812,32.409,37.812z"/>
			</g>
		</g>
		<g>
			<path fill="#111111" d="M26.49,41.465h-1.249c-0.434,0-0.738-0.43-0.593-0.839l4.431-12.499c0.089-0.251,0.326-0.419,0.593-0.419
				h1.249c0.434,0,0.738,0.43,0.593,0.839l-4.431,12.499C26.994,41.297,26.756,41.465,26.49,41.465z"/>
		</g>
		<path fill="#111111" d="M154.034,0.317L154.034,0.317c-7.29,0-13.199,5.91-13.199,13.199c0.405,5.789,0.311,11.102-0.53,15.703
			l9.042-0.106l-0.19-0.974l-0.239-1.198c-3.169-1.407-5.279-5.612-5.279-10.955c0-6.597,4.299-12.366,8.754-12.366
			c4.456,0,9.396,5.331,9.396,11.929c0,4.025-2.241,7.566-5.001,9.717l0.55,1.986c0.167,0.602,0.381,1.19,0.636,1.76l11.502-0.135
			C167.508,25.666,168.846,0.951,154.034,0.317z"/>
		<path opacity="0.11" fill="#111111" d="M148.925,26.943l0.233,1.196l0.548,2.746c3.526-1.244,5.503-2.998,6.54-5.217
			c-1.619,1.129-3.372,1.78-4.932,1.78C150.467,27.447,149.667,27.272,148.925,26.943z"/>
		<path fill="#111111" d="M164.386,15.304c-0.12-3.117-1.252-6.186-3.184-8.634c-1.072-1.358-2.397-2.536-3.95-3.299
			c-2.361-1.161-5.207-1.288-7.662-0.343s-4.481,2.948-5.454,5.392c-0.324,0.815-1.307,2.005-0.926,2.795l0.296,0.987
			c2.466-0.532,3.153-2.608,3.998-4.985c0.477,1.968,1.951,3.666,3.801,4.492c0.011,0.005,0.022,0.01,0.033,0.015
			c1.4,1.14,3.101,1.911,4.884,2.193c0.925,0.146,1.976,0.219,2.577,0.937c0.629,0.752,0.466,1.897,0.036,2.777
			c-0.394,0.807-0.908,1.039-1.503,1.712c-0.896,1.014-0.954,3.019-0.911,4.064c-0.003,0.268,0.021,0.556,0.079,0.869
			c0.445,2.402,1.306,4.373,2.529,4.367c1.162-0.005,2.2-3.519,2.848-4.484C163.613,21.568,164.506,18.421,164.386,15.304z"/>
		<g>
			<path fill="#111111" d="M180.087,132.587c-6.178-27.208-6.07-39.177-11.937-55.365l-26.391,0.019l-0.181,0.066L127.3,126.785
				l-17.188,59.986l22.779-0.235l11.976-54.481c4.163-10.409,9.27-17.169,11.862-23.794l5.991,25.905l9.82,51.424L197,175.03
				L180.087,132.587z M155.929,105.405c-0.218-1.131-0.436-2.261-0.655-3.392c-0.389-2.015-0.778-4.03-1.167-6.045
				c-0.387-2.006-0.774-4.013-1.162-6.019c-0.038-0.196,0.263-0.28,0.301-0.083c0.218,1.131,0.436,2.261,0.655,3.392
				c0.389,2.015,0.778,4.03,1.167,6.045c0.387,2.006,0.774,4.013,1.162,6.019C156.267,105.519,155.967,105.602,155.929,105.405z
				 M168.45,83.343c-0.494-0.149-0.974-0.344-1.431-0.583c-1.613-0.843-2.945-2.225-3.706-3.88
				c-0.083-0.181,0.185-0.339,0.269-0.157c0.207,0.451,0.455,0.882,0.743,1.286c1.02,1.436,2.521,2.525,4.208,3.034
				C168.725,83.1,168.642,83.401,168.45,83.343z"/>
		</g>
		<g opacity="0.11">
			<path fill="#111111" d="M148.42,16.427c0.14,1.79,0.391,3.82,0.546,5.091l-1.978,0.139L148.42,16.427z"/>
		</g>
		<g>
			<g>
				<path fill="#111111" d="M149.585,22.984c-0.822,0.73-2.042,0.765-2.92,0.115c-0.151-0.112-0.296,0.141-0.147,0.252
					c0.986,0.731,2.36,0.65,3.273-0.16C149.932,23.065,149.725,22.859,149.585,22.984L149.585,22.984z"/>
			</g>
		</g>
		<g>
			<ellipse fill="#111111" cx="145.76" cy="16" rx="0.579" ry="0.896"/>
		</g>
		<g>
			<ellipse fill="#111111" cx="152.114" cy="16.522" rx="0.579" ry="0.896"/>
		</g>
		<g>
			<g>
				<path fill="#111111" d="M143.916,14.616c0.111-0.082,0.227-0.158,0.348-0.224c0.06-0.033,0.121-0.064,0.183-0.093
					c0.009-0.004,0.091-0.04,0.067-0.03c-0.024,0.01,0.059-0.023,0.069-0.026c0.127-0.047,0.257-0.086,0.388-0.116
					c0.066-0.015,0.132-0.027,0.198-0.038c0.061-0.01,0.003-0.002,0.04-0.005c0.033-0.004,0.067-0.007,0.1-0.01
					c0.134-0.011,0.268-0.012,0.403-0.005c0.151,0.008,0.186,0.012,0.32,0.039c0.283,0.056,0.503,0.134,0.732,0.255
					c0.18,0.095,0.41,0.046,0.515-0.135c0.099-0.17,0.045-0.42-0.135-0.515c-1.14-0.601-2.565-0.514-3.608,0.254
					c-0.163,0.121-0.246,0.327-0.135,0.515C143.495,14.642,143.752,14.737,143.916,14.616L143.916,14.616z"/>
			</g>
		</g>
		<g>
			<g>
				<path fill="#111111" d="M153.43,14.288c-1.042-0.768-2.468-0.855-3.608-0.254c-0.18,0.095-0.235,0.345-0.135,0.515
					c0.107,0.182,0.335,0.23,0.515,0.135c0.131-0.069,0.203-0.102,0.322-0.143c0.127-0.045,0.258-0.081,0.39-0.108
					c0.033-0.007,0.066-0.013,0.099-0.018c0.009-0.002,0.094-0.014,0.04-0.007c0.067-0.009,0.134-0.014,0.201-0.017
					c0.134-0.007,0.269-0.005,0.403,0.005c0.027,0.002,0.054,0.005,0.08,0.007c0.126,0.011-0.065-0.013,0.06,0.008
					c0.066,0.011,0.133,0.023,0.198,0.038c0.125,0.028,0.249,0.065,0.369,0.109c0.103,0.038,0.193,0.078,0.319,0.147
					c0.128,0.069,0.249,0.148,0.366,0.234c0.164,0.121,0.42,0.027,0.515-0.135C153.677,14.612,153.594,14.41,153.43,14.288
					L153.43,14.288z"/>
			</g>
		</g>
		<g>
			<g>
				<path fill="#111111" d="M157.286,15.652c0.038,0.605-0.031,1.211-0.21,1.79c-0.029,0.094,0.119,0.135,0.148,0.041
					c0.183-0.591,0.255-1.213,0.216-1.831C157.433,15.554,157.28,15.553,157.286,15.652L157.286,15.652z"/>
			</g>
		</g>
		<g>
			<g>
				<path fill="#111111" d="M157.83,16.218c-0.177,0.209-0.353,0.417-0.53,0.626c-0.027,0.032-0.031,0.077,0,0.108
					c0.027,0.027,0.082,0.032,0.108,0c0.177-0.209,0.353-0.417,0.53-0.626c0.027-0.032,0.031-0.077,0-0.108
					C157.911,16.191,157.857,16.187,157.83,16.218L157.83,16.218z"/>
			</g>
		</g>
		<g>
			<g>
				<path fill="#111111" d="M54.448,117.453c0.22-0.371,0.758-0.368,0.975,0.005l3.285,5.646l-1.415,0.732l2.397,1.17l2.397,1.17
					l0.429-2.633l0.429-2.633l-1.366,0.707l-3.943-7.186c-1.067-1.944-3.838-2.005-4.988-0.109l-4.516,7.438l2.866,1.493
					L54.448,117.453z"/>
				<path fill="#111111" d="M62.425,126.827l-6.104-2.98l1.779-0.92l-3.054-5.25c-0.032-0.055-0.083-0.064-0.111-0.064
					c0,0,0,0-0.001,0c-0.028,0-0.078,0.008-0.111,0.063l-3.66,6.156l-3.646-1.899l4.758-7.837c0.622-1.025,1.709-1.625,2.909-1.595
					c1.199,0.026,2.259,0.67,2.836,1.721l3.738,6.812l1.759-0.91L62.425,126.827z M58.267,123.825l3.485,1.701l0.624-3.828
					l-0.973,0.503l-4.148-7.56c-0.425-0.774-1.206-1.248-2.089-1.268c-0.883-0.021-1.684,0.42-2.143,1.175l-4.274,7.04l2.086,1.086
					l3.238-5.446c0.183-0.307,0.504-0.49,0.861-0.49c0.002,0,0.003,0,0.005,0c0.359,0.002,0.681,0.188,0.862,0.498l3.516,6.043
					L58.267,123.825z"/>
			</g>
			<g>
				<path fill="#111111" d="M69.087,135.269l-4.351-7.536l-2.687,1.795l3.428,5.813c0.219,0.372-0.042,0.842-0.473,0.853
					l-6.53,0.166l0.038-1.592l-2.179,1.539l-2.179,1.539l2.102,1.642l2.102,1.642l0.037-1.538l8.197-0.003
					C68.811,139.59,70.196,137.189,69.087,135.269z"/>
				<path fill="#111111" d="M58.776,142.01l-5.353-4.181l5.547-3.92l-0.048,2.002l6.072-0.155c0.064-0.002,0.096-0.042,0.109-0.066
					c0.013-0.024,0.031-0.073-0.002-0.128l-3.638-6.169l3.418-2.284l4.585,7.94c0.6,1.039,0.6,2.279,0,3.318
					c-0.599,1.039-1.673,1.659-2.873,1.659l-7.77,0.003L58.776,142.01z M54.888,137.864l3.056,2.387l0.026-1.095l8.623-0.003
					c0.883,0,1.674-0.457,2.116-1.222c0.442-0.765,0.441-1.679,0-2.444l-4.118-7.132l-1.955,1.307l3.219,5.457
					c0.182,0.309,0.187,0.681,0.013,0.995c-0.174,0.314-0.492,0.507-0.851,0.516l-6.989,0.178l0.028-1.182L54.888,137.864z"/>
			</g>
			<g>
				<path fill="#111111" d="M44.919,136.656c-0.431-0.001-0.703-0.465-0.493-0.841l3.186-5.703l1.35,0.845l-0.214-2.659
					l-0.214-2.659l-2.484,0.972l-2.484,0.972l1.304,0.815l-4.175,7.053c-1.13,1.908,0.23,4.323,2.447,4.348l8.702,0.098
					l-0.175-3.227L44.919,136.656z"/>
				<path fill="#111111" d="M52.305,140.339l-9.168-0.103c-1.199-0.013-2.266-0.645-2.854-1.691
					c-0.588-1.045-0.575-2.285,0.036-3.317l3.958-6.686l-1.679-1.05l6.326-2.474l0.545,6.77l-1.698-1.062l-2.962,5.302
					c-0.031,0.056-0.013,0.104,0.001,0.128c0.014,0.024,0.047,0.063,0.111,0.064h0l7.162,0.014L52.305,140.339z M44.535,127.672
					l0.929,0.581l-4.393,7.42c-0.45,0.76-0.46,1.674-0.027,2.444c0.433,0.77,1.219,1.235,2.102,1.245l8.235,0.092l-0.128-2.348
					l-6.336-0.013c-0.359-0.001-0.682-0.186-0.863-0.496c-0.181-0.31-0.185-0.682-0.01-0.995l3.41-6.104l1.003,0.627l-0.311-3.866
					L44.535,127.672z"/>
			</g>
		</g>
		<path opacity="0.18" fill="#111111" d="M101.793,91.655L9.052,99.022c-2.957,0.235-5.238,2.703-5.238,5.67l0.001,7.597
			l103.516-10.426l0.542-3.719C108.398,94.532,105.432,91.366,101.793,91.655z"/>
		<g>
			<path fill="#111111" d="M127.013,83.562h-11.625c-1.344,0-2.433-1.089-2.433-2.433v0c0-1.344,1.089-2.433,2.433-2.433h11.625
				c1.344,0,2.433,1.089,2.433,2.433v0C129.447,82.472,128.357,83.562,127.013,83.562z"/>
		</g>
		<g>
			<path fill="#111111" d="M107.702,97.397L3.845,105.168c-1.971,0.147-3.687-1.33-3.835-3.301h0
				c-0.147-1.971,1.33-3.687,3.301-3.835l103.857-7.771c1.971-0.147,3.687,1.33,3.835,3.301v0
				C111.15,95.532,109.672,97.249,107.702,97.397z"/>
		</g>
		<g opacity="0.11">
			<path fill="#111111" d="M88.399,180.178h-65.59l-2.338-5.257h62.286c0.797,0,1.531-0.268,2.117-0.718
				c1.015-0.564,1.702-1.647,1.702-2.891v-15.005h-6.751v11.649H15.752c-0.439,0-0.858,0.082-1.244,0.23
				c-0.16,0.043-0.319,0.099-0.475,0.168h0c-1.622,0.721-2.353,2.622-1.631,4.244l5.558,12.498c0.427,0.96,1.267,1.608,2.218,1.827
				c0.379,0.141,0.789,0.219,1.217,0.219h67.005c1.923,0,3.482-1.559,3.482-3.482v0C91.881,181.737,90.322,180.178,88.399,180.178z"
				/>
		</g>
		<g opacity="0.18">
			<rect x="79.825" y="156.321" fill="#111111" width="6.751" height="2.318"/>
		</g>
		<path opacity="0.11" fill="#111111" d="M168.182,77.341l-2.206-17.65c-0.07-0.564-0.093-1.132-0.067-1.7l0.668-14.748
			c-0.1,0.413-0.229,0.822-0.388,1.222l-7.757,19.533l-16.242,7.242l-0.612,6.1H168.182z"/>
		<g opacity="0.18">
			<polygon fill="#111111" points="128.742,188.158 131.263,178.942 118.894,178.942 116.373,188.158 			"/>
		</g>
		<g opacity="0.18">
			<polygon fill="#111111" points="191.756,178.03 189.496,169.412 179.505,175.178 181.765,183.797 			"/>
		</g>
	</g>
</g>
</svg>
