<svg id="Group_3" data-name="Group 3" xmlns="http://www.w3.org/2000/svg" xmlns:xlink="http://www.w3.org/1999/xlink" width="450" height="485" viewBox="0 0 450 485">
  <defs>
    <clipPath id="clip-path">
      <path id="Clip_2" data-name="Clip 2" d="M0,0H439.859V45.884H0Z" transform="translate(0 0.116)" fill="none"/>
    </clipPath>
    <clipPath id="clip-path-2">
      <path id="Clip_141" data-name="Clip 141" d="M0,0H9.617V4.746H0Z" transform="translate(0.182 0.135)" fill="none"/>
    </clipPath>
  </defs>
  <path id="Base" d="M423,211.5C423,328.308,328.308,423,211.5,423S0,328.308,0,211.5,94.692,0,211.5,0,423,94.692,423,211.5" transform="translate(14 62)" fill="#e7e7e7"/>
  <g id="Illustration_-_Enjoy" data-name="Illustration - Enjoy">
    <g id="Illustration_-_Enjoy-2" data-name="Illustration - Enjoy">
      <g id="Group_3-2" data-name="Group 3" transform="translate(0 407)">
        <path id="Clip_2-2" data-name="Clip 2" d="M0,0H439.859V45.884H0Z" transform="translate(0 0.116)" fill="none"/>
        <g id="Group_3-3" data-name="Group 3" clip-path="url(#clip-path)">
          <path id="Fill_1" data-name="Fill 1" d="M439.859,22.941c0,12.672-98.468,22.943-219.929,22.943S0,35.613,0,22.941,98.465,0,219.929,0,439.859,10.271,439.859,22.941" transform="translate(0 0.116)" fill="#cdcdcd"/>
        </g>
      </g>
      <path id="Fill_4" data-name="Fill 4" d="M0,1.624V19.641L7.659,22l17.31-.109s.356-.751-1.318-3.653c-.772-1.337-6.358-5.108-9.595-9.012A30.03,30.03,0,0,1,8.843,0Z" transform="translate(341 414)" fill="#28265f"/>
      <path id="Fill_6" data-name="Fill 6" d="M9,0S3.711,1.455.7,4.594,5.267,13,5.267,13Z" transform="translate(293 176)" fill="#323232"/>
      <path id="Fill_8" data-name="Fill 8" d="M0,0,1.179,13.493s6.759,46.186,7.384,50.94c0,0,6.761,3.559,17.437-.053,0,0-2.692-34.619-2.627-37.195.143-5.883-5.294-22.643-5.294-22.643Z" transform="translate(297 356)" fill="#1438c5"/>
      <path id="Fill_10" data-name="Fill 10" d="M0,0S1.514,22.749,1.817,28.323,9.58,90.8,9.58,90.8s12.284,3.632,15.2-1.748S26.9,25.231,26.9,25.231L26.071,1.348Z" transform="translate(290 279)" fill="#1438c5"/>
      <path id="Fill_12" data-name="Fill 12" d="M0,0,2.767,34.574s5.853,3.476,6.318-.426c2.267-18.908,3.133-29.123,2.869-31.3Z" transform="translate(340 258)" fill="#f69e8b"/>
      <path id="Fill_14" data-name="Fill 14" d="M19,33.911S6.034,3.7,6.05,0c0,0-6.312-.2-6.042,2.73C.334,6.282,2.646,24.245,3.475,27.294,7.319,41.42,11.3,42,11.3,42Z" transform="translate(245 174)" fill="#e4836f"/>
      <path id="Fill_16" data-name="Fill 16" d="M38.894.676,7.7,0S4.167,6.716,0,8.671c0,0,20.838,8.512,37.253,10.225S38.894.676,38.894.676" transform="translate(256 207)" fill="#1941df"/>
      <path id="Fill_18" data-name="Fill 18" d="M17.692,1.569,10.748,0,.968.825a104.068,104.068,0,0,0,.637,32.568S2.738,64.922,4.4,74.934a49.668,49.668,0,0,0,38.844,2.058l2.534-38.673S52.869,13.836,51.911,10.8c0,0-5.256-3.381-16.155-5.577Z" transform="translate(287 207)" fill="#1941df"/>
      <path id="Fill_20" data-name="Fill 20" d="M28.8.356,30.383,5.6s1.063,6.658.4,9.4H.1s-1.01-2.664,3.517-4.627C5.169,9.7,14.6,8.7,18.528,1.576,19.95-1,28.8.356,28.8.356" transform="translate(292 418)" fill="#28265f"/>
      <path id="Fill_22" data-name="Fill 22" d="M2.319,11.849A9.915,9.915,0,0,0,3.527,4.112c-.027-.071-.061-.14-.088-.215l.041-.679L16.557,0S14.835,11.37,22,15.512c0,0-19.82,9.585-22,8.384,0,0,.974-9.784,2.319-12.047.082-.073-.071.1,0,0" transform="translate(301 197)" fill="#e4836f"/>
      <path id="Fill_24" data-name="Fill 24" d="M23.779,3.385s-8.026-6.214-15.85-1.8c0,0-7.194-.757-7.906,14.467C-.251,21.956,2,27.137,3.967,27.774c0,0,11.21,1.93,15.517-5.48C23.4,15.568,29.239,9.208,23.779,3.385" transform="translate(297 175)" fill="#f69e8b"/>
      <path id="Fill_26" data-name="Fill 26" d="M.807,26.81c-.162-.069-.332-.537-.506-.5L.687,24.49s4.375-2.2,1.356-5.677A9.751,9.751,0,0,1,.281,10.68,5.306,5.306,0,0,0,.807,8.931a16.961,16.961,0,0,0,5.2-7.657C6.162.845,6.28.421,6.386,0a8.5,8.5,0,0,1,2.97,3.977s5.292,6.957-3.113,19.966C4.221,26.313,2.378,27.487.807,26.81" transform="translate(316 174)" fill="#323232"/>
      <path id="Fill_28" data-name="Fill 28" d="M1.874,2.449C0,4.656-.563,7.373.614,8.505s3.639.256,5.514-1.951S8.562,1.627,7.387.5,3.746.238,1.874,2.449" transform="translate(315 190)" fill="#f69e8b"/>
      <path id="Fill_30" data-name="Fill 30" d="M.373,0s-2.2,13.756,4.079,27.065,9.742,21.624,9.742,21.624,3.826,4.828,12.807.526L19.62,22.8S15.608,5.877,13.347,4.16.373,0,.373,0" transform="translate(326 213)" fill="#1941df"/>
      <path id="Fill_32" data-name="Fill 32" d="M4.794,0S.938,4.885.339,7.027C-1.1,12.193,2.5,14,2.5,14s-1.08-2.378-.184-4.238A9.535,9.535,0,0,1,5,6.623Z" transform="translate(339 292)" fill="#f69e8b"/>
      <path id="Fill_34" data-name="Fill 34" d="M2.922,1.858A13.96,13.96,0,0,0,.156,9.879C.1,11.144-.031,15.41.018,16.187c0,0-.159,2.3.477,2.621,0,0,1.054.789,2.338-.828a2.5,2.5,0,0,0,2.082-.655,5.625,5.625,0,0,0,.759-1.086s1.051.229,1.4-.307,1.108-2.093,1.493-2.811a19.584,19.584,0,0,0,1.267-4.3c.393-1.064.091-8-.731-8.7S2.922,1.858,2.922,1.858" transform="translate(340 291)" fill="#f69e8b"/>
      <path id="Fill_36" data-name="Fill 36" d="M2.729,13c-.2-.162-3.115-2.305-2.686-7.225a10.689,10.689,0,0,1,.6-3A17.779,17.779,0,0,1,2.169.938,3.65,3.65,0,0,1,4.711.059,3.959,3.959,0,0,0,6.225.028,4.035,4.035,0,0,1,8.481.437,4.631,4.631,0,0,1,9.9,2.4c.052.432.14,4.028.087,4.194a44.832,44.832,0,0,1-.63,4.454C9.141,11.234,2.729,13,2.729,13" transform="translate(242 165)" fill="#e4836f"/>
      <path id="Fill_38" data-name="Fill 38" d="M0,5.8S5.395-2.1,5.117.541C4.655,4.944,7.578,2.46,7.9,2.223S9.916.579,11,2.1c0,0-2.213,1.364-2.633,2.616s-3.006,5.073-3.8,5.229C1.494,10.55,0,5.8,0,5.8" transform="translate(248 167)" fill="#e4836f"/>
      <path id="Fill_40" data-name="Fill 40" d="M1.752,10S2.8,1.515,3,.93C3,.93,2.4-.754,1.83.41A28.8,28.8,0,0,0,0,7.308,5.456,5.456,0,0,0,1.752,10" transform="translate(250 160)" fill="#e4836f"/>
      <path id="Fill_42" data-name="Fill 42" d="M3,10S2.5,1.4,2.63.666c0,0-.5-1.315-1.781-.249S.089,8.232.188,9.773c0,0,.644-.6,2.812.227" transform="translate(247 157)" fill="#e4836f"/>
      <path id="Fill_44" data-name="Fill 44" d="M5,8.911S1.5.949,1.365.317c0,0-.743-.906-1.289.346S2.088,8.79,2.627,10A2.711,2.711,0,0,1,5,8.911" transform="translate(243 159)" fill="#e4836f"/>
      <path id="Fill_46" data-name="Fill 46" d="M6,3.623S1.043.341.749.037A.537.537,0,0,0,0,.649C.054,1.52,4.02,4.507,4.78,5c0,0,.069-.81,1.22-1.377" transform="translate(239 165)" fill="#e4836f"/>
      <path id="Fill_48" data-name="Fill 48" d="M0,0,9.662,24.812,19.981,37.535,32.049,81.2s13.8,6.382,19.951-.14l-8.022-52.7L37.344,1.917Z" transform="translate(293 281)" fill="#1438c5"/>
      <path id="Fill_50" data-name="Fill 50" d="M.665,0,0,1.513S11.929,52.949,13.234,57.518A28.359,28.359,0,0,0,29,55.969s-3.536-27.444-3.866-29.977c-.748-5.787-5.662-24.621-5.662-24.621Z" transform="translate(326 361)" fill="#1438c5"/>
      <path id="Fill_52" data-name="Fill 52" d="M45.621,4.271l.689,4.9s1.612,8.567,3.338,12.3-3.456,7.985-3.456,7.985S20.048,36.587,6.384,26.976c0,0-4.846-2.9-6.187-7.185S4.83,7.273,4.532,1.9,45.621,4.271,45.621,4.271" transform="translate(284 260)" fill="#1941df"/>
      <path id="Fill_54" data-name="Fill 54" d="M18.912,19S7.028,18.488,2.326,8.2A22.109,22.109,0,0,1,0,3.022s10.108-6.8,23.4,0c0,0,3.026,10.554-4.485,15.978" transform="translate(298 171)" fill="#323232"/>
      <path id="Fill_56" data-name="Fill 56" d="M1.62,0s-6.7,4.389,7.139,15a14.519,14.519,0,0,0-.237-6.289C7.879,6.6,1.62,0,1.62,0" transform="translate(297 173)" fill="#323232"/>
      <path id="Fill_58" data-name="Fill 58" d="M20.007.76S19.022-.7,16.246.425A22.235,22.235,0,0,1,6.676,1.95C3.9,1.629,1.814.346,1.2,1.387s.6,3.579.684,4.514-2.1,9.68-1.865,12.9,9.959,2.223,12.012,1.262S23.1,13.752,23.373,12.855s2.816-1.608.944-2.885c-2.535-1.73-5.113-3.47-4.754-7.3.1-1.071.923-1.5.444-1.911" transform="translate(301 202)" fill="#1941df"/>
      <path id="Fill_60" data-name="Fill 60" d="M2.038.421.526,5.655S-.448,12.286.255,15l30.658-.424s.974-2.664-3.577-4.55c-1.562-.645-11-1.508-15.021-8.531C10.857-1.045,2.038.421,2.038.421" transform="translate(171 417)" fill="#28265f"/>
      <path id="Fill_62" data-name="Fill 62" d="M3.472.194S.353-.864.015,1.96,4.989,6.5,5.853,3.189A2.148,2.148,0,0,0,3.472.194" transform="translate(170 194)" fill="#323232"/>
      <path id="Fill_64" data-name="Fill 64" d="M3.472.194S.352-.864.015,1.96,4.99,6.5,5.854,3.188A2.15,2.15,0,0,0,3.472.194" transform="translate(168 192)" fill="#323232"/>
      <path id="Fill_66" data-name="Fill 66" d="M24.757,1.493,25,19.415l-7.637,2.451L.035,22s-.366-.742,1.269-3.648c.751-1.343,6.3-5.176,9.484-9.1A29.934,29.934,0,0,0,15.885,0Z" transform="translate(130 413)" fill="#28265f"/>
      <path id="Fill_68" data-name="Fill 68" d="M25,0l-.984,13.464S17.93,59.58,17.372,64.328c0,0-6.688,3.637-17.372.181,0,0,2.2-34.533,2.1-37.1C1.87,21.552,7.053,4.772,7.053,4.772Z" transform="translate(171 355)" fill="#a2a2a2"/>
      <path id="Fill_70" data-name="Fill 70" d="M27,0s-1.223,22.71-1.449,28.274-7.023,62.418-7.023,62.418S6.087,94.483,3.052,89.158,0,25.535,0,25.535L.51,1.707Z" transform="translate(176 278)" fill="#a2a2a2"/>
      <path id="Fill_72" data-name="Fill 72" d="M0,34.027S12.163,3.695,12.1.007c0,0,6.118-.28,5.894,2.646-.27,3.545-2.265,21.5-3.028,24.561C11.433,41.369,7.58,42,7.58,42Z" transform="translate(228 172)" fill="#77422b"/>
      <path id="Fill_74" data-name="Fill 74" d="M5.93,1.091,37.166,0S40.8,6.516,45,8.368c0,0-20.757,8.6-37.178,10.5S5.93,1.091,5.93,1.091" transform="translate(191 206)" fill="#f0c404"/>
      <path id="Fill_76" data-name="Fill 76" d="M54,0,45.909,25.963,36.991,36.423,19.88,84.993S6.218,91.673,0,85.12L8.612,34.9,13.49,4.383Z" transform="translate(149 278)" fill="#a2a2a2"/>
      <path id="Fill_78" data-name="Fill 78" d="M29.978,1.667,36.95,0l9.867.7a103.91,103.91,0,0,1-.184,32.66s.964,28.808-.573,38.872c0,0-19.211,12.958-40.767,5.412L2.2,38.9S-.744,13.186.179,10.131c0,0,.706-2.2,11.655-4.548Z" transform="translate(157 205)" fill="#f0c404"/>
      <path id="Fill_80" data-name="Fill 80" d="M19.341,11.76a10.209,10.209,0,0,1-1.295-7.791c.023-.071.055-.142.08-.216l-.048-.687L5.152,0S7,11.452,0,15.732c0,0,19.656,9.4,21.785,8.156A17.907,17.907,0,0,0,19.341,11.76c-.082-.071.075.1,0,0" transform="translate(169 194)" fill="#77422b"/>
      <path id="Fill_82" data-name="Fill 82" d="M2.411,3.042S8.944-2.707,16.731,1.6c0,0,6.323.144,7.238,15.361.356,5.9-2.426,12.371-4.356,13.038,0,0-9.644-.183-14-7.537C1.651,15.791-2.9,8.94,2.411,3.042" transform="translate(170 173)" fill="#9f6042"/>
      <path id="Fill_84" data-name="Fill 84" d="M6.9,2.084c11.278-4.855,17.124-.163,19.7,3.292a2.6,2.6,0,0,1,2.379,2.976c-.114.685-.572.667-.876.574a8.575,8.575,0,0,1-1.2,2.159c-1.222,1.64-7.7.014-11.663.16-2.69.1-3.1,1.695-3.094,2.712.051.284.082.561.1.834a9.65,9.65,0,0,1-1.977,6.388c-2.817,3.243.892,5.3,1.4,5.561A13.685,13.685,0,0,0,10.948,29a9.386,9.386,0,0,0-.8-1.218l.011.04A22.194,22.194,0,0,0,5.431,23.9a10.758,10.758,0,0,1-4.019-4.934c-.206-.5-.422-1.012-.6-1.567C-2.821,6.119,6.9,2.084,6.9,2.084" transform="translate(163 170)" fill="#323232"/>
      <path id="Fill_86" data-name="Fill 86" d="M6.082,2.4c1.886,2.2,2.484,4.921,1.33,6.081S3.8,8.8,1.912,6.6-.564,1.676.584.522,4.2.2,6.082,2.4" transform="translate(169 189)" fill="#9f6042"/>
      <path id="Fill_88" data-name="Fill 88" d="M7.362,13c.2-.166,3.078-2.359,2.581-7.29a10.729,10.729,0,0,0-.64-3A18.2,18.2,0,0,0,7.754.882,3.639,3.639,0,0,0,5.2.034,3.889,3.889,0,0,1,3.689.023,4.049,4.049,0,0,0,1.44.462,4.682,4.682,0,0,0,.055,2.446C.009,2.884-.028,6.494.029,6.659a43.957,43.957,0,0,0,.693,4.465C.938,11.313,7.362,13,7.362,13" transform="translate(239 163)" fill="#77422b"/>
      <path id="Fill_90" data-name="Fill 90" d="M11,5.73S5.53-2.1,5.839.544c.517,4.4-2.426,1.959-2.745,1.728S1.064.659,0,2.2c0,0,2.222,1.332,2.66,2.579S5.71,9.807,6.5,9.955C9.573,10.513,11,5.73,11,5.73" transform="translate(232 165)" fill="#77422b"/>
      <path id="Fill_92" data-name="Fill 92" d="M1.327,10S.2,1.521,0,.942c0,0,.565-1.7,1.135-.537A29.067,29.067,0,0,1,3,7.279,5.524,5.524,0,0,1,1.327,10" transform="translate(237 157)" fill="#77422b"/>
      <path id="Fill_94" data-name="Fill 94" d="M0,10S.38,1.4.235.678C.235.678.725-.644,2.05.4s.9,7.8.82,9.335c0,0-.663-.587-2.87.26" transform="translate(241 154)" fill="#77422b"/>
      <path id="Fill_96" data-name="Fill 96" d="M0,8.948S3.472.957,3.6.324c0,0,.747-.914,1.319.325S2.969,8.781,2.435,10A2.779,2.779,0,0,0,0,8.948" transform="translate(244 157)" fill="#77422b"/>
      <path id="Fill_98" data-name="Fill 98" d="M0,3.652S4.948.345,5.238.04a.54.54,0,0,1,.76.6C5.961,1.5,2.007,4.5,1.249,5c0,0-.078-.8-1.249-1.348" transform="translate(247 162)" fill="#77422b"/>
      <path id="Fill_100" data-name="Fill 100" d="M28.3,0,29,1.5S17.477,52.88,16.2,57.446A29.934,29.934,0,0,1,0,56.125s3.248-27.376,3.551-29.9c.689-5.773,5.466-24.6,5.466-24.6Z" transform="translate(140 361)" fill="#a2a2a2"/>
      <path id="Fill_102" data-name="Fill 102" d="M0,6.139,30.945,0s5.351,4.376,1.89,6.281C16.036,15.536,4.25,20.444,2.12,21Z" transform="translate(161 245)" fill="#9f6042"/>
      <path id="Fill_104" data-name="Fill 104" d="M10.149,0a99.148,99.148,0,0,1,8.128,23.138A125.733,125.733,0,0,1,21,46.251S20.2,52.226,10.342,53L2.08,31.723S-.762,10.405.2,7.8C2.367,1.912,10.149,0,10.149,0" transform="translate(151 213)" fill="#f0c404"/>
      <path id="Fill_106" data-name="Fill 106" d="M0,11.576c.233.1,4.687,1.258,11.162-.743,0,0,3.537-1.654,3.827-2.292a19.11,19.11,0,0,0,.912-2.33,3.938,3.938,0,0,0-.409-2.764,4.089,4.089,0,0,1-.675-1.4A4.107,4.107,0,0,0,13.41.2,3.451,3.451,0,0,0,11.264.143c-.4.175-3.85,1.686-3.97,1.822S3.732,4.518,3.663,4.8,0,11.576,0,11.576" transform="translate(187 241)" fill="#9f6042"/>
      <path id="Fill_108" data-name="Fill 108" d="M6.47,9.171S10.976,2.8,8.382,2.662a5.168,5.168,0,0,1,.974-.322c2.139-.548,2.6-3.874-1.118-1.487,0,0-5.182,1.345-6.457,3.1-.7.979-2.014,3.7-1.745,4.483,1.042,3.02,6.434.735,6.434.735" transform="translate(189 239)" fill="#9f6042"/>
      <path id="Fill_110" data-name="Fill 110" d="M0,2.416S8.091-.382,9.619.044c0,0,.853.9.005,1.224C7.645,2.036,4.218,3.687,2.937,4A5.569,5.569,0,0,1,0,2.416" transform="translate(197 240)" fill="#9f6042"/>
      <path id="Fill_112" data-name="Fill 112" d="M0,3S6.247.3,8.137.051c0,0,2.287-.385,1.793.963S2.846,4.5,1.347,5c0,0,.308-.7-1.347-2" transform="translate(199 240)" fill="#9f6042"/>
      <path id="Fill_114" data-name="Fill 114" d="M0,2.91S7.68.3,8.182,0c0,0,1.13-.087.734.99S2.236,4.609,1.059,5A2.3,2.3,0,0,0,0,2.91" transform="translate(200 242)" fill="#9f6042"/>
      <path id="Fill_116" data-name="Fill 116" d="M0,3.17S5.08.307,5.4.009c0,0,.768-.154.566.851S1.63,4.564.855,5A2.414,2.414,0,0,0,0,3.17" transform="translate(200 246)" fill="#9f6042"/>
      <path id="Fill_118" data-name="Fill 118" d="M0,1.323,11.032,0,19,36.516s.12,3.367-3.525,2.261S.288,7.618,0,3.612Z" transform="translate(416 263)" fill="#9f6042"/>
      <path id="Fill_120" data-name="Fill 120" d="M11.526,34.029s5.148,1.532.593-7.48C6.97,16.361,6.875,0,6.875,0L.288,1.853s-1.511,27.021,2.39,31.012,8.848,1.163,8.848,1.163" transform="translate(358 163)" fill="#77422b"/>
      <path id="Fill_122" data-name="Fill 122" d="M1.529,13C1.367,12.791-1.021,9.937.511,4.967A11.638,11.638,0,0,1,1.773,2.022,18.484,18.484,0,0,1,3.7.466,3.6,3.6,0,0,1,6.4.126a3.814,3.814,0,0,0,1.5.307,3.974,3.974,0,0,1,2.132.921A4.968,4.968,0,0,1,11,3.684c-.052.455-.773,4.176-.865,4.336s-1.373,4.3-1.624,4.442S1.529,13,1.529,13" transform="translate(357 154)" fill="#77422b"/>
      <path id="Fill_124" data-name="Fill 124" d="M0,4.2S7.154-1.8,6.323.545C4.929,4.457,8.433,2.836,8.8,2.69s2.409-1.05,3.2.577c0,0-2.544.754-3.235,1.805S4.64,9.035,3.8,9C.531,8.871,0,4.2,0,4.2" transform="translate(361 156)" fill="#77422b"/>
      <path id="Fill_126" data-name="Fill 126" d="M1.15,10S3.708,1.679,4,1.137c0,0-.254-1.857-1.007-.825A29.007,29.007,0,0,0,0,6.825,6.328,6.328,0,0,0,1.15,10" transform="translate(366 148)" fill="#77422b"/>
      <path id="Fill_128" data-name="Fill 128" d="M2.375,10S3.736,1.526,4,.839c0,0-.154-1.383-1.483-.6S.234,7.7,0,9.219c0,0,.674-.454,2.375.781" transform="translate(363 145)" fill="#77422b"/>
      <path id="Fill_130" data-name="Fill 130" d="M3,9.508S1.4,1.085,1.4.451C1.4.451.921-.586.237.485S.535,8.718.786,10A2.125,2.125,0,0,1,3,9.508" transform="translate(359 146)" fill="#77422b"/>
      <path id="Fill_132" data-name="Fill 132" d="M5,4.846S1.06.475.853.1C.853.1.16-.328.006.574S2.919,5.337,3.525,6A2.029,2.029,0,0,1,5,4.846" transform="translate(355 151)" fill="#77422b"/>
      <path id="Fill_134" data-name="Fill 134" d="M.205,1.044C.418.907,3.317-1.1,7.816.844a10.661,10.661,0,0,1,2.635,1.495A17.327,17.327,0,0,1,11.72,4.326a3.521,3.521,0,0,1,.056,2.618A3.766,3.766,0,0,0,11.34,8.35a3.857,3.857,0,0,1-1.066,1.95A4.6,4.6,0,0,1,8,10.988C7.576,10.9,4.166,9.849,4.024,9.746S.139,8.017.025,7.764s.181-6.72.181-6.72" transform="translate(429 294)" fill="#9f6042"/>
      <path id="Fill_136" data-name="Fill 136" d="M5.312,0s5.433,7.725,3.111,6.65C4.55,4.863,5.852,8.507,5.964,8.892s.831,2.492-.92,3.108c0,0-.512-2.6-1.515-3.4S-.116,4.1,0,3.264C.476.041,5.312,0,5.312,0" transform="translate(429 297)" fill="#9f6042"/>
      <path id="Fill_138" data-name="Fill 138" d="M0,.993S7.412,4.626,7.876,5c0,0,1.753-.108.881-1.044A25.373,25.373,0,0,0,3.075,0,5.259,5.259,0,0,0,0,.993" transform="translate(437 303)" fill="#9f6042"/>
      <g id="Group_142" data-name="Group 142" transform="translate(440 300)">
        <path id="Clip_141-2" data-name="Clip 141" d="M0,0H9.617V4.746H0Z" transform="translate(0.182 0.135)" fill="none"/>
        <g id="Group_142-2" data-name="Group 142" clip-path="url(#clip-path-2)">
          <path id="Fill_140" data-name="Fill 140" d="M0,2.258S8.085,4.417,8.719,4.746c0,0,1.356-.02.736-1.4S2.456.377,1,0c0,0,.371.708-1,2.258" transform="translate(0.182 0.135)" fill="#9f6042"/>
        </g>
      </g>
      <path id="Fill_143" data-name="Fill 143" d="M.215,3s8.627-1.077,9.26-1.018c0,0,1.1-.473.115-1.41S1.314.092,0,.266A2.939,2.939,0,0,1,.215,3" transform="translate(440 296)" fill="#9f6042"/>
      <path id="Fill_145" data-name="Fill 145" d="M.958,4S5.492.949,5.865.8c0,0,.478-.567-.368-.785S.687,2.13,0,2.6A1.809,1.809,0,0,1,.958,4" transform="translate(439 293)" fill="#9f6042"/>
      <path id="Fill_147" data-name="Fill 147" d="M0,5.324S3.981-.353,10.46.017c0,0,5.221,9.33,11.833,15.914,0,0,18.518,9.314,14,12.391-.5.343-9.634,21.552-18.412,8.359A287.042,287.042,0,0,1,0,5.324" transform="translate(359 189)" fill="#f0c404"/>
      <path id="Fill_149" data-name="Fill 149" d="M.067,31.052C3.437,33.779,8.339,34.831,12.56,35A65.333,65.333,0,0,0,17,26.851L11.594.492S4.9-1.576,2.44,2.767,5.1,7.662,4.371,9.6,2.452,11.821.921,14.593-.251,19.57,2.164,22.935c2.379,3.32-.456,6.265-2.1,8.117" transform="translate(381 177)" fill="#323232"/>
      <path id="Fill_151" data-name="Fill 151" d="M15.822,0s1.913,11.873,5.038,19.155S24,25.414,24,25.414l-4.2.181s-15.484.912-19.774,0c0,0-.653-4.126,4.2-5.5,0,0,7.152-3.528,3.136-19.743Z" transform="translate(379 408)" fill="#77422b"/>
      <path id="Fill_153" data-name="Fill 153" d="M22.236,2.491A23.3,23.3,0,0,0,14.27.149C10.021-.1,7.1-.146,3.168.945-1.429,3,.331,5.644.331,5.644c4.254.8,19.613,0,19.613,0L24,5.489a13.639,13.639,0,0,1-1.764-3" transform="translate(379 427)" fill="#f9a228"/>
      <path id="Fill_155" data-name="Fill 155" d="M1.4,1.031S-2.554,14.673,2.834,32.518s7.993,25.32,7.993,25.32,5.437,2.616,6.969,0c.913-1.562-1.532-25.32-1.532-25.32S13.985,3.351,7.958,1.031s-6.561,0-6.561,0" transform="translate(377 353)" fill="#cdcdcd"/>
      <path id="Fill_157" data-name="Fill 157" d="M.795,0,20.989,4.32l-3.3,26.768H23L15.58,61.9s-6.947,9.892-8.216,6.321C6.68,66.308,5.678,60,4.716,53.124-2.623,17.138.795,0,.795,0" transform="translate(370 287)" fill="#cdcdcd"/>
      <path id="Fill_159" data-name="Fill 159" d="M.576,75.629c.038-1.575.131-3.215.275-4.9a1.613,1.613,0,0,1-.275-1.307C2.375,29.233,5.228,0,5.228,0L21.213.759C56.726,25.6,24.857,67.575,24.857,67.575l-.166.056c-4.085,7.473-7.836,13.895-8.6,15.2,3.405,5.125,8.961,14.218,10.33,20.9.823,4.031,3.765,24.694,4.346,33.3.249,3.68-7.369,3.974-7.369,3.974L2.2,93.551A32.743,32.743,0,0,1,.576,75.629" transform="translate(381 273)" fill="#cdcdcd"/>
      <path id="Fill_161" data-name="Fill 161" d="M20.753,0,15.588,2.268S-2.055,11.718.2,29.646c0,0,1.6,21.949,2.74,32.023,0,0,17.192,12.542,27.57-.848l4.555-14.579c2.323-7.766,13.029-25.034,11.845-32.86,0,0,.363-7.251-10.56-10.017Z" transform="translate(373 214)" fill="#f0c404"/>
      <path id="Fill_163" data-name="Fill 163" d="M35.658,7.14,45,33.146S33.23,41.525,9.6,38.234l-5.908-1L0,35.736,5.386,5.623,12.449,0Z" transform="translate(369 253)" fill="#f0c404"/>
      <path id="Fill_165" data-name="Fill 165" d="M9.07,3.339A.848.848,0,0,1,9,3.128l.075-.665L21.948,0S14.933,13.282,26,15.371c0,0-2.7,7.264-26,10.629A162.427,162.427,0,0,1,9.253,12.375,8.364,8.364,0,0,0,9.07,3.339" transform="translate(383 202)" fill="#77422b"/>
      <path id="Fill_167" data-name="Fill 167" d="M22.961,3.88S15.432-2.7,7.522,1.279c0,0-5.751-.837-7.281,14.244C-.352,21.376.114,27.147,2.007,27.88c0,0,9.863,1.409,15.713-5.443,5.025-5.891,10.27-12.5,5.241-18.558" transform="translate(386 180)" fill="#9f6042"/>
      <path id="Fill_169" data-name="Fill 169" d="M2.036,2.018C.114,3.937-.571,6.383.518,7.476S4.04,7.9,5.969,5.981,8.57,1.619,7.482.531,3.963.1,2.036,2.018" transform="translate(402 197)" fill="#9f6042"/>
      <path id="Fill_171" data-name="Fill 171" d="M17.916,7.872c-.44-2.327-6.492-2.187-5.671-3.233-.172-.3.951-4.3.85-4.639C10.63,3.382,3.817,9,2.55,10.152-1.908,14.192-.388,21.518,6.07,27.79,12.245,33.784,39,25.685,39,25.685S19.616,16.916,17.916,7.872" transform="translate(368 223)" fill="#f0c404"/>
      <path id="Fill_173" data-name="Fill 173" d="M8.271,35.981A28.639,28.639,0,0,0,19,32.826C18.337,19.929,16.162.815,16.15.136,16.13-.667,0,2.354,0,2.354S4.12,19.938,8.195,36c.025,0,.049-.014.076-.019" transform="translate(407 232)" fill="#f0c404"/>
      <path id="Fill_175" data-name="Fill 175" d="M21.823.117c-.186-.584-8.8,1.217-8.8,1.217s4.108,10.783-1.013,15.73c0,0-6.565.267-9.8,2.345S.248,23.91.248,23.91a125.648,125.648,0,0,0,14.174-.257l7.98,0s1.893.1,2.462-.46a4.714,4.714,0,0,0,1.047-4.176A167.11,167.11,0,0,1,21.823.117" transform="translate(389 410)" fill="#9f6042"/>
      <path id="Fill_177" data-name="Fill 177" d="M19.536,4.131C16.393,3.86,14.354,1.994,12.335,0c-1.405.105-7.7-.077-10.426,1.964C-1.266,4.349.478,7.956.478,7.956a136.277,136.277,0,0,0,14.605-.422l7.837-.005s2.971.052,3.535-.588c.97-1.108.44-3.365-.019-3.907a13.915,13.915,0,0,1-6.9,1.1" transform="translate(388 427)" fill="#fcbb56"/>
      <path id="Fill_179" data-name="Fill 179" d="M2.144,16.162S-3.939,1.344,4.386.1,19.157,9.7,19,13.941,9.776,30.7,2.144,16.162" transform="translate(405 218)" fill="#f0c404"/>
      <path id="Fill_181" data-name="Fill 181" d="M10.51,23.921c.494,2.405,2.408.584,1.943,3.872-.444,3.142-2.492,1.278-4.717,6.331,5.274-.063,11.087,3.549,15.968.91A23.857,23.857,0,0,0,28,32.067a71.825,71.825,0,0,0-2.345-9.148c-1.846-4.872.065-5.413.062-7.971S27.194,3.676,18.2,2.988A7.8,7.8,0,0,1,14.093,1,2.851,2.851,0,0,0,9.774,1c-1.05.973-5.911.057-7.2.117S-1.59,3.371,1.138,6.478c0,0-1.7,3.531-.227,6.087S4.846,15.49,7.68,18.047s2.336,3.464,2.83,5.874" transform="translate(389 176)" fill="#323232"/>
      <path id="Fill_183" data-name="Fill 183" d="M13.957,11.084c.067-.279.395-5.684-2.709-8.134,0,0-1.876-2.078-2.6-2.292A19.947,19.947,0,0,0,6.021.027,4,4,0,0,0,3.176.944a4.261,4.261,0,0,1-1.354.994,4.384,4.384,0,0,0-1.7,1.884A5.269,5.269,0,0,0,.239,6.535c.256.422,2.677,3.719,2.84,3.83S6.2,13.975,6.523,14s7.435-2.916,7.435-2.916" transform="translate(84 133)" fill="#e4836f"/>
      <path id="Fill_185" data-name="Fill 185" d="M12.543,1.668S2.429-1.4,4.406.789C7.7,4.434,3.386,4.4,2.94,4.427S.007,4.473,0,6.679c0,0,2.927-.446,4.131.37s6.071,2.327,6.9,1.865c3.228-1.792,1.51-7.245,1.51-7.245" transform="translate(80 138)" fill="#e4836f"/>
      <path id="Fill_187" data-name="Fill 187" d="M7.728,9S.718,1.938.11,1.557c0,0-.561-2.061.847-1.44a29.972,29.972,0,0,1,6.7,4.943A6.517,6.517,0,0,1,7.728,9" transform="translate(77 132)" fill="#e4836f"/>
      <path id="Fill_189" data-name="Fill 189" d="M6.674,10S.727,1.941.068,1.369c0,0-.536-1.5,1.4-1.359S7.946,6.556,9,8.008c0,0-1.011-.13-2.326,1.992" transform="translate(79 126)" fill="#e4836f"/>
      <path id="Fill_191" data-name="Fill 191" d="M2.187,11S.279,1.488,0,.841C0,.841.093-.495,1.374.2S4.721,8.767,5,10.217A3,3,0,0,0,2.187,11" transform="translate(86 124)" fill="#e4836f"/>
      <path id="Fill_193" data-name="Fill 193" d="M0,8.416S1.785.943,1.816.374c0,0,.471-.905,1.035.1S2.232,7.862,1.953,9A1.931,1.931,0,0,0,0,8.416" transform="translate(92 126)" fill="#e4836f"/>
      <path id="Fill_195" data-name="Fill 195" d="M29.45,2.117c.419,2.061.946,2.14.094,11.767L27.4,20.989c-2.654,9.384-3.376,11.273-5.111,16.533,0,0,.167,11.805-5.21,11.47C8.2,48.439-1.165,41.541.119,35.33.7,32.516,9.582,23.706,9.582,23.706,13.225,13.74,16.857,4.546,18.1,2.826c2.018-2.792,10.618-4.32,11.347-.71" transform="translate(79 176)" fill="#323232"/>
      <path id="Fill_197" data-name="Fill 197" d="M6.006,43S18.105,39.159,18,36.806,15.1,18.407,7.593,0c0,0-8.229,1.873-7.554,4.251C3.459,16.283,2.656,37.691,6.006,43" transform="translate(91 144)" fill="#323232"/>
      <path id="Fill_199" data-name="Fill 199" d="M14.669,3.672l.874,8.3L23.8,15.692,25,19H0L4.284,0Z" transform="translate(44 410)" fill="#28265f"/>
      <path id="Fill_201" data-name="Fill 201" d="M9.888,75.758C7.429,52,0,6.2,0,6.2L25.723,0s8.659,52.04,5.636,73.023c-7.111,29.432-10.182,63.742-10.182,63.742-6.775,4.4-17.313.949-17.313.949C1.232,95.935,8.5,79.636,9.888,75.758" transform="translate(77 279)" fill="#fff"/>
      <path id="Fill_203" data-name="Fill 203" d="M31,10.33C25.838,24.9,19.446,60.854,17.807,66.855,17.315,68.67,2.9,68.792,0,63.738A225.826,225.826,0,0,1,11.424,0C16.42,4.146,24.591,9.4,31,10.33" transform="translate(47 350)" fill="#fff"/>
      <path id="Fill_205" data-name="Fill 205" d="M29.249,67.086c-4.114,9.9-7.329,23.482-9.354,28.12C18.245,98.981,4.061,88.216,0,85.417,5.865,58.1,7.377,39.544,7.377,39.544,6.824,31.592,6.1,13.814,6.1,13.814,11.364,10.321,37.849-.074,44.983,0c.19,2.828-1.248,13.99-1.676,16.855-2.015,13.474-3.275,14.724-6.319,23.83-3.162,9.452-5.316,19.287-7.739,26.4" transform="translate(58 266)" fill="#fff"/>
      <path id="Fill_207" data-name="Fill 207" d="M0,0C11.216,2.061,23.167,5.354,23.167,5.354c3.438,55.065,3.447,65.06,1.621,69.742-.14.05-.281.1-.419.164-3.819,1.648-8.112,1.723-12.2,1.74-1.376-.681-2.3-1.254-2.3-1.254L17.618,65.59s-.225-.379-.137-26.6c-2.54-4.65-13.757-24.451-14.114-25.933s2.074-8.3,2.576-9.689A17.47,17.47,0,0,0,0,0" transform="translate(78 204)" fill="#323232"/>
      <path id="Fill_209" data-name="Fill 209" d="M0,2.437S2.974,14.285,3.39,21.088c0,0,8.3,8.016,12.815,3.569,0,0-1.306-21.015,2.384-23.742S0,2.437,0,2.437" transform="translate(67 188)" fill="#e4836f"/>
      <path id="Fill_211" data-name="Fill 211" d="M2.811,0S2,4.868,2,5.087,0,13,0,13s5.052-.2,5.647-.848.261-7.6.261-7.6Z" transform="translate(80 200)" fill="#bbbdbf"/>
      <path id="Fill_213" data-name="Fill 213" d="M40.913,82.737a87.706,87.706,0,0,1-15.4-.151,49.119,49.119,0,0,1-11.877-3.01C12.771,72.942,12.086,55,12.086,55L2.435,26.381,0,15.366l15.833-8.52,1.172-.474L16.612,0,31.919,7.016l-.819,7.84L42.955,37.639c.879.926,1.771,1.85,2.69,2.771L52.52,68.251s1.223,6.668-.235,11.518c-3.693,1.385-7.278,2.722-11.371,2.968" transform="translate(50 200)" fill="#323232"/>
      <path id="Fill_215" data-name="Fill 215" d="M3.669.633S21.983,34.184,22,54.829c0,10.765-5.737,5.6-6.674-1.519C15.272,52.888,15.193,28.691,0,0Z" transform="translate(82 217)" fill="#1941df"/>
      <path id="Fill_217" data-name="Fill 217" d="M.754,13c-.083-.054-.686-3.646-.7-3.7C-.287,7.907,1.141.793,1.2.213s3.33.212,3.33.212L11.11.213S24.218,7.394,34,10.755c-.02.751-.072,1.5-.134,2.245Z" transform="translate(81 416)" fill="#28265f"/>
      <path id="Fill_219" data-name="Fill 219" d="M0,1.556S4.848-.6,7.2.165s1.729,7.1,1.729,7.1L8.438,8.373,5.535,9,3.508,7.612Z" transform="translate(78 210)" fill="#1941df"/>
      <path id="Fill_221" data-name="Fill 221" d="M16,7.133,14.993,17,0,7.247.774,0Z" transform="translate(66 200)" fill="#fefefe"/>
      <path id="Fill_223" data-name="Fill 223" d="M0,6.489,5,15,4.932,5.142,1.237,0Z" transform="translate(82 200)" fill="#bbbdbf"/>
      <path id="Fill_225" data-name="Fill 225" d="M.485,12.6c-.117-.261-1.508-5.516,1.03-8.539,0,0,1.417-2.415,2.084-2.771A19.811,19.811,0,0,1,6.031.151,3.938,3.938,0,0,1,8.982.49,4.179,4.179,0,0,0,10.5,1.2a4.369,4.369,0,0,1,2.027,1.518,5.352,5.352,0,0,1,.423,2.693c-.165.467-1.871,4.188-2.008,4.33S8.61,13.909,8.306,14,.485,12.6.485,12.6" transform="translate(50 133)" fill="#f69e8b"/>
      <path id="Fill_227" data-name="Fill 227" d="M.052,3.272S9.207-1.831,7.7.709C5.2,4.934,9.339,4,9.771,3.927S12.591,3.355,13,5.494c0,0-2.891.183-3.9,1.226s-5.407,3.532-6.29,3.259C-.611,8.919.052,3.272.052,3.272" transform="translate(55 137)" fill="#f69e8b"/>
      <path id="Fill_229" data-name="Fill 229" d="M.659,10S5.533,1.9,5.995,1.414c0,0,.135-2.069-.98-1.2A28.821,28.821,0,0,0,.051,6.239,6.851,6.851,0,0,0,.659,10" transform="translate(61 130)" fill="#f69e8b"/>
      <path id="Fill_231" data-name="Fill 231" d="M2.208,11S5.563,1.881,5.995,1.188c0,0,.168-1.595-1.353-1.089S.592,7.815,0,9.455c0,0,.786-.318,2.208,1.545" transform="translate(58 124)" fill="#f69e8b"/>
      <path id="Fill_233" data-name="Fill 233" d="M2.766,11S2.855,1.368,3,.684c0,0-.324-1.28-1.4-.338S0,9.358,0,10.825A2.745,2.745,0,0,1,2.766,11" transform="translate(54 124)" fill="#f69e8b"/>
      <path id="Fill_235" data-name="Fill 235" d="M4,7.042S1.131.74,1.012.237c0,0-.586-.707-.967.322S1.788,7.043,2.232,8A2.057,2.057,0,0,1,4,7.042" transform="translate(50 128)" fill="#f69e8b"/>
      <path id="Fill_237" data-name="Fill 237" d="M.006,4.178c.158,2.44,4.45,12.852,8.439,23.338,2.933,7.767,6.141,15.234,9.791,20.554,0,0,4.589,6.626,10.706,4.515C39.055,49.1,39.5,43.809,36.077,37.28c-1.549-2.96-4.593-8.427-8.06-14.191l0,0c-.034-.05-.066-.1-.1-.156-.054-.093-.113-.186-.165-.28h0C22.005,13.113,15.346,2.827,13.365,1.306,10.16-1.162-.275-.092.006,4.178" transform="translate(36 182)" fill="#323232"/>
      <path id="Fill_239" data-name="Fill 239" d="M15.069,51S-.153,46.335,0,43.545,3.823,21.755,13.462,0c0,0,10.361,2.3,9.486,5.108C18.525,19.344,19.342,44.736,15.069,51" transform="translate(36 143)" fill="#323232"/>
      <path id="Fill_241" data-name="Fill 241" d="M8.249,30.716S20.912,34.2,22.936,29.684c3.277-7.315-1.646-24.331-6.2-27.466S2.307-1.92.29,7.334c-1.58,7.238,3.6,20.91,7.958,23.382" transform="translate(63 169)" fill="#f69e8b"/>
      <path id="Fill_243" data-name="Fill 243" d="M6.857,24.586a5.641,5.641,0,0,0,.459-4.261,10.721,10.721,0,0,1,.5-5.552s2.962,2.61,9.852,1.413c0,0,3.822,2.245,10.152-.067L25.064,15.2s2.874.464,6.936-2.776c0,0-.4-2.173-3.286-4.012a9.1,9.1,0,0,0-8.27-6.459A8.114,8.114,0,0,0,16,.095C13.475-.049,6.807-.646,3.491,4.611L3.139,2.526S.184,4.8,1.852,9.282L.121,7.147A6.186,6.186,0,0,0,.855,11.5S.161,20,4.392,24.051s2.465.535,2.465.535" transform="translate(61 166)" fill="#323232"/>
      <path id="Fill_245" data-name="Fill 245" d="M2.965,1.384S1.208-1,.259.488,1.02,6.507,4.744,8C4.744,8,6,4.933,2.965,1.384" transform="translate(64 190)" fill="#f69e8b"/>
      <path id="Fill_249" data-name="Fill 249" d="M27.149,10.433s11.035-1.093,14.309-.353-4.951,12.463-5.015,13.008,5.018,8.106,6.457,13.46-13.174-1.69-15.909-3.12c0,0-5.843,10.83-11.321,12.549-2.319.728-2.317-15.838-2.317-15.838S.733,26.988.016,24.621c-.441-1.446,8.244-7.3,12.521-9.271,0,0,1.038-17.177,4.161-15.19C16.7.16,22.992,5.811,27.149,10.433Z" transform="translate(288 72)" fill="#f0c404"/>
      <path id="Fill_253" data-name="Fill 253" d="M32.817.647s2.465,9.715,3.489,17c0,0,11.63,6.313,14.376,9.219s-13.188,8.844-13.6,9.336-.445,11.253-2.585,17.436S22.6,43.18,20.848,39.964c0,0-12.982,6.65-19.537,4.665-2.773-.844,8.248-16.993,8.248-16.993S-.811,16.134.051,13.345c.536-1.7,13.018-1.606,18.55-.667,0,0,12.456-16.055,14.216-12.031" transform="translate(176)" fill="#f0c404"/>
      <path id="Fill_257" data-name="Fill 257" d="M8.365.165s.628,2.473.889,4.327a25.1,25.1,0,0,1,3.664,2.346c.7.741-3.362,2.251-3.467,2.376a28.876,28.876,0,0,1-.659,4.439c-.545,1.573-3.033-2.662-3.478-3.48,0,0-3.31,1.693-4.981,1.187-.707-.215,2.1-4.326,2.1-4.326S-.207,4.107.013,3.4c.136-.434,3.319-.409,4.728-.17,0,0,3.175-4.087,3.625-3.062" transform="translate(165 101)" fill="#f0c404"/>
      <path id="Fill_261" data-name="Fill 261" d="M10.436.076s5.334,3.579,8.943,6.6c0,0,8.309-1.833,10.874-1.595s-2.6,9.655-2.585,10.06,4.585,5.517,6.184,9.328-10.2-.017-12.427-.814c0,0-3.429,8.531-7.445,10.309-1.694.753-3.26-11.467-3.26-11.467S.8,21.347.025,19.669c-.463-1.025,5.6-6.153,8.675-8,0,0-.83-12.764,1.736-11.589" transform="translate(93 72)" fill="#f0c404"/>
      <path id="Fill_263" data-name="Fill 263" d="M3.918.035A9.151,9.151,0,0,1,8.235,2.782a34.067,34.067,0,0,1,5.233-.747c1.142.1-1.161,4.223-1.157,4.4a42.774,42.774,0,0,1,2.622,4.228c.712,1.667-4.468.337-5.456-.012,0,0-1.76,3.9-3.927,4.346-.814.167-.778-5.344-.778-5.344S.351,9.148.011,8.414c-.205-.448,2.492-2.691,3.862-3.5,0,0-1.1-5.393.045-4.879" transform="translate(318 20)" fill="#f6931d"/>
      <path id="Fill_265" data-name="Fill 265" d="M4.6.034S6.957,1.612,8.551,2.946a28.4,28.4,0,0,1,4.8-.7c1.132.108-1.146,4.26-1.141,4.438s2.023,2.434,2.728,4.115-4.5-.007-5.482-.359c0,0-1.513,3.764-3.284,4.548C5.42,15.317,4.73,9.927,4.73,9.927S.353,9.418.011,8.677c-.2-.452,2.47-2.715,3.828-3.531,0,0-.366-5.631.765-5.113" transform="translate(318 20)" fill="#f0c404"/>
    </g>
  </g>
</svg>
