<?xml version="1.0" encoding="utf-8"?>
<!-- Generator: Adobe Illustrator 24.1.0, SVG Export Plug-In . SVG Version: 6.00 Build 0)  -->
<svg version="1.1" id="Idea-Illustration" xmlns="http://www.w3.org/2000/svg" xmlns:xlink="http://www.w3.org/1999/xlink" x="0px"
	 y="0px" viewBox="0 0 485 506" style="enable-background:new 0 0 485 506;" xml:space="preserve">
<style type="text/css">
	.st0{fill:#E7E7E7;}
	.st1{fill:#755846;}
	.st2{fill:#5E4130;}
	.st3{fill:none;stroke:#755846;stroke-width:6;stroke-miterlimit:10;}
	.st4{fill:#D68E86;}
	.st5{fill:#8E6751;}
	.st6{fill:#F8A17A;}
	.st7{fill:#1941DF;}
	.st8{fill:#E5785C;}
	.st9{fill:#E89F97;}
	.st10{fill:#D78A81;}
	.st11{fill:#818181;}
	.st12{fill:#A2A2A2;}
	.st13{fill:#FFFFFF;}
	.st14{fill:#CDCDCD;}
	.st15{fill:none;}
	.st16{clip-path:url(#SVGID_2_);}
</style>
<g id="Group_2" transform="translate(0 -0.177)">
	<path id="Base" class="st0" d="M435.5,257.3c0,101.6-82.3,183.9-183.9,183.9S67.7,358.9,67.7,257.3S150,73.4,251.6,73.4
		S435.5,155.7,435.5,257.3"/>
	<g id="Illustration_-_Order" transform="translate(0 3)">
		<g id="Illustration_-_Order-2">
			<g id="Group_66">
				<path id="Fill_1" class="st1" d="M307.9,294c-12,4.3-26.6,3.8-37.5-3.2c-10.8-6.9-20.6-11.9-33.8-11.7
					c-11.8,0.2-21.6,6.6-33.1,8c-9.1,1.1-18.3-2.9-24.9-9.3c-6.4-6.2-10.7-15.7-7.9-24.3c1.5-4.5,4.7-8.1,6.5-12.5
					c4.2-10-6.9-16-4.1-26.5c2.3-8.9,12.1-15.3,12-24.5c-0.1-6.8-5.3-12-7.2-18.3c-1.9-6.3-1.4-13.4,1.8-19.2
					c2.4-4.3,6.2-7.7,10.7-9.6c4-1.7,8.5-1.7,11.6-5.3c5.5-6.3,7.6-13.1,15.2-17.7c6.4-3.9,14.9-4.1,22.3-3.5
					c16.4,1.5,32.3,10.2,41.5,24c3.3,4.9,5.6,9.9,5.7,15.7c0.1,6.4,0.1,12.8,4,18.2c3.3,4.5,8.5,7.2,13.7,9.3
					c5.2,2.1,10.6,3.7,15.2,6.9c4.6,3.2,8.2,8.5,7.7,14.1c-0.4,4.7-3.7,8.7-4.1,13.4c-0.8,8.5,7.4,14.7,12.4,21.5
					c7.1,9.9,8.2,22.9,2.9,33.9c-6.1,12.3-17.2,15.1-28.8,19.7C309,293.6,308.4,293.8,307.9,294"/>
				<path id="Fill_3" class="st2" d="M278.3,237.6c0.4,10.4-2,18.3-11.5,23.4c-7.6,4.1-16.6,5.5-25,5.7c-14,0.3-29.6-3.3-40.1-13.2
					c-1.9-1.8-3.7-4-3.9-6.6c-0.1-2.4,1.2-4.6,1.3-7c0.2-4-2.9-7.3-4.3-11.1c-1.8-5-0.6-10.5,1.1-15.6c1.6-5,3.7-10.1,3.5-15.4
					c-0.3-6.9-4.4-12.9-7.7-18.9c-3.3-6-5.9-13.4-3.1-19.6c2-4.3,6.1-7.2,10.8-7.8c4.8-0.5,9.1,4.9,12.1,8
					c4.1,4.1,8.7,7.6,13.6,10.6c6.8,4.2,14.3,7.2,20.7,12c3.9,2.9,8.1,6.8,9.9,11.4c2.1,5.2-1.6,10.2,2.9,14.9
					c2.9,3.1,7.2,4.1,10.7,6.5C276.7,220,278,229.3,278.3,237.6"/>
				<path id="Stroke_5" class="st3" d="M304.7,292.6c8.2,1.1,16.9,0.3,24.2-3.5c9.4-4.9,14-13.9,14.2-24.3
					c0.1-7.5-1.3-15.3-5.8-21.3c-4.9-6.5-13.1-10.5-16.2-18.1c-2-4.9-1.5-11.6,2.4-15.4c2.5-2.4,4.4-5.1,4.1-8.8
					c-0.5-5.3-4.3-10.4-8.7-13.3c-6.4-4.2-14.3-5.8-21.7-6.7c-5-0.6-10.1-2.1-11.6-7.5c-0.8-2.9-0.7-6-0.8-9.1
					c-0.3-6.4-0.8-12.9-1.8-19.2c-1.1-7.4-5.9-14.5-11.2-19.5c-0.8-0.7-1.6-1.4-2.4-2.1c-13.7-11.1-39-15.1-54.1-4.8
					c-5.2,3.5-8.7,8.9-9.9,15c-0.8,4.1-1.9,5-5.9,6.2c-7.3,2.3-15.5,3.9-21.3,9.2c-4.5,4.3-6.7,10.4-6,16.6
					c0.8,7.8,6.2,11.5,10,17.6c4,6.3,0.8,14.2-3.7,19.4c-3.5,4-8.6,6.9-10.5,11.9c-1.8,4.6-0.6,9.8,1.6,14.2c0.9,1.8,2,3.5,2.8,5.3
					c2.4,5.7,2.2,12.1-0.7,17.5"/>
				<path id="Fill_7" class="st4" d="M251.5,250.2c-6.3,7.2-18.4,7.8-26.9,4.8c-5.8-2-9.8-6.6-10-12.8c-0.1-7,6-12,7.5-18.5
					c0.9-3.7,0.8-7.5,0.7-11.3c-0.1-4.4-0.1-8.8-0.3-13.2c4.1-1,8.3-1.4,12.5-1.2c3.8,0.2,7.6-0.2,11.4,0c0.3,0,0.6,0.1,0.9,0.3
					c0.2,0.2,0.3,0.5,0.3,0.8c0.5,5.9,0,12,0.4,17.9c0.4,5.5,1.6,11,4.8,15.5C256.7,238,255.7,245.4,251.5,250.2"/>
				<path id="Fill_9" class="st5" d="M220.3,135.2c4-2.3,8.6-3.5,13.2-3.6c4.6-0.1,9.2,0.4,13.7,1.5c9.1,2.3,17.1,7.6,22.9,15
					c2.9,3.7,5,7.9,6.3,12.4c1.2,4.5,1.7,9.2,1.5,13.9c0,4.6-0.4,9.2-0.2,13.8c0.1,2.2,0.4,4.5,1.1,6.6c0.6,2.1,1.9,4,3.6,5.3
					c1.8,1.2,3.9,2,6.1,2.1c2.2,0.3,4.6,0.3,6.9,0.6c4.6,0.6,9.3,1.7,13.3,4.4c4.4,2.6,6.3,7.8,4.7,12.6c-0.7,2.3-2,4.3-2.9,6.3
					c-0.9,2.1-1.5,4.2-1.7,6.5c-0.4,4.5,0.7,9,2.3,13.3c1.6,4.3,3.5,8.6,4.6,13.1c0.6,2.3,0.8,4.6,0.8,6.9c0,2.3-0.4,4.6-1.2,6.8
					c-1.5,4.4-4.3,8.2-8,11.1c7.5-5.8,10.6-15.6,7.8-24.7c-1.2-4.4-3.1-8.6-4.7-13c-1.7-4.3-2.9-8.9-2.6-13.7
					c0.2-2.4,0.8-4.7,1.7-6.9c1-2.2,2.2-4.1,2.8-6.2c1.5-4.3-0.3-9-4.3-11.3c-3.7-2.5-8.3-3.5-12.7-4.1c-2.2-0.3-4.5-0.3-6.9-0.6
					c-2.4-0.2-4.8-1-6.8-2.3c-1.9-1.5-3.3-3.6-4-6c-0.7-2.3-1-4.6-1.1-7c-0.1-4.7,0.2-9.3,0.3-13.9c0.2-4.6-0.3-9.1-1.4-13.5
					c-1.3-4.4-3.3-8.5-6-12.1c-5.5-7.3-13.4-12.6-22.2-15c-4.4-1.3-9-1.9-13.6-1.8C228.9,132,224.4,133.1,220.3,135.2"/>
				<path id="Fill_11" class="st6" d="M151.1,331.2c-1.7-0.6-3.4-1.1-5-1.7c-9.1-3.2-18.3-5.8-27.4-9c-6.1-2.1-12.1-4.4-18.2-6.5
					c-5.2-1.8-10.5-4.9-16-5.4c-1.3-0.2-2.7,0-3.9,0.7c-1.5,1.1-1.7,3.3-1.7,5.2c0,2.4,0,5,1.6,6.8c0.6,0.6,1.3,1.2,2.1,1.6
					c7.6,4.7,15,9.9,22.7,14.4c9.1,5.4,18.3,10.5,27.9,15c5.3,2.5,10.8,4.8,16.2,7.3c5.5,2.5,11.5,5.5,17.7,5.5
					c5.3,0,10.1-3,11.8-8.2c1.4-4.2,0.9-9.5-2-13c-1.8-1.9-3.9-3.5-6.2-4.7C164.6,335.8,157.8,333.5,151.1,331.2"/>
				<path id="Fill_13" class="st7" d="M188.9,331.1c3.9-11.7,7-18,11.4-28.4c6.7-15.7,14.4-32.8,11.5-50.4
					c-1.4-8.4-8.6-15.4-17.5-13.9c-5.4,1-10.1,4.2-13,8.8c-3.4,5.1-5.2,11-7.3,16.7c-3.5,10.1-6.5,20.3-8.9,30.7
					c-2.5,10.4-3.8,21.1-7.2,31.2c-1.9,5.6-1.9,7.1-1.9,7.1c5.3,4.3,17.3,13.1,22.9,25.1C183.7,347.8,187.1,336.5,188.9,331.1"/>
				<path id="Fill_15" class="st7" d="M185.6,305.1c0.4,10.2,1.2,20.6,1.6,30.8c1.3-3.9,3.2-9.3,4.2-12.2c2.1-5.8,5.2-12.3,6.7-18.2
					c1.7-7.3,2.9-14.7,3.6-22.1c0.2-2.7,0.6-5.7,0.2-8.3c-0.5-3.1-1.8-6.2-2.7-9.2c-0.8-2.4-1.6-4.8-2.5-7.2c-0.7-2-4-4.4-3-6.8
					c-2.9,6.7-5.8,13.5-7.5,20.6c-1.7,6.8-1.4,12.9-1.1,19.8C185.3,296.5,185.5,300.8,185.6,305.1"/>
				<path id="Fill_17" class="st7" d="M312.3,276.7c4.6,9.9,8.9,20,12.7,30.3c2.6,7.1,5.5,14.1,7.3,21.5c1.5,6.2,3.2,14.3-0.8,19.9
					c-3.7,5-10.7,6.4-16.3,4.2c-4.7-1.8-8-6.2-10.2-10.5c-2.9-5.8-5.9-11.6-9-17.3c-6.4-11.9-13.5-23.4-20-35.2
					c-5.8-10.5-10.8-22.2-10.6-34.4c0.1-8.5,6.2-16.6,15.3-16.3c5.5,0.2,10.6,2.7,14.1,6.8c4.1,4.5,6.8,10.1,9.6,15.4
					C307.2,266.1,309.8,271.3,312.3,276.7"/>
				<path id="Fill_19" class="st7" d="M295.5,305.9c1.7,8.9,3.3,17.9,5.1,26.8c0.1,0.3,0.1,0.7,0.2,1c-1.8-3.7-4.8-9-6.2-11.8
					c-2.9-5.4-8.4-14.9-11.6-20.3c-3-4.8-5.2-10.2-6.3-15.8c-1-4.6,0.4-7.1,1.3-11.7c0.6-3.4,2.3-6.7,3.7-9.9
					c0.7-1.6,1.1-3.6,1.8-5.1c0.4-0.9,1.4-5.5,1.1-6.5c1,3,1.7,6.1,2.1,9.2C289.1,276.8,292.7,291.3,295.5,305.9"/>
				<path id="Fill_23" class="st7" d="M193.2,318c1.3,6.6,1,15.5,1.2,22.3c0.3,6.7,0.1,13.5-0.6,20.2c10.5,1.5,20.2,1.2,30.8,1.1
					c4.5-0.1,9-0.1,13.4-0.4c7.1-0.5,14.2-1.8,21.3-2.7c6.7-0.8,13.5-1.4,20.3-1.6c-0.1-17.1,0.1-33.8,2.2-50.8
					c2-16.6,5.8-33.7,5.7-50.4c0-5.5,0.5-14.9-5.8-17.4c-5.6-2.2-11.3-4.2-17.1-6.2c-5.3-1.9-10.7-3.3-16.3-4.2
					c-8-1-16.2-0.6-24.1,1.1c-7.2,1.6-14.3,3.7-21.2,6.4c-2.5,0.9-6,1.6-8,3.3c-2.3,2-3.7,6.2-4.9,9c-4,9.4-6.4,19.3-7.2,29.5
					c-0.4,4.7-0.6,10,0.4,14.6c1.6,7.6,5.8,14.4,8.6,21.6C192.5,315,192.9,316.5,193.2,318"/>
				<path id="Fill_29" class="st6" d="M49.8,307.7c-2.7,1-5.3,2.3-7.7,3.9c-1.7,1.1-3.7,2.6-3.4,4.9c0,0.4,0.3,0.8,0.7,0.9
					c0.2,0,0.3,0,0.5,0c3.2-0.8,5.9-3.2,9.2-3.2c-0.9,0-2.5,1-3.3,1.4c-1.1,0.6-2.3,1.2-3.3,1.8c-1.8,1.1-3.7,2.3-4.8,4.2
					c-0.3,0.5-0.4,1.1-0.3,1.7c0.4,0.8,1.2,1.4,2.1,1.3c0.9-0.1,1.8-0.3,2.6-0.8l1.9-0.9c-1.2,0.7-2.8,1.7-3.4,2.9
					c-0.6,1-0.4,2.6,0.7,3.1c1,0.5,1.9-0.1,2.8-0.4c1.4-0.4,2.8-1.2,4.2-1.5c-0.9,0.2-1.4,1.6-1.5,2.5c-0.1,0.9,0.2,1.8,0.9,2.4
					c0.3,0.3,0.6,0.5,0.9,0.5c0.5,0,0.9,0,1.4-0.2l8.7-3.1c4.5-1.6,8.8-3.6,13.4-4.9c1.7-0.5,3.4-0.9,5.1-1.1c2.8-0.3,6.2-1.5,9-0.8
					c2.4,0.6,7.8,1.9,10.1,1.1c3.3-1.2,2.7-1.6,2.4-4.5c-0.4-3.7-7.1-5.7-10.2-7.3c-2-1-3-4-4.7-5.5c-1.6-1.4-3.3-2.6-5.2-3.6
					c-1.4-0.7-2.9-1.2-4.5-1.5c-1.3-0.2-2.7-0.3-4-0.3c-2.7-0.3-5.2-1.6-7.6-2.6c-1.8-0.7-3.8-1.5-5.4-0.1c-0.9,0.8-1.4,2-1.2,3.3
					c0.2,1.4,1.1,1.5,2.3,2c0.8,0.3,2.7,1.6,3.6,1.5C57.7,305.3,53.6,306.3,49.8,307.7"/>
				<path id="Fill_31" class="st8" d="M57.8,311.3c-0.9,0.1-1.7,0.2-2.6,0.4c-1.7,0.3-3.4,0.9-5,1.6c-0.4,0.2-0.8,0.4-1.2,0.6
					c-0.4,0.2-0.8,0.4-1.1,0.6c0.4-0.2,0.8-0.3,1.2-0.5c0.4-0.2,0.8-0.3,1.2-0.5c0.8-0.3,1.6-0.6,2.5-0.8c0.8-0.3,1.7-0.5,2.5-0.7
					C56.1,311.6,57,311.5,57.8,311.3"/>
				<path id="Fill_33" class="st8" d="M58.1,316c-1.4,0.3-2.8,0.7-4.1,1.3c-1.3,0.5-2.6,1.2-3.9,1.9c-1.2,0.7-2.5,1.4-3.7,2.2
					c-0.6,0.4-1.2,0.8-1.8,1.2c-0.6,0.4-1.2,0.8-1.7,1.2l3.6-2.2c1.2-0.7,2.4-1.5,3.7-2.2c1.2-0.7,2.5-1.3,3.8-1.9
					C55.4,316.9,56.7,316.4,58.1,316"/>
				<path id="Fill_35" class="st8" d="M59.7,321.6c-0.3,0-0.5,0.1-0.8,0.1L58,322l-0.8,0.2l-0.8,0.3c-1,0.4-2.1,0.8-3,1.3
					c-1,0.5-1.9,1.1-2.9,1.7c-0.5,0.3-0.9,0.6-1.4,0.9c-0.4,0.3-0.9,0.6-1.3,1c0.5-0.3,0.9-0.6,1.4-0.8l1.4-0.9
					c0.9-0.6,1.9-1.1,2.9-1.6c1-0.5,2-1,3-1.4C57.6,322.3,58.6,321.9,59.7,321.6"/>
				<path id="Fill_37" class="st6" d="M297.5,333.6c-1.7,0.4-3.4,0.7-5.1,1c-9.3,1.8-18.5,4.3-27.8,6.1c-6.2,1.2-12.5,2.3-18.7,3.6
					c-5.3,1-11.4,1.1-16.3,3.4c-1.3,0.5-2.3,1.4-2.9,2.6c-0.7,1.7,0.3,3.7,1.2,5.3c1.2,2.1,2.6,4.3,4.8,5c0.8,0.2,1.7,0.3,2.6,0.3
					c8.8,0.3,17.7,0.9,26.6,0.9c10.4,0.1,20.9-0.3,31.3-1.2c5.8-0.5,11.6-1.3,17.4-1.9c6-0.6,12.5-1,17.8-4.2c4.6-2.6,7-7.8,5.8-13
					c-1-4.3-4.1-8.6-8.3-10.1c-2.5-0.8-5.1-1.1-7.7-0.9C311.3,330.7,304.3,332.2,297.5,333.6"/>
				<path id="Fill_39" class="st9" d="M257.3,176.1c0-5.7-0.8-11.5-2.5-17c-6.9-21.1-33.2-26.3-49-11.2
					c-17.7,16.9-10.9,57.2,7.7,71.4c5.1,3.8,11.6,5.1,17.8,3.5C249.5,218,257.4,195.5,257.3,176.1"/>
				<path id="Fill_41" class="st10" d="M253.8,176.6c8.1-4.4,10.6,6.8,9.2,12.3c-0.5,2.3-1.5,4.5-2.9,6.4c-1.9,2.6-7.4,6.8-10.6,4
					c-1.4-1.3-1.6-3.4-1.6-5.3C247.7,189,248.3,179.6,253.8,176.6"/>
				<path id="Fill_45" class="st1" d="M239.8,175.5c2.7,0.9,5.2,2.2,7.4,3.9c6.1,5.1,1.8,13.3,6.1,18c3.8,4.1,9.6-1.3,11.2-5.1
					c2.8-7,2.6-14.7,2.4-22.3c-0.1-4.2-0.2-8.4-1.5-12.5c-1.5-4.4-3.9-8.3-7.1-11.6c-9-9.7-22.5-14.7-35.7-13.9
					c-10.3,0.6-28.3,9.3-20.2,22.3c1.8,3,4.7,5.2,7.6,7.2c8.5,5.7,18,9.8,27.6,13.3C238.3,175,239.1,175.2,239.8,175.5"/>
				<path id="Fill_47" class="st11" d="M142.1,359.5H206v-12.5h-63.9V359.5z"/>
				<path id="Fill_49" class="st12" d="M153.1,348.3l-16.1-82c-0.4-2.2-2.3-3.7-4.5-3.7H25.3c-1.5,0-2.9,0.7-3.7,1.9l0,0l-4.9,5.8
					l4.4-1L36.8,350c0.4,2.2,2.3,3.7,4.5,3.7h107.2c2.6,0,4.6-2.1,4.6-4.6C153.2,348.9,153.1,348.6,153.1,348.3"/>
				<path id="Fill_50" class="st11" d="M36.5,359.5h107.2c2.6,0,4.6-2.1,4.6-4.6c0-0.3,0-0.6-0.1-0.9l-16.1-82
					c-0.4-2.2-2.3-3.7-4.5-3.7H20.4c-2.6,0-4.6,2.1-4.6,4.6c0,0.3,0,0.6,0.1,0.9l16.1,82C32.4,358,34.3,359.6,36.5,359.5"/>
				<path id="Fill_51" class="st13" d="M70.2,311.9c1.1,5.7,6,9.8,11.8,10c5.5,0,9.2-4.5,8.1-10c-1.1-5.5-6.4-10-11.8-10
					C72.8,301.9,69.2,306.4,70.2,311.9"/>
				<path id="Fill_52" class="st6" d="M244.7,358.8c-3.1,0.6-5.6,3.4-8.7,4.3c-2.2,0.6-4.6,0.4-6.7-0.5c-2-0.7-4-1.1-6-1.8
					c-1.6-0.5-3.7-1.6-5.4-1.2c-4.4,0.9-8.8,4.1-12.8,6.1c-0.9,0.6-1.9,0.8-2.9,0.7c-1-0.2-1.8-1.4-1.3-2.2
					c-1.2,1.1-2.7,3.2-4.5,2.4c-0.8-0.3-1.2-1.3-0.8-2c0,0,0,0,0,0c-0.6,0.7-1.3,1.4-2.2,1.8c-0.9,0.4-1.9,0.2-2.6-0.6
					c-0.2-0.4-0.3-0.8-0.3-1.3c0-1.5,0.3-3.1,1-4.4c3.2-6.9,10.3-12,16.4-16.1c1-0.8,2.2-1.4,3.4-1.8c1.1-0.3,2.3-0.4,3.4-0.4
					c7.6,0,15.1,1.2,22.2,3.6c1.5,0.5,3.2,0.1,4.8-0.2c1.1-0.3,2.3-0.3,3.4-0.1c1.2,0.5,2.3,1.3,3,2.4c1.5,2,2.3,4.4,2.3,6.9
					c-0.1,1.8-0.3,3.8-2.4,4.2c-0.9,0.2-1.8,0.1-2.7,0.2C245.2,358.7,244.9,358.7,244.7,358.8"/>
				<path id="Fill_53" class="st13" d="M377.8,310.6c1-2.3,1.1-5,0.2-7.3c-0.8-2.4-2-4.6-3.4-6.7c-1.6-2.3-2.8-4.8-3.7-7.5
					c-0.8-3-0.7-6.1,0.2-9c1.8-5.7,5.4-9.8,7.8-14.1c1.3-2.1,2.2-4.4,2.7-6.8c0.5-2.5,0.2-5.1-0.9-7.4c2.1,1.8,3,4.7,3.2,7.5
					c0.1,2.8-0.5,5.7-1.7,8.3c-2.2,5.1-5.4,9.3-6.6,13.8c-0.7,2.1-0.9,4.4-0.4,6.6c0.4,2.2,1.6,4.5,2.6,6.9c1.3,2.5,2.1,5.2,2.4,7.9
					C380.5,305.6,379.8,308.8,377.8,310.6"/>
				<path id="Fill_54" class="st12" d="M386.9,359.3h-16c-4.4,0-7.9-3.5-7.9-7.9c0,0,0,0,0,0v-37.7h31.8v37.7
					C394.8,355.7,391.2,359.3,386.9,359.3C386.9,359.3,386.9,359.3,386.9,359.3"/>
				<path id="Fill_55" class="st12" d="M397,352.1c-3.7,0-7.2-1.5-9.8-4.1c-5.4-5.5-5.4-14.3,0-19.8c5.3-5.4,14-5.5,19.4-0.2
					c0.1,0.1,0.1,0.1,0.2,0.2c5.4,5.5,5.4,14.3,0,19.8C404.2,350.6,400.7,352.1,397,352.1z M397,329c-5,0.1-9,4.2-8.9,9.2
					c0.1,4.9,4,8.8,8.9,8.9c5-0.1,9-4.2,8.9-9.2C405.8,333,401.9,329.1,397,329z"/>
				<path id="Fill_56" class="st13" d="M367.7,342L367.7,342c-0.9,0-1.7-0.8-1.7-1.7v-22.2c0-1,0.8-1.7,1.7-1.7c1,0,1.7,0.8,1.7,1.7
					v22.2C369.4,341.2,368.7,342,367.7,342"/>
				<g id="Combined_Shape" transform="translate(351.152 0.177)">
					<path class="st13" d="M-26.6,163.4v-2.6v-19.5h-7.1c-2.7,0-5.2-1.1-7.1-3c-1.9-1.9-3-4.4-3-7.1V69.6c0-2.7,1.1-5.2,3-7.1
						c1.9-1.9,4.4-3,7.1-3H79.2c2.7,0,5.2,1.1,7.1,3c1.9,1.9,3,4.4,3,7.1v61.6c0,2.7-1.1,5.2-3,7.1c-1.9,1.9-4.4,3-7.1,3H3.6
						l-28.2,20.6L-26.6,163.4z"/>
					<path class="st7" d="M-25.3,160.8L3.2,140h76c4.8,0,8.8-4,8.8-8.8V69.6c0-4.8-4-8.8-8.8-8.8H-33.7c-4.8,0-8.8,4-8.8,8.8v61.6
						c0,4.8,4,8.8,8.8,8.8h8.4V160.8 M-27.9,166v-5.1v-18.2h-5.8c-3,0-5.9-1.2-8.1-3.3c-2.2-2.2-3.3-5-3.3-8V69.6c0-3,1.2-5.9,3.3-8
						c2.2-2.2,5-3.3,8.1-3.3H79.2c3,0,5.9,1.2,8.1,3.3c2.2,2.2,3.3,5,3.3,8v61.6c0,3-1.2,5.9-3.3,8c-2.2,2.2-5,3.3-8.1,3.3H4
						l-27.8,20.3L-27.9,166z"/>
				</g>
				<path id="Fill_60" class="st14" d="M391.2,104.1h-60.7c-1.1,0-1.9-0.9-1.9-1.9v-3.1c0-1.1,0.9-1.9,1.9-1.9h60.7
					c1.1,0,1.9,0.9,1.9,1.9v3.1C393.1,103.3,392.2,104.1,391.2,104.1"/>
				<path id="Fill_61" class="st14" d="M417.3,104.1H400c-1.1,0-1.9-0.9-1.9-1.9v-3.1c0-1.1,0.9-1.9,1.9-1.9h17.3
					c1.1,0,1.9,0.9,1.9,1.9v3.1C419.2,103.3,418.4,104.1,417.3,104.1"/>
				<path id="Fill_62" class="st14" d="M356.6,81.5h60.7c1.1,0,1.9,0.9,1.9,1.9v3.1c0,1.1-0.9,1.9-1.9,1.9h-60.7
					c-1.1,0-1.9-0.9-1.9-1.9v-3.1C354.7,82.4,355.5,81.5,356.6,81.5"/>
				<path id="Fill_63" class="st14" d="M330.4,81.5h17.3c1.1,0,1.9,0.9,1.9,1.9v3.1c0,1.1-0.9,1.9-1.9,1.9h-17.3
					c-1.1,0-1.9-0.9-1.9-1.9v-3.1C328.5,82.4,329.4,81.5,330.4,81.5"/>
				<path id="Fill_64" class="st14" d="M372,118.5h-41.5c-1.1,0-1.9-0.9-1.9-1.9v-3.1c0-1.1,0.9-1.9,1.9-1.9H372
					c1.1,0,1.9,0.9,1.9,1.9v3.1C373.9,117.6,373,118.5,372,118.5"/>
				<path id="Fill_65" class="st14" d="M471.2,371.6H11.8c-4.7,0-8.5-2.9-8.5-6.5c0-3.6,3.8-6.5,8.5-6.5h459.4
					c4.7,0,8.5,2.9,8.5,6.5C479.7,368.7,475.9,371.6,471.2,371.6"/>
				<path id="Clip_27-2" class="st15" d="M224.1,228.8c-7.2,1.6-14.3,3.7-21.2,6.4l0,0c-2.5,0.9-6,1.6-8.1,3.3l0,0
					c-2.4,2-3.7,6.2-4.9,9l0,0c-4,9.4-6.4,19.3-7.2,29.5l0,0c-0.4,4.8-0.6,10,0.4,14.7l0,0c1.6,7.6,5.8,14.4,8.6,21.6l0,0
					c0.6,1.5,1,3,1.3,4.5l0,0c1.3,6.6,1,15.5,1.2,22.3l0,0c0.3,6.8,0.1,13.5-0.6,20.2l0,0c10.5,1.5,20.2,1.2,30.8,1.1l0,0
					c4.5-0.1,9-0.1,13.4-0.4l0,0c7.2-0.5,14.2-1.8,21.3-2.7l0,0c6.7-0.8,13.5-1.4,20.3-1.6l0,0c-0.1-17.1,0.1-33.8,2.2-50.9l0,0
					c2-16.6,5.8-33.7,5.7-50.5l0,0c0-5.5,0.5-14.9-5.8-17.4l0,0c-5.6-2.2-11.3-4.2-17.1-6.2l0,0c-5.3-1.9-10.7-3.3-16.3-4.2l0,0
					c-2.8-0.4-5.6-0.5-8.4-0.5l0,0C234.6,227.1,229.3,227.7,224.1,228.8"/>
				<g>
					<defs>
						<path id="SVGID_1_" d="M224.1,228.8c-7.2,1.6-14.3,3.7-21.2,6.4l0,0c-2.5,0.9-6,1.6-8.1,3.3l0,0c-2.4,2-3.7,6.2-4.9,9l0,0
							c-4,9.4-6.4,19.3-7.2,29.5l0,0c-0.4,4.8-0.6,10,0.4,14.7l0,0c1.6,7.6,5.8,14.4,8.6,21.6l0,0c0.6,1.5,1,3,1.3,4.5l0,0
							c1.3,6.6,1,15.5,1.2,22.3l0,0c0.3,6.8,0.1,13.5-0.6,20.2l0,0c10.5,1.5,20.2,1.2,30.8,1.1l0,0c4.5-0.1,9-0.1,13.4-0.4l0,0
							c7.2-0.5,14.2-1.8,21.3-2.7l0,0c6.7-0.8,13.5-1.4,20.3-1.6l0,0c-0.1-17.1,0.1-33.8,2.2-50.9l0,0c2-16.6,5.8-33.7,5.7-50.5l0,0
							c0-5.5,0.5-14.9-5.8-17.4l0,0c-5.6-2.2-11.3-4.2-17.1-6.2l0,0c-5.3-1.9-10.7-3.3-16.3-4.2l0,0c-2.8-0.4-5.6-0.5-8.4-0.5l0,0
							C234.6,227.1,229.3,227.7,224.1,228.8"/>
					</defs>
					<clipPath id="SVGID_2_">
						<use xlink:href="#SVGID_1_"  style="overflow:visible;"/>
					</clipPath>
					<g id="Group_66-2" class="st16">
						<path id="Fill_26" class="st9" d="M225.9,200.8c2.7-0.4,5.4-0.5,8.1-0.4c7.3,0.2,14.8,2.4,20.5,7.1c4.6,3.8,9.6,9.4,9.6,17.7
							c0,5-2.1,9.4-4.2,14c-7,15.5-18,27.6-31.1,26.2c-16.7-1.8-27-25.6-20.6-48.1c1.2-4.1,3-8.1,5.7-11
							C217.4,203,221.7,201.5,225.9,200.8"/>
					</g>
				</g>
			</g>
		</g>
	</g>
</g>
</svg>
