<?xml version="1.0" encoding="UTF-8"?>
<svg width="105px" height="16px" viewBox="0 0 105 16" version="1.1" xmlns="http://www.w3.org/2000/svg" xmlns:xlink="http://www.w3.org/1999/xlink">
    <!-- Generator: Sketch 63.1 (92452) - https://sketch.com -->
    <title>Stars</title>
    <desc>Created with Sketch.</desc>
    <g id="Kenzap-Service-Page" stroke="none" stroke-width="1" fill="none" fill-rule="evenodd">
        <g id="Service-Desktop" transform="translate(-604.000000, -2541.000000)" fill-rule="nonzero">
            <g id="RELATED" transform="translate(363.000000, 1964.000000)">
                <g id="Items" transform="translate(0.000000, 188.000000)">
                    <g id="01">
                        <g id="Bottom" transform="translate(45.000000, 371.000000)">
                            <g id="Stars" transform="translate(196.000000, 18.000000)">
                                <path d="M16.6310722,7.25093007 C16.9656898,6.93056891 17.0838101,6.46039376 16.9394786,6.02332483 C16.7948067,5.5862559 16.4179789,5.2742549 15.9550288,5.20804247 L11.8388576,4.62049074 C11.6635492,4.59541027 11.5120692,4.48739707 11.4337762,4.33122936 L9.59354947,0.667474815 C9.38692393,0.255820758 8.96754558,0 8.5001702,0 C8.03313522,0 7.61375688,0.255820758 7.40713134,0.667474815 L5.5665642,4.33156377 C5.48827116,4.48773147 5.33645075,4.59574468 5.16114243,4.62082515 L1.04497118,5.20837688 C0.582361463,5.2742549 0.205193274,5.58659031 0.0605213603,6.02365924 C-0.0838101489,6.46072817 0.0343102136,6.93090331 0.36892784,7.25126447 L3.34712684,10.1030807 C3.47409772,10.2248046 3.53230689,10.4000334 3.50235129,10.5712494 L2.7997564,14.5981691 C2.73746237,14.9526397 2.83209482,15.2974125 3.06561231,15.5692848 C3.42848351,15.9929775 4.06197629,16.1220583 4.56849819,15.8605526 L8.24963249,13.9591188 C8.40349532,13.8798646 8.59718549,13.8805334 8.75070792,13.9591188 L12.4321826,15.8605526 C12.6112354,15.9531831 12.8022023,16 12.9992965,16 C13.3591041,16 13.7001894,15.8428291 13.9347281,15.5692848 C14.168586,15.2974125 14.262878,14.9519709 14.200584,14.5981691 L13.4976487,10.5712494 C13.4676931,10.399699 13.5259023,10.2248046 13.6528732,10.1030807 L16.6310722,7.25093007 Z" id="01" fill="#F0C404"></path>
                                <path d="M38.6310722,7.25093007 C38.9656898,6.93056891 39.0838101,6.46039376 38.9394786,6.02332483 C38.7948067,5.5862559 38.4179789,5.2742549 37.9550288,5.20804247 L33.8388576,4.62049074 C33.6635492,4.59541027 33.5120692,4.48739707 33.4337762,4.33122936 L31.5935495,0.667474815 C31.3869239,0.255820758 30.9675456,0 30.5001702,0 C30.0331352,0 29.6137569,0.255820758 29.4071313,0.667474815 L27.5665642,4.33156377 C27.4882712,4.48773147 27.3364508,4.59574468 27.1611424,4.62082515 L23.0449712,5.20837688 C22.5823615,5.2742549 22.2051933,5.58659031 22.0605214,6.02365924 C21.9161899,6.46072817 22.0343102,6.93090331 22.3689278,7.25126447 L25.3471268,10.1030807 C25.4740977,10.2248046 25.5323069,10.4000334 25.5023513,10.5712494 L24.7997564,14.5981691 C24.7374624,14.9526397 24.8320948,15.2974125 25.0656123,15.5692848 C25.4284835,15.9929775 26.0619763,16.1220583 26.5684982,15.8605526 L30.2496325,13.9591188 C30.4034953,13.8798646 30.5971855,13.8805334 30.7507079,13.9591188 L34.4321826,15.8605526 C34.6112354,15.9531831 34.8022023,16 34.9992965,16 C35.3591041,16 35.7001894,15.8428291 35.9347281,15.5692848 C36.168586,15.2974125 36.262878,14.9519709 36.200584,14.5981691 L35.4976487,10.5712494 C35.4676931,10.399699 35.5259023,10.2248046 35.6528732,10.1030807 L38.6310722,7.25093007 Z" id="02" fill="#F0C404"></path>
                                <path d="M60.6310722,7.25093007 C60.9656898,6.93056891 61.0838101,6.46039376 60.9394786,6.02332483 C60.7948067,5.5862559 60.4179789,5.2742549 59.9550288,5.20804247 L55.8388576,4.62049074 C55.6635492,4.59541027 55.5120692,4.48739707 55.4337762,4.33122936 L53.5935495,0.667474815 C53.3869239,0.255820758 52.9675456,0 52.5001702,0 C52.0331352,0 51.6137569,0.255820758 51.4071313,0.667474815 L49.5665642,4.33156377 C49.4882712,4.48773147 49.3364508,4.59574468 49.1611424,4.62082515 L45.0449712,5.20837688 C44.5823615,5.2742549 44.2051933,5.58659031 44.0605214,6.02365924 C43.9161899,6.46072817 44.0343102,6.93090331 44.3689278,7.25126447 L47.3471268,10.1030807 C47.4740977,10.2248046 47.5323069,10.4000334 47.5023513,10.5712494 L46.7997564,14.5981691 C46.7374624,14.9526397 46.8320948,15.2974125 47.0656123,15.5692848 C47.4284835,15.9929775 48.0619763,16.1220583 48.5684982,15.8605526 L52.2496325,13.9591188 C52.4034953,13.8798646 52.5971855,13.8805334 52.7507079,13.9591188 L56.4321826,15.8605526 C56.6112354,15.9531831 56.8022023,16 56.9992965,16 C57.3591041,16 57.7001894,15.8428291 57.9347281,15.5692848 C58.168586,15.2974125 58.262878,14.9519709 58.200584,14.5981691 L57.4976487,10.5712494 C57.4676931,10.399699 57.5259023,10.2248046 57.6528732,10.1030807 L60.6310722,7.25093007 Z" id="03" fill="#F0C404"></path>
                                <path d="M82.6310722,7.25093007 C82.9656898,6.93056891 83.0838101,6.46039376 82.9394786,6.02332483 C82.7948067,5.5862559 82.4179789,5.2742549 81.9550288,5.20804247 L77.8388576,4.62049074 C77.6635492,4.59541027 77.5120692,4.48739707 77.4337762,4.33122936 L75.5935495,0.667474815 C75.3869239,0.255820758 74.9675456,0 74.5001702,0 C74.0331352,0 73.6137569,0.255820758 73.4071313,0.667474815 L71.5665642,4.33156377 C71.4882712,4.48773147 71.3364508,4.59574468 71.1611424,4.62082515 L67.0449712,5.20837688 C66.5823615,5.2742549 66.2051933,5.58659031 66.0605214,6.02365924 C65.9161899,6.46072817 66.0343102,6.93090331 66.3689278,7.25126447 L69.3471268,10.1030807 C69.4740977,10.2248046 69.5323069,10.4000334 69.5023513,10.5712494 L68.7997564,14.5981691 C68.7374624,14.9526397 68.8320948,15.2974125 69.0656123,15.5692848 C69.4284835,15.9929775 70.0619763,16.1220583 70.5684982,15.8605526 L74.2496325,13.9591188 C74.4034953,13.8798646 74.5971855,13.8805334 74.7507079,13.9591188 L78.4321826,15.8605526 C78.6112354,15.9531831 78.8022023,16 78.9992965,16 C79.3591041,16 79.7001894,15.8428291 79.9347281,15.5692848 C80.168586,15.2974125 80.262878,14.9519709 80.200584,14.5981691 L79.4976487,10.5712494 C79.4676931,10.399699 79.5259023,10.2248046 79.6528732,10.1030807 L82.6310722,7.25093007 Z" id="04" fill="#F0C404"></path>
                                <path d="M104.631072,7.25093007 C104.96569,6.93056891 105.08381,6.46039376 104.939479,6.02332483 C104.794807,5.5862559 104.417979,5.2742549 103.955029,5.20804247 L99.8388576,4.62049074 C99.6635492,4.59541027 99.5120692,4.48739707 99.4337762,4.33122936 L97.5935495,0.667474815 C97.3869239,0.255820758 96.9675456,0 96.5001702,0 C96.0331352,0 95.6137569,0.255820758 95.4071313,0.667474815 L93.5665642,4.33156377 C93.4882712,4.48773147 93.3364508,4.59574468 93.1611424,4.62082515 L89.0449712,5.20837688 C88.5823615,5.2742549 88.2051933,5.58659031 88.0605214,6.02365924 C87.9161899,6.46072817 88.0343102,6.93090331 88.3689278,7.25126447 L91.3471268,10.1030807 C91.4740977,10.2248046 91.5323069,10.4000334 91.5023513,10.5712494 L90.7997564,14.5981691 C90.7374624,14.9526397 90.8320948,15.2974125 91.0656123,15.5692848 C91.4284835,15.9929775 92.0619763,16.1220583 92.5684982,15.8605526 L96.2496325,13.9591188 C96.4034953,13.8798646 96.5971855,13.8805334 96.7507079,13.9591188 L100.432183,15.8605526 C100.611235,15.9531831 100.802202,16 100.999297,16 C101.359104,16 101.700189,15.8428291 101.934728,15.5692848 C102.168586,15.2974125 102.262878,14.9519709 102.200584,14.5981691 L101.497649,10.5712494 C101.467693,10.399699 101.525902,10.2248046 101.652873,10.1030807 L104.631072,7.25093007 Z" id="05" fill="#CACACA"></path>
                            </g>
                        </g>
                    </g>
                </g>
            </g>
        </g>
    </g>
</svg>