<svg id="Idea-Illustration" xmlns="http://www.w3.org/2000/svg" xmlns:xlink="http://www.w3.org/1999/xlink" width="485" height="506" viewBox="0 0 485 506">
  <defs>
    <clipPath id="clip-path">
      <path id="Clip_6" data-name="Clip 6" d="M0,0H8.79V8.79H0Z" transform="translate(0.171 0.068)" fill="none"/>
    </clipPath>
    <clipPath id="clip-path-2">
      <path id="Clip_15" data-name="Clip 15" d="M0,0H8.878V8.662H0Z" transform="translate(0 0.132)" fill="none"/>
    </clipPath>
    <clipPath id="clip-path-3">
      <path id="Clip_70" data-name="Clip 70" d="M0,0H6.757V50.632H0Z" transform="translate(0.141 0.184)" fill="none"/>
    </clipPath>
  </defs>
  <g id="Idea-Illustration-2" data-name="Idea-Illustration">
    <path id="Fill_1" data-name="Fill 1" d="M1.318,7.682a4.5,4.5,0,1,1,6.364,0,4.5,4.5,0,0,1-6.364,0" transform="translate(49 465)" fill="#1941df"/>
    <path id="Fill_3" data-name="Fill 3" d="M10,5A5,5,0,1,1,5,0a5,5,0,0,1,5,5" transform="translate(423 453)" fill="#1941df"/>
    <g id="Group_7" data-name="Group 7" transform="translate(476 193)">
      <path id="Clip_6-2" data-name="Clip 6" d="M0,0H8.79V8.79H0Z" transform="translate(0.171 0.068)" fill="none"/>
      <g id="Group_7-2" data-name="Group 7" clip-path="url(#clip-path)">
        <path id="Fill_5" data-name="Fill 5" d="M8.5,2.833A4.394,4.394,0,1,1,2.833.288,4.394,4.394,0,0,1,8.5,2.833" transform="translate(0.171 0.068)" fill="#1941df"/>
      </g>
    </g>
    <path id="Fill_8" data-name="Fill 8" d="M14.547,13.577c.954-.891.352-3.007-1.335-5.4a2.014,2.014,0,0,1,0-2.344c1.687-2.4,2.29-4.514,1.335-5.4S11.325.095,8.756,1.669a2.422,2.422,0,0,1-2.512,0C3.675.095,1.408-.468.453.423S.1,3.43,1.789,5.828a2.015,2.015,0,0,1,0,2.344C.1,10.57-.5,12.686.453,13.577s3.222.329,5.791-1.246a2.422,2.422,0,0,1,2.512,0c2.569,1.575,4.836,2.137,5.791,1.246" transform="translate(452 152)" fill="#1941df"/>
    <path id="Fill_10" data-name="Fill 10" d="M8,16c1.083,0,2.028-1.629,2.529-4.045a1.834,1.834,0,0,1,1.426-1.426C14.371,10.029,16,9.084,16,8s-1.629-2.029-4.045-2.529a1.834,1.834,0,0,1-1.426-1.426C10.028,1.629,9.083,0,8,0S5.972,1.629,5.471,4.045A1.834,1.834,0,0,1,4.045,5.471C1.629,5.971,0,6.916,0,8s1.629,2.028,4.045,2.529a1.834,1.834,0,0,1,1.426,1.426C5.972,14.371,6.917,16,8,16" transform="translate(24 423)" fill="#1941df"/>
    <path id="Fill_12" data-name="Fill 12" d="M1.255,10.339a6.5,6.5,0,1,1,9.084,1.406,6.5,6.5,0,0,1-9.084-1.406" transform="translate(27 145)" fill="#1941df"/>
    <g id="Group_16" data-name="Group 16" transform="translate(0 184)">
      <path id="Clip_15-2" data-name="Clip 15" d="M0,0H8.878V8.662H0Z" transform="translate(0 0.132)" fill="none"/>
      <g id="Group_16-2" data-name="Group 16" clip-path="url(#clip-path-2)">
        <path id="Fill_14" data-name="Fill 14" d="M.053,3.668A4.425,4.425,0,0,1,5.118.052,4.346,4.346,0,0,1,8.825,4.993,4.425,4.425,0,0,1,3.76,8.61,4.346,4.346,0,0,1,.053,3.668" transform="translate(0 0.132)" fill="#1941df"/>
      </g>
    </g>
    <path id="Fill_17" data-name="Fill 17" d="M423,211.5C423,328.308,328.308,423,211.5,423S0,328.308,0,211.5,94.692,0,211.5,0,423,94.692,423,211.5" transform="translate(32 83)" fill="#e7e7e7"/>
    <path id="Fill_19" data-name="Fill 19" d="M4.763,77.034a108.4,108.4,0,0,0,.513,65.173c5.652,17.845,17.6,46.691,42.428,82.775A12.891,12.891,0,0,1,50,232.315v22.474a28.773,28.773,0,0,0,4.058,14.724l.263.441A29.049,29.049,0,0,0,70.63,282.746v40.287A14.994,14.994,0,0,0,85.637,337.98H85.7A27.619,27.619,0,0,0,113.208,363h15.107a27.619,27.619,0,0,0,27.508-25.02h.064a14.994,14.994,0,0,0,15.006-14.947v-41.1a29.019,29.019,0,0,0,14.816-12.278l.264-.444a28.757,28.757,0,0,0,4.057-14.721V232.017a12.885,12.885,0,0,1,2.295-7.333c23.517-34.178,35.362-61.772,41.159-78.9A118.73,118.73,0,0,0,235.92,76.2c-6.579-24.061-19.994-43.465-39.934-57.825A212.044,212.044,0,0,0,109.35,0a215.085,215.085,0,0,0-24.54,1.416A131.115,131.115,0,0,0,68.231,7.955C35.978,23.31,14.031,47.2,4.763,77.034" transform="translate(134 83)" fill="rgba(17,17,17,0.13)"/>
    <path id="Fill_23" data-name="Fill 23" d="M66.228,12.288C41.842,23.911,15.482,44.227,4.584,79.351a105.742,105.742,0,0,0,.506,63.195C10.972,161.137,22.9,189.3,47,224.37a16.1,16.1,0,0,1,2.845,9.114v22.444a25.575,25.575,0,0,0,3.6,13.086l.263.441A25.716,25.716,0,0,0,75.812,282H116.66v-.3h40.549a25.717,25.717,0,0,0,22.1-12.544l.264-.443a25.571,25.571,0,0,0,3.6-13.084V233.187a16.1,16.1,0,0,1,2.845-9.114c22.51-32.752,34.4-59.482,40.666-78.016a115.951,115.951,0,0,0,2.375-67.639c-8.478-31.044-27.688-50.209-47.89-62.037-35.1-20.549-78.222-21.6-114.942-4.093" transform="translate(127 75)" fill="#fff"/>
    <path id="Fill_25" data-name="Fill 25" d="M120.164,289H79.213a29.1,29.1,0,0,1-24.894-14.127l-.264-.442A28.807,28.807,0,0,1,50,259.694V237.2a12.907,12.907,0,0,0-2.294-7.34c-24.83-36.118-36.777-64.987-42.427-82.846a108.581,108.581,0,0,1-.513-65.228C14.031,51.926,35.978,28.019,68.231,12.65A130.735,130.735,0,0,1,95.6,3.156,128.1,128.1,0,0,1,123.793,0a125.213,125.213,0,0,1,32.329,4.23,122.864,122.864,0,0,1,30.328,12.65c25.248,14.778,41.893,36.337,49.47,64.078a118.913,118.913,0,0,1-2.435,69.637c-5.8,17.144-17.642,44.762-41.159,78.97a12.9,12.9,0,0,0-2.294,7.34V259.4a28.8,28.8,0,0,1-4.058,14.735l-.263.442A29.1,29.1,0,0,1,160.816,288.7h-39.3A3.163,3.163,0,0,1,120.164,289ZM123.79,6.35h0A121.689,121.689,0,0,0,97,9.353a124.343,124.343,0,0,0-26.02,9.028C39.932,33.173,19.7,55.138,10.849,83.665a102.29,102.29,0,0,0,.5,61.441c5.523,17.451,17.224,45.7,41.607,81.166a19.215,19.215,0,0,1,3.41,10.93v22.493a22.47,22.47,0,0,0,3.164,11.494l.264.442a22.693,22.693,0,0,0,19.417,11.019h39.6a3.169,3.169,0,0,1,1.348-.3h40.651a22.7,22.7,0,0,0,19.417-11.017l.263-.443A22.461,22.461,0,0,0,183.66,259.4V236.9a19.222,19.222,0,0,1,3.41-10.93c23.107-33.612,34.711-60.647,40.377-77.408a112.608,112.608,0,0,0,2.326-65.939c-7.126-26.084-22.788-46.362-46.551-60.27a116.459,116.459,0,0,0-28.76-11.994,118.844,118.844,0,0,0-30.669-4.011Z" transform="translate(123 72)" fill="#1941df"/>
    <path id="Fill_27" data-name="Fill 27" d="M82.165,55H11.835A11.891,11.891,0,0,1,0,43.053V0H94V43.053A11.891,11.891,0,0,1,82.165,55" transform="translate(197 356)" fill="#acbac9"/>
    <path id="Fill_29" data-name="Fill 29" d="M85.032,61H14.967A15.03,15.03,0,0,1,0,45.941V3.2A3.19,3.19,0,0,1,3.177,0H96.823A3.19,3.19,0,0,1,100,3.2V45.941A15.031,15.031,0,0,1,85.032,61ZM6.354,6.393V45.941a8.649,8.649,0,0,0,8.613,8.666H85.032a8.65,8.65,0,0,0,8.614-8.666V6.393Z" transform="translate(195 353)" fill="#1941df"/>
    <path id="Fill_31" data-name="Fill 31" d="M0,0V39.373A8.688,8.688,0,0,0,8.728,48H13a9.346,9.346,0,0,1-5.847-8.627V0Z" transform="translate(200 360)" fill="#fff"/>
    <path id="Fill_33" data-name="Fill 33" d="M24.445,25A24.387,24.387,0,0,1,0,.673V0H64V.673A24.387,24.387,0,0,1,39.555,25Z" transform="translate(212 411)" fill="#8c9aa9"/>
    <path id="Fill_35" data-name="Fill 35" d="M43.122,31H27.878C12.506,31,0,18.8,0,3.8V3.136A3.179,3.179,0,0,1,3.214,0H67.785A3.18,3.18,0,0,1,71,3.136V3.8C71,18.8,58.494,31,43.122,31ZM6.577,6.272a20.74,20.74,0,0,0,7.007,13.12,21.708,21.708,0,0,0,14.293,5.336H43.122a21.709,21.709,0,0,0,14.294-5.336,20.742,20.742,0,0,0,7.008-13.12Z" transform="translate(209 408)" fill="#1941df"/>
    <path id="Fill_37" data-name="Fill 37" d="M21.674,18H24C15.107,15.839,8.334,8.72,7.269,0H0C1.278,10.123,10.511,18,21.674,18" transform="translate(215 414)" fill="#fff"/>
    <path id="Fill_39" data-name="Fill 39" d="M33.844,1.483,1.617,86.77A25.037,25.037,0,0,0,0,95.62V201.207L36,202l36-.793V95.62a25.037,25.037,0,0,0-1.617-8.85L38.156,1.483a2.308,2.308,0,0,0-4.311,0" transform="translate(208 154)" fill="#1941df"/>
    <path id="Fill_41" data-name="Fill 41" d="M38.5,208h-.063L2.753,207.2A2.82,2.82,0,0,1,0,204.381V98.61a28.076,28.076,0,0,1,1.782-9.857L33.727,3.317a5.093,5.093,0,0,1,9.547,0L75.218,88.754A28.061,28.061,0,0,1,77,98.61V204.381a2.82,2.82,0,0,1-2.753,2.823L38.562,208Zm0-201.363L7.055,90.735A22.436,22.436,0,0,0,5.631,98.61V201.619l32.869.733,32.869-.733V98.61a22.419,22.419,0,0,0-1.424-7.874Z" transform="translate(205 152)" fill="#1941df"/>
    <path id="Fill_43" data-name="Fill 43" d="M14,0,0,36H28Z" transform="translate(229 157)" fill="#111"/>
    <path id="Fill_45" data-name="Fill 45" d="M60.353,6.338,49.865,21.125,37.978,6.338,28.188,21.125,18.4,0,7.91,24.646,0,5.535V108.263L33,109l33-.737V13.546Z" transform="translate(210 245)" fill="rgba(255,255,255,0.4)"/>
    <path id="Fill_47" data-name="Fill 47" d="M4,10.931l-4-9V94.813L9,95V0Z" transform="translate(214 259)" fill="#1941df"/>
    <path id="Fill_49" data-name="Fill 49" d="M15.518,14.839,3.982,0,0,6.22V103l19-.439V9.762Z" transform="translate(244 251)" fill="#1941df"/>
    <path id="Fill_51" data-name="Fill 51" d="M18.4,51.289,28.188,72.47l9.789-14.827L49.865,72.47,60.353,57.643,66,64.871V56.477a22.9,22.9,0,0,0-1.437-8L46.559,0H19.441l-18,48.478a22.9,22.9,0,0,0-1.436,8v.362L7.91,76Z" transform="translate(210 194)" fill="#e5e5e5"/>
    <path id="Fill_53" data-name="Fill 53" d="M11.853,29h-.011A2.115,2.115,0,0,1,9.9,27.695L.163,4.255a2.116,2.116,0,1,1,3.9-1.632L11.88,21.428l8.6-20.142a2.112,2.112,0,0,1,3.861-.061l8.279,17.8L40.406,7.311a2.111,2.111,0,0,1,3.4-.158L54.045,19.838,63,7.254a2.111,2.111,0,0,1,3.381-.081l8.16,10.379a2.118,2.118,0,1,1-3.321,2.628l-6.416-8.161L55.872,24.575a2.113,2.113,0,0,1-1.657.887,2.06,2.06,0,0,1-1.707-.786L42.331,12.065,34.056,24.519a2.112,2.112,0,0,1-3.676-.28L22.509,7.316,13.8,27.714A2.115,2.115,0,0,1,11.853,29" transform="translate(206 243)" fill="#1941df"/>
    <path id="Fill_55" data-name="Fill 55" d="M0,.1H32" transform="translate(227 193.896)" fill="#1941df"/>
    <path id="Fill_57" data-name="Fill 57" d="M33.873,4H2.127A2.066,2.066,0,0,1,0,2,2.066,2.066,0,0,1,2.127,0H33.873A2.066,2.066,0,0,1,36,2a2.066,2.066,0,0,1-2.127,2" transform="translate(225 192)" fill="#1941df"/>
    <path id="Fill_59" data-name="Fill 59" d="M0,.1H92" transform="translate(198 371.896)" fill="#1941df"/>
    <path id="Fill_61" data-name="Fill 61" d="M93.88,4H2.12A2.063,2.063,0,0,1,0,2,2.063,2.063,0,0,1,2.12,0H93.88A2.063,2.063,0,0,1,96,2a2.063,2.063,0,0,1-2.12,2" transform="translate(196 370)" fill="#1941df"/>
    <path id="Fill_63" data-name="Fill 63" d="M0,.1H92" transform="translate(198 387.896)" fill="#1941df"/>
    <path id="Fill_65" data-name="Fill 65" d="M93.88,4H2.12A2.063,2.063,0,0,1,0,2,2.063,2.063,0,0,1,2.12,0H93.88A2.063,2.063,0,0,1,96,2a2.063,2.063,0,0,1-2.12,2" transform="translate(196 386)" fill="#1941df"/>
    <path id="Fill_67" data-name="Fill 67" d="M.1,0V44" transform="translate(242.895 3)" fill="#1941df"/>
    <g id="Group_71" data-name="Group 71" transform="translate(240)">
      <path id="Clip_70-2" data-name="Clip 70" d="M0,0H6.757V50.632H0Z" transform="translate(0.141 0.184)" fill="none"/>
      <g id="Group_71-2" data-name="Group 71" clip-path="url(#clip-path-3)">
        <path id="Fill_69" data-name="Fill 69" d="M3.378,50.633A3.449,3.449,0,0,1,0,47.116V3.516A3.45,3.45,0,0,1,3.378,0,3.45,3.45,0,0,1,6.757,3.516v43.6a3.449,3.449,0,0,1-3.378,3.516" transform="translate(0.141 0.184)" fill="#1941df"/>
      </g>
    </g>
    <path id="Fill_72" data-name="Fill 72" d="M21,0,0,32" transform="translate(311 32)" fill="#1941df"/>
    <path id="Fill_74" data-name="Fill 74" d="M3.5,39a3.453,3.453,0,0,1-1.938-.6,3.575,3.575,0,0,1-.971-4.917l21-31.909A3.474,3.474,0,0,1,26.441.6a3.574,3.574,0,0,1,.971,4.917l-21,31.909A3.484,3.484,0,0,1,3.5,39" transform="translate(307 29)" fill="#1941df"/>
    <path id="Fill_76" data-name="Fill 76" d="M0,0,21,32" transform="translate(160 32)" fill="#1941df"/>
    <path id="Fill_78" data-name="Fill 78" d="M24.5,39a3.485,3.485,0,0,1-2.915-1.579L.588,5.512A3.574,3.574,0,0,1,1.559.6a3.474,3.474,0,0,1,4.854.983l21,31.909a3.575,3.575,0,0,1-.971,4.917A3.453,3.453,0,0,1,24.5,39" transform="translate(156 29)" fill="#1941df"/>
    <path id="Fill_80" data-name="Fill 80" d="M0,14,36,0" transform="translate(363 99)" fill="#1941df"/>
    <path id="Fill_82" data-name="Fill 82" d="M3.55,21A3.55,3.55,0,0,1,.237,18.756a3.486,3.486,0,0,1,2.038-4.523l36.9-14a3.565,3.565,0,0,1,4.586,2.01,3.486,3.486,0,0,1-2.038,4.523l-36.9,14A3.59,3.59,0,0,1,3.55,21" transform="translate(359 96)" fill="#1941df"/>
    <path id="Fill_84" data-name="Fill 84" d="M36,14,0,0" transform="translate(89 99)" fill="#1941df"/>
    <path id="Fill_86" data-name="Fill 86" d="M40.45,21a3.59,3.59,0,0,1-1.273-.234l-36.9-14A3.486,3.486,0,0,1,.237,2.244,3.565,3.565,0,0,1,4.823.234l36.9,14a3.486,3.486,0,0,1,2.038,4.523A3.55,3.55,0,0,1,40.45,21" transform="translate(85 96)" fill="#1941df"/>
  </g>
</svg>
