<?xml version="1.0" encoding="utf-8"?>
<!-- Generator: Adobe Illustrator 24.1.0, SVG Export Plug-In . SVG Version: 6.00 Build 0)  -->
<svg version="1.1" id="Idea-Illustration" xmlns="http://www.w3.org/2000/svg" xmlns:xlink="http://www.w3.org/1999/xlink" x="0px"
	 y="0px" viewBox="0 0 485 506" style="enable-background:new 0 0 485 506;" xml:space="preserve">
<style type="text/css">
	.st0{fill:#E7E7E7;}
	.st1{fill:#CDCDCD;stroke:#1941DF;stroke-width:4;stroke-miterlimit:10;}
	.st2{fill:#EFEEEE;}
	.st3{fill:#D3E2EC;}
	.st4{fill:#D1D2D3;}
	.st5{fill:#FFFF5F;}
	.st6{fill:#FFFFFF;}
	.st7{fill:#1941DF;}
	.st8{fill:#323232;}
	.st9{fill:#CDCDCD;}
	.st10{fill:#FFFFFF;stroke:#1941DF;stroke-width:5;stroke-miterlimit:10;}
	.st11{fill:#758DEB;}
</style>
<g id="Group_1" transform="translate(5.002)">
	<path id="Base" class="st0" d="M443.6,266.8c0,117-94.8,211.8-211.8,211.8S20.1,383.8,20.1,266.8S114.9,55.1,231.9,55.1
		S443.6,149.9,443.6,266.8"/>
	<g id="Illustration_-_Offer">
		<g id="Illustration_-_Offer-2">
			<path id="Fill_1_1_" class="st1" d="M139.8,118.2l-90.4,1.1c-7.4,0.1-13.3,6.1-13.3,13.5c0,0.6,0,1.1,0.1,1.7l24.6,177.4
				c0.9,6.7,6.7,11.6,13.5,11.5l278.9-3.3c6.8-0.1,12.4-5.1,13.2-11.9l17-153.4c0.6-4.9-3-9.3-7.9-9.9c-0.4,0-0.8-0.1-1.1-0.1
				l-212.6,2.5l-7.6-21C151.3,121.3,145.8,118.1,139.8,118.2"/>
			<path id="Fill_7" class="st2" d="M240.4,231.4L79,262.3L40.1,60l161.4-30.9L240.4,231.4z"/>
			<path id="Fill_9" class="st3" d="M202,30.1l-2.4,0.5l-25.3,200.3l42.9,5.5l23.2-4.5L202,30.1z"/>
			<path id="Fill_11" class="st4" d="M177.3,59.1L73.9,79.1l-1.7-9l103.4-20.1L177.3,59.1z"/>
			<path id="Fill_13" class="st4" d="M200.3,178.2L96.9,198.3l-1.7-9l103.4-20.1L200.3,178.2z"/>
			<path id="Fill_15" class="st4" d="M203.3,196.2L99.9,216.3l-1.7-9l103.4-20.1L203.3,196.2z"/>
			<path id="Fill_17_1_" class="st4" d="M207.3,213.3l-103.4,20.1l-1.7-9l103.4-20.1L207.3,213.3z"/>
			<path id="Fill_19_1_" class="st4" d="M152.3,72.7L101,83.1l-0.8-4.6l51.2-10.4L152.3,72.7z"/>
			<path id="Fill_21" class="st4" d="M127.2,100.8L70,112.2l-0.9-4.6l57.2-11.4L127.2,100.8z"/>
			<path id="Fill_23_1_" class="st4" d="M130.2,114.8L73,126.2l-0.9-4.6l57.2-11.4L130.2,114.8z"/>
			<path id="Fill_25_1_" class="st4" d="M132.2,126.8L75,138.2l-0.9-4.6l57.2-11.4L132.2,126.8z"/>
			<path id="Fill_27_1_" class="st4" d="M134.2,140.8L77,152.2l-0.9-4.6l57.2-11.4L134.2,140.8z"/>
			<path id="Fill_29_1_" class="st4" d="M137.2,153.8L80,165.2l-0.9-4.6l57.2-11.4L137.2,153.8z"/>
			<path id="Fill_31_1_" class="st4" d="M139.2,166.8L82,178.2l-0.9-4.6l57.2-11.4L139.2,166.8z"/>
			<path id="Fill_33_1_" class="st4" d="M195.3,87.7l-57.2,11.4l-0.9-4.6l57.2-11.4L195.3,87.7z"/>
			<path id="Fill_35_1_" class="st4" d="M198.3,100.8l-57.2,11.4l-0.9-4.6l57.2-11.4L198.3,100.8z"/>
			<path id="Fill_37_1_" class="st4" d="M201.3,114.8l-57.2,11.4l-0.9-4.6l57.2-11.4L201.3,114.8z"/>
			<path id="Fill_39_1_" class="st4" d="M204.3,126.8l-57.2,11.4l-0.9-4.6l57.2-11.4L204.3,126.8z"/>
			<path id="Fill_41_1_" class="st4" d="M206.3,140.8l-57.2,11.4l-0.9-4.6l57.2-11.4L206.3,140.8z"/>
			<path id="Fill_43_1_" class="st4" d="M209.3,153.8l-57.2,11.4l-0.9-4.6l57.2-11.4L209.3,153.8z"/>
			<path id="Fill_45_1_" class="st2" d="M344.5,252.3l-163.2-20.8l26-204.5l163.2,20.8L344.5,252.3z"/>
			<path id="Fill_47_1_" class="st4" d="M338.4,69.1L234.4,56l1.1-8.9l104,13.1L338.4,69.1z"/>
			<path id="Fill_49_1_" class="st4" d="M322.3,189.3l-104-13.1l1.1-8.9l104,13.1L322.3,189.3z"/>
			<path id="Fill_51_1_" class="st4" d="M320.3,207.3l-104-13.1l1.1-8.9l104,13.1L320.3,207.3z"/>
			<path id="Fill_53_1_" class="st4" d="M318.3,225.3l-104-13.1l1.1-8.9l104,13.1L318.3,225.3z"/>
			<path id="Fill_55_1_" class="st4" d="M311.9,75.1l-52.5-6.6l0.6-4.4l52.5,6.6L311.9,75.1z"/>
			<path id="Fill_57_1_" class="st4" d="M276.9,93.1l-57.5-6.8l0.6-4.2l57.5,6.8L276.9,93.1z"/>
			<path id="Fill_59_1_" class="st4" d="M275.9,106.1l-57.5-6.8l0.6-4.2l57.5,6.8L275.9,106.1z"/>
			<path id="Fill_61_1_" class="st4" d="M273.9,119.2l-57.5-6.8l0.6-4.2l57.5,6.8L273.9,119.2z"/>
			<path id="Fill_63_1_" class="st4" d="M272.8,133.2l-57.5-6.8l0.6-4.2l57.5,6.8L272.8,133.2z"/>
			<path id="Fill_65_1_" class="st4" d="M270.8,146.2l-57.5-6.8l0.6-4.2l57.5,6.8L270.8,146.2z"/>
			<path id="Fill_67_1_" class="st4" d="M268.8,159.2l-57.5-6.8l0.6-4.2l57.5,6.8L268.8,159.2z"/>
			<path id="Fill_69_1_" class="st4" d="M346.9,101.1l-57.5-6.8l0.6-4.2l57.5,6.8L346.9,101.1z"/>
			<path id="Fill_71" class="st4" d="M345.9,115.2l-57.5-6.8l0.6-4.2l57.5,6.8L345.9,115.2z"/>
			<path id="Fill_73" class="st4" d="M343.9,128.2l-57.5-6.8l0.6-4.2l57.5,6.8L343.9,128.2z"/>
			<path id="Fill_75" class="st4" d="M342.9,141.2l-57.5-6.8l0.6-4.2l57.5,6.8L342.9,141.2z"/>
			<path id="Fill_77" class="st4" d="M340.9,154.2l-57.5-6.8l0.6-4.2l57.5,6.8L340.9,154.2z"/>
			<path id="Fill_79" class="st4" d="M338.9,168.2l-57.5-6.8l0.6-4.2l57.5,6.8L338.9,168.2z"/>
			<path id="Fill_81" class="st5" d="M366.7,403l-304.8,3.6c-7.4,0.1-13.7-5.3-14.7-12.6L20.2,200c-1.1-8,4.5-15.4,12.5-16.5
				c0.6-0.1,1.2-0.1,1.8-0.1l354.1-4.1c8.1-0.1,14.7,6.3,14.9,14.4c0,0.6,0,1.2-0.1,1.8L381.2,390
				C380.3,397.3,374.1,402.9,366.7,403"/>
			<g id="Fill_83" transform="translate(0 156)">
				<path class="st6" d="M61.7,257c-4.1,0-8.2-1.5-11.3-4.2c-3.1-2.7-5.2-6.5-5.7-10.6L17.8,48.3c-0.3-2.5-0.2-4.9,0.6-7.3
					c0.7-2.3,1.8-4.4,3.4-6.2c1.6-1.8,3.5-3.3,5.6-4.3c2.3-1.1,4.7-1.6,7.2-1.7l354.1-4.1c0.1,0,0.1,0,0.2,0c2.5,0,4.9,0.5,7.2,1.6
					c2.2,1,4.1,2.4,5.7,4.2c1.6,1.8,2.8,3.8,3.5,6.1c0.8,2.3,1,4.8,0.7,7.2l-22.3,194.5c-0.5,4.1-2.5,8-5.6,10.8
					c-3.1,2.8-7.1,4.4-11.3,4.4L61.9,257C61.8,257,61.8,257,61.7,257z"/>
				<path class="st7" d="M61.7,254.5c0.1,0,0.1,0,0.2,0l304.8-3.6c7.4-0.1,13.6-5.6,14.4-13l22.3-194.5c1-8.7-5.8-16.3-14.6-16.3
					c-0.1,0-0.1,0-0.2,0L34.6,31.4C25.8,31.5,19,39.3,20.2,48l26.9,193.9C48.2,249.1,54.4,254.5,61.7,254.5 M61.7,259.5
					c-4.8,0-9.3-1.7-12.9-4.8c-3.6-3.1-5.9-7.4-6.6-12.1L15.3,48.7c-0.4-2.8-0.2-5.7,0.7-8.4c0.8-2.6,2.1-5,3.9-7.1
					c1.8-2.1,4-3.8,6.5-4.9c2.6-1.2,5.4-1.9,8.3-1.9l354.1-4.1c0.1,0,0.2,0,0.2,0c2.9,0,5.6,0.6,8.2,1.8c2.5,1.1,4.7,2.8,6.5,4.8
					c1.8,2,3.2,4.4,4,6.9c0.9,2.7,1.2,5.5,0.8,8.3l-22.3,194.5c-0.5,4.8-2.8,9.1-6.4,12.3c-3.6,3.2-8.2,5-13,5l-304.8,3.6
					C61.9,259.5,61.8,259.5,61.7,259.5z"/>
			</g>
			<path id="Fill_87" class="st8" d="M330.5,284.3l-37.5-33.9l-14.5,16.1l37.5,33.9L330.5,284.3z"/>
			<path id="Fill_89" class="st7" d="M319.5,274l-15.2-13.7l-13.9,15.4l15.2,13.7L319.5,274z"/>
			<g id="Fill_91" transform="translate(284 243)">
				<path class="st9" d="M115.3,161l-1.8-1.7l-91-82.9C19.7,74,18.2,70.6,18,67c-0.2-3.6,1.1-7.1,3.5-9.8l25-27.8
					c1.3-1.5,2.9-2.6,4.7-3.4c1.7-0.8,3.6-1.1,5.4-1.1c3.4,0,6.6,1.2,9.1,3.5l0,0l0,0l91.6,83.5l1.9,1.7l-1.7,1.9L117,159.2
					L115.3,161z"/>
				<path class="st7" d="M56.6,27.4c-3,0-6.1,1.2-8.3,3.7l-25,27.8c-4.1,4.6-3.8,11.6,0.8,15.8l91,82.9l40.5-43.8L64.1,30.2
					C61.9,28.3,59.3,27.4,56.6,27.4 M56.6,22.3c4,0,7.8,1.5,10.8,4.2l0,0l0,0L159,110l3.7,3.4l-3.4,3.7l-40.5,43.8l-3.4,3.7
					l-3.7-3.3l-91-82.9c-1.6-1.5-2.9-3.2-3.8-5.1c-0.9-1.9-1.4-3.9-1.5-6C15.4,65,15.7,63,16.3,61c0.7-2,1.8-3.9,3.3-5.5l25-27.8
					c1.6-1.7,3.4-3.1,5.5-4C52.2,22.8,54.4,22.3,56.6,22.3z"/>
			</g>
			<g id="Group_95" transform="translate(379 329)">
				<path id="Fill_93" class="st10" d="M36.7,85.3L20.8,71.1l40.6-43.6l15.3,13.7c4.5,4.1,4.9,11,0.9,15.6c0,0,0,0.1-0.1,0.1
					L52.5,84.5C48.3,89,41.3,89.4,36.7,85.3"/>
			</g>
			<path id="Fill_101" class="st7" d="M207.2,301.4L207.2,301.4c-61.9-0.1-112.1-50.3-112-112.3C95.3,129.5,142,80.3,201.6,77.3
				c1.9-0.1,3.9-0.2,5.9-0.2c61.9,0.1,112.1,50.3,112,112.3c-0.1,59.6-46.8,108.8-106.3,111.9C211.2,301.3,209.2,301.4,207.2,301.4z
				 M207.4,99.3c-1.6,0-3.1,0-4.7,0.1c-6.1,0.3-12.1,1.2-18,2.8c-11.4,2.9-22,8.1-31.4,15.2c-13.9,10.5-24.5,24.8-30.5,41.2
				c-2,5.5-3.5,11.3-4.4,17.1c-0.9,6-1.2,12.1-0.9,18.2c0.9,17.3,6.8,34,16.9,48.1c9.9,13.7,23.4,24.3,39.1,30.6
				c10.7,4.4,22.2,6.6,33.7,6.6c1.6,0,3.1,0,4.7-0.1c6.1-0.3,12.1-1.2,18-2.8c11.4-2.9,22-8.1,31.4-15.2
				c13.9-10.5,24.5-24.8,30.5-41.2c2-5.5,3.5-11.3,4.4-17.1c0.9-6,1.2-12.1,0.9-18.2c-0.9-17.3-6.7-34-16.9-48.1
				c-9.9-13.7-23.4-24.3-39.1-30.6C230.4,101.5,219,99.3,207.4,99.3z"/>
			<path id="Fill_109" class="st11" d="M206.8,286.4L206.8,286.4c-53.9-0.1-97.6-43.8-97.5-97.7c0.1-51.9,40.7-94.7,92.6-97.4
				c1.7-0.1,3.4-0.1,5.1-0.1c53.9,0.1,97.6,43.8,97.5,97.7c-0.1,51.9-40.7,94.7-92.6,97.4C210.2,286.3,208.4,286.4,206.8,286.4z
				 M206.9,98.7c-1.6,0-3.1,0-4.7,0.1c-6.1,0.3-12.1,1.2-18,2.8c-11.4,2.9-22.1,8.1-31.5,15.2c-14,10.5-24.6,24.8-30.6,41.3
				c-2,5.6-3.5,11.3-4.4,17.1c-0.9,6-1.2,12.1-0.9,18.2c0.9,17.4,6.8,34.1,17,48.2c9.9,13.7,23.5,24.3,39.1,30.7
				c10.7,4.4,22.2,6.6,33.8,6.6c1.6,0,3.1,0,4.7-0.1c6.1-0.3,12.1-1.2,18-2.8c11.4-2.9,22.1-8.1,31.5-15.2
				c14-10.5,24.6-24.8,30.6-41.3c2-5.6,3.5-11.3,4.4-17.2c0.9-6,1.2-12.1,0.9-18.2c-0.9-17.4-6.8-34.1-17-48.2
				c-9.9-13.7-23.5-24.3-39.1-30.7C230,100.9,218.5,98.7,206.9,98.7L206.9,98.7z"/>
		</g>
	</g>
</g>
</svg>
