<?xml version="1.0" encoding="UTF-8"?>
<svg width="16px" height="16px" viewBox="0 0 16 16" version="1.1" xmlns="http://www.w3.org/2000/svg" xmlns:xlink="http://www.w3.org/1999/xlink">
    <!-- Generator: Sketch 63.1 (92452) - https://sketch.com -->
    <title>Search</title>
    <desc>Created with Sketch.</desc>
    <g id="Kenzap-Service-Page" stroke="none" stroke-width="1" fill="none" fill-rule="evenodd">
        <g id="Service-Desktop" transform="translate(-184.000000, -47.000000)" fill="#A2A2A2">
            <g id="HEADER">
                <g id="Search-Form" transform="translate(164.000000, 25.000000)">
                    <g id="Search" transform="translate(20.000000, 22.000000)">
                        <g id="Shape">
                            <path d="M15.8044826,14.862 L11.2545326,10.312 C12.1358667,9.22334375 12.6665171,7.84 12.6665171,6.33334375 C12.6665171,2.84134375 9.82520456,0 6.33324292,0 C2.84128128,0 0,2.8413125 0,6.3333125 C0,9.8253125 2.84131253,12.6666562 6.33327417,12.6666562 C7.83991387,12.6666562 9.22324242,12.136 10.3118867,11.2546563 L14.8618367,15.8046563 C14.9918353,15.9346562 15.1624897,16 15.3331753,16 C15.5038609,16 15.6745153,15.9346562 15.8045139,15.8046563 C16.0651673,15.544 16.0651673,15.1226562 15.8044826,14.862 Z M6.33327417,11.3333125 C3.57596071,11.3333125 1.3333291,9.09065625 1.3333291,6.3333125 C1.3333291,3.57596875 3.57596071,1.3333125 6.33327417,1.3333125 C9.09058763,1.3333125 11.3332192,3.57596875 11.3332192,6.3333125 C11.3332192,9.09065625 9.09055638,11.3333125 6.33327417,11.3333125 Z" fill-rule="nonzero"></path>
                        </g>
                    </g>
                </g>
            </g>
        </g>
    </g>
</svg>