<?xml version="1.0" encoding="utf-8"?>
<!-- Generator: Adobe Illustrator 27.6.1, SVG Export Plug-In . SVG Version: 6.00 Build 0)  -->
<svg version="1.1" xmlns="http://www.w3.org/2000/svg" xmlns:xlink="http://www.w3.org/1999/xlink" x="0px" y="0px"
	 viewBox="0 0 197 155.204" enable-background="new 0 0 197 155.204" xml:space="preserve">
<g id="Color_5">
	<g id="Layer_103">
		<g>
			<path fill="#E5E5E5" d="M152.556,10.324c-0.024,0-0.047,0.001-0.071,0.002c-0.242-0.53-0.75-0.914-1.354-0.979
				c0-0.003,0-0.007,0-0.01c0-1.872-1.518-3.389-3.389-3.389c-1.864,0-3.375,1.504-3.389,3.364c0,0,0,0-0.001,0
				c-0.533,0-1.009,0.243-1.324,0.625c-0.539-0.72-1.399-1.185-2.368-1.185c-1.551,0-2.822,1.194-2.947,2.713
				c-0.227-0.114-0.484-0.178-0.755-0.178c-0.933,0-1.69,0.757-1.69,1.69c0,0.933,0.757,1.69,1.69,1.69h15.598
				c1.199,0,2.171-0.972,2.171-2.171S153.755,10.324,152.556,10.324z M145.722,12.059c0.001,0.001,0.002,0.001,0.003,0.002h-0.005
				C145.721,12.061,145.721,12.06,145.722,12.059z"/>
		</g>
		<g>
			<path fill="#E5E5E5" d="M79.691,5.753c-0.031,0-0.062,0.001-0.093,0.002c-0.318-0.697-0.986-1.201-1.78-1.287
				c0-0.004,0-0.009,0-0.013c0-2.46-1.995-4.455-4.455-4.455c-2.449,0-4.437,1.977-4.454,4.422c0,0-0.001,0-0.001,0
				c-0.701,0-1.327,0.32-1.74,0.821c-0.709-0.946-1.839-1.558-3.112-1.558c-2.039,0-3.71,1.57-3.873,3.567
				c-0.299-0.15-0.636-0.234-0.993-0.234c-1.227,0-2.221,0.995-2.221,2.221c0,1.227,0.995,2.221,2.221,2.221h20.502
				c1.576,0,2.854-1.278,2.854-2.854S81.267,5.753,79.691,5.753z M70.709,8.033c0.001,0.001,0.003,0.002,0.004,0.003h-0.006
				C70.707,8.035,70.708,8.034,70.709,8.033z"/>
		</g>
		<g>
			<g>
				<polygon fill="#E5E5E5" points="138.249,41.665 139.741,42.848 139.356,43.932 137.865,42.748 				"/>
			</g>
		</g>
		<g enable-background="new    ">
			<defs>
				<path id="SVGID_1_" enable-background="new    " d="M137.839,43.417l-1.492-1.184c0.138,0.109,0.303,0.206,0.497,0.289
					c0.305,0.131,0.645,0.206,1.02,0.226l1.492,1.184c-0.375-0.02-0.714-0.095-1.02-0.226
					C138.143,43.622,137.977,43.526,137.839,43.417z"/>
			</defs>
			<use xlink:href="#SVGID_1_"  overflow="visible" fill="#E5E5E5"/>
			<clipPath id="SVGID_00000021839937354544762060000012749189722298539172_">
				<use xlink:href="#SVGID_1_"  overflow="visible"/>
			</clipPath>
			<g clip-path="url(#SVGID_00000021839937354544762060000012749189722298539172_)" enable-background="new    ">
				<g>
					<path fill="#E5E5E5" d="M137.865,42.748l1.492,1.184c-0.375-0.02-0.714-0.095-1.02-0.226c-0.194-0.083-0.36-0.18-0.497-0.289
						l-1.492-1.184c0.138,0.109,0.303,0.206,0.497,0.289C137.15,42.652,137.49,42.728,137.865,42.748"/>
				</g>
			</g>
		</g>
	</g>
	<g id="Layer_201_copy_2">
		<g id="Layer_198_copy_4_00000022527492030132728860000004282388122356212657_">
			<g>
				<path fill="#E5E5E5" d="M134.973,52.038L134.973,52.038c-0.391,0-0.708-0.317-0.708-0.708v-7.267
					c0-0.391,0.317-0.708,0.708-0.708l0,0c0.391,0,0.708,0.317,0.708,0.708v7.267C135.681,51.721,135.364,52.038,134.973,52.038z"/>
			</g>
			<g>
				<path fill="#E5E5E5" d="M134.973,55.866L134.973,55.866c-0.391,0-0.708-0.317-0.708-0.708v-1.677
					c0-0.391,0.317-0.708,0.708-0.708l0,0c0.391,0,0.708,0.317,0.708,0.708v1.677C135.681,55.549,135.364,55.866,134.973,55.866z"/>
			</g>
		</g>
		<g id="Layer_198_copy_4_00000014611933667057516110000008882357376114002610_">
			<g>
				<path fill="#E5E5E5" d="M139.215,55.432L139.215,55.432c-0.391,0-0.708-0.317-0.708-0.708v-7.267
					c0-0.391,0.317-0.708,0.708-0.708l0,0c0.391,0,0.708,0.317,0.708,0.708v7.267C139.923,55.115,139.606,55.432,139.215,55.432z"/>
			</g>
			<g>
				<path fill="#E5E5E5" d="M139.215,59.26L139.215,59.26c-0.391,0-0.708-0.317-0.708-0.708v-1.677c0-0.391,0.317-0.708,0.708-0.708
					l0,0c0.391,0,0.708,0.317,0.708,0.708v1.677C139.923,58.943,139.606,59.26,139.215,59.26z"/>
			</g>
		</g>
		<g id="Layer_198_copy_4">
			<g>
				<path fill="#E5E5E5" d="M143.457,52.038L143.457,52.038c-0.391,0-0.708-0.317-0.708-0.708v-7.267
					c0-0.391,0.317-0.708,0.708-0.708l0,0c0.391,0,0.708,0.317,0.708,0.708v7.267C144.165,51.721,143.848,52.038,143.457,52.038z"/>
			</g>
			<g>
				<path fill="#E5E5E5" d="M143.457,55.866L143.457,55.866c-0.391,0-0.708-0.317-0.708-0.708v-1.677
					c0-0.391,0.317-0.708,0.708-0.708l0,0c0.391,0,0.708,0.317,0.708,0.708v1.677C144.165,55.549,143.848,55.866,143.457,55.866z"/>
			</g>
		</g>
	</g>
	<g id="Layer_201_copy_3">
		<g id="Layer_198_copy_5_00000041999311738042366380000001071200391066080167_">
			<g>
				<path fill="#E5E5E5" d="M70.425,52.038L70.425,52.038c-0.391,0-0.708-0.317-0.708-0.708v-7.267c0-0.391,0.317-0.708,0.708-0.708
					h0c0.391,0,0.708,0.317,0.708,0.708v7.267C71.133,51.721,70.816,52.038,70.425,52.038z"/>
			</g>
			<g>
				<path fill="#E5E5E5" d="M70.425,55.866L70.425,55.866c-0.391,0-0.708-0.317-0.708-0.708v-1.677c0-0.391,0.317-0.708,0.708-0.708
					h0c0.391,0,0.708,0.317,0.708,0.708v1.677C71.133,55.549,70.816,55.866,70.425,55.866z"/>
			</g>
		</g>
		<g id="Layer_198_copy_5_00000036237122449485744720000007320025965926257285_">
			<g>
				<path fill="#E5E5E5" d="M74.667,55.432L74.667,55.432c-0.391,0-0.708-0.317-0.708-0.708v-7.267c0-0.391,0.317-0.708,0.708-0.708
					l0,0c0.391,0,0.708,0.317,0.708,0.708v7.267C75.375,55.115,75.058,55.432,74.667,55.432z"/>
			</g>
			<g>
				<path fill="#E5E5E5" d="M74.667,59.26L74.667,59.26c-0.391,0-0.708-0.317-0.708-0.708v-1.677c0-0.391,0.317-0.708,0.708-0.708
					l0,0c0.391,0,0.708,0.317,0.708,0.708v1.677C75.375,58.943,75.058,59.26,74.667,59.26z"/>
			</g>
		</g>
		<g id="Layer_198_copy_5">
			<g>
				<path fill="#E5E5E5" d="M78.909,52.038L78.909,52.038c-0.391,0-0.708-0.317-0.708-0.708v-7.267c0-0.391,0.317-0.708,0.708-0.708
					l0,0c0.391,0,0.708,0.317,0.708,0.708v7.267C79.617,51.721,79.3,52.038,78.909,52.038z"/>
			</g>
			<g>
				<path fill="#E5E5E5" d="M78.909,55.866L78.909,55.866c-0.391,0-0.708-0.317-0.708-0.708v-1.677c0-0.391,0.317-0.708,0.708-0.708
					l0,0c0.391,0,0.708,0.317,0.708,0.708v1.677C79.617,55.549,79.3,55.866,78.909,55.866z"/>
			</g>
		</g>
	</g>
	<g id="Layer_201">
		<g id="Layer_198">
			<g>
				<path fill="#E5E5E5" d="M101.071,45.314L101.071,45.314c-0.59,0-1.068-0.478-1.068-1.068v-10.97c0-0.59,0.478-1.068,1.068-1.068
					l0,0c0.59,0,1.068,0.478,1.068,1.068v10.97C102.139,44.836,101.661,45.314,101.071,45.314z"/>
			</g>
			<g>
				<path fill="#E5E5E5" d="M101.071,51.094L101.071,51.094c-0.59,0-1.068-0.478-1.068-1.068v-2.532c0-0.59,0.478-1.068,1.068-1.068
					l0,0c0.59,0,1.068,0.478,1.068,1.068v2.532C102.139,50.615,101.661,51.094,101.071,51.094z"/>
			</g>
		</g>
		<g id="Layer_198_copy">
			<g>
				<path fill="#E5E5E5" d="M107.475,50.437L107.475,50.437c-0.59,0-1.068-0.478-1.068-1.068v-10.97c0-0.59,0.478-1.068,1.068-1.068
					h0c0.59,0,1.068,0.478,1.068,1.068v10.97C108.543,49.959,108.065,50.437,107.475,50.437z"/>
			</g>
			<g>
				<path fill="#E5E5E5" d="M107.475,56.217L107.475,56.217c-0.59,0-1.068-0.478-1.068-1.068v-2.532c0-0.59,0.478-1.068,1.068-1.068
					h0c0.59,0,1.068,0.478,1.068,1.068v2.532C108.543,55.738,108.065,56.217,107.475,56.217z"/>
			</g>
		</g>
		<g id="Layer_198_copy_2">
			<g>
				<path fill="#E5E5E5" d="M113.879,45.314L113.879,45.314c-0.59,0-1.068-0.478-1.068-1.068v-10.97c0-0.59,0.478-1.068,1.068-1.068
					l0,0c0.59,0,1.068,0.478,1.068,1.068v10.97C114.947,44.836,114.469,45.314,113.879,45.314z"/>
			</g>
			<g>
				<path fill="#E5E5E5" d="M113.879,51.094L113.879,51.094c-0.59,0-1.068-0.478-1.068-1.068v-2.532c0-0.59,0.478-1.068,1.068-1.068
					l0,0c0.59,0,1.068,0.478,1.068,1.068v2.532C114.947,50.615,114.469,51.094,113.879,51.094z"/>
			</g>
		</g>
	</g>
</g>
<g id="Color_4">
	<g id="Layer_131_copy">
		<g>
			<polygon fill="#E89F97" points="19.089,149.733 24.367,149.733 24.753,146.695 19.394,146.701 			"/>
			<polygon fill="#E89F97" points="44.376,146.686 44.849,149.733 50.127,149.733 49.727,146.63 			"/>
			<path fill="#E89F97" d="M49.519,149.673l-2.346-1.375l-2.358,1.4l0,0c0.002,0.002,4.134,3.737,10.72,1.67c0,0,0.001,0,0.001,0
				C55.537,151.368,52.611,149.887,49.519,149.673z"/>
			<path fill="#E89F97" d="M19.659,149.673c-3.092,0.214-6.018,1.695-6.018,1.695c0,0,0.001,0,0.001,0
				c6.586,2.068,10.718-1.668,10.72-1.669l0,0l-2.358-1.4L19.659,149.673z"/>
			<path fill="#E89F97" d="M4.462,60.176c-4.459-1.33-3.455,0.76-3.455,0.76c-1.203,0.458-0.361,1.281-0.361,1.281
				c-1.195,0.56-0.024,1.604-0.024,1.604c-2.737,1.157,4.443,4.334,4.443,4.334l0.805,0.34l2.326-4.063l-0.469-0.37
				C5.639,59.184,4.462,60.176,4.462,60.176z"/>
		</g>
		<g id="Layer_70">
			<g>
				<path fill="#E89F97" d="M38.672,39.426c-0.152-0.06-0.309-0.084-0.466-0.079c-0.002-0.044-0.004-0.087-0.005-0.123
					c-0.033-1.407-1.64-1.226-2.512-1.699c-0.847-0.459-0.923-0.553-1.4-2.306c0,0-1.276,2.629-4.15,2.834
					c-1.38,0.098-1.523,0.138-1.998,1.291c-0.142,0.001-0.284,0.027-0.422,0.081c-0.726,0.288-1.055,1.253-0.735,2.155
					c0.262,0.739,0.878,1.206,1.491,1.193l0.017,0.156c0.001,0.01,0.003,0.021,0.004,0.031l0.013,0.122h0.001
					c0.56,1.666,1.288,2.832,2.109,3.583l-0.239,2.441l0,0c0,0-0.002,0.017-0.005,0.05l-0.164,1.677h0.247
					c0.225,1.208,0.906,2.606,2.855,2.606c2.08,0,2.692-1.457,2.851-2.606h0.149l-0.113-1.152c-0.01-0.133-0.021-0.21-0.021-0.21
					l0,0l-0.278-2.842l-0.031-0.003c0.876-0.804,1.639-1.998,2.157-3.462h0l0.007-0.062c0.008-0.064,0.016-0.129,0.021-0.194
					l0.016-0.141c0.559-0.062,1.094-0.511,1.334-1.186C39.726,40.678,39.397,39.714,38.672,39.426z"/>
			</g>
		</g>
	</g>
	<g>
		<g>
			<g>
				<path fill="#E89F97" d="M56.071,29.289c0,0,1.811-1.948,2.119-4.636c0.283-2.47-0.255-3.984-0.646-3.103
					c0,0-0.506-1.218-0.904-0.154c0,0-0.187-0.784-0.586-0.737c-0.296,0.034-0.484,0.457-0.484,0.457s-0.21-0.958-0.67-0.966
					c-0.547-0.01-0.954,2.113-1.1,3.97c0,0-0.286-1.582-0.954-1.488c-0.948,0.135-0.467,5.564-0.467,5.564L56.071,29.289z"/>
			</g>
		</g>
	</g>
	<g>
		<path fill="#E89F97" d="M4.462,60.176c0,0-3.11-1.18-3.542,0.197c0,0-0.046,0.369,0.1,0.559c0,0-1.204,0.409-0.375,1.286
			c0,0,1.414-0.042,2.051,0.159c0.637,0.201,0.857,0.228,0.857,0.228L4.462,60.176z"/>
	</g>
	<g>
		<path fill="#E89F97" d="M4.612,60.556c0,0,0.2-0.14,0.457-0.102c0.257,0.038,0.825,0.525,0.825,0.525l-0.744,1.021L4.603,62.62
			c0,0-0.352-0.742-0.349-0.764C4.257,61.834,4.612,60.556,4.612,60.556z"/>
	</g>
	<g>
		<g>
			<g>
				<path fill="#E89F97" d="M4.377,60.189c0,0-2.22,2.942-1.175,3.483c1.045,0.541,1.674-1.454,1.674-1.454s-0.036,1.359,1.33,1.826
					"/>
			</g>
		</g>
		<g display="none">
			<g display="inline">
				<path fill="#E89F97" d="M2.887,63.366c0.044,0.165,0.14,0.287,0.287,0.363c0.229,0.118,0.458,0.132,0.681,0.039
					c0.493-0.206,0.83-0.885,0.985-1.266c0.072,0.439,0.343,1.26,1.347,1.603l0.041-0.12c-1.304-0.446-1.289-1.71-1.287-1.765
					l0.011-0.446l-0.135,0.425c-0.004,0.012-0.381,1.189-1.011,1.452c-0.189,0.079-0.376,0.067-0.574-0.035
					c-0.121-0.063-0.197-0.168-0.228-0.304c-0.184-0.816,1.376-3.019,1.424-3.084L4.327,60.15c-0.068,0.09-1.665,2.222-1.447,3.189
					C2.882,63.348,2.884,63.357,2.887,63.366z"/>
			</g>
		</g>
	</g>
	<g id="Layer_68">
		<g>
			<path fill="#E89F97" d="M31.917,49.608l-1.592,0.158l-0.008,0.001c0,0,0.003,0.021,0.009,0.058c0.081,0.493,0.73,3.98,2.881,3.98
				c2.181,0,2.917-3.579,2.995-3.993c0.001-0.008,0.003-0.015,0.004-0.021c0.002-0.012,0.003-0.019,0.003-0.019L31.917,49.608z"/>
		</g>
	</g>
	<g id="Layer_64">
		<g>
			<path fill="#E89F97" d="M190.301,62.105L190.301,62.105c-0.149-0.152-0.394-0.169-0.564-0.039l-1.987,1.517l1.594-1.258
				c0.163-0.128,0.192-0.357,0.067-0.52c-0.135-0.176-0.396-0.207-0.571-0.068l-1.289,1.023l-0.508,0.403l0.506-0.439l0.596-0.517
				c0.155-0.134,0.172-0.362,0.038-0.516c-0.144-0.166-0.404-0.18-0.566-0.031l-0.116,0.106l-0.564,0.516l-0.702,0.642
				c-0.234,0.493-0.449,1.009-0.65,1.543c-0.209,0.554-0.401,1.127-0.579,1.717c-0.025,0.082-0.05,0.163-0.074,0.246
				c-0.254,0.08-1.76,0.56-3.785,1.092c-2.875-0.012-6.293-0.301-10.938-0.7l-0.494,2.712c0.247,0.089,0.489,0.175,0.73,0.26
				c0.087,1.795-0.013,2.676-0.753,4.898c-0.062,0.186-0.128,0.381-0.2,0.588c4.902-0.68,7.864-1.548,10.442-2.758
				c0.08,0.017,0.159,0.034,0.24,0.051c1.771,0.367,3.61,0.676,5.663,0.966c0.102-1.479,0.128-2.756-0.104-4.334
				c-0.002-0.013-0.004-0.026-0.006-0.039c0.147-0.093,0.297-0.187,0.449-0.282c-0.137-0.871-0.393-1.269-0.68-1.664
				c0.764-0.583,1.47-1.138,2.193-1.742c0.351-0.293,0.705-0.596,1.073-0.922l1.119-0.629c0.129-0.073,0.147-0.245,0.036-0.341
				c-0.068-0.058-0.165-0.071-0.247-0.032l-1.279,0.614l1.873-1.473C190.449,62.544,190.467,62.274,190.301,62.105z"/>
			<path fill="#E89F97" d="M172.156,43.011c0.44,1.792,1.387,3.408,2.609,4.39l-0.781,3.65l-1.13,5.277l10.224,0.197l-1.565-5.47
				l-1.162-4.062c0.965-0.975,1.702-2.372,2.079-3.904c0.499-0.155,0.952-0.569,1.183-1.148c0.368-0.924,0.03-1.917-0.755-2.218
				c-0.075-0.029-0.151-0.048-0.228-0.062c-0.437-3.219-2.657-5.669-5.331-5.669c-2.639,0-4.836,2.385-5.313,5.54
				c-0.102,0.013-0.204,0.038-0.302,0.076c-0.791,0.303-1.132,1.303-0.761,2.234C171.16,42.443,171.636,42.866,172.156,43.011z"/>
		</g>
	</g>
</g>
<g id="Color_3">
	<g id="Layer_67_copy">
		<path fill="#67AD5B" d="M74.785,114.923l-29.583-12.9c22.026-50,96.706-57.124,123.503-0.099l-29.496,13.097
			C128.274,88.749,88.109,86.047,74.785,114.923"/>
	</g>
	<g id="meteran_copy_2">
		<g id="Layer_106_copy_3_00000133523252817569699760000008942320172513260958_">
			<g>
				
					<ellipse transform="matrix(0.1648 -0.9863 0.9863 0.1648 -22.2082 199.914)" fill="#67AD5B" cx="106.944" cy="113.071" rx="3.766" ry="3.766"/>
			</g>
		</g>
	</g>
	<g id="Layer_124">
		<g>
			<circle fill="#67AD5B" cx="107.345" cy="24.344" r="14.335"/>
		</g>
		<g>
			<circle fill="#67AD5B" cx="107.345" cy="24.344" r="12.258"/>
		</g>
	</g>
	<g id="Layer_76">
		<g>
			<g>
				<path fill="#67AD5B" d="M72.922,37.338c0.032-0.158,0.13-0.297,0.294-0.417c0.088-0.063,0.196-0.117,0.324-0.161l0.755,1.816
					c-0.086-0.011-0.169-0.023-0.25-0.035c-0.247-0.038-0.463-0.112-0.65-0.221c-0.186-0.109-0.325-0.27-0.414-0.484
					C72.91,37.663,72.89,37.497,72.922,37.338z"/>
			</g>
		</g>
		<g>
			<g>
				<path fill="#67AD5B" d="M76.432,40.127c0.19,0.109,0.33,0.269,0.419,0.484c0.072,0.174,0.089,0.337,0.052,0.489
					c-0.038,0.152-0.141,0.284-0.308,0.397c-0.065,0.044-0.142,0.083-0.23,0.118l-0.72-1.733c0.045,0.007,0.089,0.014,0.132,0.021
					C76.023,39.944,76.242,40.019,76.432,40.127z"/>
			</g>
		</g>
		<g enable-background="new    ">
			<g enable-background="new    ">
				<g>
					<path fill="#67AD5B" d="M80.31,45.31l-1.268,1.131c-0.633,0.565-1.441,0.954-2.399,1.11c-3.48,0.564-7.625-2.168-9.261-6.102
						c-1.185-2.851-0.727-5.551,0.939-7.037l1.268-1.131c-1.666,1.486-2.124,4.186-0.939,7.037c1.635,3.935,5.781,6.667,9.261,6.102
						C78.869,46.265,79.677,45.875,80.31,45.31"/>
				</g>
			</g>
		</g>
		<g>
			<g>
				<path fill="#67AD5B" d="M80.464,38.401c-1.432-3.445-5.061-5.836-8.106-5.342c-3.046,0.494-4.354,3.686-2.922,7.131
					c1.431,3.444,5.06,5.836,8.106,5.342C80.586,45.038,81.895,41.845,80.464,38.401z M78.121,41.287
					c-0.003,0.044-0.007,0.087-0.013,0.131c-0.009,0.065-0.022,0.128-0.04,0.19c-0.012,0.041-0.025,0.081-0.041,0.121
					c-0.031,0.079-0.07,0.155-0.116,0.229c-0.023,0.037-0.048,0.072-0.075,0.108c-0.014,0.018-0.028,0.035-0.042,0.052
					c-0.029,0.034-0.06,0.068-0.093,0.101c-0.033,0.033-0.067,0.065-0.104,0.096c-0.062,0.053-0.129,0.102-0.203,0.147
					c-0.044,0.027-0.091,0.053-0.139,0.078c-0.049,0.025-0.099,0.048-0.152,0.071c-0.088,0.037-0.182,0.071-0.282,0.101l0.659,1.585
					c0.098,0.235,0.009,0.454-0.2,0.488c-0.208,0.034-0.457-0.13-0.554-0.365l-0.648-1.56c-0.411,0.044-0.829,0.03-1.254-0.041
					c-0.294-0.05-0.565-0.12-0.813-0.21c-0.281-0.102-0.502-0.395-0.507-0.682c-0.005-0.219,0.123-0.369,0.309-0.4
					c0.075-0.012,0.16-0.005,0.249,0.026c0.183,0.062,0.376,0.115,0.579,0.156c0.343,0.07,0.671,0.092,0.986,0.066l-0.822-1.978
					c-0.235-0.022-0.475-0.053-0.719-0.094c-0.301-0.05-0.592-0.13-0.87-0.238c-0.278-0.108-0.533-0.272-0.767-0.491
					c-0.233-0.219-0.427-0.515-0.582-0.89c-0.158-0.38-0.213-0.745-0.165-1.091c0.048-0.347,0.217-0.646,0.507-0.895
					c0.216-0.187,0.51-0.33,0.88-0.428l-0.588-1.416c-0.098-0.235-0.008-0.453,0.2-0.487c0.209-0.034,0.456,0.129,0.554,0.365
					l0.587,1.412c0.267-0.019,0.542-0.012,0.827,0.021c0.215,0.025,0.422,0.065,0.623,0.119c0.292,0.08,0.536,0.378,0.552,0.671
					c0.012,0.227-0.116,0.387-0.308,0.418c-0.063,0.01-0.132,0.007-0.205-0.013c-0.165-0.043-0.328-0.075-0.487-0.095
					c-0.193-0.024-0.375-0.034-0.547-0.03l0.843,2.027c0.101,0.011,0.201,0.023,0.302,0.036c0.058,0.008,0.117,0.016,0.175,0.025
					c0.043,0.006,0.086,0.013,0.129,0.02c0.031,0.005,0.061,0.01,0.092,0.016c0.014,0.003,0.028,0.005,0.042,0.008
					c0.058,0.011,0.115,0.024,0.172,0.037c0.018,0.004,0.035,0.009,0.053,0.013c0.053,0.013,0.105,0.027,0.157,0.043
					c0.058,0.017,0.116,0.035,0.173,0.055c0.058,0.02,0.117,0.04,0.174,0.063c0.157,0.061,0.306,0.139,0.448,0.234
					c0.016,0.011,0.031,0.021,0.047,0.032c0.031,0.022,0.062,0.045,0.092,0.068c0.061,0.047,0.12,0.098,0.178,0.152
					c0.231,0.215,0.423,0.507,0.576,0.875c0.068,0.163,0.117,0.324,0.146,0.483c0.012,0.068,0.021,0.135,0.027,0.202
					c0.004,0.045,0.005,0.089,0.006,0.133C78.125,41.199,78.124,41.243,78.121,41.287"/>
			</g>
		</g>
		<g>
			<g>
				<path fill="#67AD5B" d="M71.988,32.171c3.479-0.564,7.625,2.168,9.26,6.103c1.635,3.935,0.141,7.582-3.338,8.146
					c-3.48,0.564-7.625-2.168-9.261-6.102C67.014,36.382,68.509,32.735,71.988,32.171z M77.541,45.532
					c3.045-0.494,4.353-3.687,2.922-7.131c-1.432-3.445-5.061-5.836-8.106-5.342c-3.046,0.494-4.354,3.686-2.922,7.131
					C70.867,43.634,74.496,46.026,77.541,45.532"/>
			</g>
		</g>
		<g>
			<g>
				<path fill="#67AD5B" d="M140.078,40.244c0.083,0.13,0.086,0.301,0.011,0.514c-0.062,0.174-0.162,0.329-0.3,0.465
					c-0.139,0.138-0.317,0.246-0.536,0.326c-0.085,0.031-0.177,0.056-0.275,0.076l0.614-1.73c0.033,0.013,0.065,0.026,0.096,0.039
					C139.865,40.012,139.995,40.115,140.078,40.244z"/>
			</g>
		</g>
		<g>
			<g>
				<path fill="#67AD5B" d="M139.102,37.11c0.138-0.144,0.317-0.259,0.539-0.346c0.117-0.046,0.245-0.08,0.384-0.102l-0.644,1.813
					c-0.064-0.023-0.126-0.047-0.184-0.071c-0.178-0.073-0.308-0.174-0.388-0.304c-0.079-0.13-0.082-0.301-0.006-0.515
					C138.864,37.412,138.964,37.253,139.102,37.11z"/>
			</g>
		</g>
		<g enable-background="new    ">
			<g>
				<path fill="#67AD5B" d="M144.428,32.93l1.492,1.184c0.119,0.094,0.232,0.197,0.337,0.306l-1.492-1.184
					C144.659,33.126,144.547,33.024,144.428,32.93"/>
			</g>
			<g>
				<path fill="#67AD5B" d="M144.765,33.236l1.492,1.184c0.26,0.269,0.479,0.581,0.654,0.931l-1.492-1.184
					C145.244,33.817,145.025,33.505,144.765,33.236"/>
			</g>
			<g>
				<path fill="#67AD5B" d="M145.419,34.167l1.492,1.184c0.156,0.312,0.277,0.655,0.361,1.022l-1.492-1.184
					C145.696,34.822,145.575,34.479,145.419,34.167"/>
			</g>
			<g>
				<path fill="#67AD5B" d="M145.78,35.189l1.492,1.184c0.086,0.379,0.133,0.786,0.137,1.214l-1.492-1.184
					C145.912,35.975,145.866,35.568,145.78,35.189"/>
			</g>
			<g>
				<path fill="#67AD5B" d="M145.917,36.403l1.492,1.184c0.005,0.557-0.061,1.151-0.203,1.772l-1.492-1.184
					C145.856,37.554,145.922,36.96,145.917,36.403"/>
			</g>
			<g>
				<path fill="#67AD5B" d="M145.713,38.175l1.492,1.184c-0.079,0.344-0.182,0.695-0.309,1.053c-0.343,0.967-0.833,1.89-1.426,2.731
					l-1.492-1.184c0.593-0.841,1.083-1.764,1.426-2.731C145.532,38.87,145.634,38.519,145.713,38.175"/>
			</g>
			<g>
				<path fill="#67AD5B" d="M143.978,41.959l1.492,1.184c-0.405,0.575-0.858,1.112-1.345,1.599l-1.492-1.184
					C143.121,43.071,143.574,42.534,143.978,41.959"/>
			</g>
			<g>
				<path fill="#67AD5B" d="M142.633,43.559l1.492,1.184c-0.373,0.373-0.765,0.717-1.171,1.026l-1.492-1.184
					C141.868,44.275,142.261,43.932,142.633,43.559"/>
			</g>
			<g>
				<path fill="#67AD5B" d="M141.462,44.585l1.492,1.184c-0.386,0.294-0.784,0.557-1.189,0.785l-1.492-1.184
					C140.678,45.142,141.076,44.879,141.462,44.585"/>
			</g>
			<g>
				<path fill="#67AD5B" d="M140.273,45.37l1.492,1.184c-0.444,0.25-0.896,0.457-1.35,0.616l-1.492-1.184
					C139.377,45.827,139.829,45.619,140.273,45.37"/>
			</g>
			<g>
				<path fill="#67AD5B" d="M138.923,45.986l1.492,1.184c-0.68,0.238-1.362,0.368-2.025,0.369c-0.998,0.003-1.836-0.286-2.481-0.797
					l-1.492-1.184c0.645,0.512,1.483,0.8,2.481,0.797C137.561,46.353,138.244,46.224,138.923,45.986"/>
			</g>
		</g>
		<g>
			<g>
				<path fill="#67AD5B" d="M141.632,33.02c2.891-0.008,4.246,2.773,3.026,6.21c-1.22,3.438-4.554,6.23-7.445,6.238
					c-2.892,0.008-4.246-2.773-3.026-6.21C135.408,35.82,138.741,33.027,141.632,33.02z M140.573,41.702
					c0.283-0.317,0.491-0.662,0.624-1.036c0.13-0.367,0.174-0.668,0.132-0.905c-0.042-0.236-0.142-0.426-0.299-0.569
					c-0.157-0.143-0.342-0.259-0.557-0.348c-0.147-0.061-0.297-0.116-0.45-0.167l0.718-2.023c0.147,0.021,0.292,0.058,0.436,0.109
					c0.119,0.043,0.232,0.097,0.34,0.162c0.048,0.029,0.103,0.043,0.163,0.043c0.182,0,0.402-0.131,0.551-0.345
					c0.192-0.277,0.197-0.593,0.009-0.71c-0.129-0.081-0.274-0.149-0.436-0.205c-0.215-0.074-0.441-0.121-0.677-0.143l0.5-1.409
					c0.084-0.236-0.009-0.425-0.207-0.425c-0.197,0.001-0.425,0.191-0.509,0.427l-0.501,1.413c-0.379,0.037-0.724,0.127-1.036,0.269
					c-0.419,0.191-0.769,0.445-1.053,0.762c-0.283,0.318-0.493,0.666-0.628,1.046c-0.132,0.373-0.178,0.68-0.137,0.92
					c0.041,0.24,0.14,0.431,0.297,0.573c0.156,0.143,0.343,0.261,0.559,0.354c0.175,0.075,0.353,0.14,0.535,0.195l-0.701,1.975
					c-0.282-0.022-0.541-0.092-0.778-0.209c-0.141-0.07-0.266-0.147-0.375-0.233c-0.053-0.042-0.119-0.061-0.19-0.061
					c-0.177,0-0.389,0.122-0.539,0.328c-0.197,0.27-0.218,0.577-0.055,0.714c0.144,0.121,0.322,0.227,0.532,0.318
					c0.305,0.131,0.645,0.206,1.02,0.226l-0.553,1.556c-0.084,0.236,0.009,0.425,0.206,0.425c0.198-0.001,0.426-0.191,0.509-0.427
					l0.561-1.581c0.336-0.043,0.645-0.128,0.928-0.257C139.937,42.274,140.289,42.019,140.573,41.702"/>
			</g>
		</g>
		<g>
			<g>
				<path fill="#67AD5B" d="M141.947,32.133c3.303-0.009,4.851,3.169,3.457,7.096s-5.203,7.118-8.506,7.127
					c-3.304,0.009-4.851-3.168-3.457-7.096C134.835,35.333,138.644,32.141,141.947,32.133z M137.213,45.468
					c2.891-0.008,6.225-2.8,7.445-6.238c1.22-3.437-0.135-6.218-3.026-6.21c-2.892,0.008-6.225,2.801-7.445,6.238
					C132.967,42.695,134.322,45.476,137.213,45.468"/>
			</g>
		</g>
	</g>
	<g>
		<g>
			<polygon fill="#67AD5B" points="23.814,152.943 23.588,153.09 23.962,154.868 23.979,154.868 			"/>
			<path fill="#67AD5B" d="M25.212,154.869l-0.501-5.168l-0.35-0.002c-0.002,0.002-4.134,3.737-10.72,1.669
				c-1.482,0.649-2.621,1.923-3.086,3.501l13.406,0l-0.374-1.778l0.227-0.147l0.165,1.925h-0.017l0,0H25.212z"/>
		</g>
		<g>
			<polygon fill="#67AD5B" points="45.283,153.052 45.205,154.868 45.216,154.868 45.59,153.09 			"/>
			<path fill="#67AD5B" d="M45.205,154.868l0.079-1.816l0.306,0.038l-0.374,1.778l13.406,0.001
				c-0.465-1.578-1.604-2.852-3.086-3.501c-6.586,2.068-10.718-1.668-10.72-1.67l-0.35,0.002l-0.501,5.168h1.25l0-0.001H45.205z"/>
		</g>
	</g>
	<g id="Layer_69">
		<g id="Layer_137_copy">
			<path fill="#67AD5B" d="M56.507,29.056c-0.003-0.094-0.059-0.181-0.148-0.231c-1.785-1.009-3.602-0.909-4.187-0.843
				c-0.128,0.014-0.233,0.099-0.263,0.211c-0.112,0.426-0.102,0.759-0.098,0.828c-3.797,7.13-7.058,13.069-9.207,16.941
				c-1.498,2.7-2.457,4.395-2.679,4.787c-0.844-0.39-1.836-0.676-2.988-0.846c0,0,0-0.001,0-0.001l-0.726-0.109l-0.006-0.001
				c-0.001,0.006-0.002,0.013-0.004,0.021h0c-0.002,0.013-0.005,0.029-0.009,0.048c0,0,0,0.001,0,0.001
				c-0.004,0.019-0.008,0.04-0.013,0.064c0,0.001,0,0.001,0,0.002c-0.005,0.024-0.011,0.05-0.017,0.079
				c0,0.002-0.001,0.003-0.001,0.005c-0.006,0.028-0.013,0.059-0.021,0.091c0,0.002-0.001,0.004-0.001,0.005
				c-0.008,0.033-0.016,0.068-0.025,0.105c0,0.001-0.001,0.002-0.001,0.004c-0.009,0.037-0.019,0.075-0.029,0.115
				c-0.001,0.002-0.001,0.004-0.002,0.006c-0.01,0.039-0.021,0.081-0.033,0.123c-0.001,0.004-0.002,0.008-0.003,0.012
				c-0.012,0.042-0.024,0.086-0.037,0.131c-0.001,0.004-0.002,0.008-0.004,0.013c-0.013,0.044-0.026,0.09-0.041,0.136
				c-0.002,0.006-0.003,0.011-0.005,0.017c-0.014,0.046-0.029,0.093-0.045,0.141c-0.002,0.007-0.004,0.013-0.006,0.02
				c-0.016,0.047-0.032,0.096-0.049,0.144c-0.003,0.007-0.005,0.015-0.008,0.022c-0.017,0.049-0.035,0.098-0.053,0.147
				c-0.003,0.008-0.006,0.016-0.009,0.024c-0.018,0.049-0.038,0.099-0.057,0.149c-0.003,0.009-0.007,0.017-0.01,0.026
				c-0.02,0.05-0.041,0.1-0.062,0.15c-0.004,0.009-0.008,0.018-0.011,0.027c-0.021,0.05-0.044,0.101-0.067,0.151
				c-0.004,0.009-0.008,0.018-0.012,0.027c-0.023,0.05-0.047,0.101-0.072,0.151c-0.005,0.009-0.009,0.019-0.014,0.028
				c-0.025,0.05-0.05,0.1-0.077,0.15c-0.005,0.009-0.01,0.018-0.014,0.027c-0.027,0.05-0.054,0.099-0.082,0.148
				c-0.005,0.009-0.01,0.018-0.015,0.027c-0.028,0.049-0.058,0.097-0.088,0.145c-0.005,0.009-0.011,0.017-0.016,0.025
				c-0.03,0.048-0.062,0.095-0.094,0.141c-0.006,0.008-0.011,0.016-0.017,0.024c-0.032,0.046-0.066,0.092-0.1,0.137
				c-0.006,0.008-0.012,0.015-0.017,0.023c-0.035,0.045-0.07,0.088-0.106,0.131c-0.006,0.007-0.012,0.014-0.018,0.02
				c-0.037,0.043-0.075,0.084-0.113,0.124c-0.006,0.006-0.012,0.012-0.018,0.018c-0.021,0.021-0.042,0.041-0.063,0.061
				c-0.019,0.019-0.038,0.038-0.057,0.056c-0.006,0.005-0.012,0.01-0.018,0.016c-0.042,0.037-0.084,0.074-0.128,0.108
				c-0.006,0.004-0.011,0.009-0.017,0.013c-0.044,0.034-0.09,0.067-0.136,0.098c-0.005,0.004-0.011,0.007-0.016,0.011
				c-0.047,0.031-0.095,0.06-0.144,0.087c-0.005,0.003-0.01,0.005-0.015,0.008c-0.019,0.01-0.039,0.019-0.059,0.029
				c-0.031,0.016-0.062,0.032-0.094,0.046c-0.005,0.002-0.009,0.004-0.014,0.006c-0.053,0.023-0.108,0.043-0.163,0.061
				c-0.004,0.001-0.008,0.002-0.011,0.003c-0.057,0.018-0.114,0.033-0.173,0.046c-0.003,0.001-0.006,0.001-0.009,0.002
				c-0.06,0.012-0.122,0.022-0.185,0.029c-0.002,0-0.003,0-0.005,0c-0.064,0.007-0.13,0.01-0.197,0.01
				c-0.063,0-0.125-0.004-0.186-0.009c-0.005-0.001-0.011-0.001-0.016-0.001c-0.058-0.006-0.114-0.015-0.169-0.026
				c-0.008-0.002-0.016-0.003-0.023-0.005c-0.054-0.011-0.106-0.025-0.157-0.041c-0.009-0.003-0.017-0.005-0.026-0.008
				c-0.051-0.016-0.1-0.035-0.149-0.055c-0.008-0.004-0.017-0.007-0.025-0.011c-0.032-0.014-0.062-0.03-0.093-0.045
				c-0.016-0.008-0.033-0.015-0.049-0.024c-0.007-0.004-0.014-0.008-0.022-0.012c-0.047-0.026-0.093-0.054-0.138-0.084
				c-0.005-0.003-0.01-0.007-0.015-0.01c-0.046-0.031-0.092-0.064-0.136-0.099c-0.002-0.001-0.003-0.003-0.005-0.004
				c-0.044-0.035-0.086-0.071-0.128-0.109c-0.005-0.004-0.009-0.008-0.014-0.012c-0.04-0.037-0.079-0.075-0.117-0.115
				c-0.006-0.007-0.013-0.013-0.019-0.02c-0.037-0.039-0.072-0.079-0.107-0.12c-0.007-0.008-0.014-0.016-0.021-0.024
				c-0.034-0.041-0.067-0.083-0.1-0.125c-0.005-0.006-0.01-0.013-0.014-0.019c-0.002-0.003-0.004-0.005-0.006-0.008
				c-0.032-0.043-0.064-0.087-0.094-0.132c-0.006-0.009-0.012-0.018-0.018-0.026c-0.031-0.046-0.061-0.092-0.09-0.139
				c-0.005-0.008-0.009-0.015-0.014-0.023c-0.029-0.048-0.058-0.096-0.085-0.145c-0.003-0.005-0.006-0.011-0.009-0.016
				c-0.027-0.048-0.053-0.097-0.078-0.146c-0.004-0.008-0.008-0.015-0.012-0.023c-0.025-0.049-0.049-0.099-0.073-0.148
				c-0.005-0.01-0.01-0.02-0.015-0.031c-0.023-0.048-0.045-0.096-0.066-0.145c-0.005-0.012-0.01-0.023-0.015-0.035
				c-0.021-0.048-0.041-0.095-0.06-0.143c-0.005-0.012-0.01-0.024-0.014-0.035c-0.019-0.048-0.038-0.095-0.056-0.143
				c-0.004-0.011-0.008-0.023-0.013-0.034c-0.018-0.048-0.035-0.096-0.052-0.143c-0.003-0.01-0.007-0.019-0.01-0.029
				c-0.016-0.047-0.032-0.094-0.047-0.14c-0.003-0.008-0.005-0.016-0.008-0.024c-0.015-0.045-0.029-0.089-0.042-0.133
				c-0.003-0.008-0.005-0.017-0.008-0.025c-0.014-0.045-0.027-0.089-0.039-0.133c-0.003-0.01-0.006-0.02-0.009-0.03
				c-0.012-0.042-0.023-0.084-0.034-0.125c-0.003-0.01-0.005-0.02-0.008-0.03c-0.011-0.04-0.021-0.079-0.03-0.118
				c-0.002-0.01-0.005-0.019-0.007-0.029c-0.009-0.038-0.018-0.075-0.027-0.111c-0.002-0.008-0.004-0.016-0.006-0.024
				c-0.008-0.036-0.017-0.072-0.024-0.105c-0.001-0.005-0.002-0.011-0.004-0.016c-0.008-0.035-0.015-0.069-0.022-0.101
				c0-0.002-0.001-0.004-0.001-0.006c-0.007-0.032-0.013-0.063-0.018-0.091c0-0.002-0.001-0.005-0.001-0.007
				c-0.006-0.029-0.011-0.056-0.015-0.08c0-0.002-0.001-0.004-0.001-0.006c-0.005-0.025-0.009-0.047-0.012-0.067
				c0-0.001,0-0.003-0.001-0.004c-0.004-0.02-0.007-0.038-0.009-0.053c-0.006-0.038-0.009-0.058-0.009-0.058l0.008-0.001
				l-0.01-0.001l-0.002,0l-0.794,0.177c0,0.001,0,0.001,0,0.002c-1.009,0.182-1.934,0.487-2.768,0.899
				c-0.002-0.003-0.003-0.005-0.003-0.005c-2.362,0.96-4.021,3.147-6.371,7.587c-1.175,2.221-2.523,5.005-4.219,8.482l-6.94-2.088
				c-0.268-0.78-0.937-1.104-1.273-1.221c-0.12-0.042-0.255-0.019-0.356,0.059c-2.026,1.567-2.658,3.699-2.817,4.402
				c-0.035,0.153,0.028,0.314,0.158,0.402c0.557,0.373,1.199,0.228,1.199,0.228l12.073,7l6.118-7.091l0.296,7.038
				c0.019,0.446,0.166,0.863,0.407,1.212c0.292,0.422,0.723,0.744,1.239,0.891c2.827,0.806,9.002,2.03,14.838-0.416
				c0.377-0.158,0.694-0.413,0.931-0.728c0.023-0.031,0.047-0.063,0.069-0.095c0.036-0.053,0.069-0.108,0.1-0.164
				c0.181-0.324,0.285-0.692,0.293-1.078l0.201-9.918l0,0c4.604-14.288,12.136-30.368,13.263-35.096l-0.013-0.004
				C56.459,29.859,56.514,29.317,56.507,29.056z"/>
		</g>
	</g>
	<g id="Layer_75">
		<path fill="#67AD5B" d="M33.743,79.352l-0.028,0c-0.051-0.001-0.093,0.04-0.093,0.09l-0.059,3.641
			c-0.001,0.051,0.04,0.092,0.09,0.093l0.028,0c0.051,0.001,0.093-0.04,0.093-0.09l0.059-3.641
			C33.834,79.395,33.794,79.353,33.743,79.352z"/>
		<path fill="#67AD5B" d="M42.771,81.226c-2.086-0.564-2.579-2.63-2.662-3.077c-0.009-0.048-0.053-0.08-0.101-0.074
			c-0.053,0.007-0.088,0.056-0.079,0.109c0.09,0.483,0.611,2.632,2.796,3.221c0.049,0.013,0.1-0.018,0.113-0.068l0,0
			C42.849,81.288,42.819,81.239,42.771,81.226z"/>
		<path fill="#67AD5B" d="M26.831,78.169L26.831,78.169c-0.048-0.006-0.093,0.026-0.101,0.074c-0.083,0.447-0.576,2.513-2.662,3.077
			c-0.048,0.013-0.078,0.062-0.066,0.11l0,0c0.012,0.05,0.063,0.081,0.113,0.068c2.184-0.589,2.705-2.738,2.796-3.221
			C26.919,78.226,26.883,78.176,26.831,78.169z"/>
	</g>
	<g id="co1_copy">
		<g>
			<rect x="167.251" y="145.52" fill="#67AD5B" width="7.102" height="7.167"/>
		</g>
		<g>
			
				<rect x="181.484" y="145.52" transform="matrix(-1 -4.303192e-11 4.303192e-11 -1 370.0695 298.2073)" fill="#67AD5B" width="7.102" height="7.167"/>
		</g>
	</g>
	<g id="Layer_144_copy_2_00000118362121119704614790000005639680582507999362_">
		<g id="Layer_63">
			<g>
				<path fill="#67AD5B" d="M186.172,68.882c-0.152,0.095-0.301,0.189-0.449,0.282c0.002,0.013,0.004,0.026,0.006,0.039
					c0.233,1.578,0.206,2.854,0.104,4.334c-2.052-0.289-3.892-0.598-5.663-0.966c-0.08-0.017-0.16-0.034-0.24-0.051
					c-2.578,1.211-5.54,2.079-10.442,2.758c0.071-0.207,0.137-0.401,0.2-0.588c0.74-2.222,0.84-3.103,0.753-4.898
					c-0.241-0.085-0.483-0.171-0.73-0.26l0.494-2.712c4.646,0.399,8.063,0.689,10.938,0.7c2.025-0.532,3.531-1.012,3.785-1.092
					c0.024-0.082,0.049-0.164,0.074-0.246c0.178-0.59,0.371-1.164,0.579-1.717c0.201-0.534,0.416-1.049,0.65-1.543l0.702-0.642
					l0.564-0.516l-0.488-9.775c-2.156-0.426-3.929-0.737-5.5-0.936l1.565,5.47l-10.224-0.197l1.13-5.277
					c-1.639,0.223-3.439,0.587-5.674,1.089l-0.43,30.502c7.194,1.646,14.093,1.74,20.671,0.146l-0.865-17.312
					c-0.723,0.604-1.429,1.159-2.193,1.742C185.78,67.613,186.035,68.011,186.172,68.882z"/>
			</g>
		</g>
	</g>
	<g id="Layer_62">
		<g id="Layer_146_copy">
			<g>
				<g>
					<path fill="#67AD5B" d="M168.293,63.621l0.508-10.29l-0.485-1.168c-4.605,2.738-7.026,12.037-8.344,20.945
						c2.437,1.514,5.154,2.255,8.003,2.246c0.507-0.002,1.018-0.027,1.532-0.076l0.001-0.002l0.451-1.434l-0.245-4.309l0.827-4.331
						L168.293,63.621z"/>
					<path fill="#67AD5B" d="M184.784,65.029l0.22,1.155c0.178-0.59,0.371-1.164,0.579-1.717L184.784,65.029z"/>
					<path fill="#67AD5B" d="M187.008,51.989l-0.794,1.398l0.722,8.894l0.68-0.622c0.163-0.149,0.422-0.134,0.566,0.031
						c0.134,0.154,0.117,0.382-0.038,0.516l-1.102,0.956l1.797-1.426c0.175-0.139,0.436-0.108,0.571,0.068
						c0.125,0.163,0.095,0.391-0.067,0.52l-1.594,1.258l1.987-1.517c0.17-0.13,0.415-0.113,0.564,0.039v0
						c0.167,0.17,0.149,0.44-0.039,0.587l-1.873,1.473l1.279-0.614c0.081-0.039,0.179-0.026,0.247,0.032
						c0.111,0.096,0.093,0.268-0.036,0.341l-1.119,0.629c-1.167,1.035-2.204,1.857-3.39,2.759c0,0,0,0,0,0l-0.132,0.111l0.374,1.936
						l0.162,4.168l0.061,1.578c0.799,0.039,1.587,0.039,2.362-0.007c2.548-0.151,4.956-0.796,7.157-2.164
						C194.034,64.026,191.613,54.727,187.008,51.989z"/>
				</g>
			</g>
		</g>
	</g>
	<g id="Layer_151_copy_2_00000129193055826749116880000013283391441055666364_">
		<g>
			<path fill="#67AD5B" d="M174.352,155.204h-15.516l0,0c0-3.204,2.598-5.802,5.802-5.802h9.714V155.204z"/>
		</g>
		<g>
			<path fill="#67AD5B" d="M181.484,155.204H197l0,0c0-3.204-2.598-5.802-5.802-5.802h-9.714V155.204z"/>
		</g>
	</g>
	<g id="Layer_145_copy">
		<g>
			<path fill="#67AD5B" d="M181.86,51.105c-3.155,4.63-5.957,3.839-8.136-0.003l-1.032,0.392v5.528h10.532v-5.528L181.86,51.105z"/>
		</g>
	</g>
	<g id="Layer_61">
		<path fill="#67AD5B" d="M169.963,83.302c-0.521,1.047-1.184,2.017-1.974,2.879c-0.099,0.109,0.062,0.271,0.162,0.162
			c0.802-0.877,1.48-1.862,2.009-2.926C170.227,83.286,170.029,83.17,169.963,83.302z"/>
		<path fill="#67AD5B" d="M186.424,83.506c-0.072-0.129-0.27-0.013-0.198,0.116c0.582,1.036,1.308,1.987,2.153,2.822
			c0.105,0.104,0.267-0.058,0.162-0.162C187.709,85.46,186.997,84.526,186.424,83.506z"/>
		<path fill="#67AD5B" d="M178.331,84.592c0,1.757,0,3.514,0,5.271c0,0.496,0,0.993,0,1.489c0,0.13,0.202,0.13,0.202,0
			c0-1.757,0-3.514,0-5.271c0-0.496,0-0.993,0-1.489C178.532,84.462,178.331,84.462,178.331,84.592z"/>
	</g>
</g>
<g id="Color_2">
	<path fill="#80BF71" d="M89.811,98.567L74.874,70.032c-13.113,6.82-23.146,17.687-29.772,32.018l29.771,12.962
		C78.133,107.672,84.243,101.487,89.811,98.567z"/>
	<g id="Layer_127_copy_2">
		<g>
			<g>
				<path fill="#80BF71" d="M27.549,66.009c-0.019,0.049-0.075,0.073-0.124,0.054l0,0c-3.145-1.244-2.146-5.07-2.136-5.108l0,0
					c0.014-0.051,0.066-0.081,0.117-0.067l0,0c0.051,0.014,0.081,0.067,0.067,0.118l0,0c-0.041,0.15-0.964,3.699,2.022,4.879l0,0
					C27.544,65.904,27.568,65.96,27.549,66.009L27.549,66.009z"/>
			</g>
		</g>
		<g id="Layer_127_copy_2_00000052067729540508629140000001651330804344585648_">
			<g>
				<g>
					<path fill="#80BF71" d="M39.583,65.502c0.019,0.049,0.075,0.073,0.124,0.054l0,0c3.145-1.244,2.146-5.07,2.136-5.108l0,0
						c-0.014-0.051-0.066-0.081-0.117-0.067l0,0c-0.051,0.014-0.081,0.067-0.067,0.118l0,0c0.041,0.15,0.964,3.699-2.022,4.879l0,0
						C39.588,65.397,39.564,65.453,39.583,65.502L39.583,65.502z"/>
				</g>
			</g>
		</g>
	</g>
	<g id="Layer_147_copy">
		<g>
			<g>
				<path fill="#80BF71" d="M169.955,58.889c0.148,1.58,0.295,3.161,0.443,4.741c0.042,0.454,0.085,0.908,0.127,1.361
					c0.014,0.146,0.243,0.147,0.229,0c-0.148-1.58-0.295-3.161-0.443-4.741c-0.042-0.454-0.085-0.908-0.127-1.361
					C170.171,58.744,169.942,58.742,169.955,58.889L169.955,58.889z"/>
			</g>
		</g>
		<g>
			<g>
				<path fill="#80BF71" d="M185.656,59.006c-0.087,1.163-0.173,2.326-0.26,3.488c-0.011,0.147,0.218,0.146,0.229,0
					c0.087-1.163,0.173-2.326,0.26-3.488C185.896,58.859,185.666,58.859,185.656,59.006L185.656,59.006z"/>
			</g>
		</g>
	</g>
	<g id="Layer_151_copy_2">
		<g>
			<path fill="#80BF71" d="M158.91,154.281c-0.048,0.301-0.074,0.609-0.074,0.923l0,0h15.516v-0.923H158.91z"/>
		</g>
		<g>
			<path fill="#80BF71" d="M181.484,154.281v0.923H197l0,0c0-0.314-0.026-0.623-0.074-0.923H181.484z"/>
		</g>
	</g>
</g>
<g id="Color_1_00000005971554235545477620000009370045110442483637_">
	<path opacity="0.18" fill="#111111" d="M124.141,98.547l15.096-28.809c13.335,7.018,23.223,17.87,29.907,32.286l-29.914,12.978
		C135.941,107.617,129.759,101.485,124.141,98.547z"/>
	<g id="Layer_108_copy_2">
		<path fill="#111111" d="M109.578,107.636l-12.423-4.131l-17.646-5.867c-0.334-0.111-0.573,0.325-0.299,0.547l14.467,11.684
			l10.185,8.226c2.938,2.373,7.308,1.507,9.119-1.807h0v0C114.793,112.974,113.162,108.828,109.578,107.636z M110.248,114.877
			c-0.997,1.825-3.285,2.496-5.11,1.498s-2.496-3.285-1.498-5.11c0.997-1.825,3.285-2.496,5.11-1.498
			S111.246,113.052,110.248,114.877z"/>
	</g>
	<g id="Layer_106_copy_3" opacity="0.11">
		<g>
			<path fill="#111111" d="M109.939,115.353c0.145-0.19,0.274-0.397,0.384-0.62c0.852-1.729,0.24-3.856-1.402-4.866
				c-0.761-0.468-1.615-0.632-2.429-0.533C108.939,110.567,109.989,112,109.939,115.353z"/>
		</g>
	</g>
	<g id="Layer_71">
		<path fill="#111111" d="M26.748,50.838c0,0,0.001,0.002,0.003,0.005c0.834-0.412,1.759-0.718,2.768-0.899c0-0.001,0-0.001,0-0.002
			l0.794-0.177l0.002,0l0.06-0.609c0.003-0.033,0.005-0.05,0.005-0.05l0,0l0.239-2.441c-0.821-0.752-1.55-1.918-2.109-3.583h-0.001
			l-0.013-0.122c-0.001-0.01-0.003-0.021-0.004-0.031l-0.017-0.156c-0.613,0.013-1.229-0.454-1.491-1.193
			c-0.32-0.902,0.009-1.867,0.735-2.155c0.138-0.055,0.28-0.081,0.422-0.081c0.475-1.154,0.618-1.193,1.998-1.291
			c2.874-0.205,4.15-2.834,4.15-2.834c0.477,1.753,0.554,1.846,1.4,2.306c0.871,0.473,2.479,0.292,2.512,1.699
			c0.001,0.036,0.003,0.079,0.005,0.123c0.157-0.005,0.314,0.019,0.466,0.079c0.725,0.288,1.055,1.253,0.735,2.155
			c-0.24,0.676-0.775,1.124-1.334,1.186l-0.016,0.141c-0.006,0.065-0.013,0.13-0.021,0.194l-0.007,0.062h0
			c-0.518,1.464-1.281,2.658-2.157,3.462l0.031,0.003l0.278,2.842l0,0c0,0,0.011,0.077,0.021,0.21l0.011,0.111l0.726,0.109
			c0,0,0,0.001,0,0.001c1.151,0.17,2.144,0.455,2.988,0.846c0.222-0.392,1.18-2.088,2.679-4.787
			c-0.296-0.541-0.598-1.023-0.888-1.41c-0.883-1.177-0.958-2.295-0.763-5.555c0.203-3.388-2.104-8.086-7.731-8.086l0,0.001
			c-0.005,0-0.009-0.002-0.014-0.002c-0.005,0-0.01,0.001-0.014,0.002l0-0.001c-5.626,0-7.934,4.698-7.731,8.086
			c0.195,3.26-0.316,3.828-1.197,5.007c-4.026,5.391-5.442,8.099-4.097,13.803c0.061,0.257,0.13,0.46,0.207,0.618
			C22.727,53.985,24.386,51.798,26.748,50.838z"/>
	</g>
	<g id="Layer_73">
		<g>
			<g>
				<path fill="#111111" d="M107.119,31.014c-1.04,0-2.032-0.149-2.977-0.447c-0.55-0.173-1.036-0.376-1.46-0.607
					c-0.479-0.262-0.678-0.847-0.456-1.346l0.006-0.014c0.245-0.55,0.902-0.781,1.436-0.504c0.316,0.164,0.661,0.312,1.035,0.445
					c0.786,0.279,1.591,0.418,2.416,0.418c0.697,0,1.262-0.076,1.693-0.228c0.431-0.152,0.748-0.358,0.951-0.618
					c0.203-0.26,0.304-0.555,0.304-0.884c0-0.406-0.146-0.732-0.437-0.98c-0.292-0.247-0.669-0.444-1.132-0.59
					c-0.463-0.146-0.977-0.279-1.541-0.399c-0.564-0.12-1.129-0.269-1.693-0.447c-0.564-0.177-1.081-0.402-1.55-0.675
					c-0.469-0.273-0.846-0.637-1.132-1.094c-0.285-0.456-0.428-1.04-0.428-1.75c0-0.723,0.193-1.385,0.58-1.988
					c0.387-0.602,0.976-1.084,1.769-1.446c0.792-0.361,1.797-0.542,3.015-0.542c0.799,0,1.591,0.102,2.378,0.304
					c0.412,0.106,0.796,0.237,1.152,0.392c0.52,0.226,0.763,0.827,0.55,1.353l0,0c-0.219,0.539-0.836,0.798-1.372,0.572
					c-0.296-0.125-0.595-0.228-0.9-0.31c-0.634-0.171-1.243-0.257-1.826-0.257c-0.672,0-1.224,0.083-1.655,0.247
					c-0.431,0.165-0.745,0.384-0.942,0.656c-0.197,0.273-0.295,0.574-0.295,0.903c0,0.406,0.143,0.732,0.428,0.98
					c0.285,0.247,0.659,0.441,1.122,0.58c0.463,0.14,0.98,0.273,1.55,0.399c0.571,0.127,1.135,0.276,1.693,0.447
					c0.558,0.171,1.071,0.393,1.541,0.666c0.469,0.273,0.846,0.634,1.132,1.084c0.285,0.45,0.428,1.024,0.428,1.721
					c0,0.71-0.193,1.367-0.58,1.969c-0.387,0.602-0.98,1.084-1.778,1.446C109.344,30.834,108.336,31.014,107.119,31.014z"/>
			</g>
			<g>
				<path fill="#111111" d="M107.441,34.773c-0.447,0-0.809-0.362-0.809-0.809V14.668c0-0.447,0.362-0.809,0.809-0.809
					s0.809,0.362,0.809,0.809v19.295C108.25,34.411,107.888,34.773,107.441,34.773z"/>
			</g>
			<path opacity="0.18" fill="#111111" d="M107.345,10.009c-7.917,0-14.335,6.418-14.335,14.335s6.418,14.335,14.335,14.335
				s14.335-6.418,14.335-14.335S115.262,10.009,107.345,10.009z M107.345,36.601c-6.77,0-12.258-5.488-12.258-12.258
				s5.488-12.258,12.258-12.258s12.258,5.488,12.258,12.258S114.115,36.601,107.345,36.601z"/>
		</g>
		<g>
			<g>
				<path fill="#111111" d="M72.699,33.765c0.209-0.034,0.456,0.129,0.554,0.365l0.587,1.412l0.454,1.091l0.843,2.027l0.507,1.221
					l0.72,1.733l0.456,1.097l0.659,1.585c0.098,0.235,0.009,0.454-0.2,0.488c-0.208,0.034-0.457-0.13-0.554-0.365l-0.648-1.56
					l-0.451-1.085l-0.822-1.978l-0.506-1.219l-0.755-1.816l-0.454-1.093l-0.588-1.416C72.401,34.017,72.491,33.799,72.699,33.765z"
					/>
			</g>
		</g>
		<g>
			<g>
				<path fill="#111111" d="M77.37,39.462c0.231,0.215,0.423,0.507,0.576,0.875c0.155,0.374,0.209,0.734,0.161,1.081
					c-0.048,0.346-0.219,0.645-0.511,0.896c-0.197,0.168-0.456,0.301-0.776,0.397l-0.456-1.097c0.089-0.035,0.165-0.074,0.23-0.118
					c0.167-0.113,0.27-0.245,0.308-0.397c0.037-0.152,0.02-0.315-0.052-0.489c-0.089-0.214-0.229-0.375-0.419-0.484
					c-0.19-0.108-0.409-0.183-0.656-0.225c-0.043-0.007-0.088-0.014-0.132-0.021l-0.507-1.221c0.201,0.021,0.403,0.048,0.606,0.082
					c0.297,0.048,0.585,0.126,0.863,0.234C76.884,39.084,77.139,39.246,77.37,39.462z"/>
			</g>
		</g>
		<g>
			<g>
				<path fill="#111111" d="M74.06,41.551c0.183,0.062,0.376,0.115,0.579,0.156c0.343,0.07,0.671,0.092,0.986,0.066l0.451,1.085
					c-0.411,0.044-0.829,0.03-1.254-0.041c-0.294-0.05-0.565-0.12-0.813-0.21c-0.281-0.102-0.502-0.395-0.507-0.674l0-0.008
					c-0.005-0.219,0.123-0.369,0.309-0.4C73.886,41.513,73.971,41.521,74.06,41.551z"/>
			</g>
		</g>
		<g>
			<g>
				<path fill="#111111" d="M75.841,36.353c-0.015-0.293-0.26-0.591-0.552-0.671c-0.2-0.055-0.408-0.095-0.623-0.119
					c-0.285-0.033-0.56-0.04-0.827-0.021l0.454,1.091c0.172-0.004,0.354,0.006,0.547,0.03c0.16,0.02,0.322,0.052,0.487,0.095
					c0.073,0.019,0.143,0.023,0.205,0.013C75.725,36.74,75.854,36.58,75.841,36.353z"/>
			</g>
		</g>
		<g>
			<g>
				<path fill="#111111" d="M71.7,36.991c0.048-0.347,0.217-0.646,0.507-0.895c0.216-0.187,0.51-0.33,0.88-0.428l0.454,1.093
					c-0.129,0.044-0.237,0.098-0.324,0.161c-0.164,0.12-0.263,0.259-0.294,0.417c-0.033,0.159-0.012,0.325,0.06,0.499
					c0.089,0.213,0.227,0.375,0.414,0.484c0.187,0.109,0.403,0.182,0.65,0.221c0.081,0.013,0.164,0.024,0.25,0.035l0.506,1.219
					c-0.235-0.022-0.475-0.053-0.719-0.094c-0.301-0.05-0.592-0.13-0.87-0.238c-0.278-0.108-0.533-0.272-0.767-0.491
					c-0.233-0.219-0.427-0.515-0.582-0.89C71.707,37.702,71.652,37.337,71.7,36.991z"/>
			</g>
		</g>
		<g opacity="0.45" enable-background="new    ">
			<g enable-background="new    ">
				<g>
					<path fill="#111111" d="M80.31,45.31l-1.268,1.131c-0.633,0.565-1.441,0.954-2.399,1.11c-3.48,0.564-7.625-2.168-9.261-6.102
						c-1.185-2.851-0.727-5.551,0.939-7.037l1.268-1.131c-1.666,1.486-2.124,4.186-0.939,7.037c1.635,3.935,5.781,6.667,9.261,6.102
						C78.869,46.265,79.677,45.875,80.31,45.31"/>
				</g>
			</g>
		</g>
		<g opacity="0.18">
			<g>
				<path fill="#111111" d="M71.988,32.171c3.479-0.564,7.625,2.168,9.26,6.103c1.635,3.935,0.141,7.582-3.338,8.146
					c-3.48,0.564-7.625-2.168-9.261-6.102C67.014,36.382,68.509,32.735,71.988,32.171z M77.541,45.532
					c3.045-0.494,4.353-3.687,2.922-7.131c-1.432-3.445-5.061-5.836-8.106-5.342c-3.046,0.494-4.354,3.686-2.922,7.131
					C70.867,43.634,74.496,46.026,77.541,45.532"/>
			</g>
		</g>
		<g opacity="0.45" enable-background="new    ">
			<g enable-background="new    ">
				<g>
					<path fill="#111111" d="M144.428,32.93l1.492,1.184c0.119,0.094,0.232,0.197,0.337,0.306l-1.492-1.184
						C144.659,33.126,144.547,33.024,144.428,32.93"/>
				</g>
				<g>
					<path fill="#111111" d="M144.765,33.236l1.492,1.184c0.26,0.269,0.479,0.581,0.654,0.931l-1.492-1.184
						C145.244,33.817,145.025,33.505,144.765,33.236"/>
				</g>
				<g>
					<path fill="#111111" d="M145.419,34.167l1.492,1.184c0.156,0.312,0.277,0.655,0.361,1.022l-1.492-1.184
						C145.696,34.822,145.575,34.479,145.419,34.167"/>
				</g>
				<g>
					<path fill="#111111" d="M145.78,35.189l1.492,1.184c0.086,0.379,0.133,0.786,0.137,1.214l-1.492-1.184
						C145.912,35.975,145.866,35.568,145.78,35.189"/>
				</g>
				<g>
					<path fill="#111111" d="M145.917,36.403l1.492,1.184c0.005,0.557-0.061,1.151-0.203,1.772l-1.492-1.184
						C145.856,37.554,145.922,36.96,145.917,36.403"/>
				</g>
				<g>
					<path fill="#111111" d="M145.713,38.175l1.492,1.184c-0.079,0.344-0.182,0.695-0.309,1.053
						c-0.343,0.967-0.833,1.89-1.426,2.731l-1.492-1.184c0.593-0.841,1.083-1.764,1.426-2.731
						C145.532,38.87,145.634,38.519,145.713,38.175"/>
				</g>
				<g>
					<path fill="#111111" d="M143.978,41.959l1.492,1.184c-0.405,0.575-0.858,1.112-1.345,1.599l-1.492-1.184
						C143.121,43.071,143.574,42.534,143.978,41.959"/>
				</g>
				<g>
					<path fill="#111111" d="M142.633,43.559l1.492,1.184c-0.373,0.373-0.765,0.717-1.171,1.026l-1.492-1.184
						C141.868,44.275,142.261,43.932,142.633,43.559"/>
				</g>
				<g>
					<path fill="#111111" d="M141.462,44.585l1.492,1.184c-0.386,0.294-0.784,0.557-1.189,0.785l-1.492-1.184
						C140.678,45.142,141.076,44.879,141.462,44.585"/>
				</g>
				<g>
					<path fill="#111111" d="M140.273,45.37l1.492,1.184c-0.444,0.25-0.896,0.457-1.35,0.616l-1.492-1.184
						C139.377,45.827,139.829,45.619,140.273,45.37"/>
				</g>
				<g>
					<path fill="#111111" d="M138.923,45.986l1.492,1.184c-0.68,0.238-1.362,0.368-2.025,0.369
						c-0.998,0.003-1.836-0.286-2.481-0.797l-1.492-1.184c0.645,0.512,1.483,0.8,2.481,0.797
						C137.561,46.353,138.244,46.224,138.923,45.986"/>
				</g>
			</g>
		</g>
		<g>
			<g>
				<path fill="#111111" d="M141.422,33.731c0.198-0.001,0.291,0.189,0.207,0.425l-0.5,1.409l-0.387,1.089l-0.718,2.023
					l-0.433,1.218l-0.614,1.73l-0.389,1.094l-0.561,1.581c-0.084,0.236-0.311,0.426-0.509,0.427
					c-0.197,0.001-0.29-0.189-0.206-0.425l0.553-1.556l0.384-1.083l0.701-1.975l0.431-1.215l0.644-1.813l0.387-1.09l0.502-1.413
					C140.997,33.923,141.225,33.732,141.422,33.731z"/>
			</g>
		</g>
		<g>
			<g>
				<path fill="#111111" d="M141.519,36.926c-0.108-0.065-0.221-0.119-0.34-0.162c-0.144-0.052-0.289-0.088-0.436-0.109l0.387-1.089
					c0.236,0.022,0.462,0.069,0.677,0.143c0.162,0.055,0.308,0.124,0.436,0.205c0.188,0.118,0.183,0.434-0.009,0.71
					c-0.149,0.214-0.369,0.344-0.551,0.345C141.622,36.969,141.567,36.955,141.519,36.926z"/>
			</g>
		</g>
		<g>
			<g>
				<path fill="#111111" d="M141.33,39.761c0.042,0.237-0.002,0.538-0.132,0.905c-0.133,0.374-0.341,0.719-0.624,1.036
					c-0.284,0.318-0.636,0.572-1.057,0.762c-0.283,0.128-0.592,0.214-0.928,0.257l0.389-1.094c0.098-0.019,0.19-0.044,0.275-0.076
					c0.22-0.081,0.398-0.189,0.536-0.326c0.138-0.136,0.238-0.292,0.3-0.465c0.076-0.213,0.072-0.385-0.011-0.514
					c-0.083-0.13-0.213-0.232-0.39-0.309c-0.031-0.013-0.063-0.026-0.096-0.039l0.433-1.218c0.153,0.05,0.303,0.106,0.45,0.167
					c0.215,0.089,0.4,0.206,0.557,0.348C141.188,39.336,141.287,39.526,141.33,39.761z"/>
			</g>
		</g>
		<g>
			<g>
				<path fill="#111111" d="M139.382,38.474c-0.064-0.023-0.126-0.047-0.184-0.071c-0.178-0.073-0.308-0.174-0.388-0.304
					c-0.079-0.13-0.082-0.301-0.006-0.515c0.061-0.173,0.161-0.332,0.299-0.475c0.138-0.144,0.317-0.259,0.539-0.346
					c0.117-0.046,0.245-0.08,0.384-0.102l0.387-1.09c-0.379,0.037-0.724,0.127-1.036,0.269c-0.419,0.191-0.769,0.445-1.053,0.762
					c-0.283,0.318-0.493,0.666-0.628,1.046c-0.132,0.373-0.178,0.68-0.137,0.92c0.041,0.24,0.14,0.431,0.297,0.573
					c0.156,0.143,0.343,0.261,0.559,0.354c0.175,0.075,0.353,0.14,0.535,0.195L139.382,38.474z"/>
			</g>
		</g>
		<g>
			<g>
				<path fill="#111111" d="M137.096,41.223c0.109,0.086,0.234,0.163,0.375,0.233c0.237,0.117,0.496,0.186,0.778,0.209l-0.384,1.083
					c-0.375-0.02-0.714-0.095-1.02-0.226c-0.211-0.091-0.388-0.197-0.532-0.318c-0.163-0.138-0.142-0.445,0.05-0.708l0.005-0.007
					c0.15-0.206,0.362-0.327,0.539-0.328C136.978,41.162,137.043,41.181,137.096,41.223z"/>
			</g>
		</g>
		<g opacity="0.18">
			<g>
				<path fill="#111111" d="M141.947,32.133c3.303-0.009,4.851,3.169,3.457,7.096s-5.203,7.118-8.506,7.127
					c-3.304,0.009-4.851-3.168-3.457-7.096C134.835,35.333,138.644,32.141,141.947,32.133z M137.213,45.468
					c2.891-0.008,6.225-2.8,7.445-6.238c1.22-3.437-0.135-6.218-3.026-6.21c-2.892,0.008-6.225,2.801-7.445,6.238
					C132.967,42.695,134.322,45.476,137.213,45.468"/>
			</g>
		</g>
	</g>
	<g id="Layer_74">
		<g id="Layer_72">
			<g>
				<path fill="#111111" d="M42.2,76.336c-0.031,0.056-0.064,0.111-0.1,0.164h0.181C42.255,76.445,42.227,76.391,42.2,76.336z"/>
				<path fill="#111111" d="M46.771,95.593c-0.946-7.024-1.839-13.54-4.443-18.997h-0.296c-0.236,0.315-0.554,0.57-0.931,0.728
					c-5.835,2.446-12.011,1.222-14.838,0.416c-0.516-0.147-0.947-0.469-1.239-0.891c-2.446,5.464-3.072,12.077-4.034,18.744
					l-3.574,51.11l1.978-0.002l5.358-0.006l0.386,0l8.137-48.4l1.358,0.11l8.92,48.291l0.822-0.009l5.351-0.056l2.423-0.025
					L46.771,95.593z M24.113,81.499c-0.049,0.013-0.1-0.018-0.113-0.068l0,0c-0.012-0.049,0.018-0.097,0.066-0.11
					c2.086-0.564,2.579-2.63,2.662-3.077c0.009-0.048,0.053-0.08,0.101-0.074h0c0.053,0.007,0.088,0.056,0.079,0.109
					C26.819,78.761,26.298,80.91,24.113,81.499z M33.774,83.086c-0.001,0.051-0.043,0.091-0.093,0.09l-0.028,0
					c-0.051-0.001-0.091-0.042-0.09-0.093l0.059-3.641c0.001-0.051,0.043-0.091,0.093-0.09l0.028,0
					c0.051,0.001,0.091,0.042,0.09,0.093L33.774,83.086z M42.837,81.336L42.837,81.336c-0.012,0.05-0.063,0.081-0.113,0.068
					c-2.185-0.589-2.706-2.738-2.796-3.221c-0.01-0.052,0.026-0.102,0.079-0.109c0.048-0.006,0.093,0.026,0.101,0.074
					c0.083,0.447,0.576,2.513,2.662,3.077C42.819,81.239,42.849,81.288,42.837,81.336z"/>
			</g>
		</g>
	</g>
	<path opacity="0.11" fill="#111111" d="M30.628,46.674c0.046,0.308,0.408,2.135,2.601,2.135c2.595,0,2.673-2.18,2.673-2.18h-0.033
		c-0.791,0.725-1.674,1.132-2.553,1.132C32.377,47.762,31.456,47.428,30.628,46.674z"/>
	<g>
		<path fill="#111111" d="M39.452,38.495l-0.53,0.52c-0.024,0.151-0.042,0.236-0.042,0.236L39.452,38.495z"/>
		<path fill="#111111" d="M33.089,31.218c-8.479,0.553-5.044,8.531-5.044,8.531c0-0.018-0.012-0.143-0.005-0.16
			c0.023-0.057,0.045-0.111,0.066-0.164c0.503-1.234,0.619-1.272,2.031-1.373c2.874-0.205,4.15-2.834,4.15-2.834
			c0.477,1.753,0.554,1.846,1.4,2.306c0.871,0.473,2.479,0.292,2.512,1.699c0.004,0.166,0.028,0.472,0.028,0.472l0.204-0.2
			l0.49-0.48C39.143,37.646,39.919,30.772,33.089,31.218z"/>
	</g>
	<g opacity="0.38">
		<path fill="#111111" d="M32.081,44.458c0,0,0.063,1.099,1.174,1.099s1.186-1.099,1.186-1.099H32.081z"/>
	</g>
	<g opacity="0.11">
		<path fill="#111111" d="M7.945,63.598c-0.12-0.042-0.255-0.019-0.356,0.059c-2.026,1.567-2.658,3.699-2.817,4.402
			c-0.035,0.153,0.028,0.314,0.158,0.402c0.557,0.373,1.199,0.228,1.199,0.228l3.089-3.87C8.951,64.038,8.282,63.715,7.945,63.598z
			 M6.537,67.837c-0.009,0-0.87-0.011-1.188-0.956l0.09-0.03c0.296,0.879,1.066,0.891,1.098,0.891L6.537,67.837z M7.406,66.459
			c-0.241-0.535-1.228-0.87-1.238-0.874l0.03-0.09c0.042,0.014,1.036,0.352,1.294,0.925L7.406,66.459z M8.355,65.298
			c-0.34-0.881-1.226-0.893-1.264-0.893l0-0.095c0.01,0,0.989,0.011,1.352,0.954L8.355,65.298z"/>
	</g>
	<g id="Layer_229" opacity="0.11">
		<g>
			<path fill="#111111" d="M56.507,29.056c-0.003-0.094-0.059-0.181-0.148-0.231c-1.785-1.009-3.602-0.909-4.187-0.843
				c-0.128,0.014-0.233,0.099-0.263,0.211c-0.126,0.48-0.098,0.842-0.098,0.842l4.124,1.212
				C56.459,29.863,56.514,29.319,56.507,29.056z M52.931,29.118l-0.088,0.036c-0.003-0.006-0.246-0.617,0.396-1.082l0.056,0.077
				C52.715,28.57,52.922,29.096,52.931,29.118z M54.217,29.464l-0.063-0.071c0.336-0.298,0.31-1.059,0.31-1.066l0.095-0.004
				C54.56,28.355,54.587,29.136,54.217,29.464z M55.376,29.831l-0.059-0.075c0.57-0.451,0.329-1.058,0.318-1.084l0.088-0.036
				C55.726,28.644,56.003,29.335,55.376,29.831z"/>
		</g>
	</g>
	<g id="Layer_122_copy">
		<g>
			<g>
				<g>
					<path fill="#111111" d="M29.656,40.115c0.566-0.394,1.332-0.501,1.974-0.229c0.117,0.05,0.252,0.035,0.322-0.084
						c0.058-0.099,0.033-0.272-0.084-0.322c-0.794-0.337-1.735-0.27-2.45,0.229c-0.104,0.073-0.152,0.206-0.084,0.322
						C29.395,40.134,29.551,40.188,29.656,40.115L29.656,40.115z"/>
				</g>
			</g>
			<g>
				<g>
					<path fill="#111111" d="M37.007,39.709c-0.715-0.498-1.655-0.566-2.45-0.229c-0.117,0.05-0.143,0.222-0.084,0.322
						c0.071,0.121,0.204,0.134,0.322,0.084c0.642-0.272,1.409-0.166,1.974,0.229c0.104,0.073,0.261,0.019,0.322-0.084
						C37.16,39.914,37.111,39.782,37.007,39.709L37.007,39.709z"/>
				</g>
			</g>
			<g>
				<ellipse fill="#111111" cx="30.711" cy="40.907" rx="0.391" ry="0.576"/>
			</g>
			<g>
				<ellipse fill="#111111" cx="35.635" cy="40.907" rx="0.391" ry="0.576"/>
			</g>
		</g>
	</g>
	<g id="Layer_133_copy_2_00000028322486772289028980000015903409191594594182_">
		<g>
			<g>
				<path fill="#111111" d="M38.359,40.315c0.032,0.55-0.063,1.101-0.282,1.607c-0.028,0.066,0.068,0.123,0.097,0.057
					c0.226-0.525,0.33-1.092,0.297-1.663C38.467,40.243,38.355,40.243,38.359,40.315L38.359,40.315z"/>
			</g>
		</g>
		<g>
			<g>
				<path fill="#111111" d="M38.724,40.673c-0.13,0.186-0.261,0.371-0.391,0.557c-0.017,0.025-0.004,0.062,0.02,0.077
					c0.028,0.016,0.059,0.005,0.077-0.02c0.13-0.186,0.261-0.371,0.391-0.557c0.017-0.025,0.004-0.062-0.02-0.077
					C38.773,40.637,38.742,40.648,38.724,40.673L38.724,40.673z"/>
			</g>
		</g>
	</g>
	<g id="Layer_133_copy_2">
		<g>
			<g>
				<path fill="#111111" d="M27.912,40.315c-0.033,0.571,0.071,1.139,0.297,1.663c0.029,0.066,0.125,0.009,0.097-0.057
					c-0.218-0.506-0.313-1.057-0.282-1.607C28.028,40.243,27.916,40.243,27.912,40.315L27.912,40.315z"/>
			</g>
		</g>
		<g>
			<g>
				<path fill="#111111" d="M27.563,40.73c0.13,0.186,0.261,0.371,0.391,0.557c0.017,0.025,0.049,0.036,0.077,0.02
					c0.025-0.014,0.038-0.052,0.02-0.077c-0.13-0.186-0.261-0.371-0.391-0.557c-0.017-0.025-0.049-0.036-0.077-0.02
					C27.558,40.668,27.545,40.705,27.563,40.73L27.563,40.73z"/>
			</g>
		</g>
	</g>
	<g opacity="0.11">
		<path fill="#111111" d="M42.641,68.133l0.047-2.782c-6.289,1.357-12.176,2.154-17.294,1.876L24.329,68.6l0.127,3.464
			C30.488,71.548,35.195,71.117,42.641,68.133z"/>
	</g>
	<g id="Layer_132_copy">
		<g opacity="0.11">
			<polygon fill="#111111" points="33.149,40.744 32.423,43.244 33.422,43.202 			"/>
		</g>
	</g>
	<g id="Layer_65">
		<g>
			<g>
				<path fill="#111111" d="M1.491,60.949c0.632-0.063,1.271,0.049,1.841,0.329c0.067,0.033,0.126-0.067,0.059-0.1
					c-0.589-0.288-1.247-0.41-1.9-0.345C1.418,60.841,1.417,60.957,1.491,60.949L1.491,60.949z"/>
			</g>
		</g>
		<g>
			<g>
				<path fill="#111111" d="M1.423,62.262c0.54,0.002,1.071,0.136,1.547,0.392c0.066,0.035,0.124-0.065,0.059-0.1
					c-0.494-0.265-1.045-0.405-1.605-0.407C1.349,62.146,1.349,62.262,1.423,62.262L1.423,62.262z"/>
			</g>
		</g>
		<g>
			<g>
				<path fill="#111111" d="M1.243,63.928c0.355-0.087,0.722-0.113,1.085-0.073c0.331,0.037,0.725,0.116,1.004,0.308
					c0.155,0.106,0.275,0.308,0.161,0.488c-0.083,0.13-0.244,0.201-0.382,0.256c-0.342,0.136-0.705,0.203-1.073,0.203
					c-0.075,0-0.075,0.116,0,0.116c0.42,0,0.844-0.082,1.227-0.26c0.143-0.066,0.292-0.162,0.358-0.312
					c0.064-0.148,0.026-0.312-0.067-0.438c-0.105-0.142-0.267-0.22-0.427-0.283c-0.205-0.081-0.42-0.138-0.637-0.172
					c-0.427-0.068-0.86-0.048-1.28,0.055C1.14,63.834,1.17,63.946,1.243,63.928L1.243,63.928z"/>
			</g>
		</g>
		<g>
			<g>
				<path fill="#111111" d="M53.811,24.346c0.01,0.573,0.02,1.146,0.03,1.719c0.001,0.075,0.117,0.075,0.116,0
					c-0.01-0.573-0.02-1.146-0.03-1.719C53.925,24.271,53.809,24.271,53.811,24.346L53.811,24.346z"/>
			</g>
		</g>
		<g>
			<g>
				<path fill="#111111" d="M55.47,21.527c-0.096,1.025-0.193,2.049-0.289,3.074c-0.007,0.074,0.109,0.074,0.116,0
					c0.096-1.025,0.193-2.049,0.289-3.074C55.593,21.453,55.477,21.453,55.47,21.527L55.47,21.527z"/>
			</g>
		</g>
		<g>
			<g>
				<path fill="#111111" d="M56.513,21.84c-0.074,0.954-0.148,1.909-0.222,2.863c-0.006,0.074,0.11,0.074,0.116,0
					c0.074-0.954,0.148-1.909,0.222-2.863C56.635,21.765,56.519,21.766,56.513,21.84L56.513,21.84z"/>
			</g>
		</g>
		<g>
			<g>
				<path fill="#111111" d="M57.461,22.161c-0.086,0.86-0.172,1.719-0.258,2.579c-0.007,0.074,0.109,0.074,0.116,0
					c0.086-0.86,0.172-1.719,0.258-2.579C57.584,22.087,57.468,22.087,57.461,22.161L57.461,22.161z"/>
			</g>
		</g>
	</g>
	<g id="Layer_138_copy">
		<g>
			<g>
				<path fill="#111111" d="M4.246,60.689c-0.205,0.397-0.366,0.816-0.476,1.249c-0.085,0.336-0.201,0.775,0.042,1.075
					c0.196,0.242,0.559,0.29,0.84,0.186c0.347-0.128,0.572-0.453,0.728-0.771c-0.03,0.004-0.061,0.008-0.091,0.012
					c0.288,0.285,0.576,0.571,0.864,0.856c0.053,0.053,0.135-0.029,0.082-0.082c-0.288-0.285-0.576-0.571-0.864-0.856
					c-0.025-0.025-0.074-0.022-0.091,0.012c-0.142,0.29-0.343,0.599-0.659,0.718c-0.275,0.104-0.647,0.042-0.781-0.247
					c-0.144-0.311-0.002-0.727,0.087-1.035c0.105-0.365,0.246-0.718,0.42-1.056C4.38,60.681,4.28,60.623,4.246,60.689L4.246,60.689z
					"/>
			</g>
		</g>
	</g>
	<g id="Layer_60">
		<g id="Layer_150_copy">
			<g>
				<path fill="#111111" d="M188.782,87.535c-0.089-2.485-0.168-2.38-0.278-4.87l-10.864,0.055l-9.789-0.21
					c-0.104,2.648-0.003,2.436-0.086,5.099c-0.631,20.096-1.064,40.95-0.592,61.886l7.174,0.142
					c0.586-6.142,3.114-34.234,4.151-49.577c1.038,15.343,2.368,41.725,2.887,49.435l7.193-0.092
					C189.404,129.078,189.519,108.192,188.782,87.535z M170.161,83.417c-0.529,1.064-1.207,2.049-2.009,2.926
					c-0.1,0.109-0.261-0.053-0.162-0.162c0.789-0.863,1.453-1.832,1.974-2.879C170.029,83.17,170.227,83.286,170.161,83.417z
					 M178.532,86.081c0,1.757,0,3.514,0,5.271c0,0.13-0.202,0.13-0.202,0c0-0.496,0-0.993,0-1.489c0-1.757,0-3.514,0-5.271
					c0-0.13,0.202-0.13,0.202,0C178.532,85.088,178.532,85.584,178.532,86.081z M188.379,86.444
					c-0.845-0.835-1.571-1.786-2.153-2.822c-0.072-0.129,0.126-0.244,0.198-0.116c0.573,1.02,1.285,1.953,2.117,2.775
					C188.646,86.385,188.484,86.547,188.379,86.444z"/>
			</g>
		</g>
	</g>
	<g id="Layer_66">
		<path opacity="0.11" fill="#111111" d="M185.833,75.105l-0.061-1.578c-2.027-0.287-3.848-0.593-5.601-0.957
			c-0.08-0.017-0.16-0.034-0.24-0.051c-2.575,1.209-5.533,2.077-10.425,2.756l-0.001,0.002c-0.514,0.049-1.025,0.074-1.532,0.076
			l-0.016,1.047c6.815,0.746,13.586,0.756,20.31,0l-0.071-1.302C187.421,75.144,186.633,75.144,185.833,75.105z"/>
		<path opacity="0.11" fill="#111111" d="M170.633,70.019c0.806,0.494,1.739,0.853,2.594,1.194c1.241,0.494,2.404,1.047,3.668,1.482
			c0.56,0.193,1.004,0.346,1.568,0.527c0.589-0.254,1.154-0.461,1.709-0.652c-3.138-0.651-6.061-1.487-9.57-2.722
			C170.612,69.906,170.623,69.962,170.633,70.019z"/>
		<path opacity="0.11" fill="#111111" d="M177.343,48.388c-0.929,0-1.807-0.367-2.577-0.985l-0.604,2.852
			c2.348-0.643,4.417-1.314,6.452-2.347l-0.265-0.915C179.495,47.856,178.462,48.388,177.343,48.388z"/>
	</g>
	<g id="Layer_140_copy">
		<g>
			<g>
				<path fill="#111111" d="M173.584,30.697c-0.137,0.628-0.197,1.27-0.176,1.911c0.004,0.138,0.219,0.139,0.215,0
					c-0.02-0.623,0.036-1.245,0.169-1.854C173.821,30.619,173.614,30.562,173.584,30.697L173.584,30.697z"/>
			</g>
		</g>
		<g>
			<g>
				<path fill="#111111" d="M172.762,31.332c0.357,0.129,0.641,0.442,0.741,0.808c0.037,0.133,0.244,0.077,0.207-0.057
					c-0.121-0.442-0.461-0.803-0.891-0.958c-0.055-0.02-0.118,0.022-0.132,0.075C172.671,31.259,172.707,31.312,172.762,31.332
					L172.762,31.332z"/>
			</g>
		</g>
	</g>
	<g>
		<g>
			<path fill="#111111" d="M182.725,40.458c0.031,0.543-0.063,1.087-0.278,1.587c-0.028,0.065,0.068,0.121,0.096,0.056
				c0.223-0.518,0.326-1.079,0.293-1.643C182.832,40.387,182.721,40.387,182.725,40.458L182.725,40.458z"/>
		</g>
	</g>
	<g>
		<g>
			<path fill="#111111" d="M183.085,40.812c-0.129,0.183-0.257,0.366-0.386,0.55c-0.017,0.025-0.004,0.062,0.02,0.076
				c0.028,0.016,0.059,0.005,0.076-0.02c0.129-0.183,0.257-0.366,0.386-0.55c0.017-0.025,0.004-0.062-0.02-0.076
				C183.133,40.776,183.102,40.788,183.085,40.812L183.085,40.812z"/>
		</g>
	</g>
	<g opacity="0.11">
		<polygon fill="#111111" points="177.297,40.867 176.376,44.04 177.644,43.987 		"/>
	</g>
	<g>
		<g>
			<path fill="#111111" d="M175.761,45.188c0.378,0.425,1.025,0.581,1.573,0.556c0.533-0.024,1.141-0.219,1.456-0.678
				c0.072-0.105-0.099-0.205-0.171-0.1c-0.279,0.407-0.857,0.569-1.325,0.581c-0.488,0.013-1.057-0.122-1.393-0.5
				C175.817,44.952,175.677,45.093,175.761,45.188L175.761,45.188z"/>
		</g>
	</g>
	<g>
		<g>
			<g>
				<path fill="#111111" d="M173.741,39.897c0.561-0.389,1.32-0.494,1.955-0.225c0.116,0.049,0.249,0.035,0.318-0.083
					c0.057-0.097,0.033-0.269-0.083-0.318c-0.786-0.332-1.716-0.266-2.425,0.225c-0.103,0.071-0.15,0.204-0.083,0.318
					C173.483,39.916,173.638,39.969,173.741,39.897L173.741,39.897z"/>
			</g>
		</g>
		<g>
			<g>
				<path fill="#111111" d="M181.019,39.496c-0.708-0.492-1.638-0.558-2.425-0.225c-0.116,0.049-0.141,0.22-0.083,0.318
					c0.07,0.12,0.202,0.132,0.318,0.083c0.636-0.268,1.395-0.164,1.955,0.225c0.103,0.072,0.258,0.019,0.318-0.083
					C181.17,39.698,181.123,39.568,181.019,39.496L181.019,39.496z"/>
			</g>
		</g>
		<g>
			<ellipse fill="#111111" cx="174.786" cy="40.677" rx="0.387" ry="0.567"/>
		</g>
		<g>
			<ellipse fill="#111111" cx="179.661" cy="40.677" rx="0.387" ry="0.567"/>
		</g>
	</g>
	<g id="Layer_143_copy">
		<g>
			<g>
				<path fill="#111111" d="M171.776,40.49c-0.033,0.564,0.07,1.125,0.293,1.643c0.028,0.065,0.124,0.009,0.096-0.056
					c-0.215-0.5-0.309-1.044-0.278-1.587C171.891,40.418,171.78,40.419,171.776,40.49L171.776,40.49z"/>
			</g>
		</g>
		<g>
			<g>
				<path fill="#111111" d="M171.431,40.9c0.129,0.183,0.257,0.367,0.386,0.55c0.017,0.024,0.048,0.036,0.076,0.02
					c0.024-0.014,0.037-0.051,0.02-0.076c-0.129-0.183-0.257-0.366-0.386-0.55c-0.017-0.024-0.048-0.036-0.076-0.02
					C171.426,40.838,171.413,40.875,171.431,40.9L171.431,40.9z"/>
			</g>
		</g>
	</g>
	<g id="Layer_141_copy">
		<g>
			<path fill="#111111" d="M171.324,39.785c-0.607-2.284-0.14-4.829,1.237-6.748c1.296-1.805,3.427-3.044,5.649-3.052
				c2.141-0.008,4.25,1.161,5.377,2.981c1.127,1.82,1.213,4.441,0.251,6.353c-0.193,0.383-0.432,0.71-0.954,0.625
				c-0.227-0.037-0.445-0.302-0.591-0.479c-0.25-0.305-0.494-0.663-0.547-1.058c-0.197-1.483-0.685-2.29-1.248-2.734
				c-0.682-0.538-1.474-0.544-1.992-0.576c-0.476-0.03-1.805-0.058-3.041,0.116c-1.119,0.158-2.054,0.939-2.394,2.017
				c-0.294,0.934-0.532,1.841-1.166,2.705"/>
		</g>
		<g>
			<path fill="#111111" d="M174.274,32.203c-0.565-0.43-1.433-0.395-2.106-0.135c-1.032,0.398-1.343,1.054-1.623,1.682
				c-0.238,0.534-0.279,1.6-0.247,2.177c0.099,1.76,0.313,2.456,1.006,4.095c0.723-0.203,1.724-3.854,2.434-5.726
				c0.267-0.703,0.538-1.434,0.469-2.177"/>
		</g>
	</g>
</g>
</svg>
