<?xml version="1.0" encoding="UTF-8"?>
<svg width="29px" height="19px" viewBox="0 0 29 19" version="1.1" xmlns="http://www.w3.org/2000/svg" xmlns:xlink="http://www.w3.org/1999/xlink">
    <!-- Generator: Sketch 63.1 (92452) - https://sketch.com -->
    <title>united-states</title>
    <desc>Created with Sketch.</desc>
    <g id="Kenzap-Service-Page" stroke="none" stroke-width="1" fill="none" fill-rule="evenodd">
        <g id="Service-Desktop" transform="translate(-1225.000000, -3641.000000)" fill-rule="nonzero">
            <g id="FOOTER" transform="translate(0.000000, 3161.000000)">
                <g id="Bottom" transform="translate(375.000000, 433.000000)">
                    <g id="Language" transform="translate(830.000000, 33.000000)">
                        <g id="Flag" transform="translate(20.000000, 14.000000)">
                            <g id="united-states">
                                <path d="M28.4999209,19 L0.500022461,19 C0.223899953,19 0,18.7761001 0,18.4999776 L0,0.500022358 C0,0.223899907 0.223899953,0 0.500022461,0 L28.4999775,0 C28.7761,0 29,0.223899907 29,0.500022358 L29,18.4999776 C29,18.7761567 28.7760434,19 28.4999209,19 Z" id="Path" fill="#F5F5F5"></path>
                                <g id="Group" fill="#FF4B55">
                                    <path d="M28.9435263,1.47481845 L0,1.47481845 L0,0.514809524 C0,0.239139881 0.223463938,0.0156071429 0.499048733,0.0156071429 L28.4444776,0.0156071429 C28.7200624,0.0156071429 28.9435263,0.239139881 28.9435263,0.514809524 L28.9435263,1.47481845 L28.9435263,1.47481845 Z" id="Path"></path>
                                    <rect id="Rectangle" x="0" y="5.85216964" width="28.9434698" height="1.45915476"></rect>
                                    <rect id="Rectangle" x="0" y="2.93374702" width="28.9434698" height="1.45915476"></rect>
                                    <path d="M28.9434698,10.2296339 L0.499048733,10.2296339 C0.223463938,10.2296339 0,10.0061012 0,9.73043155 L0,8.77042262 L28.9434698,8.77042262 L28.9434698,10.2296339 Z" id="Path"></path>
                                    <rect id="Rectangle" x="0" y="14.6074375" width="28.9434698" height="1.45915476"></rect>
                                    <path d="M28.4444211,18.9844494 L0.499048733,18.9844494 C0.223463938,18.9844494 0,18.7609167 0,18.485247 L0,17.5252946 L28.9434698,17.5252946 L28.9434698,18.4853036 C28.9434698,18.7609732 28.7200058,18.9844494 28.4444211,18.9844494 Z" id="Path"></path>
                                    <rect id="Rectangle" x="0" y="11.6890149" width="28.9434698" height="1.45915476"></rect>
                                </g>
                                <path d="M12.5184438,0 L0.481501682,0 C0.215606723,0 0,0.218795848 0,0.488692042 L0,9.5112526 C0,9.78114879 0.215606723,10 0.481501682,10 L12.5184983,10 C12.7843933,10 13,9.78114879 13,9.5112526 L13,0.488692042 C13,0.218795848 12.7843387,0 12.5184438,0 Z" id="Path" fill="#41479B"></path>
                                <g id="Group" transform="translate(1.000000, 1.000000)" fill="#F5F5F5">
                                    <path d="M0.613592417,0.086041958 L0.724720379,0.413874126 L1.07601896,0.416503497 C1.12151659,0.416895105 1.14034123,0.473958042 1.10377251,0.500531469 L0.821175355,0.705846154 L0.927184834,1.0353007 C0.940947867,1.07793007 0.891526066,1.11328671 0.85450237,1.08721678 L0.568720379,0.886321678 L0.282938389,1.08727273 C0.245914692,1.11328671 0.196606635,1.07798601 0.210255924,1.03535664 L0.316265403,0.705902098 L0.0336682464,0.500587413 C-0.00290047393,0.473958042 0.0159241706,0.416951049 0.0614218009,0.416559441 L0.412720379,0.41393007 L0.523848341,0.0860979021 C0.538180095,0.0435804196 0.599146919,0.0435804196 0.613592417,0.086041958 Z" id="Path"></path>
                                    <path d="M0.613592417,1.80095105 L0.724720379,2.12878322 L1.07601896,2.13141259 C1.12151659,2.1318042 1.14034123,2.18886713 1.10377251,2.21544056 L0.821175355,2.42075524 L0.927184834,2.75020979 C0.940947867,2.79283916 0.891526066,2.8281958 0.85450237,2.80212587 L0.568720379,2.60123077 L0.282938389,2.80218182 C0.245914692,2.8281958 0.196606635,2.7928951 0.210255924,2.75026573 L0.316265403,2.42081119 L0.0336682464,2.2154965 C-0.00290047393,2.18886713 0.0159241706,2.13186014 0.0614218009,2.13146853 L0.412720379,2.12883916 L0.523848341,1.80100699 C0.538180095,1.75854545 0.599146919,1.75854545 0.613592417,1.80095105 Z" id="Path"></path>
                                    <path d="M0.613592417,3.51586014 L0.724720379,3.84369231 L1.07601896,3.84632168 C1.12151659,3.84671329 1.14034123,3.90377622 1.10377251,3.93034965 L0.821175355,4.13566434 L0.927184834,4.46511888 C0.940947867,4.50774825 0.891526066,4.5431049 0.85450237,4.51703497 L0.568720379,4.31613986 L0.282938389,4.51709091 C0.245914692,4.5431049 0.196606635,4.5078042 0.210255924,4.46517483 L0.316265403,4.13572028 L0.0336682464,3.93040559 C-0.00290047393,3.90377622 0.0159241706,3.84676923 0.0614218009,3.84637762 L0.412720379,3.84374825 L0.523848341,3.51591608 C0.538180095,3.47345455 0.599146919,3.47345455 0.613592417,3.51586014 Z" id="Path"></path>
                                    <path d="M0.613592417,5.23082517 L0.724720379,5.55865734 L1.07601896,5.56128671 C1.12151659,5.56167832 1.14034123,5.61874126 1.10377251,5.64531469 L0.821175355,5.85062937 L0.927184834,6.18008392 C0.940947867,6.22271329 0.891526066,6.25806993 0.85450237,6.232 L0.568720379,6.0311049 L0.282938389,6.23205594 C0.245914692,6.25806993 0.196606635,6.22276923 0.210255924,6.18013986 L0.316265403,5.85068531 L0.0336682464,5.64537063 C-0.00290047393,5.61874126 0.0159241706,5.56173427 0.0614218009,5.56134266 L0.412720379,5.55871329 L0.523848341,5.23088112 C0.538180095,5.18836364 0.599146919,5.18836364 0.613592417,5.23082517 Z" id="Path"></path>
                                    <path d="M0.613592417,6.94573427 L0.724720379,7.27356643 L1.07601896,7.2761958 C1.12151659,7.27658741 1.14034123,7.33365035 1.10377251,7.36022378 L0.821175355,7.56553846 L0.927184834,7.89499301 C0.940947867,7.93762238 0.891526066,7.97297902 0.85450237,7.94690909 L0.568720379,7.74601399 L0.282938389,7.94696503 C0.245914692,7.97297902 0.196606635,7.93767832 0.210255924,7.89504895 L0.316265403,7.56559441 L0.0336682464,7.36027972 C-0.00290047393,7.33365035 0.0159241706,7.27664336 0.0614218009,7.27625175 L0.412720379,7.27362238 L0.523848341,6.94579021 C0.538180095,6.90321678 0.599146919,6.90321678 0.613592417,6.94573427 Z" id="Path"></path>
                                    <path d="M1.96674882,0.926825175 L2.07787678,1.25465734 L2.42917536,1.25728671 C2.47467299,1.25767832 2.49349763,1.31474126 2.45692891,1.34131469 L2.17433175,1.54662937 L2.28034123,1.87608392 C2.29410427,1.91871329 2.24468246,1.95406993 2.20765877,1.928 L1.92187678,1.72704895 L1.63609479,1.928 C1.59907109,1.95401399 1.54976303,1.91871329 1.56341232,1.87608392 L1.6694218,1.54662937 L1.38682464,1.34131469 C1.35025592,1.31468531 1.36908057,1.25767832 1.4145782,1.25728671 L1.76587678,1.25465734 L1.87700474,0.926825175 C1.89127962,0.88441958 1.95236019,0.88441958 1.96674882,0.926825175 Z" id="Path"></path>
                                    <path d="M1.96674882,2.64179021 L2.07787678,2.96962238 L2.42917536,2.97225175 C2.47467299,2.97264336 2.49349763,3.02970629 2.45692891,3.05627972 L2.17433175,3.26159441 L2.28034123,3.59104895 C2.29410427,3.63367832 2.24468246,3.66903497 2.20765877,3.64296503 L1.92187678,3.44201399 L1.63609479,3.64296503 C1.59907109,3.66897902 1.54976303,3.63373427 1.56341232,3.59104895 L1.6694218,3.26159441 L1.38682464,3.05627972 C1.35025592,3.02965035 1.36908057,2.97264336 1.4145782,2.97225175 L1.76587678,2.96962238 L1.87700474,2.64179021 C1.89127962,2.59932867 1.95236019,2.59932867 1.96674882,2.64179021 Z" id="Path"></path>
                                    <path d="M1.96674882,4.3566993 L2.07787678,4.68453147 L2.42917536,4.68716084 C2.47467299,4.68755245 2.49349763,4.74461538 2.45692891,4.77118881 L2.17433175,4.9765035 L2.28034123,5.30595804 C2.29410427,5.34858741 2.24468246,5.38394406 2.20765877,5.35787413 L1.92187678,5.15692308 L1.63609479,5.35787413 C1.59907109,5.38388811 1.54976303,5.34858741 1.56341232,5.30595804 L1.6694218,4.9765035 L1.38682464,4.77118881 C1.35025592,4.74455944 1.36908057,4.68755245 1.4145782,4.68716084 L1.76587678,4.68453147 L1.87700474,4.3566993 C1.89127962,4.31423776 1.95236019,4.31423776 1.96674882,4.3566993 Z" id="Path"></path>
                                    <path d="M1.96674882,6.07160839 L2.07787678,6.39944056 L2.42917536,6.40206993 C2.47467299,6.40246154 2.49349763,6.45952448 2.45692891,6.4860979 L2.17433175,6.69141259 L2.28034123,7.02086713 C2.29410427,7.0634965 2.24468246,7.09885315 2.20765877,7.07278322 L1.92187678,6.87183217 L1.63609479,7.07278322 C1.59907109,7.0987972 1.54976303,7.0634965 1.56341232,7.02086713 L1.6694218,6.69141259 L1.38682464,6.4860979 C1.35025592,6.45946853 1.36908057,6.40246154 1.4145782,6.40206993 L1.76587678,6.39944056 L1.87700474,6.07160839 C1.89127962,6.0292028 1.95236019,6.0292028 1.96674882,6.07160839 Z" id="Path"></path>
                                    <path d="M3.31990521,0.086041958 L3.43103318,0.413874126 L3.78233175,0.416503497 C3.82782938,0.416895105 3.84665403,0.473958042 3.81008531,0.500531469 L3.52748815,0.705846154 L3.63349763,1.0353007 C3.64726066,1.07793007 3.59783886,1.11328671 3.56081517,1.08721678 L3.27503318,0.886265734 L2.98925118,1.08721678 C2.95222749,1.11323077 2.90291943,1.07793007 2.91656872,1.0353007 L3.0225782,0.705846154 L2.73998104,0.500531469 C2.70341232,0.473902098 2.72223697,0.416895105 2.7677346,0.416503497 L3.11903318,0.413874126 L3.23016114,0.086041958 C3.24449289,0.0435804196 3.30551659,0.0435804196 3.31990521,0.086041958 Z" id="Path"></path>
                                    <path d="M3.31990521,1.80095105 L3.43103318,2.12878322 L3.78233175,2.13141259 C3.82782938,2.1318042 3.84665403,2.18886713 3.81008531,2.21544056 L3.52748815,2.42075524 L3.63349763,2.75020979 C3.64726066,2.79283916 3.59783886,2.8281958 3.56081517,2.80212587 L3.27503318,2.60117483 L2.98925118,2.80212587 C2.95222749,2.82813986 2.90291943,2.79283916 2.91656872,2.75020979 L3.0225782,2.42075524 L2.73998104,2.21544056 C2.70341232,2.18881119 2.72223697,2.1318042 2.7677346,2.13141259 L3.11903318,2.12878322 L3.23016114,1.80095105 C3.24449289,1.75854545 3.30551659,1.75854545 3.31990521,1.80095105 Z" id="Path"></path>
                                    <path d="M3.31990521,3.51586014 L3.43103318,3.84369231 L3.78233175,3.84632168 C3.82782938,3.84671329 3.84665403,3.90377622 3.81008531,3.93034965 L3.52748815,4.13566434 L3.63349763,4.46511888 C3.64726066,4.50774825 3.59783886,4.5431049 3.56081517,4.51703497 L3.27503318,4.31608392 L2.98925118,4.51703497 C2.95222749,4.54304895 2.90291943,4.50774825 2.91656872,4.46511888 L3.0225782,4.13566434 L2.73998104,3.93034965 C2.70341232,3.90372028 2.72223697,3.84671329 2.7677346,3.84632168 L3.11903318,3.84369231 L3.23016114,3.51586014 C3.24449289,3.47345455 3.30551659,3.47345455 3.31990521,3.51586014 Z" id="Path"></path>
                                    <path d="M3.31990521,5.23082517 L3.43103318,5.55865734 L3.78233175,5.56128671 C3.82782938,5.56167832 3.84665403,5.61874126 3.81008531,5.64531469 L3.52748815,5.85062937 L3.63349763,6.18008392 C3.64726066,6.22271329 3.59783886,6.25806993 3.56081517,6.232 L3.27503318,6.03104895 L2.98925118,6.232 C2.95222749,6.25801399 2.90291943,6.22271329 2.91656872,6.18008392 L3.0225782,5.85062937 L2.73998104,5.64531469 C2.70341232,5.61868531 2.72223697,5.56167832 2.7677346,5.56128671 L3.11903318,5.55865734 L3.23016114,5.23082517 C3.24449289,5.18836364 3.30551659,5.18836364 3.31990521,5.23082517 Z" id="Path"></path>
                                    <path d="M3.31990521,6.94573427 L3.43103318,7.27356643 L3.78233175,7.2761958 C3.82782938,7.27658741 3.84665403,7.33365035 3.81008531,7.36022378 L3.52748815,7.56553846 L3.63349763,7.89499301 C3.64726066,7.93762238 3.59783886,7.97297902 3.56081517,7.94690909 L3.27503318,7.74595804 L2.98925118,7.94690909 C2.95222749,7.97292308 2.90291943,7.93762238 2.91656872,7.89499301 L3.0225782,7.56553846 L2.73998104,7.36022378 C2.70341232,7.33359441 2.72223697,7.27658741 2.7677346,7.2761958 L3.11903318,7.27356643 L3.23016114,6.94573427 C3.24449289,6.90321678 3.30551659,6.90321678 3.31990521,6.94573427 Z" id="Path"></path>
                                    <path d="M4.67311848,0.926825175 L4.78424645,1.25465734 L5.13554502,1.25728671 C5.18104265,1.25767832 5.1998673,1.31474126 5.16329858,1.34131469 L4.88070142,1.54662937 L4.9867109,1.87608392 C5.00047393,1.91871329 4.95105213,1.95406993 4.91402844,1.928 L4.62824645,1.72704895 L4.34246445,1.928 C4.30544076,1.95401399 4.2561327,1.91871329 4.26978199,1.87608392 L4.37579147,1.54662937 L4.09319431,1.34131469 C4.05662559,1.31468531 4.07545024,1.25767832 4.12094787,1.25728671 L4.47224645,1.25465734 L4.58337441,0.926825175 C4.59764929,0.88441958 4.65872986,0.88441958 4.67311848,0.926825175 Z" id="Path"></path>
                                    <path d="M4.67311848,2.64179021 L4.78424645,2.96962238 L5.13554502,2.97225175 C5.18104265,2.97264336 5.1998673,3.02970629 5.16329858,3.05627972 L4.88070142,3.26159441 L4.9867109,3.59104895 C5.00047393,3.63367832 4.95105213,3.66903497 4.91402844,3.64296503 L4.62824645,3.44201399 L4.34246445,3.64296503 C4.30544076,3.66897902 4.2561327,3.63373427 4.26978199,3.59104895 L4.37579147,3.26159441 L4.09319431,3.05627972 C4.05662559,3.02965035 4.07545024,2.97264336 4.12094787,2.97225175 L4.47224645,2.96962238 L4.58337441,2.64179021 C4.59764929,2.59932867 4.65872986,2.59932867 4.67311848,2.64179021 Z" id="Path"></path>
                                    <path d="M4.67311848,4.3566993 L4.78424645,4.68453147 L5.13554502,4.68716084 C5.18104265,4.68755245 5.1998673,4.74461538 5.16329858,4.77118881 L4.88070142,4.9765035 L4.9867109,5.30595804 C5.00047393,5.34858741 4.95105213,5.38394406 4.91402844,5.35787413 L4.62824645,5.15692308 L4.34246445,5.35787413 C4.30544076,5.38388811 4.2561327,5.34858741 4.26978199,5.30595804 L4.37579147,4.9765035 L4.09319431,4.77118881 C4.05662559,4.74455944 4.07545024,4.68755245 4.12094787,4.68716084 L4.47224645,4.68453147 L4.58337441,4.3566993 C4.59764929,4.31423776 4.65872986,4.31423776 4.67311848,4.3566993 Z" id="Path"></path>
                                    <path d="M4.67311848,6.07160839 L4.78424645,6.39944056 L5.13554502,6.40206993 C5.18104265,6.40246154 5.1998673,6.45952448 5.16329858,6.4860979 L4.88070142,6.69141259 L4.9867109,7.02086713 C5.00047393,7.0634965 4.95105213,7.09885315 4.91402844,7.07278322 L4.62824645,6.87183217 L4.34246445,7.07278322 C4.30544076,7.0987972 4.2561327,7.0634965 4.26978199,7.02086713 L4.37579147,6.69141259 L4.09319431,6.4860979 C4.05662559,6.45946853 4.07545024,6.40246154 4.12094787,6.40206993 L4.47224645,6.39944056 L4.58337441,6.07160839 C4.59764929,6.0292028 4.65872986,6.0292028 4.67311848,6.07160839 Z" id="Path"></path>
                                    <path d="M6.02627488,0.086041958 L6.13740284,0.413874126 L6.48870142,0.416503497 C6.53419905,0.416895105 6.5530237,0.473958042 6.51645498,0.500531469 L6.23385782,0.705846154 L6.3398673,1.0353007 C6.35363033,1.07793007 6.30420853,1.11328671 6.26718483,1.08721678 L5.98134597,0.886265734 L5.69556398,1.08721678 C5.65854028,1.11323077 5.60923223,1.07793007 5.62288152,1.0353007 L5.728891,0.705846154 L5.44629384,0.500531469 C5.40972512,0.473902098 5.42854976,0.416895105 5.47404739,0.416503497 L5.82534597,0.413874126 L5.93647393,0.086041958 C5.95086256,0.0435804196 6.01188626,0.0435804196 6.02627488,0.086041958 Z" id="Path"></path>
                                    <path d="M6.02627488,1.80095105 L6.13740284,2.12878322 L6.48870142,2.13141259 C6.53419905,2.1318042 6.5530237,2.18886713 6.51645498,2.21544056 L6.23385782,2.42075524 L6.3398673,2.75020979 C6.35363033,2.79283916 6.30420853,2.8281958 6.26718483,2.80212587 L5.98134597,2.60117483 L5.69556398,2.80212587 C5.65854028,2.82813986 5.60923223,2.79283916 5.62288152,2.75020979 L5.728891,2.42075524 L5.44629384,2.21544056 C5.40972512,2.18881119 5.42854976,2.1318042 5.47404739,2.13141259 L5.82534597,2.12878322 L5.93647393,1.80095105 C5.95086256,1.75854545 6.01188626,1.75854545 6.02627488,1.80095105 Z" id="Path"></path>
                                    <path d="M6.02627488,3.51586014 L6.13740284,3.84369231 L6.48870142,3.84632168 C6.53419905,3.84671329 6.5530237,3.90377622 6.51645498,3.93034965 L6.23385782,4.13566434 L6.3398673,4.46511888 C6.35363033,4.50774825 6.30420853,4.5431049 6.26718483,4.51703497 L5.98134597,4.31608392 L5.69556398,4.51703497 C5.65854028,4.54304895 5.60923223,4.50774825 5.62288152,4.46511888 L5.728891,4.13566434 L5.44629384,3.93034965 C5.40972512,3.90372028 5.42854976,3.84671329 5.47404739,3.84632168 L5.82534597,3.84369231 L5.93647393,3.51586014 C5.95086256,3.47345455 6.01188626,3.47345455 6.02627488,3.51586014 Z" id="Path"></path>
                                    <path d="M6.02627488,5.23082517 L6.13740284,5.55865734 L6.48870142,5.56128671 C6.53419905,5.56167832 6.5530237,5.61874126 6.51645498,5.64531469 L6.23385782,5.85062937 L6.3398673,6.18008392 C6.35363033,6.22271329 6.30420853,6.25806993 6.26718483,6.232 L5.98134597,6.03104895 L5.69556398,6.232 C5.65854028,6.25801399 5.60923223,6.22271329 5.62288152,6.18008392 L5.728891,5.85062937 L5.44629384,5.64531469 C5.40972512,5.61868531 5.42854976,5.56167832 5.47404739,5.56128671 L5.82534597,5.55865734 L5.93647393,5.23082517 C5.95086256,5.18836364 6.01188626,5.18836364 6.02627488,5.23082517 Z" id="Path"></path>
                                    <path d="M6.02627488,6.94573427 L6.13740284,7.27356643 L6.48870142,7.2761958 C6.53419905,7.27658741 6.5530237,7.33365035 6.51645498,7.36022378 L6.23385782,7.56553846 L6.3398673,7.89499301 C6.35363033,7.93762238 6.30420853,7.97297902 6.26718483,7.94690909 L5.98134597,7.74595804 L5.69556398,7.94690909 C5.65854028,7.97292308 5.60923223,7.93762238 5.62288152,7.89499301 L5.728891,7.56553846 L5.44629384,7.36022378 C5.40972512,7.33359441 5.42854976,7.27658741 5.47404739,7.2761958 L5.82534597,7.27356643 L5.93647393,6.94573427 C5.95086256,6.90321678 6.01188626,6.90321678 6.02627488,6.94573427 Z" id="Path"></path>
                                    <path d="M7.37943128,0.926825175 L7.49055924,1.25465734 L7.84185782,1.25728671 C7.88735545,1.25767832 7.90618009,1.31474126 7.86961137,1.34131469 L7.58701422,1.54662937 L7.6930237,1.87608392 C7.70678673,1.91871329 7.65736493,1.95406993 7.62034123,1.928 L7.33455924,1.72704895 L7.04877725,1.928 C7.01175355,1.95401399 6.9624455,1.91871329 6.97609479,1.87608392 L7.08210427,1.54662937 L6.79950711,1.34131469 C6.76293839,1.31468531 6.78176303,1.25767832 6.82726066,1.25728671 L7.17855924,1.25465734 L7.2896872,0.926825175 C7.30407583,0.88441958 7.36504265,0.88441958 7.37943128,0.926825175 Z" id="Path"></path>
                                    <path d="M7.37943128,2.64179021 L7.49055924,2.96962238 L7.84185782,2.97225175 C7.88735545,2.97264336 7.90618009,3.02970629 7.86961137,3.05627972 L7.58701422,3.26159441 L7.6930237,3.59104895 C7.70678673,3.63367832 7.65736493,3.66903497 7.62034123,3.64296503 L7.33455924,3.44201399 L7.04877725,3.64296503 C7.01175355,3.66897902 6.9624455,3.63373427 6.97609479,3.59104895 L7.08210427,3.26159441 L6.79950711,3.05627972 C6.76293839,3.02965035 6.78176303,2.97264336 6.82726066,2.97225175 L7.17855924,2.96962238 L7.2896872,2.64179021 C7.30407583,2.59932867 7.36504265,2.59932867 7.37943128,2.64179021 Z" id="Path"></path>
                                    <path d="M7.37943128,4.3566993 L7.49055924,4.68453147 L7.84185782,4.68716084 C7.88735545,4.68755245 7.90618009,4.74461538 7.86961137,4.77118881 L7.58701422,4.9765035 L7.6930237,5.30595804 C7.70678673,5.34858741 7.65736493,5.38394406 7.62034123,5.35787413 L7.33455924,5.15692308 L7.04877725,5.35787413 C7.01175355,5.38388811 6.9624455,5.34858741 6.97609479,5.30595804 L7.08210427,4.9765035 L6.79950711,4.77118881 C6.76293839,4.74455944 6.78176303,4.68755245 6.82726066,4.68716084 L7.17855924,4.68453147 L7.2896872,4.3566993 C7.30407583,4.31423776 7.36504265,4.31423776 7.37943128,4.3566993 Z" id="Path"></path>
                                    <path d="M7.37943128,6.07160839 L7.49055924,6.39944056 L7.84185782,6.40206993 C7.88735545,6.40246154 7.90618009,6.45952448 7.86961137,6.4860979 L7.58701422,6.69141259 L7.6930237,7.02086713 C7.70678673,7.0634965 7.65736493,7.09885315 7.62034123,7.07278322 L7.33455924,6.87183217 L7.04877725,7.07278322 C7.01175355,7.0987972 6.9624455,7.0634965 6.97609479,7.02086713 L7.08210427,6.69141259 L6.79950711,6.4860979 C6.76293839,6.45946853 6.78176303,6.40246154 6.82726066,6.40206993 L7.17855924,6.39944056 L7.2896872,6.07160839 C7.30407583,6.0292028 7.36504265,6.0292028 7.37943128,6.07160839 Z" id="Path"></path>
                                    <path d="M8.73264455,0.086041958 L8.84377251,0.413874126 L9.19507109,0.416503497 C9.24056872,0.416895105 9.25939336,0.473958042 9.22282464,0.500531469 L8.94022749,0.705846154 L9.04623697,1.0353007 C9.06,1.07793007 9.0105782,1.11328671 8.9735545,1.08721678 L8.68777251,0.886265734 L8.40199052,1.08721678 C8.36496682,1.11323077 8.31565877,1.07793007 8.32930806,1.0353007 L8.43531754,0.705846154 L8.15272038,0.500531469 C8.11615166,0.473902098 8.1349763,0.416895105 8.18047393,0.416503497 L8.53177251,0.413874126 L8.64290047,0.086041958 C8.65717536,0.0435804196 8.71825592,0.0435804196 8.73264455,0.086041958 Z" id="Path"></path>
                                    <path d="M8.73264455,1.80095105 L8.84377251,2.12878322 L9.19507109,2.13141259 C9.24056872,2.1318042 9.25939336,2.18886713 9.22282464,2.21544056 L8.94022749,2.42075524 L9.04623697,2.75020979 C9.06,2.79283916 9.0105782,2.8281958 8.9735545,2.80212587 L8.68777251,2.60117483 L8.40199052,2.80212587 C8.36496682,2.82813986 8.31565877,2.79283916 8.32930806,2.75020979 L8.43531754,2.42075524 L8.15272038,2.21544056 C8.11615166,2.18881119 8.1349763,2.1318042 8.18047393,2.13141259 L8.53177251,2.12878322 L8.64290047,1.80095105 C8.65717536,1.75854545 8.71825592,1.75854545 8.73264455,1.80095105 Z" id="Path"></path>
                                    <path d="M8.73264455,3.51586014 L8.84377251,3.84369231 L9.19507109,3.84632168 C9.24056872,3.84671329 9.25939336,3.90377622 9.22282464,3.93034965 L8.94022749,4.13566434 L9.04623697,4.46511888 C9.06,4.50774825 9.0105782,4.5431049 8.9735545,4.51703497 L8.68777251,4.31608392 L8.40199052,4.51703497 C8.36496682,4.54304895 8.31565877,4.50774825 8.32930806,4.46511888 L8.43531754,4.13566434 L8.15272038,3.93034965 C8.11615166,3.90372028 8.1349763,3.84671329 8.18047393,3.84632168 L8.53177251,3.84369231 L8.64290047,3.51586014 C8.65717536,3.47345455 8.71825592,3.47345455 8.73264455,3.51586014 Z" id="Path"></path>
                                    <path d="M8.73264455,5.23082517 L8.84377251,5.55865734 L9.19507109,5.56128671 C9.24056872,5.56167832 9.25939336,5.61874126 9.22282464,5.64531469 L8.94022749,5.85062937 L9.04623697,6.18008392 C9.06,6.22271329 9.0105782,6.25806993 8.9735545,6.232 L8.68777251,6.03104895 L8.40199052,6.232 C8.36496682,6.25801399 8.31565877,6.22271329 8.32930806,6.18008392 L8.43531754,5.85062937 L8.15272038,5.64531469 C8.11615166,5.61868531 8.1349763,5.56167832 8.18047393,5.56128671 L8.53177251,5.55865734 L8.64290047,5.23082517 C8.65717536,5.18836364 8.71825592,5.18836364 8.73264455,5.23082517 Z" id="Path"></path>
                                    <path d="M8.73264455,6.94573427 L8.84377251,7.27356643 L9.19507109,7.2761958 C9.24056872,7.27658741 9.25939336,7.33365035 9.22282464,7.36022378 L8.94022749,7.56553846 L9.04623697,7.89499301 C9.06,7.93762238 9.0105782,7.97297902 8.9735545,7.94690909 L8.68777251,7.74595804 L8.40199052,7.94690909 C8.36496682,7.97292308 8.31565877,7.93762238 8.32930806,7.89499301 L8.43531754,7.56553846 L8.15272038,7.36022378 C8.11615166,7.33359441 8.1349763,7.27658741 8.18047393,7.2761958 L8.53177251,7.27356643 L8.64290047,6.94573427 C8.65717536,6.90321678 8.71825592,6.90321678 8.73264455,6.94573427 Z" id="Path"></path>
                                    <path d="M10.0858009,0.926825175 L10.1969289,1.25465734 L10.5482275,1.25728671 C10.5937251,1.25767832 10.6125498,1.31474126 10.575981,1.34131469 L10.2933839,1.54662937 L10.3993934,1.87608392 C10.4131564,1.91871329 10.3637346,1.95406993 10.3267109,1.928 L10.0409289,1.72704895 L9.75514692,1.928 C9.71812322,1.95401399 9.66881517,1.91871329 9.68246445,1.87608392 L9.78847393,1.54662937 L9.50587678,1.34131469 C9.46930806,1.31468531 9.4881327,1.25767832 9.53363033,1.25728671 L9.88492891,1.25465734 L9.99605687,0.926825175 C10.0103886,0.88441958 10.0714692,0.88441958 10.0858009,0.926825175 Z" id="Path"></path>
                                    <path d="M10.0858009,2.64179021 L10.1969289,2.96962238 L10.5482275,2.97225175 C10.5937251,2.97264336 10.6125498,3.02970629 10.575981,3.05627972 L10.2933839,3.26159441 L10.3993934,3.59104895 C10.4131564,3.63367832 10.3637346,3.66903497 10.3267109,3.64296503 L10.0409289,3.44201399 L9.75514692,3.64296503 C9.71812322,3.66897902 9.66881517,3.63373427 9.68246445,3.59104895 L9.78847393,3.26159441 L9.50587678,3.05627972 C9.46930806,3.02965035 9.4881327,2.97264336 9.53363033,2.97225175 L9.88492891,2.96962238 L9.99605687,2.64179021 C10.0103886,2.59932867 10.0714692,2.59932867 10.0858009,2.64179021 Z" id="Path"></path>
                                    <path d="M10.0858009,4.3566993 L10.1969289,4.68453147 L10.5482275,4.68716084 C10.5937251,4.68755245 10.6125498,4.74461538 10.575981,4.77118881 L10.2933839,4.9765035 L10.3993934,5.30595804 C10.4131564,5.34858741 10.3637346,5.38394406 10.3267109,5.35787413 L10.0409289,5.15692308 L9.75514692,5.35787413 C9.71812322,5.38388811 9.66881517,5.34858741 9.68246445,5.30595804 L9.78847393,4.9765035 L9.50587678,4.77118881 C9.46930806,4.74455944 9.4881327,4.68755245 9.53363033,4.68716084 L9.88492891,4.68453147 L9.99605687,4.3566993 C10.0103886,4.31423776 10.0714692,4.31423776 10.0858009,4.3566993 Z" id="Path"></path>
                                    <path d="M10.0858009,6.07160839 L10.1969289,6.39944056 L10.5482275,6.40206993 C10.5937251,6.40246154 10.6125498,6.45952448 10.575981,6.4860979 L10.2933839,6.69141259 L10.3993934,7.02086713 C10.4131564,7.0634965 10.3637346,7.09885315 10.3267109,7.07278322 L10.0409289,6.87183217 L9.75514692,7.07278322 C9.71812322,7.0987972 9.66881517,7.0634965 9.68246445,7.02086713 L9.78847393,6.69141259 L9.50587678,6.4860979 C9.46930806,6.45946853 9.4881327,6.40246154 9.53363033,6.40206993 L9.88492891,6.39944056 L9.99605687,6.07160839 C10.0103886,6.0292028 10.0714692,6.0292028 10.0858009,6.07160839 Z" id="Path"></path>
                                    <path d="M11.4390142,0.086041958 L11.5501422,0.413874126 L11.9014408,0.416503497 C11.9469384,0.416895105 11.965763,0.473958042 11.9291943,0.500531469 L11.6465972,0.705846154 L11.7526066,1.0353007 C11.7663697,1.07793007 11.7169479,1.11328671 11.6799242,1.08721678 L11.3941422,0.886265734 L11.1083602,1.08721678 C11.0713365,1.11323077 11.0220284,1.07793007 11.0356777,1.0353007 L11.1416872,0.705846154 L10.85909,0.500531469 C10.8225213,0.473902098 10.841346,0.416895105 10.8868436,0.416503497 L11.2381422,0.413874126 L11.3492701,0.086041958 C11.3636019,0.0435804196 11.4245687,0.0435804196 11.4390142,0.086041958 Z" id="Path"></path>
                                    <path d="M11.4390142,1.80095105 L11.5501422,2.12878322 L11.9014408,2.13141259 C11.9469384,2.1318042 11.965763,2.18886713 11.9291943,2.21544056 L11.6465972,2.42075524 L11.7526066,2.75020979 C11.7663697,2.79283916 11.7169479,2.8281958 11.6799242,2.80212587 L11.3941422,2.60117483 L11.1083602,2.80212587 C11.0713365,2.82813986 11.0220284,2.79283916 11.0356777,2.75020979 L11.1416872,2.42075524 L10.85909,2.21544056 C10.8225213,2.18881119 10.841346,2.1318042 10.8868436,2.13141259 L11.2381422,2.12878322 L11.3492701,1.80095105 C11.3636019,1.75854545 11.4245687,1.75854545 11.4390142,1.80095105 Z" id="Path"></path>
                                    <path d="M11.4390142,3.51586014 L11.5501422,3.84369231 L11.9014408,3.84632168 C11.9469384,3.84671329 11.965763,3.90377622 11.9291943,3.93034965 L11.6465972,4.13566434 L11.7526066,4.46511888 C11.7663697,4.50774825 11.7169479,4.5431049 11.6799242,4.51703497 L11.3941422,4.31608392 L11.1083602,4.51703497 C11.0713365,4.54304895 11.0220284,4.50774825 11.0356777,4.46511888 L11.1416872,4.13566434 L10.85909,3.93034965 C10.8225213,3.90372028 10.841346,3.84671329 10.8868436,3.84632168 L11.2381422,3.84369231 L11.3492701,3.51586014 C11.3636019,3.47345455 11.4245687,3.47345455 11.4390142,3.51586014 Z" id="Path"></path>
                                    <path d="M11.4390142,5.23082517 L11.5501422,5.55865734 L11.9014408,5.56128671 C11.9469384,5.56167832 11.965763,5.61874126 11.9291943,5.64531469 L11.6465972,5.85062937 L11.7526066,6.18008392 C11.7663697,6.22271329 11.7169479,6.25806993 11.6799242,6.232 L11.3941422,6.03104895 L11.1083602,6.232 C11.0713365,6.25801399 11.0220284,6.22271329 11.0356777,6.18008392 L11.1416872,5.85062937 L10.85909,5.64531469 C10.8225213,5.61868531 10.841346,5.56167832 10.8868436,5.56128671 L11.2381422,5.55865734 L11.3492701,5.23082517 C11.3636019,5.18836364 11.4245687,5.18836364 11.4390142,5.23082517 Z" id="Path"></path>
                                    <path d="M11.4390142,6.94573427 L11.5501422,7.27356643 L11.9014408,7.2761958 C11.9469384,7.27658741 11.965763,7.33365035 11.9291943,7.36022378 L11.6465972,7.56553846 L11.7526066,7.89499301 C11.7663697,7.93762238 11.7169479,7.97297902 11.6799242,7.94690909 L11.3941422,7.74595804 L11.1083602,7.94690909 C11.0713365,7.97292308 11.0220284,7.93762238 11.0356777,7.89499301 L11.1416872,7.56553846 L10.85909,7.36022378 C10.8225213,7.33359441 10.841346,7.27658741 10.8868436,7.2761958 L11.2381422,7.27356643 L11.3492701,6.94573427 C11.3636019,6.90321678 11.4245687,6.90321678 11.4390142,6.94573427 Z" id="Path"></path>
                                </g>
                            </g>
                        </g>
                    </g>
                </g>
            </g>
        </g>
    </g>
</svg>