<?xml version="1.0" standalone="no"?>
<!DOCTYPE svg PUBLIC "-//W3C//DTD SVG 1.1//EN" "http://www.w3.org/Graphics/SVG/1.1/DTD/svg11.dtd" >
<svg xmlns="http://www.w3.org/2000/svg">
<metadata>Generated by IcoMoon</metadata>
<defs>
<font id="icomoon" horiz-adv-x="1024">
<font-face units-per-em="1024" ascent="960" descent="-64" />
<missing-glyph horiz-adv-x="1024" />
<glyph unicode="&#x20;" horiz-adv-x="512" d="" />
<glyph unicode="&#xe900;" glyph-name="password" d="M512 880c-123.681 0-224-100.319-224-224v-128h-40c-39.473 0-72-32.527-72-72v-368c0-39.473 32.527-72 72-72h528c39.473 0 72 32.527 72 72v368c0 39.473-32.527 72-72 72h-40v128c0 123.681-100.319 224-224 224zM512 832c97.919 0 176-78.081 176-176v-152c0.001-13.254 10.746-23.999 24-24h64c13.711 0 24-10.289 24-24v-368c0-13.711-10.289-24-24-24h-528c-13.711 0-24 10.289-24 24v368c0 13.711 10.289 24 24 24h384c0.101-0.002 0.22-0.002 0.339-0.002 13.256 0 24.002 10.746 24.002 24.002s-10.746 24.002-24.002 24.002c-0.119 0-0.238-0.001-0.357-0.003h-295.982v128c0 97.919 78.081 176 176 176zM512 368c-26.51 0-48-21.49-48-48v0c0.026-17.646 9.571-33.058 23.774-41.377l0.226-0.123v-78.5c0-13.296 10.704-24 24-24s24 10.704 24 24v78.5c14.429 8.442 23.974 23.854 24 41.496v0.004c0 26.51-21.49 48-48 48v0z" />
<glyph unicode="&#xe901;" glyph-name="person" d="M408 448c-145.841 0-264-118.159-264-264v-96c0-39.473 32.527-72 72-72h432c0.101-0.002 0.22-0.002 0.339-0.002 13.256 0 24.002 10.746 24.002 24.002s-10.746 24.002-24.002 24.002c-0.119 0-0.238-0.001-0.357-0.003h-431.982c-13.711 0-24 10.289-24 24v96c0 120.079 95.921 216 216 216h208c120.079 0 216-95.921 216-216v-96c0-13.711-10.289-24-24-24h-80c-0.101 0.002-0.22 0.002-0.339 0.002-13.256 0-24.002-10.746-24.002-24.002s10.746-24.002 24.002-24.002c0.119 0 0.238 0.001 0.357 0.003h79.982c39.473 0 72 32.527 72 72v96c0 145.841-118.159 264-264 264zM512 880c-105.754 0-192-86.246-192-192s86.246-192 192-192 192 86.246 192 192-86.246 192-192 192zM512 832c79.813 0 144-64.187 144-144s-64.187-144-144-144-144 64.187-144 144 64.187 144 144 144zM740.031 40.406c-1.353-0.114-2.648-0.406-4.031-0.406h3.969z" />
<glyph unicode="&#xe902;" glyph-name="bill" d="M695.281 880c-2.703-0.086-5.258-0.606-7.635-1.492l0.166 0.054-79.812-29.031-79.812 29.031c-2.435 0.912-5.25 1.44-8.188 1.44s-5.752-0.528-8.354-1.494l0.166 0.054-79.812-29.031-79.812 29.031c-2.435 0.912-5.25 1.44-8.188 1.44s-5.752-0.528-8.354-1.494l0.166 0.054-79.812-29.031-79.812 29.031c-2.435 0.911-5.248 1.439-8.185 1.439-13.256 0-24.002-10.746-24.002-24.001v0-736c0-57.201 46.799-104 104-104h384c0.101-0.002 0.22-0.002 0.339-0.002 13.256 0 24.002 10.746 24.002 24.002s-10.746 24.002-24.002 24.002c-0.119 0-0.238-0.001-0.357-0.003h-383.982c-31.439 0-56 24.561-56 56v701.719l55.812-20.281c2.435-0.912 5.25-1.44 8.188-1.44s5.752 0.528 8.354 1.494l-0.166-0.054 79.812 29.031 79.812-29.031c2.435-0.912 5.25-1.44 8.188-1.44s5.752 0.528 8.354 1.494l-0.166-0.054 79.812 29.031 79.812-29.031c2.435-0.912 5.25-1.44 8.188-1.44s5.752 0.528 8.354 1.494l-0.166-0.054 55.812 20.281v-701.719c0-57.201 46.799-104 104-104s104 46.799 104 104v368c-0.001 13.256-10.747 24.001-24.002 24.001-2.937 0-5.75-0.527-8.351-1.493l0.166 0.054-80-29.094c-9.362-3.416-15.925-12.243-15.925-22.602 0-13.256 10.746-24.002 24.002-24.002 2.979 0 5.831 0.543 8.463 1.534l-0.165-0.055 47.812 17.375v-333.719c0-31.439-24.561-56-56-56s-56 24.561-56 56v736c0 0.002 0 0.005 0 0.008 0 13.256-10.746 24.002-24.002 24.002-0.252 0-0.503-0.004-0.753-0.012l0.037 0.001zM431.625 688.688c-13.094-0.211-23.627-10.875-23.627-23.999 0-0.121 0.001-0.242 0.003-0.362v0.018-24.344h-32c-39.473 0-72-32.527-72-72v-72c0-39.473 32.527-72 72-72h32v-120h-32c-13.711 0-24 10.289-24 24 0.002 0.101 0.002 0.22 0.002 0.339 0 13.256-10.746 24.002-24.002 24.002s-24.002-10.746-24.002-24.002c0-0.119 0.001-0.238 0.003-0.357v0.018c0-39.473 32.527-72 72-72h32v-23.656c-0.002-0.101-0.002-0.22-0.002-0.339 0-13.256 10.746-24.002 24.002-24.002s24.002 10.746 24.002 24.002c0 0.119-0.001 0.238-0.003 0.357v-0.018 23.656h32c39.473 0 72 32.527 72 72v72c0 39.473-32.527 72-72 72h-32v120h32c13.711 0 24-10.289 24-24-0.002-0.101-0.002-0.22-0.002-0.339 0-13.256 10.746-24.002 24.002-24.002s24.002 10.746 24.002 24.002c0 0.119-0.001 0.238-0.003 0.357v-0.018c0 39.473-32.527 72-72 72h-32v24.344c0.002 0.102 0.002 0.223 0.002 0.344 0 13.256-10.746 24.002-24.002 24.002-0.132 0-0.263-0.001-0.395-0.003h0.020zM376 592h32v-120h-32c-13.711 0-24 10.289-24 24v72c0 13.711 10.289 24 24 24zM456 424h32c13.711 0 24-10.289 24-24v-72c0-13.711-10.289-24-24-24h-32z" />
<glyph unicode="&#xe903;" glyph-name="document" d="M376 640c-0.101 0.002-0.22 0.002-0.339 0.002-13.256 0-24.002-10.746-24.002-24.002s10.746-24.002 24.002-24.002c0.119 0 0.238 0.001 0.357 0.003h271.982c0.101-0.002 0.22-0.002 0.339-0.002 13.256 0 24.002 10.746 24.002 24.002s-10.746 24.002-24.002 24.002c-0.119 0-0.238-0.001-0.357-0.003h0.018zM376 544c-0.101 0.002-0.22 0.002-0.339 0.002-13.256 0-24.002-10.746-24.002-24.002s10.746-24.002 24.002-24.002c0.119 0 0.238 0.001 0.357 0.003h271.982c0.101-0.002 0.22-0.002 0.339-0.002 13.256 0 24.002 10.746 24.002 24.002s-10.746 24.002-24.002 24.002c-0.119 0-0.238-0.001-0.357-0.003h0.018zM376 448c-0.101 0.002-0.22 0.002-0.339 0.002-13.256 0-24.002-10.746-24.002-24.002s10.746-24.002 24.002-24.002c0.119 0 0.238 0.001 0.357 0.003h143.982c0.101-0.002 0.22-0.002 0.339-0.002 13.256 0 24.002 10.746 24.002 24.002s-10.746 24.002-24.002 24.002c-0.119 0-0.238-0.001-0.357-0.003h0.018zM248 880c-39.473 0-72-32.527-72-72v-576c0.001-6.627 2.688-12.626 7.031-16.969l104.813-104.813c4.375-4.551 10.514-7.379 17.314-7.379 13.256 0 24.002 10.746 24.002 24.002 0 6.8-2.828 12.939-7.371 17.306l-63.852 63.852h109.969l0.031-168c0.001-13.254 10.746-23.999 24-24h384.063c39.473 0 72 32.527 72 72v720c0 39.473-32.527 72-72 72zM248 832h528c13.711 0 24-10.289 24-24v-720c0-13.711-10.289-24-24-24h-360.062l-0.031 168c-0.001 13.254-10.746 23.999-24 24h-167.906v552c0 13.711 10.289 24 24 24z" />
<glyph unicode="&#xe904;" glyph-name="ui" d="M512 880c-238.303 0-432-193.697-432-432s193.697-432 432-432 432 193.697 432 432-193.697 432-432 432zM512 832c97.526 0 186.394-36.281 254.062-96l-136.562-136.562c-32.531 25.314-73.246 40.562-117.5 40.562s-84.969-15.248-117.5-40.562l-136.562 136.562c67.668 59.719 156.536 96 254.062 96zM224 702.062l136.562-136.562c-25.314-32.531-40.562-73.246-40.562-117.5s15.248-84.969 40.562-117.5l-136.562-136.562c-59.719 67.668-96 156.536-96 254.062s36.281 186.394 96 254.062zM800 702.062c59.719-67.668 96-156.536 96-254.062s-36.281-186.394-96-254.062l-136.562 136.562c25.314 32.531 40.562 73.246 40.562 117.5s-15.248 84.969-40.562 117.5l136.562 136.562zM512 592c79.813 0 144-64.187 144-144s-64.187-144-144-144-144 64.187-144 144 64.187 144 144 144zM394.5 296.562c32.531-25.314 73.246-40.562 117.5-40.562s84.969 15.248 117.5 40.562l136.562-136.562c-67.668-59.719-156.536-96-254.062-96s-186.394 36.281-254.062 96l136.562 136.562z" />
<glyph unicode="&#xe905;" glyph-name="love" d="M346.375 815.438c-22.713 1.554-45.829-0.269-68.844-6.219-0.005 0-0.010 0-0.016 0s-0.011 0-0.016 0h0.001c-91.481-23.653-163.572-92.902-188.375-182.188-24.793-89.313 1.864-184.884 69.219-249.875l175.906-169.781c4.313-4.167 10.195-6.735 16.676-6.735 13.262 0 24.012 10.751 24.012 24.012 0 6.785-2.814 12.912-7.338 17.279l-0.007 0.007-175.906 169.75c-55.055 53.122-76.389 130.178-56.312 202.5 20.088 72.315 78.699 129.015 154.125 148.531 0.013 0.003 0.018 0.028 0.031 0.031 0.005 0 0.010 0 0.016 0s0.011 0 0.016 0h-0.001c70.537 18.236 149.577-15.362 206.25-67.125 4.252-3.894 9.941-6.28 16.188-6.28s11.935 2.386 16.206 6.296l-0.018-0.016c56.673 51.763 135.713 85.361 206.25 67.125 0.009 0 0.020 0 0.031 0s0.022 0 0.033 0h-0.002c75.432-19.514 134.036-76.244 154.125-148.562 20.076-72.322-1.258-149.378-56.312-202.5l-303.719-293.125c-9.487-9.156-23.701-9.156-33.188 0l-70.156 67.719c-4.331 4.272-10.283 6.91-16.851 6.91-13.256 0-24.002-10.746-24.002-24.002 0-6.863 2.881-13.054 7.499-17.428l0.011-0.010 70.156-67.719c27.675-26.71 72.2-26.71 99.875 0l303.719 293.125c67.355 64.991 94.011 160.562 69.219 249.875-24.803 89.285-96.894 158.535-188.375 182.188-0.005 0-0.010 0-0.016 0s-0.011 0-0.016 0h0.001c-85.13 22.009-170.354-13.432-234.469-65.906-46.782 38.288-104.323 67.932-165.625 72.125zM746.469 809.219c-1.787 0.476-3.838 0.75-5.953 0.75-0.016 0-0.033 0-0.049 0h0.003zM277.531 809.219l6 0.75c-0.014 0-0.030 0-0.047 0-2.115 0-4.167-0.274-6.121-0.787l0.167 0.037z" />
<glyph unicode="&#xe906;" glyph-name="share" d="M784 864c-22.458 0-43.866-5.199-62.875-14.438-8.44-3.843-14.202-12.204-14.202-21.91 0-13.256 10.746-24.002 24.002-24.002 4.084 0 7.93 1.020 11.297 2.819l-0.129-0.063c12.65 6.148 26.8 9.594 41.906 9.594 53.304 0 96-42.696 96-96s-42.696-96-96-96-96 42.696-96 96c0 14.907 3.348 28.884 9.344 41.406 1.677 3.192 2.662 6.974 2.662 10.986 0 13.256-10.746 24.002-24.002 24.002-9.733 0-18.112-5.793-21.879-14.118l-0.061-0.151c-9.010-18.819-14.063-39.964-14.063-62.125 0-3.53 0.279-7.001 0.531-10.469l-292.938-166.281c-26.425 29.796-64.846 48.75-107.594 48.75-79.245 0-144-64.755-144-144s64.755-144 144-144 144 64.755 144 144c0 19.296-3.89 37.71-10.844 54.562l279.531 158.719c22.578-50.134 72.975-85.281 131.312-85.281 79.245 0 144 64.755 144 144s-64.755 144-144 144zM240 544c53.304 0 96-42.696 96-96s-42.696-96-96-96-96 42.696-96 96 42.696 96 96 96zM416.562 365.625c-0.217 0.007-0.473 0.011-0.73 0.011-13.256 0-24.002-10.746-24.002-24.002 0-9.019 4.974-16.876 12.329-20.977l0.122-0.062 152.156-86.375c-7.947-17.833-12.438-37.51-12.438-58.219 0-79.245 64.755-144 144-144s144 64.755 144 144-64.755 144-144 144c-41.3 0-78.562-17.689-104.875-45.75l-155.125 88.062c-3.276 1.963-7.201 3.176-11.399 3.312l-0.038 0.001zM688 272c53.304 0 96-42.696 96-96s-42.696-96-96-96-96 42.696-96 96 42.696 96 96 96z" />
<glyph unicode="&#xe907;" glyph-name="list" d="M423.656 192c-0.101 0.002-0.22 0.002-0.339 0.002-13.256 0-24.002-10.746-24.002-24.002s10.746-24.002 24.002-24.002c0.119 0 0.238 0.001 0.357 0.003h335.982c0.101-0.002 0.22-0.002 0.339-0.002 13.256 0 24.002 10.746 24.002 24.002s-10.746 24.002-24.002 24.002c-0.119 0-0.238-0.001-0.357-0.003h0.018zM423.656 480c-0.101 0.002-0.22 0.002-0.339 0.002-13.256 0-24.002-10.746-24.002-24.002s10.746-24.002 24.002-24.002c0.119 0 0.238 0.001 0.357 0.003h463.982c0.101-0.002 0.22-0.002 0.339-0.002 13.256 0 24.002 10.746 24.002 24.002s-10.746 24.002-24.002 24.002c-0.119 0-0.238-0.001-0.357-0.003h0.018zM208 832c-52.735 0-96-43.265-96-96 0-6.255 0.598-12.489 1.813-18.625 2.252-11.108 11.937-19.351 23.548-19.351 13.256 0 24.003 10.746 24.003 24.003 0 1.649-0.166 3.26-0.483 4.816l0.026-0.154c-0.607 3.068-0.906 6.185-0.906 9.313 0 26.794 21.206 48 48 48s48-21.206 48-48-21.206-48-48-48c-3.133 0-6.271 0.297-9.344 0.906-1.648 0.404-3.54 0.635-5.486 0.635-13.256 0-24.002-10.746-24.002-24.002 0-11.905 8.667-21.785 20.036-23.676l0.14-0.019c6.146-1.218 12.391-1.844 18.656-1.844 52.735 0 96 43.265 96 96s-43.265 96-96 96zM208 256c-52.735 0-96-43.265-96-96s43.265-96 96-96c52.735 0 96 43.265 96 96s-43.265 96-96 96zM208 208c26.794 0 48-21.206 48-48s-21.206-48-48-48-48 21.206-48 48 21.206 48 48 48zM208 544c-52.735 0-96-43.265-96-96s43.265-96 96-96c52.735 0 96 43.265 96 96s-43.265 96-96 96zM208 496c26.794 0 48-21.206 48-48s-21.206-48-48-48-48 21.206-48 48 21.206 48 48 48zM423.656 768c-0.101 0.002-0.22 0.002-0.339 0.002-13.256 0-24.002-10.746-24.002-24.002s10.746-24.002 24.002-24.002c0.119 0 0.238 0.001 0.357 0.003h463.982c0.101-0.002 0.22-0.002 0.339-0.002 13.256 0 24.002 10.746 24.002 24.002s-10.746 24.002-24.002 24.002c-0.119 0-0.238-0.001-0.357-0.003h0.018zM839.656 192c-0.101 0.002-0.22 0.002-0.339 0.002-13.256 0-24.002-10.746-24.002-24.002s10.746-24.002 24.002-24.002c0.119 0 0.238 0.001 0.357 0.003h47.982c0.101-0.002 0.22-0.002 0.339-0.002 13.256 0 24.002 10.746 24.002 24.002s-10.746 24.002-24.002 24.002c-0.119 0-0.238-0.001-0.357-0.003h0.018z" />
<glyph unicode="&#xe908;" glyph-name="search" d="M400 752c-54.301 0-103.617-22.684-138.531-59.062-4.158-4.31-6.72-10.184-6.72-16.657 0-13.256 10.746-24.002 24.002-24.002 6.814 0 12.966 2.84 17.335 7.4l0.008 0.009c26.233 27.333 62.925 44.312 103.906 44.312 0.101-0.002 0.22-0.002 0.339-0.002 13.256 0 24.002 10.746 24.002 24.002s-10.746 24.002-24.002 24.002c-0.119 0-0.238-0.001-0.357-0.003h0.018zM237.781 630.812c-10.665-0.389-19.525-7.679-22.272-17.519l-0.040-0.169c-4.859-16.898-7.469-34.732-7.469-53.125-0.002-0.101-0.002-0.22-0.002-0.339 0-13.256 10.746-24.002 24.002-24.002s24.002 10.746 24.002 24.002c0 0.119-0.001 0.238-0.003 0.357v-0.018c0 13.881 1.958 27.231 5.594 39.875 0.652 2.080 1.028 4.471 1.028 6.95 0 13.256-10.746 24.002-24.002 24.002-0.295 0-0.588-0.005-0.881-0.016l0.042 0.001zM400 848c-158.774 0-288-129.226-288-288s129.226-288 288-288c70.765 0 135.549 25.766 185.75 68.281l49.469-49.469c-15.359-30.076-11.512-67.676 13.531-92.719l135.75-135.75c31.045-31.045 82.111-31.045 113.156 0s31.045 82.080 0 113.125l-135.781 135.781c-4.375 4.551-10.514 7.379-17.314 7.379-13.256 0-24.002-10.746-24.002-24.002 0-6.8 2.827-12.939 7.371-17.306l135.789-135.789c12.829-12.829 12.829-32.421 0-45.25s-32.421-12.829-45.25 0l-135.781 135.75c-12.829 12.829-12.829 32.452 0 45.281 4.341 4.343 7.027 10.342 7.027 16.969s-2.685 12.626-7.027 16.969l-63 63c42.523 50.203 68.312 114.978 68.312 185.75 0 158.774-129.226 288-288 288zM400 800c132.833 0 240-107.167 240-240s-107.167-240-240-240c-132.833 0-240 107.167-240 240s107.167 240 240 240z" />
<glyph unicode="&#xe909;" horiz-adv-x="4096" d="M2048 960c-282.4 0-512-229.6-512-512s229.6-512 512-512 512 229.6 512 512-229.6 512-512 512zM2048 106.4c-188 0-341.6 152.8-341.6 341.6s152.8 341.6 341.6 341.6 341.6-152.8 341.6-341.6-153.6-341.6-341.6-341.6z" />
<glyph unicode="&#xe90a;" horiz-adv-x="4096" d="M3584 960c-282.4 0-512-229.6-512-512s229.6-512 512-512 512 229.6 512 512-229.6 512-512 512zM3584 106.4c-188 0-341.6 152.8-341.6 341.6s152.8 341.6 341.6 341.6 341.6-152.8 341.6-341.6-153.6-341.6-341.6-341.6z" />
<glyph unicode="&#xe90b;" horiz-adv-x="4096" d="M512 960c-282.4 0-512-229.6-512-512s229.6-512 512-512 512 229.6 512 512-229.6 512-512 512zM512 106.4c-188 0-341.6 152.8-341.6 341.6s153.6 341.6 341.6 341.6 341.6-152.8 341.6-341.6-153.6-341.6-341.6-341.6z" />
<glyph unicode="&#xe90c;" d="M404.045 242.475c-3.864 0-7.728 1.449-10.868 4.106l-109.404 93.223c-3.864 3.14-6.038 7.97-6.038 12.8 0 5.072 2.174 9.66 6.038 12.8l109.404 93.223c7.004 6.038 17.872 5.313 23.909-1.932 6.038-7.004 5.313-17.872-1.932-23.909l-94.189-80.181 94.189-80.181c7.004-6.038 7.97-16.664 1.932-23.909-3.623-4.106-8.211-6.038-13.042-6.038z" />
<glyph unicode="&#xe90d;" d="M619.955 242.475c-4.83 0-9.419 1.932-12.8 6.038-6.038 7.004-5.313 17.872 1.932 23.909l94.189 80.181-94.189 80.181c-7.004 6.038-7.97 16.664-1.932 23.909 6.038 7.004 16.664 7.97 23.909 1.932l109.404-93.223c3.864-3.14 6.038-7.97 6.038-12.8 0-5.072-2.174-9.66-6.038-12.8l-109.404-93.223c-3.381-2.898-7.245-4.106-11.109-4.106z" />
<glyph unicode="&#xe90e;" d="M473.358 172.438c-1.208 0-2.415 0.242-3.623 0.483-9.177 1.932-14.974 10.868-13.042 20.045l68.106 323.623c1.932 9.177 10.868 14.974 20.045 13.042s14.974-10.868 13.042-20.045l-68.106-323.623c-1.691-7.97-8.694-13.525-16.423-13.525z" />
<glyph unicode="&#xe90f;" d="M910.491-3.864h-796.981c-62.551 0-113.509 50.958-113.509 113.509v676.468c0 62.551 50.958 113.509 113.509 113.509h796.981c62.551 0 113.509-50.958 113.509-113.509v-676.468c0-62.551-50.958-113.509-113.509-113.509zM113.509 865.811c-43.955 0-79.698-35.743-79.698-79.698v-676.468c0-43.955 35.743-79.698 79.698-79.698h796.981c43.955 0 79.698 35.743 79.698 79.698v676.468c0 43.955-35.743 79.698-79.698 79.698h-796.981z" />
<glyph unicode="&#xe910;" d="M1007.094 628.891h-990.189c-9.419 0-16.906 7.487-16.906 16.906s7.487 16.906 16.906 16.906h990.189c9.419 0 16.906-7.487 16.906-16.906s-7.487-16.906-16.906-16.906z" />
<glyph unicode="&#xe911;" d="M288.845 709.796c-29.464 0-53.615 23.909-53.615 53.615 0 29.464 23.909 53.615 53.615 53.615 29.464 0 53.615-23.909 53.615-53.615s-24.151-53.615-53.615-53.615zM288.845 782.974c-10.868 0-19.804-8.936-19.804-19.804s8.936-19.804 19.804-19.804c10.868 0 19.804 8.936 19.804 19.804s-8.936 19.804-19.804 19.804z" />
<glyph unicode="&#xe912;" d="M124.377 710.279c-29.464 0-53.615 23.909-53.615 53.615s23.909 53.615 53.615 53.615 53.615-24.151 53.615-53.615-23.909-53.615-53.615-53.615zM124.377 783.457c-10.868 0-19.804-8.936-19.804-19.804s8.936-19.804 19.804-19.804c10.868 0 19.804 8.936 19.804 19.804 0 11.109-8.936 19.804-19.804 19.804z" />
<glyph unicode="&#xe913;" d="M453.313 709.313c-29.464 0-53.374 23.909-53.374 53.615 0 29.464 23.909 53.374 53.374 53.374s53.615-23.909 53.615-53.374c-0.242-29.706-24.151-53.615-53.615-53.615zM453.313 782.491c-10.868 0-19.562-8.936-19.562-19.804s8.936-19.804 19.562-19.804c10.868 0 19.804 8.936 19.804 19.804s-8.936 19.804-19.804 19.804z" />
<glyph unicode="&#xe914;" d="M274 315.6c9.6 5.6 12.8 17.8 7.4 27.4-5.6 9.6-17.8 12.8-27.4 7.4-9.6-5.6-12.8-17.8-7.4-27.4 5.6-9.8 17.8-13 27.4-7.4z" />
<glyph unicode="&#xe915;" d="M192 177.4l100.8-174.4c21.8-37.6 70.6-51.6 109.2-29.2 38.2 22.2 51.4 71 29.2 109.2l-60 104 52 30c9.6 5.6 12.8 17.8 7.4 27.4l-26 45c3.2 0.6 23.4 4.6 383 75.2 44.4 2.4 71 51 48.6 89.8l-66.4 115.2 42.4 64.4c4.2 6.4 4.4 14.4 0.6 21l-40 69.2c-3.8 6.6-11 10.4-18.6 10l-77-4.6-73.8 127.8c-10.6 18.6-29.8 29.8-51.2 30-0.2 0-0.6 0-0.8 0-20.6 0-39.4-10.2-50.6-27.6l-261-333-169.8-98c-66.8-38.6-90-124.2-51.2-191.2 35.4-61.4 109.8-85.4 173.2-60.2zM396.6 63c11-19.2 4.6-43.6-14.6-54.6-19.2-11.2-43.8-4.2-54.6 14.6l-100 173.2 69.2 40c115.8-200.4 98.2-170 100-173.2zM351.2 221.6l-20 34.6 34.6 20 20-34.6-34.6-20zM744.4 693.4l27.6-47.8-24.6-37.4-47.6 82.6 44.6 2.6zM534.6 837.6c5.4 8.8 13.8 9.6 17.4 9.6 3.4 0 12-1.2 17-10l232.6-403c7.6-13.2-1.6-29.6-16.8-30-2.8 0-4-0.6-11-1.8l-246 426.2c5 6.8 5.8 7.4 6.8 9zM501.2 794.8l231.2-400.4-349-68.4-106 183.8 223.8 285zM53.4 257.4c-8.8 15.2-13.4 32.4-13.4 49.8 0 35.6 19.2 68.8 50 86.8l155.8 90 100-173.2-155.8-90c-47.8-27.4-109-11-136.6 36.6z" />
<glyph unicode="&#xe916;" d="M212 302.8c-5.6 9.6-17.8 12.8-27.4 7.4l-34.6-20c-9.6-5.6-21.8-2.2-27.4 7.4s-17.8 12.8-27.4 7.4-12.8-17.8-7.4-27.4c16.4-28.6 53.2-38.6 82-22l34.6 20c9.8 5.4 13 17.6 7.6 27.2z" />
<glyph unicode="&#xe917;" d="M994.2 844.6l-111.4-62c-9.6-5.4-13.2-17.6-7.8-27.2s17.6-13.2 27.2-7.8l111.4 62c9.6 5.4 13.2 17.6 7.8 27.2-5.2 9.6-17.4 13-27.2 7.8z" />
<glyph unicode="&#xe918;" d="M982.6 637.4l-77.2 20.6c-10.6 2.8-21.6-3.4-24.4-14.2s3.4-21.6 14.2-24.4l77.2-20.8c10.8-2.8 21.6 3.6 24.4 14.2 2.8 10.8-3.6 21.8-14.2 24.6z" />
<glyph unicode="&#xe919;" d="M788.4 917.2l-20.8-77.2c-2.8-10.6 3.4-21.6 14.2-24.4 10.6-2.8 21.6 3.4 24.4 14.2l20.8 77.2c2.8 10.6-3.4 21.6-14.2 24.4-10.6 2.8-21.6-3.6-24.4-14.2z" />
<glyph unicode="&#xe91a;" d="M844.8 960h-170.8c-47 0-85.4-38.2-85.4-85.4v-682.6c0-2 0.4-4 1.2-6 0.2-0.6 0.4-1 0.8-1.6 0.2-0.6 0.4-1.2 0.8-1.6l153.6-239c3.2-4.8 8.6-7.8 14.4-7.8s11.2 3 14.4 7.8l153.6 239c0.4 0.6 0.4 1.2 0.8 1.6 0.2 0.6 0.6 1 0.8 1.6 0.8 1.8 1.2 3.8 1.2 5.8v682.8c-0.2 47.2-38.4 85.4-85.4 85.4zM622.8 874.6c0 28.2 23 51.2 51.2 51.2h170.6c28.2 0 51.2-23 51.2-51.2v-68.4h-273v68.4zM793.4 772.2v-563h-68.2v563h68.2zM622.8 772.2h68.2v-563h-68.2v563zM759.4-15.4l-34.6 53.8h69.2l-34.6-53.8zM816 72.6h-113l-65.8 102.4h244.6l-65.8-102.4zM896 209h-68.4v563.2h68.4v-563.2z" />
<glyph unicode="&#xe91b;" d="M640 38.4h-512v819.2h409.4c9.4 0 17 7.6 17 17s-7.6 17-17 17h-426.4c-9.4 0-17-7.6-17-17v-853.4c0-9.4 7.6-17 17-17h529c9.4 0 17 7.6 17 17s-7.6 17.2-17 17.2z" />
<glyph unicode="&#xe91c;" d="M520.4 396.8c0 9.4-7.6 17-17 17h-256c-9.4 0-17-7.6-17-17s7.6-17 17-17h256c9.4 0 17 7.6 17 17z" />
<glyph unicode="&#xe91d;" d="M503.4 516.4h-256c-9.4 0-17-7.6-17-17s7.6-17 17-17h256c9.4 0 17 7.6 17 17s-7.6 17-17 17z" />
<glyph unicode="&#xe91e;" d="M503.4 618.8h-256c-9.4 0-17-7.6-17-17s7.6-17 17-17h256c9.4 0 17 7.6 17 17s-7.6 17-17 17z" />
<glyph unicode="&#xe91f;" d="M247.4 311.4c-9.4 0-17-7.6-17-17s7.6-17 17-17h136.4c9.4 0 17 7.6 17 17s-7.6 17-17 17h-136.4z" />
<glyph unicode="&#xe920;" d="M68.2 4.2c0-37.8 30.6-68.2 68.2-68.2h751c37.8 0 68.2 30.6 68.2 68.2v51.2c-0.2 3.6-1.4 7-3.2 10l-82.2 115v353c0 28.2-23 51.2-51.2 51.2h-32.2c2.4 6.8 4.6 13.4 6.8 20.2 43.2 24.4 74.8 65.2 87.8 113 25 96.8-33.8 195.8-36.2 200-3.8 6.2-11.2 9.4-18.4 7.8s-12.4-7.6-13.2-15c-3.4-34-22.8-64-108.8-108.2-25.4-11.6-45-32.8-54.6-58.8-9.6-26.2-8.4-55 3.2-80.2-13-22.8-25-45.4-35.6-67.2-7.4-15.2-14-30.4-20.4-45.6l0.2 204.8c-0.4 2.4-0.8 4.6-1.6 6.8l-46 169c-4.6 17-20 28.8-37.8 28.8s-33.4-12-38-29l-46.8-171.2c-0.4-1.4-0.6-3-0.6-4.6v-151.8l-83.2 200.6c-7.4 17.2-27.2 25.2-44.6 18.2l-142-58.6c-17.4-7.2-25.6-27.2-18.4-44.6l56-135.2c-24-4.8-41.2-25.8-41.2-50.2v-353l-82.2-115c-1.8-3-3-6.4-3.2-10l0.2-51.4zM921.6 4.2c0-18.8-15.2-34.2-34.2-34.2h-750.8c-18.8 0-34.2 15.2-34.2 34.2v34.2h249l29.2-29.2c3.2-3.2 7.6-5 12-5h239c4.6 0 8.8 1.8 12 5l29.2 29.2h249v-34.2zM512 38.4h-112.4l-21.6 21.6 9.8 29.6h248.4l9.8-29.6-21.6-21.6h-112.4zM679.8 640.6l26.8-12c17.2-7.8 34.6-15.6 51.6-23.2-3.6-10.6-7.4-21.2-11.6-31.8-1.8-4.6-3.8-9.2-5.6-13.8-27.6 8-54 19.4-78.8 33.6-2 1-3.8 2-5.6 3 7.2 14.6 14.8 29.2 23.2 44.2v0zM720.4 772c60 30.8 95.4 58.6 113.4 90.4 18.6-42.8 23.8-90.4 14.6-136.2-10.8-38.8-36.6-71.8-71.4-91.8-18.8 8.4-37.8 16.8-56.4 25.2l-35.2 15.8c-8.6 17.4-9.8 37.6-3 55.8 6.6 18.2 20.4 33 38 40.8v0zM641.6 565.8c1.4-0.8 2.8-1.4 4.4-2.2 25.8-14.6 53-26.6 81.4-35.2-24-51.2-51.4-100.8-82-148.4h-48v68.8c11.6 39.8 26.4 79 44.2 117v0zM529 379.8v170.6c0 9.4-7.6 17-17 17s-17-7.6-17-17v-170.6h-34.2v324.2c10-7.8 21.8-13 34.2-15.4v-53c0-9.4 7.6-17 17-17s17 7.6 17 17v53c12.6 2.4 24.2 7.6 34.4 15.4l-0.2-253.2c0-0.2 0-0.4 0-0.6v-70.6h-34.2zM562.4 756.2c-8.4-20.6-28-34.4-50.2-35.2-22.2 0.8-41.8 14.6-50.2 35.2l15.8 58.2c21.6-10.8 47.2-10.8 68.8 0l15.8-58.2zM517.2 922l20.2-74.2c-7.8-4.4-16.4-6.8-25.4-7.2-8.8 0.4-17.6 3-25.4 7.2l20.4 74.2c0.8 2 2.8 3.4 5 3.4 2.4 0 4.4-1.4 5.2-3.4zM312.4 790.6l13-31.6-63.2-26.2c-5.8-2.2-10-7.4-10.8-13.6s1.6-12.2 6.6-16c5-3.8 11.6-4.4 17.2-2l63.2 26.2 13-31.6-31.6-13c-7.6-3.2-11.8-11.2-10.2-19.2s8.6-13.8 16.8-13.8c2.2 0 4.4 0.4 6.6 1.2l31.6 13 13-31.6-63.2-26.2c-7.6-3.2-11.8-11.2-10.2-19.2s8.6-13.8 16.8-13.8c2.2 0 4.4 0.4 6.6 1.2l63.2 26.2 19.8-47.8 16.2-36.8v-137.2h-110.4l-146.2 353.2 142.2 58.6zM187.8 533.4c0 9.4 7.6 17 17 17h3.8l70.8-170.6h-6.2c-9.4 0-17-7.6-17-17s7.6-17 17-17h477.8c9.4 0 17 7.6 17 17s-7.6 17-17 17h-65.4c34.2 54.4 63.8 111.4 88.4 170.6h45.4c9.4 0 17-7.6 17-17v-341.4h-648.6v341.4zM179.4 157.8h665l61-85.4h-227.4l-13.2 39.6c-2.4 7-8.8 11.6-16.2 11.6h-273.2c-7.4 0-13.8-4.8-16.2-11.6l-13.2-39.6h-227.6l61 85.4z" />
<glyph unicode="&#xe921;" d="M767.4 665.8c3.2 0 6.4 1 9 2.6 30 19.4 50.6 50.8 56.6 86 1 9.4-5.8 17.8-15.2 18.6-9.4 1-17.8-5.8-18.6-15.2-5-24.8-19.8-46.6-41-60.6-6.4-4-9.4-11.8-7.2-19.2 2-7.2 8.8-12.2 16.4-12.2v0z" />
<glyph unicode="&#xe922;" d="M709.8 832.2c-32.4 37.8-79.8 59.6-129.6 59.6-9.4 0-17-7.6-17-17s7.6-17 17-17c39.8 0 77.6-17.6 103.6-47.8 3.2-3.8 8-6 13-6 4 0 8 1.6 11 4.2 3.4 3 5.6 7.2 6 11.6s-1 9-4 12.4z" />
<glyph unicode="&#xe923;" d="M819.2 721c-0.2 115.4-82.8 214-196.4 234.6s-225.4-42.8-266.2-150.8c-54.4-6-102.6-37.6-129.4-85.4-7.4 1-15 1.4-22.6 1.6-113 0-204.6-91.6-204.6-204.8s91.6-204.8 204.8-204.8h54.2c39.2-97.6 131-164 235.8-170.6v-34.2h-256c-28.2 0-51.2-23-51.2-51.2v-68.2c0-28.2 23-51.2 51.2-51.2h546.2c28.2 0 51.2 23 51.2 51.2v68.2c0 28.2-23 51.2-51.2 51.2h-256v34.2c105 6.8 196.6 73.2 235.8 170.6h54.2c113.2 0 204.8 91.6 204.8 204.8s-91.4 204.8-204.6 204.8zM802.2 55.4v-68.2c0-9.4-7.6-17-17-17h-546.2c-9.4 0-17 7.6-17 17v68.2c0 9.4 7.6 17 17 17h546.2c9.2 0.2 17-7.6 17-17zM714.2 287.4c-33.6 33.8-76.2 57-122.8 66.8 48.2 34.4 68.8 96.2 50.6 152.8s-70.6 94.8-130 94.8-112-38.4-130-94.8 2.4-118.2 50.6-152.8c-46.6-9.8-89.4-33-122.8-66.8-24 37.8-36.8 81.6-36.6 126.4 0 132 107 239 239 239s239-107 239-239c-0.2-44.8-13-88.6-37-126.4v0zM409.6 465c0 56.6 45.8 102.4 102.4 102.4s102.4-45.8 102.4-102.4-45.8-102.4-102.4-102.4c-56.6 0-102.4 46-102.4 102.4v0zM512 175c-70 0-136.6 30.8-181.8 84.4 30.8 34.2 85.4 69.2 181.8 69.2s151-35.4 181.8-69.2c-45.2-53.6-111.8-84.4-181.8-84.4zM819.2 345.6h-43.2c6 22.2 9 45.2 9 68.2 0 150.8-122.2 273-273 273s-273-122.2-273-273c0-23 3-46 9-68.2h-43.2c-94.2 0-170.6 76.4-170.6 170.6s76.4 170.6 170.6 170.6c33.6 0.2 66.6-9.8 94.6-28.6 5.2-3.4 11.6-3.8 17.2-1.2 5.6 2.8 9.2 8.2 9.6 14.4s-2.6 12-7.6 15.4c-17.2 11.4-35.8 20.2-55.6 26.2 24.4 35.6 64.4 57.6 107.6 59.2h3.8c30 0.4 59.2-9.2 83.2-27.4 7.6-5.6 18.2-4.2 23.8 3.4s4.2 18.2-3.4 23.8c-24.6 18.4-53.6 30-84.2 33.2 39.8 87.8 135.4 136 229.6 115.6s161.6-103.6 161.6-200v-3c-28.4-4.6-55.6-15.2-79.6-31.2-7.8-5.2-9.8-15.8-4.6-23.8s15.8-9.8 23.8-4.6c28 18.6 61 28.6 94.6 28.4 94.2 0 170.6-76.4 170.6-170.6s-76.4-170.4-170.6-170.4v0z" />
<glyph unicode="&#xe924;" d="M290.2 4.2h17c9.4 0 17 7.6 17 17s-7.6 17-17 17h-17c-9.4 0-17-7.6-17-17-0.2-9.2 7.6-17 17-17z" />
<glyph unicode="&#xe925;" d="M375.4 4.2h17c9.4 0 17 7.6 17 17s-7.6 17-17 17h-17c-9.4 0-17-7.6-17-17 0-9.2 7.6-17 17-17z" />
<glyph unicode="&#xe926;" d="M460.8 4.2h17c9.4 0 17 7.6 17 17s-7.6 17-17 17h-17c-9.4 0-17-7.6-17-17 0-9.2 7.6-17 17-17z" />
<glyph unicode="&#xe927;" d="M546.2 4.2h17c9.4 0 17 7.6 17 17s-7.6 17-17 17h-17c-9.4 0-17-7.6-17-17-0.2-9.2 7.6-17 17-17z" />
<glyph unicode="&#xe928;" d="M631.4 4.2h17c9.4 0 17 7.6 17 17s-7.6 17-17 17h-17c-9.4 0-17-7.6-17-17 0-9.2 7.6-17 17-17z" />
<glyph unicode="&#xe929;" d="M716.8 4.2h17c9.4 0 17 7.6 17 17s-7.6 17-17 17h-17c-9.4 0-17-7.6-17-17 0-9.2 7.6-17 17-17z" />
<glyph unicode="&#xe92a;" d="M684 960c-58.6 0-116.4-13.8-167.2-40.2-9.8-5-13.6-17.2-8.6-27s17.2-13.6 27-8.6c45 23.4 96.6 35.8 148.8 35.8 165.4 0 300-121.6 300-271 0-56.8-19.2-111.2-55.6-157.2-2.8-3.6-4.4-7.8-4.4-12.4v-88.8l-37.4 37.4c-6.8 6.8-17.2 7.8-25.2 2.6-51.8-34.4-113-52.4-177.4-52.4-11.2 0-22.2 0.6-33 1.6 0 0 0 0-0.2 0-149.8 15-266.8 130-266.8 269.2 0 42.2 10.4 82.6 31 120.2 5.4 9.6 1.8 21.8-7.8 27.2s-21.8 1.8-27.2-7.8c-23.8-43.6-36-90.4-36-139.4 0-18.8 1.8-37.2 5.4-55.2-3.2 0-6.2 0.2-9.4 0.2-187.4-0.2-340-139.6-340-311 0-68.2 24.8-135 70-189v-138.2c0-8 4.8-15.4 12.4-18.4 2.4-1 5-1.6 7.6-1.6 5.2 0 10.4 2 14.2 5.8l70 70c50.6-25.8 107.6-39.6 166-39.6 187.4 0 340 139.4 340 311 0 18.6-1.8 37-5.4 55.2 3.2 0 6.2-0.2 9.4-0.2 66.6 0 130.4 17.4 185.6 50.4l60.2-60.2c3.8-3.8 9-5.8 14.2-5.8 2.6 0 5.2 0.4 7.6 1.6 7.4 3.2 12.4 10.4 12.4 18.4v130.2c39.2 52 60 112.8 60 176.4-0.2 171.4-152.8 310.8-340.2 310.8zM640 283.2c0-149.4-134.6-271-300-271-56.6 0-111.8 14.4-159.6 41.6-7.8 4.4-17.6 3.2-24-3.2l-46.4-46.4v97.4c0 4.8-1.8 9.6-5 13.2-42.6 48.4-65 106.6-65 168.4 0 149.4 134.6 270.8 300 270.8 6.8 0 13.6-0.2 20.4-0.6 39.2-110.4 144.2-194 272.4-211.8 4.8-19 7.2-38.6 7.2-58.4z" />
<glyph unicode="&#xe92b;" d="M340 398.6c-8 0-15.2-4.8-18.4-12.2l-81-192c-4.2-10.2 0.4-22 10.6-26.2s22 0.4 26.2 10.6l12.2 28.8h100.8l12.2-28.8c3.2-7.6 10.6-12.2 18.4-12.2 2.6 0 5.2 0.6 7.8 1.6 10.2 4.2 15 16 10.6 26.2l-81 192c-3 7.4-10.4 12.2-18.4 12.2zM306.4 247.8l33.6 79.4 33.6-79.4h-67.2z" />
<glyph unicode="&#xe92c;" d="M684 806.2c-11 0-20-9-20-20v-52h-114c-11 0-20-9-20-20s9-20 20-20h65.8c0.2-47.6 15.6-92 42-128.4-27.2-26.6-63-44.8-103.2-49.8-11-1.4-18.8-11.4-17.4-22.4 1.2-10.2 9.8-17.6 19.8-17.6 0.8 0 1.6 0 2.6 0.2 48.4 6 91.4 27.6 124.6 59.2 33.2-31.6 76.2-53.2 124.6-59.2 0.8-0.2 1.6-0.2 2.6-0.2 10 0 18.6 7.4 19.8 17.6 1.4 11-6.4 21-17.4 22.4-40.2 5-75.8 23.2-103.2 49.8 26.4 36.4 41.8 80.8 42 128.4h65.4c11 0 20 9 20 20s-9 20-20 20h-114v52c0 11-9 20-20 20zM684 598.2c-17.8 28-28.2 61-28.2 96h56.4c0-35-10.4-68-28.2-96z" />
<glyph unicode="&#xe92d;" d="M452.6 830c5.2 0 10.4 2.2 14.2 5.8 3.8 3.8 5.8 8.8 5.8 14.2s-2.2 10.4-5.8 14.2c-3.8 3.8-8.8 5.8-14.2 5.8-5.2 0-10.4-2.2-14.2-5.8s-5.8-8.8-5.8-14.2 2.2-10.4 5.8-14.2c3.8-3.6 9-5.8 14.2-5.8z" />
<glyph unicode="&#xe92e;" d="M944 302.4v259.2c43.4 8.6 71.6 50.6 63 94s-50.6 71.6-94 63c-16.8-3.4-32-11.8-43.4-24.4l-278.6 175.2c0.6 3.6 1 7 1 10.6 0 44.2-35.8 80-80 80s-80-35.8-80-80c0.2-3.6 0.4-7 1-10.6l-278.4-175.2c-30 32.4-80.6 34.4-112.8 4.4s-34.4-80.6-4.4-113c11.4-12.2 26.2-20.6 42.6-24v-259.2c-43.4-8.4-71.6-50.6-63.2-93.8s50.6-71.6 93.8-63.2c18.4 3.6 35 13.6 47 28.4l275-150c-0.2-2.6-0.8-5-0.8-7.6 0-44.2 35.8-80 80-80s80 35.8 80 80c0 2.6-0.6 5-0.8 7.6l275 150c27.8-34.2 78.2-39.2 112.4-11.4s39.2 78.2 11.4 112.4c-11.4 14.2-27.8 24-45.8 27.6zM928 688c26.6 0 48-21.4 48-48s-21.4-48-48-48-48 21.4-48 48 21.4 48 48 48zM512 928c26.6 0 48-21.4 48-48s-21.4-48-48-48c-26.6 0-48 21.4-48 48s21.4 48 48 48zM48 640c0 26.6 21.4 48 48 48s48-21.4 48-48-21.4-48-48-48-48 21.4-48 48zM96 176c-26.6 0-48 21.4-48 48s21.4 48 48 48 48-21.4 48-48-21.4-48-48-48zM512-32c-26.6 0-48 21.4-48 48s21.4 48 48 48c26.6 0 48-21.4 48-48s-21.4-48-48-48zM581.6 54.8c-21 38.4-69.2 52.6-107.6 31.4-13.2-7.2-24.2-18.2-31.4-31.4l-270 147.2c2.2 7.2 3.4 14.6 3.4 22 0 38-26.8 70.8-64 78.4v259.2c37.2 7.6 64 40.4 64 78.4 0 9.2-1.8 18.2-5 26.8l273 171.6c22.6-37.6 71.4-49.6 109-27 11 6.6 20.4 16 27 27l273-171.6c-3.2-8.6-4.8-17.6-5-26.8 0-38 26.8-70.8 64-78.4v-259.2c-37.2-7.6-64-40.4-64-78.4 0.2-7.4 1.2-14.8 3.4-22l-269.8-147.2zM928 176c-26.6 0-48 21.4-48 48s21.4 48 48 48 48-21.4 48-48-21.4-48-48-48z" />
<glyph unicode="&#xe92f;" d="M398 463.2c-21.4 7-36.2 26.4-37 49 0 8.8-7.2 16-16 16s-16-7.2-16-16c0.8-24.8 12-48 31-64-19-16-30.2-39.2-31-64 0-8.8 7-16 15.8-16h0.2c8.8 0 16 7 16 15.8 1 22.4 15.8 42 37 49 8.4 2.8 13 11.8 10.2 20.2-1.6 4.6-5.4 8.4-10.2 10v0z" />
<glyph unicode="&#xe930;" d="M784.4 525c6 27.2 2 55.6-11.2 80-18 32.8-50.2 55.2-87.2 60.6-11.2 41.4-48.8 70.4-91.8 70.4-32.2 2.6-63.2-11.8-82.2-37.8-19 26-50.2 40.2-82.2 37.8-43-0.2-80.6-29-91.8-70.6-37-5.4-69.2-27.8-87.2-60.6-13.2-24.4-17-52.8-11.2-80-21.8-19.4-33.6-47.8-31.6-76.8-2-29.2 9.8-57.6 31.6-77-5.8-27.2-2-55.4 11.2-80 18-32.8 50.2-55.2 87.2-60.6 11.2-41.6 48.8-70.4 91.8-70.6 32.2-2.6 63.2 11.8 82.2 37.8 19-26 50.2-40.2 82.2-37.8 43 0.2 80.6 29 91.8 70.6 37 5.4 69.2 27.8 87.2 60.6 13.2 24.4 17 52.8 11.2 80 21.8 19.4 33.6 47.8 31.6 76.8 2 29.4-9.8 57.8-31.6 77.2zM429.8 192c-32.4 0.6-59.6 24.6-63.8 56.6-1.8 7.4-2.6 15-2.6 22.6-0.8 19.4 5.2 38.6 17 54.2 6 6.6 5.6 16.6-1 22.6s-16.6 5.6-22.6-1c-0.4-0.4-0.8-0.8-1.2-1.4-16.6-21.2-25.2-47.6-24.2-74.4 0-2 0.2-4 0.4-6.2-22.4 5.6-41.2 20.4-52.4 40.6-8 15-11.6 32.2-10 49.2 7.4-2.4 15-4 22.8-4.4h0.4c8.8-0.2 16.2 6.8 16.2 15.8 0.2 8.8-6.8 16.2-15.8 16.2-9.6 0.8-18.8 3.8-27 8.6-18.4 12.8-28.6 34.6-26.2 57-2.2 22.4 7.8 44.2 26.2 57 8.2 5 17.4 7.8 27 8.8 8.8 0.2 15.6 7.6 15.4 16.4s-7.4 15.8-16 15.6c-0.2 0-0.2 0-0.4 0-7.8-0.4-15.4-2-22.8-4.4-1.6 17 2 34 10 49.2 11 20.2 30 35 52.4 40.6 0-2-0.4-4-0.4-6.2-1-26.8 7.6-53.2 24.2-74.4 5.8-6.8 15.8-7.4 22.6-1.8 6.4 5.6 7.4 15.2 2.2 22-11.8 15.4-17.8 34.6-17 54.2 0 7.8 0.8 15.4 2.6 23 4.4 32 31.6 55.8 63.8 56.2 45.2 0 66.2-20.8 66.2-65.6v-111.2c-13.4 13.6-29.6 24.2-47.4 31.2-8.4 3-17.4-1.4-20.4-9.8s1.4-17.4 9.8-20.4v0c0.6-0.2 58-20.8 58-80-1.2-36-24.2-67.6-58-80-8.4-3-12.8-12-9.8-20.4s12-12.8 20.4-9.8c17.8 7 34 17.6 47.4 31.2v-111.2c0.2-45.4-20.8-66.2-66-66.2zM744.6 305.6c-11-20.2-30-35-52.4-40.6 0 2 0.4 4 0.4 6.2 1 26.8-7.6 53.2-24.2 74.4-5.4 7-15.6 8.2-22.4 2.8-7-5.4-8.2-15.6-2.8-22.4 0.2-0.2 0.4-0.4 0.4-0.6 11.8-15.4 17.8-34.6 17-54.2 0-7.8-0.8-15.4-2.6-23-4.4-32-31.6-55.8-63.8-56.2-45.2 0-66.2 20.8-66.2 65.6v111.2c13.4-13.6 29.6-24.2 47.4-31.2 8.4-3 17.4 1.4 20.4 9.8s-1.4 17.4-9.8 20.4c-0.6 0.2-58 20.8-58 80 1.2 36 24.2 67.6 58 80 8.4 3 12.8 12 9.8 20.4s-12 12.8-20.4 9.8c-17.8-7-34-17.6-47.4-31.2v111.2c0 44.8 21 65.6 66.2 65.6 32.4-0.6 59.6-24.6 63.8-56.6 1.8-7.4 2.6-15 2.6-22.6 0.8-19.4-5.2-38.6-17-54.2-5.2-7.2-3.6-17.2 3.4-22.4 6.6-4.8 15.8-3.8 21.2 2.2 16.6 21.2 25.2 47.6 24.2 74.4 0 2-0.2 4-0.4 6.2 22.4-5.6 41.2-20.4 52.4-40.6 8-15 11.6-32.2 10-49.2-7.4 2.4-15 4-22.8 4.4-8.8 0.2-16.2-6.6-16.6-15.4-0.2-8.8 6.6-16.2 15.4-16.6 9.6-0.8 18.8-3.8 27-8.6 18.4-12.8 28.6-34.6 26.2-57 2.2-22.4-7.8-44.2-26.2-57-8.2-5-17.4-7.8-27-8.8-8.8-0.2-15.8-7.4-15.8-16.2 0.2-8.8 7.4-15.8 16.2-15.8h0.4c7.8 0.4 15.4 2 22.8 4.4 2.2-16.4-1.4-33.6-9.4-48.6z" />
<glyph unicode="&#xe931;" d="M695 512c0 8.8-7 16-15.8 16h-0.2c-8.8 0-16-7-16-15.8-1-22.4-15.8-42-37-49-8.4-2.8-13-11.8-10.2-20.2 1.6-4.8 5.4-8.6 10.2-10.2 21.4-7 36.2-26.4 37-49 0-8.8 7.2-16 16-16s16 7.2 16 16v0c-0.8 24.8-12 48-31 64 19 16.2 30.2 39.4 31 64.2z" />
<glyph unicode="&#xe932;" glyph-name="chevron-right" d="M414.165 140.502l256 256c16.683 16.683 16.683 43.691 0 60.331l-256 256c-16.683 16.683-43.691 16.683-60.331 0s-16.683-43.691 0-60.331l225.835-225.835-225.835-225.835c-16.683-16.683-16.683-43.691 0-60.331s43.691-16.683 60.331 0z" />
</font>
</defs>
</svg>
